# Derived from Apache-2.0 SO-ARM100 STL; see THIRD_PARTY.md
v 0.00813117461 -0.0180669037 0.00886869369
v 0.00812585032 -0.0178151019 0.00886869369
v 0.00811697695 -0.0182878304 0.00886869369
v 0.00813117461 -0.0180669037 0.00564908151
v 0.00813117461 -0.018066217 0.00564908151
v 0.00812585032 -0.0178151019 -0.000786301259
v 0.00810632768 -0.0176257359 -0.000786301259
v 0.00810100339 -0.0175763353 0.00564908151
v 0.00810100339 -0.0175770221 0.00696497296
v 0.00809922885 -0.0175660432 0.00886869369
v 0.00810100339 -0.0184497511 0.00886869369
v 0.00810455314 -0.018416133 0.00696497296
v 0.00810632768 -0.0183989798 0.00564908151
v 0.00811520173 -0.01831253 -0.00236921325
v 0.00811520173 -0.01831253 -0.0074253105
v 0.00813117461 -0.018066217 -0.0107524997
v 0.00812585032 -0.0178157874 -0.0107524997
v 0.00809922885 -0.0175660432 -0.0107524997
v 0.00810100339 -0.0175770221 -0.000786301259
v 0.00808680504 -0.0174857689 0.00696497296
v 0.00809745431 -0.0175516358 -0.000786301259
v 0.00808148075 -0.0174583249 0.00886869369
v 0.00772297512 -0.0220106561 0.00886869369
v 0.00782591261 -0.0210439281 0.00696497296
v 0.00778154304 -0.0214631408 0.00564908151
v 0.00809745431 -0.0184840575 0.00564908151
v 0.00800516542 -0.0193526713 -0.0107524997
v 0.00811342719 -0.0183180187 -0.0107524997
v 0.00807793168 -0.0174384274 -0.0107524997
v 0.00809567909 -0.0175413436 -0.0074253105
v 0.00809213002 -0.0175180162 -0.000786301259
v 0.00808680504 -0.0174857689 0.00564908151
v 0.00808148075 -0.0174542083 0.00564908151
v 0.00809390456 -0.0175289938 -0.00466289872
v 0.00805308475 -0.0173190448 0.00886869369
v 0.00772652488 -0.0219790942 0.00564908151
v 0.00773184918 -0.0219310673 0.00564908151
v -0.00829975809 -0.0220106561 0.00886869369
v 0.00772297512 -0.0220106561 -0.00928869051
v 0.00776024518 -0.0216641713 -0.00236921325
v 0.00787738101 -0.0205588499 -0.0107524997
v 0.00805308475 -0.017318358 -0.0107524997
v 0.00807970621 -0.0174452884 -0.00466289872
v 0.00805308475 -0.017318358 0.00564908151
v 0.00806728309 -0.0173855971 -0.00236921325
v 0.00798564278 -0.0170768484 0.00886869369
v 0.00798741732 -0.0170823371 0.00696497296
v 0.00774959659 -0.0217643431 -0.000786301259
v 0.00773184918 -0.0219296951 -0.0074253105
v -0.0089990226 -0.021998305 0.00886869369
v -0.0090043469 -0.021998305 0.00696497296
v -0.00829975809 -0.0220106561 -0.0107524997
v 0.00771410107 -0.0220106561 -0.00960949907
v 0.00786850695 -0.0206384388 -0.0107524997
v 0.00776911923 -0.0215790936 -0.00966136638
v 0.00798564278 -0.0170768484 -0.0107524997
v 0.00798564278 -0.0170761629 -0.000786301259
v 0.00791110199 -0.0168744457 0.00564908151
v 0.00790400247 -0.0168572939 0.00886869369
v 0.00798564278 -0.0170761629 0.00564908151
v 0.0079288494 -0.0169190428 -0.00236921325
v -0.00906646457 -0.0219955606 0.00886869369
v -0.00902031978 -0.0219976196 -0.00466289872
v -0.0090043469 -0.021998305 -0.000786301259
v -0.00901677002 -0.0219976196 -0.0107524997
v 0.00751532562 -0.0220106561 -0.0107524997
v 0.00771055132 -0.0220106561 -0.00965560342
v 0.00782768714 -0.0209334655 -0.0107524997
v 0.00794659751 -0.0169663843 -0.0107524997
v 0.00790222794 -0.0168524905 0.00564908151
v 0.00792530033 -0.0169101242 -0.000786301259
v 0.00789157935 -0.0168264188 -0.0107524997
v 0.00789690364 -0.0168401407 0.00886869369
v -0.00908598652 -0.0219941884 0.00886869369
v -0.0090913115 -0.0219941884 0.00696497296
v -0.00908066223 -0.0219948752 0.00564908151
v -0.00906646457 -0.0219955606 0.00564908151
v -0.00909486057 -0.021993503 -0.00466289872
v -0.00908598652 -0.021993503 -0.0107524997
v 0.00753484826 -0.021964 -0.0107524997
v 0.00753484826 -0.0220106561 -0.0106814223
v 0.00769990273 -0.0220106561 -0.00978815283
v 0.00779574138 -0.021102934 -0.0107524997
v 0.00788980481 -0.0168223022 -0.000786301259
v 0.0077904164 -0.0166130385 -0.0107524997
v 0.00787028218 -0.0167790772 -0.00236921325
v 0.00784188549 -0.0167166415 0.00886869369
v 0.00785785837 -0.0167516333 0.00564908151
v -0.00915342849 -0.0219859552 0.00886869369
v -0.00910196009 -0.0219928162 -0.000786301259
v -0.00917295112 -0.0219825254 -0.0107524997
v -0.00910018487 -0.0219921308 -0.0107524997
v 0.0076058393 -0.0217821817 -0.0107524997
v 0.00758099237 -0.0220106561 -0.0105066103
v 0.00768038009 -0.0220106561 -0.0099687278
v 0.00777266899 -0.0212085947 -0.0107524997
v 0.00774959659 -0.0165368808 -0.0107524997
v 0.00778331757 -0.0165993165 -0.0074253105
v 0.0077904164 -0.0166130385 0.00886869369
v 0.00779929045 -0.0166308771 0.00564908151
v 0.00785253407 -0.0167399689 0.00564908151
v -0.00917295112 -0.0219832108 0.00886869369
v -0.00915342849 -0.0219859552 0.00564908151
v -0.00917295112 -0.0219832108 -0.000786301259
v -0.0092581405 -0.021964 -0.0107524997
v 0.00766263268 -0.0216127132 -0.0107524997
v 0.00762003764 -0.0220106561 -0.0103279565
v 0.00758809188 -0.0220106561 -0.0104758743
v 0.00765375862 -0.0220106561 -0.0101493028
v 0.00773539825 -0.0213615968 -0.0107524997
v 0.00775847064 -0.0212724026 -0.0107524997
v 0.00774072254 -0.0165210999 -0.0107524997
v 0.00775314635 -0.0165423696 -0.00236921325
v 0.00777976782 -0.0165924555 -0.00466289872
v 0.00776911923 -0.016572558 0.00564908151
v 0.00775669611 -0.0165492306 0.00696497296
v 0.0077620204 -0.0165602082 0.00886869369
v -0.00925104167 -0.0219660576 0.00886869369
v -0.00924571738 -0.0219674312 0.00564908151
v -0.00926878909 -0.0219612556 -0.0074253105
v -0.00934155535 -0.0219379283 -0.0107524997
v 0.0076928039 -0.021514599 -0.0107524997
v 0.00771410107 -0.0214425579 -0.0107524997
v 0.00765730838 -0.0163838787 -0.0107524997
v 0.0076750558 -0.0164120094 0.00886869369
v -0.00934155535 -0.0219372415 0.00886869369
v -0.00932913222 -0.0219420449 0.00564908151
v -0.0092634648 -0.0219626278 0.00564908151
v -0.00935575369 -0.0219324395 -0.0074253105
v -0.00942142043 -0.0219043087 -0.0107524997
v -0.00934155535 -0.0219379283 0.00564908151
v 0.00757211832 -0.0162569483 -0.0107524997
v 0.00762891169 -0.0163406537 -0.00236921325
v 0.0076058393 -0.016305662 0.00564908151
v 0.00757921783 -0.0162686127 0.00886869369
v -0.00941432161 -0.0219077399 0.00886869369
v -0.00935220393 -0.0219338117 0.00564908151
v -0.00935575369 -0.0219324395 -0.000786301259
v -0.00940367302 -0.0219125419 0.00564908151
v -0.00943561878 -0.0218974477 -0.0074253105
v -0.00949951099 -0.021864515 -0.0107524997
v -0.00942851995 -0.0219015643 0.00696497296
v 0.00751710016 -0.016183535 -0.0107524997
v 0.00750822611 -0.0161704984 -0.00466289872
v 0.0075543709 -0.0162322487 -0.00466289872
v 0.00756856924 -0.0162521463 -0.000786301259
v 0.00757921783 -0.0162672405 0.00696497296
v 0.00752774875 -0.016197257 0.00886869369
v -0.00942142043 -0.0219043087 0.00886869369
v -0.00940012326 -0.0219139141 0.00696497296
v -0.00944271829 -0.0218940166 -0.000786301259
v -0.00957227724 -0.0218164867 -0.0107524997
v -0.00948531264 -0.0218720614 0.00696497296
v -0.00949951099 -0.021864515 0.00886869369
v -0.00950838504 -0.0218590262 -0.00236921325
v -0.00951903362 -0.0218521638 -0.000786301259
v -0.00956162866 -0.0218247199 0.00564908151
v 0.00747095605 -0.0161245291 -0.0107524997
v 0.00747273059 -0.0161259013 -0.0074253105
v 0.00747983011 -0.0161341359 0.00886869369
v 0.00752597421 -0.0161945126 0.00564908151
v -0.00958470037 -0.0218082535 -0.0074253105
v -0.0096450435 -0.021760912 -0.0107524997
v -0.00957227724 -0.0218171721 -0.000786301259
v -0.00957937607 -0.0218123701 -0.000786301259
v -0.00956695295 -0.0218212901 0.00886869369
v 0.00736091974 -0.0159948543 -0.0107524997
v 0.00740351409 -0.016043568 0.00564908151
v 0.00746030747 -0.0161108071 -0.000786301259
v 0.00736091974 -0.0159948543 0.00886869369
v -0.0096450435 -0.0217615987 -0.0074253105
v -0.00959179988 -0.0218034501 -0.000786301259
v -0.0096450435 -0.0217622842 -0.00236921325
v -0.00965569209 -0.0217513066 -0.0107524997
v -0.00965391687 -0.021754051 -0.0074253105
v -0.0096272954 -0.0217760061 0.00886869369
v 0.00724733367 -0.0158754717 -0.0107524997
v 0.00724910821 -0.0158768439 -0.0074253105
v 0.00733784735 -0.0159701548 -0.0074253105
v 0.00734849593 -0.0159811323 -0.000786301259
v 0.00729170324 -0.0159207556 0.00564908151
v 0.00725620704 -0.0158837049 0.00886869369
v -0.0096450435 -0.0217622842 -0.000786301259
v -0.00968941307 -0.0217218036 0.00696497296
v -0.00970893571 -0.0217019074 -0.0107524997
v -0.00970893571 -0.0217032783 -0.000786301259
v -0.00964326828 -0.0217629696 0.00886869369
v 0.007185216 -0.0158157804 -0.0107524997
v 0.00717456742 -0.0158048028 -0.0074253105
v 0.00722071152 -0.0158487132 -0.00236921325
v 0.00726685631 -0.0158946825 0.00696497296
v 0.00721006293 -0.0158384224 0.00564908151
v 0.00720296411 -0.0158315614 0.00696497296
v 0.007185216 -0.0158157804 0.00886869369
v -0.00970183619 -0.0217101406 0.00886869369
v -0.0097657284 -0.0216401572 -0.0107524997
v -0.00972490859 -0.0216861265 -0.0074253105
v -0.00971780907 -0.0216936729 -0.000786301259
v -0.00971248478 -0.021699163 0.00564908151
v 0.00712664809 -0.0157615779 -0.0107524997
v 0.00713019785 -0.0157643223 -0.000786301259
v 0.0071390719 -0.0157725555 0.00696497296
v 0.007185216 -0.015815095 0.00564908151
v 0.00714084643 -0.0157746145 0.00886869369
v -0.00976040411 -0.0216470181 0.00886869369
v -0.0097657284 -0.0216408426 -0.000786301259
v -0.00977105269 -0.0216346684 -0.000786301259
v -0.00981897202 -0.0215722327 -0.0107524997
v -0.00975685435 -0.0216511347 0.00564908151
v 0.0069953146 -0.0156511139 -0.0107524997
v 0.00711244975 -0.0157492281 -0.000786301259
v 0.0071337476 -0.0157677535 0.00696497296
v 0.0071337476 -0.0157684389 0.00886869369
v -0.00981897202 -0.0215722327 0.00886869369
v -0.00977282723 -0.021631924 0.00564908151
v -0.0097657284 -0.0216408426 0.00564908151
v -0.00984026919 -0.0215386131 -0.00236921325
v -0.00986511612 -0.0214981326 -0.0107524997
v 0.00685865614 -0.0155488844 -0.0107524997
v 0.00686930473 -0.0155557454 -0.00466289872
v 0.0069775665 -0.0156373919 -0.0074253105
v 0.0069953146 -0.0156511139 0.00886869369
v 0.00701128748 -0.0156641505 0.00886869369
v 0.00704500847 -0.0156922812 0.00564908151
v -0.00986156637 -0.0215043082 0.00886869369
v -0.00986866588 -0.0214933292 0.00564908151
v -0.00987399018 -0.0214816662 -0.0107524997
v 0.00679121418 -0.0155042873 -0.0107524997
v 0.00673087173 -0.0154638068 -0.0074253105
v 0.00676814247 -0.0154878209 -0.00236921325
v 0.00683380921 -0.0155317313 -0.00236921325
v 0.00681606111 -0.0155193815 0.00564908151
v 0.00687462902 -0.015559862 0.00886869369
v 0.00690480025 -0.015582504 0.00696497296
v 0.0069775665 -0.0156373919 -0.00236921325
v -0.00989706257 -0.0214377545 0.00886869369
v -0.00990593594 -0.0214212881 0.00564908151
v -0.00990593594 -0.0214212881 -0.0107524997
v 0.00672909719 -0.0154638068 -0.0107524997
v 0.00671312362 -0.0154535146 -0.0107524997
v 0.00666342976 -0.0154233262 -0.00236921325
v 0.00671312362 -0.0154528292 -0.000786301259
v 0.00673619602 -0.0154665512 0.00564908151
v 0.00674152031 -0.0154699824 0.00564908151
v 0.00674861983 -0.0154747844 0.00696497296
v 0.00680008823 -0.0155097761 0.00886869369
v -0.00990593594 -0.0214206027 0.00886869369
v -0.00993965692 -0.0213403271 0.00886869369
v -0.00990948569 -0.0214130549 -0.000786301259
v -0.00993965692 -0.0213403271 -0.000786301259
v -0.00993965692 -0.0213396416 -0.0107524997
v 0.00657646585 -0.0153732403 -0.0107524997
v 0.00658888897 -0.0153801013 0.00564908151
v 0.00663503376 -0.0154068599 0.00564908151
v 0.00673619602 -0.015467238 0.00886869369
v -0.00996272931 -0.021263484 0.00886869369
v -0.00996095478 -0.0212724026 0.00696497296
v -0.00994498121 -0.0213231753 -0.0107524997
v 0.00644513167 -0.015304629 -0.0107524997
v 0.00655871774 -0.0153636349 -0.0074253105
v 0.00654629462 -0.0153567739 -0.000786301259
v 0.00657646585 -0.0153732403 0.00564908151
v 0.00659421326 -0.0153835325 0.00886869369
v -0.00996450385 -0.0212573084 0.00886869369
v -0.00996627907 -0.021252505 0.00696497296
v -0.00996805361 -0.0212463308 -0.0074253105
v -0.00996982814 -0.0212394698 -0.0107524997
v 0.00634751917 -0.0152593465 -0.0107524997
v 0.0064238345 -0.0152943382 -0.0074253105
v 0.0064469069 -0.0153053158 -0.0074253105
v 0.00653209628 -0.0153492275 -0.000786301259
v 0.00645223119 -0.0153080602 0.00886869369
v 0.00657646585 -0.0153739271 0.00886869369
v -0.00998047673 -0.0211907561 0.00886869369
v -0.00996982814 -0.0212394698 -0.00236921325
v -0.00998402649 -0.0211722307 -0.0107524997
v -0.00997870219 -0.0211989893 0.00564908151
v 0.00613631991 -0.015175641 -0.0107524997
v 0.00632089702 -0.0152476821 -0.00236921325
v 0.00632977107 -0.0152511133 -0.000786301259
v 0.00634219419 -0.0152566021 -0.00466289872
v 0.00634396941 -0.0152572889 -0.000786301259
v 0.00636349205 -0.0152662075 0.00886869369
v 0.0064238345 -0.0152943382 -0.000786301259
v -0.00998402649 -0.0211722307 0.00886869369
v -0.00998580171 -0.0211639975 0.00564908151
v -0.00998580171 -0.0211633121 -0.00466289872
v -0.00998757624 -0.0211502755 -0.00466289872
v -0.00998580171 -0.0211585087 -0.0107524997
v 0.00611857181 -0.0151687801 -0.0107524997
v 0.00626055457 -0.0152236694 0.00564908151
v 0.00631557273 -0.0152456245 0.00696497296
v 0.00635106824 -0.0152607187 0.00886869369
v -0.00999467507 -0.0210933286 0.00886869369
v -0.00999290054 -0.0211091082 0.00696497296
v -0.0099964503 -0.0210796067 -0.000786301259
v -0.0099964503 -0.0210720589 -0.0107524997
v 0.0059907874 -0.0151282995 -0.0107524997
v 0.00610259893 -0.0151632913 -0.0074253105
v 0.00611857181 -0.0151687801 0.00886869369
v 0.00631202297 -0.0152442523 0.00886869369
v -0.00999999937 -0.0209979588 0.00886869369
v -0.0099964503 -0.0210775477 0.00564908151
v -0.00999999937 -0.0209986456 -0.0107524997
v -0.00999999937 -0.0209986456 0.00564908151
v 0.00600498574 -0.0151324161 -0.0074253105
v 0.00587720133 -0.0150960522 -0.0107524997
v 0.00595884164 -0.0151186941 -0.000786301259
v 0.0060085355 -0.0151324161 0.00696497296
v 0.00600676096 -0.0151324161 -0.000786301259
v 0.006077752 -0.0151550581 -0.00236921325
v 0.00610259893 -0.0151632913 -0.00236921325
v 0.0060085355 -0.0151331029 0.00886869369
v -0.00999999937 -0.0163873085 0.00886869369
v -0.00999999937 -0.0163873085 -0.0107524997
v 0.00570682257 -0.0150576306 -0.0107524997
v 0.0057085971 -0.0150576306 -0.0074253105
v 0.00580266054 -0.0150789004 -0.000786301259
v 0.00587720133 -0.0150960522 0.00886869369
v 0.00589849919 -0.015101541 0.00564908151
v -0.00997160336 -0.0163379094 0.00886869369
v -0.00995385526 -0.0163070342 0.00564908151
v -0.0098864133 -0.016190396 -0.0074253105
v -0.00919957259 -0.0150020559 -0.0107524997
v 0.00569972305 -0.0150562584 -0.0107524997
v 0.00568729993 -0.015053514 -0.00466289872
v 0.0057085971 -0.0150576306 -0.000786301259
v 0.00577248931 -0.0150720394 0.00564908151
v 0.00562518226 -0.0150425364 -0.0107524997
v 0.00572989496 -0.015062434 0.00886869369
v -0.00919957259 -0.0150020559 0.00886869369
v -0.00927766314 -0.0151365327 0.00696497296
v -0.009327357 -0.0152222972 0.00564908151
v 0.00513179339 -0.0150020559 -0.0107524997
v -0.00925459143 -0.015096739 -0.000786301259
v -0.00922442021 -0.0150445941 -0.000786301259
v 0.00562163319 -0.0150418497 -0.0074253105
v 0.00566067846 -0.015048712 0.00564908151
v 0.00571037233 -0.015058316 0.00886869369
v 0.00554354264 -0.0150308721 -0.0107524997
v 0.00514776627 -0.0150020559 0.00886869369
v 0.00527200093 -0.0150048003 -0.0107524997
v 0.00515841486 -0.0150020559 0.00696497296
v 0.00562163319 -0.0150418497 -0.00236921325
v 0.00556838957 -0.0150336165 0.00564908151
v 0.00564115583 -0.0150452808 0.00886869369
v 0.00538203724 -0.0150123467 -0.0107524997
v 0.00553466859 -0.0150294999 -0.0074253105
v 0.00527200093 -0.0150048003 0.00886869369
v 0.00535719031 -0.0150102891 -0.0074253105
v 0.00556306527 -0.0150329311 0.00564908151
v 0.00556306527 -0.0150329311 0.00886869369
v 0.00557193933 -0.0150343033 0.00886869369
v 0.00551159619 -0.0150267555 -0.00466289872
v 0.00538203724 -0.0150123467 0.00886869369
v 0.00540333441 -0.0150144057 0.00886869369
v 0.00553466859 -0.0150294999 -0.00236921325
v 0.0052932981 -0.0150061725 0.00696497296
v 0.00551159619 -0.0150267555 -0.00236921325
f 1 2 10
f 1 10 22
f 1 22 35
f 1 35 46
f 1 46 59
f 1 59 73
f 1 73 87
f 1 87 99
f 1 99 117
f 1 117 125
f 1 125 135
f 1 135 148
f 1 148 160
f 1 160 170
f 1 170 182
f 1 182 194
f 1 194 204
f 1 204 213
f 1 213 223
f 1 223 222
f 1 222 233
f 1 233 246
f 1 246 255
f 1 255 263
f 1 263 273
f 1 273 272
f 1 272 283
f 1 283 293
f 1 293 301
f 1 301 300
f 1 300 313
f 1 313 319
f 1 319 330
f 1 330 339
f 1 339 346
f 1 346 353
f 1 353 352
f 1 352 356
f 1 356 355
f 1 355 349
f 1 349 341
f 1 341 331
f 1 331 321
f 1 321 314
f 1 314 302
f 1 302 294
f 1 294 285
f 1 285 274
f 1 274 264
f 1 264 256
f 1 256 248
f 1 248 247
f 1 247 236
f 1 236 225
f 1 225 214
f 1 214 205
f 1 205 195
f 1 195 187
f 1 187 176
f 1 176 166
f 1 166 154
f 1 154 149
f 1 149 136
f 1 136 126
f 1 126 118
f 1 118 102
f 1 102 89
f 1 89 74
f 1 74 62
f 1 62 50
f 1 50 38
f 1 38 23
f 1 23 11
f 1 11 3
f 1 3 4
f 1 4 16
f 1 16 5
f 1 5 2
f 2 5 16
f 2 16 6
f 2 6 7
f 2 7 8
f 2 8 9
f 2 9 10
f 3 11 12
f 3 12 13
f 3 13 14
f 3 14 15
f 3 15 16
f 3 16 4
f 6 16 17
f 6 17 7
f 7 17 18
f 7 18 19
f 7 19 8
f 8 20 10
f 8 10 9
f 8 19 21
f 8 21 20
f 10 20 22
f 11 23 24
f 11 24 25
f 11 25 26
f 11 26 12
f 12 26 13
f 13 26 15
f 13 15 14
f 15 27 28
f 15 28 16
f 15 26 27
f 16 28 27
f 16 27 41
f 16 41 54
f 16 54 68
f 16 68 83
f 16 83 96
f 16 96 111
f 16 111 110
f 16 110 123
f 16 123 122
f 16 122 106
f 16 106 93
f 16 93 80
f 16 80 66
f 16 66 52
f 16 52 65
f 16 65 79
f 16 79 92
f 16 92 91
f 16 91 105
f 16 105 121
f 16 121 130
f 16 130 141
f 16 141 152
f 16 152 163
f 16 163 174
f 16 174 185
f 16 185 196
f 16 196 208
f 16 208 218
f 16 218 227
f 16 227 238
f 16 238 251
f 16 251 258
f 16 258 267
f 16 267 276
f 16 276 289
f 16 289 297
f 16 297 304
f 16 304 315
f 16 315 324
f 16 324 334
f 16 334 342
f 16 342 347
f 16 347 340
f 16 340 329
f 16 329 325
f 16 325 316
f 16 316 307
f 16 307 298
f 16 298 290
f 16 290 278
f 16 278 268
f 16 268 259
f 16 259 252
f 16 252 240
f 16 240 239
f 16 239 228
f 16 228 219
f 16 219 210
f 16 210 200
f 16 200 188
f 16 188 177
f 16 177 167
f 16 167 158
f 16 158 143
f 16 143 132
f 16 132 124
f 16 124 112
f 16 112 97
f 16 97 85
f 16 85 72
f 16 72 69
f 16 69 56
f 16 56 42
f 16 42 29
f 16 29 18
f 16 18 17
f 18 29 30
f 18 30 21
f 18 21 19
f 20 21 31
f 20 31 32
f 20 32 33
f 20 33 22
f 21 30 34
f 21 34 31
f 22 33 35
f 23 36 37
f 23 37 24
f 23 38 52
f 23 52 66
f 23 66 81
f 23 81 94
f 23 94 108
f 23 108 107
f 23 107 109
f 23 109 95
f 23 95 82
f 23 82 67
f 23 67 53
f 23 53 39
f 23 39 36
f 24 37 25
f 25 37 40
f 25 40 26
f 26 40 41
f 26 41 27
f 29 42 43
f 29 43 34
f 29 34 30
f 31 33 32
f 31 34 33
f 33 44 35
f 33 34 43
f 33 43 45
f 33 45 44
f 35 44 47
f 35 47 46
f 36 39 37
f 37 48 40
f 37 39 49
f 37 49 48
f 38 50 51
f 38 51 64
f 38 64 52
f 39 53 54
f 39 54 41
f 39 41 55
f 39 55 49
f 40 49 55
f 40 55 41
f 40 48 49
f 42 56 57
f 42 57 47
f 42 47 44
f 42 44 45
f 42 45 43
f 46 58 59
f 46 47 60
f 46 60 61
f 46 61 58
f 47 57 60
f 50 62 51
f 51 62 63
f 51 63 64
f 52 64 65
f 53 67 68
f 53 68 54
f 56 69 57
f 57 69 60
f 58 70 59
f 58 61 71
f 58 71 72
f 58 72 70
f 59 70 73
f 60 69 61
f 61 69 72
f 61 72 71
f 62 74 75
f 62 75 76
f 62 76 77
f 62 77 63
f 63 65 64
f 63 77 76
f 63 76 65
f 65 78 79
f 65 76 78
f 66 80 81
f 67 82 83
f 67 83 68
f 70 72 84
f 70 84 73
f 72 85 86
f 72 86 84
f 73 84 88
f 73 88 87
f 74 89 75
f 75 89 90
f 75 90 78
f 75 78 76
f 78 90 91
f 78 91 92
f 78 92 79
f 80 93 94
f 80 94 81
f 82 95 96
f 82 96 83
f 84 86 88
f 85 97 98
f 85 98 114
f 85 114 99
f 85 99 100
f 85 100 87
f 85 87 86
f 86 87 101
f 86 101 88
f 87 100 99
f 87 88 101
f 89 102 104
f 89 104 103
f 89 103 90
f 90 104 91
f 90 103 104
f 91 104 105
f 93 106 107
f 93 107 108
f 93 108 94
f 95 109 110
f 95 110 111
f 95 111 96
f 97 112 113
f 97 113 98
f 98 113 114
f 99 115 116
f 99 116 117
f 99 114 115
f 102 118 119
f 102 119 104
f 104 119 105
f 105 120 121
f 105 119 120
f 106 122 109
f 106 109 107
f 109 122 123
f 109 123 110
f 112 124 125
f 112 125 113
f 113 125 116
f 113 116 115
f 113 115 114
f 116 125 117
f 118 126 127
f 118 127 128
f 118 128 120
f 118 120 119
f 120 128 127
f 120 127 121
f 121 129 130
f 121 127 131
f 121 131 137
f 121 137 138
f 121 138 129
f 124 132 133
f 124 133 125
f 125 134 135
f 125 133 134
f 126 136 137
f 126 137 131
f 126 131 127
f 129 138 139
f 129 139 130
f 130 140 141
f 130 139 142
f 130 142 140
f 132 143 144
f 132 144 145
f 132 145 146
f 132 146 147
f 132 147 134
f 132 134 133
f 134 147 135
f 135 147 148
f 136 149 142
f 136 142 139
f 136 139 150
f 136 150 137
f 137 150 139
f 137 139 138
f 140 142 151
f 140 151 141
f 141 151 142
f 141 142 153
f 141 153 154
f 141 154 155
f 141 155 156
f 141 156 157
f 141 157 152
f 142 149 154
f 142 154 153
f 143 158 144
f 144 158 159
f 144 159 160
f 144 160 161
f 144 161 145
f 145 161 147
f 145 147 146
f 147 161 148
f 148 161 160
f 152 162 163
f 152 157 164
f 152 164 165
f 152 165 162
f 154 166 155
f 155 166 157
f 155 157 156
f 157 166 165
f 157 165 164
f 158 167 159
f 159 167 168
f 159 168 169
f 159 169 160
f 160 169 168
f 160 168 170
f 162 171 163
f 162 165 172
f 162 172 173
f 162 173 171
f 163 171 175
f 163 175 174
f 165 166 172
f 166 176 172
f 167 177 178
f 167 178 179
f 167 179 180
f 167 180 170
f 167 170 168
f 170 180 181
f 170 181 182
f 171 173 175
f 172 176 183
f 172 183 173
f 173 183 184
f 173 184 175
f 174 175 185
f 175 184 186
f 175 186 185
f 176 187 183
f 177 188 189
f 177 189 190
f 177 190 178
f 178 190 182
f 178 182 191
f 178 191 181
f 178 181 179
f 179 181 180
f 181 191 182
f 182 192 193
f 182 193 194
f 182 190 192
f 183 187 184
f 184 187 195
f 184 195 186
f 185 186 197
f 185 197 196
f 186 198 197
f 186 195 199
f 186 199 209
f 186 209 198
f 188 200 189
f 189 200 201
f 189 201 202
f 189 202 203
f 189 203 193
f 189 193 190
f 190 193 192
f 193 203 202
f 193 202 204
f 193 204 194
f 195 205 199
f 196 197 206
f 196 206 207
f 196 207 208
f 197 198 209
f 197 209 206
f 199 205 209
f 200 210 211
f 200 211 201
f 201 211 212
f 201 212 202
f 202 212 204
f 204 212 213
f 205 214 215
f 205 215 216
f 205 216 207
f 205 207 206
f 205 206 209
f 207 216 215
f 207 215 214
f 207 214 208
f 208 217 218
f 208 214 217
f 210 219 220
f 210 220 221
f 210 221 235
f 210 235 222
f 210 222 223
f 210 223 224
f 210 224 211
f 211 224 212
f 212 224 223
f 212 223 213
f 214 225 226
f 214 226 217
f 217 226 218
f 218 226 227
f 219 228 229
f 219 229 230
f 219 230 231
f 219 231 220
f 220 231 232
f 220 232 233
f 220 233 234
f 220 234 221
f 221 234 235
f 222 234 233
f 222 235 234
f 225 236 226
f 226 236 247
f 226 247 237
f 226 237 238
f 226 238 227
f 228 239 229
f 229 239 240
f 229 240 241
f 229 241 242
f 229 242 243
f 229 243 244
f 229 244 230
f 230 244 232
f 230 232 231
f 232 244 245
f 232 245 246
f 232 246 233
f 237 247 248
f 237 248 249
f 237 249 238
f 238 249 250
f 238 250 251
f 240 252 241
f 241 252 253
f 241 253 254
f 241 254 243
f 241 243 242
f 243 254 255
f 243 255 245
f 243 245 244
f 245 255 246
f 248 256 257
f 248 257 250
f 248 250 249
f 250 258 251
f 250 257 258
f 252 259 260
f 252 260 261
f 252 261 262
f 252 262 253
f 253 262 263
f 253 263 254
f 254 263 255
f 256 264 257
f 257 264 265
f 257 265 266
f 257 266 258
f 258 266 267
f 259 268 269
f 259 269 270
f 259 270 271
f 259 271 260
f 260 271 261
f 261 271 262
f 262 271 272
f 262 272 273
f 262 273 263
f 264 274 265
f 265 274 275
f 265 275 266
f 266 275 267
f 267 275 277
f 267 277 276
f 268 278 279
f 268 279 280
f 268 280 281
f 268 281 269
f 269 281 282
f 269 282 283
f 269 283 284
f 269 284 270
f 270 284 272
f 270 272 271
f 272 284 283
f 274 285 286
f 274 286 276
f 274 276 277
f 274 277 275
f 276 287 288
f 276 288 289
f 276 286 287
f 278 290 300
f 278 300 291
f 278 291 279
f 279 291 280
f 280 291 292
f 280 292 293
f 280 293 282
f 280 282 281
f 282 293 283
f 285 294 286
f 286 294 295
f 286 295 288
f 286 288 287
f 288 296 297
f 288 297 289
f 288 295 296
f 290 298 299
f 290 299 312
f 290 312 300
f 291 300 301
f 291 301 292
f 292 301 293
f 294 302 303
f 294 303 296
f 294 296 295
f 296 304 297
f 296 303 302
f 296 302 305
f 296 305 304
f 298 306 299
f 298 307 308
f 298 308 309
f 298 309 310
f 298 310 306
f 299 306 310
f 299 310 309
f 299 309 311
f 299 311 312
f 300 309 313
f 300 312 311
f 300 311 309
f 302 314 315
f 302 315 304
f 302 304 305
f 307 316 317
f 307 317 318
f 307 318 319
f 307 319 320
f 307 320 309
f 307 309 308
f 309 320 319
f 309 319 313
f 314 321 322
f 314 322 315
f 315 322 323
f 315 323 324
f 316 325 317
f 317 326 327
f 317 327 330
f 317 330 328
f 317 328 318
f 317 325 329
f 317 329 326
f 318 328 319
f 319 328 330
f 321 331 332
f 321 332 333
f 321 333 322
f 322 333 323
f 323 333 324
f 324 333 335
f 324 335 336
f 324 336 331
f 324 331 341
f 324 341 343
f 324 343 334
f 326 329 337
f 326 337 338
f 326 338 327
f 327 338 339
f 327 339 330
f 329 340 337
f 331 336 332
f 332 336 333
f 333 336 335
f 334 343 342
f 337 344 346
f 337 346 338
f 337 340 345
f 337 345 344
f 338 346 339
f 340 347 348
f 340 348 345
f 341 349 343
f 342 350 347
f 342 343 349
f 342 349 358
f 342 358 350
f 344 345 346
f 345 351 352
f 345 352 353
f 345 353 346
f 345 348 351
f 347 354 348
f 347 350 355
f 347 355 356
f 347 356 354
f 348 354 359
f 348 359 357
f 348 357 352
f 348 352 351
f 349 355 358
f 350 358 355
f 352 357 359
f 352 359 356
f 354 356 359
