# Derived from Apache-2.0 SO-ARM100 STL; see THIRD_PARTY.md
v 0.00392283676 -0.0578810078 0.00445215629
v 0.00391309086 -0.0578810078 0.00466485729
v 0.00380867563 -0.0588517619 0.00463572001
v 0.00381981291 -0.0588340892 0.00438514099
v 0.00392283676 -0.0578810078 -0.00445214532
v 0.00391030671 -0.0578810078 0.00471147673
v 0.00389777666 -0.0578810078 0.00482656831
v 0.00379336074 -0.0588605983 0.0047653804
v 0.00377665447 -0.059065101 0.00463572001
v 0.00378639968 -0.0590676261 0.00438514099
v 0.00381981291 -0.0588340892 -0.00438513003
v 0.00380867563 -0.0588517619 -0.00463570904
v 0.00391169879 -0.0578810078 -0.00469689695
v 0.00387828556 -0.0578810078 0.00496351259
v 0.00377108549 -0.0588681735 0.00490232468
v 0.00374463332 -0.0590600509 0.00488484252
v 0.00371818183 -0.0593188357 0.00463572001
v 0.00378222346 -0.059092874 0.00438514099
v 0.00368755275 -0.0593112605 0.00488484252
v 0.00378639968 -0.0590676261 -0.00438513003
v 0.00377665447 -0.059065101 -0.00463570904
v 0.0037752624 -0.0588681735 -0.00488483156
v 0.00391030671 -0.0578810078 -0.00471292261
v 0.00387689348 -0.0578810078 0.00497079682
v 0.00372096598 -0.0588807961 0.00512959415
v 0.00369451381 -0.0590499534 0.00512959415
v 0.00363743325 -0.0595675202 0.00463572001
v 0.00364717846 -0.0595713065 0.00438514099
v 0.00371957391 -0.0593478698 0.00438514099
v 0.00372653497 -0.0593226219 0.00438514099
v 0.00378222346 -0.059092874 -0.00438513003
v 0.00363743325 -0.059297374 0.00512959415
v 0.00355807742 -0.0595384861 0.00512959415
v 0.00360680485 -0.0595561588 0.00488484252
v 0.00371818183 -0.0593188357 -0.00463570904
v 0.00368755275 -0.0593112605 -0.00488483156
v 0.00374463332 -0.0590600509 -0.00488483156
v 0.00369451381 -0.0590499534 -0.00512958318
v 0.00371400492 -0.0588820586 -0.00515580677
v 0.00387132449 -0.0578810078 -0.00499846629
v 0.00387967832 -0.0578810078 -0.00494747631
v 0.00383373504 -0.0578810078 0.0051703862
v 0.00371400492 -0.0588820586 0.00515581773
v 0.00362351112 -0.0590373281 0.00536997524
v 0.0035344094 -0.0598073684 0.00463572001
v 0.00363743325 -0.0595965544 0.00438514099
v 0.00350656516 -0.0597934819 0.00488484252
v 0.00364717846 -0.0595713065 -0.00438513003
v 0.00371957391 -0.0593478698 -0.00438513003
v 0.00372653497 -0.0593226219 -0.00438513003
v 0.00356782263 -0.0592771763 0.00536997524
v 0.00349125096 -0.0595119771 0.00536997524
v 0.0034592298 -0.0597707591 0.00512959415
v 0.00339518818 -0.0597404638 0.00536997524
v 0.00363743325 -0.0595675202 -0.00463570904
v 0.00360680485 -0.0595561588 -0.00488483156
v 0.00355807742 -0.0595384861 -0.00512958318
v 0.00363743325 -0.059297374 -0.00512958318
v 0.00362351112 -0.0590373281 -0.00536996427
v 0.00381981291 -0.0578810078 -0.00522864945
v 0.00364717846 -0.0588908949 -0.00536996427
v 0.00382120499 -0.0578810078 0.00521846249
v 0.00381424393 -0.0578810078 0.00524468573
v 0.00374045709 -0.0578810078 0.00547778258
v 0.00363325633 -0.0588921575 0.00540348306
v 0.00355250843 -0.0588984688 0.00560307243
v 0.00353301733 -0.0590196554 0.00560307243
v 0.00348011299 -0.0592531923 0.00560307243
v 0.00351491829 -0.0598465001 0.0046415474
v 0.0035441553 -0.0598111546 0.00438514099
v 0.00363743325 -0.0595965544 -0.00438513003
v 0.00347872091 -0.059847764 0.00489504045
v 0.00340493407 -0.0594804179 0.00560307243
v 0.00342164035 -0.0598389276 0.00514416262
v 0.00331165544 -0.0597000683 0.00560307243
v 0.00332696964 -0.0598149436 0.0054471888
v 0.00335342181 -0.0598225161 0.00536997524
v 0.0035344094 -0.0598073684 -0.00463570904
v 0.00350656516 -0.0597934819 -0.00488483156
v 0.0034592298 -0.0597707591 -0.00512958318
v 0.00339518818 -0.0597404638 -0.00536996427
v 0.00349125096 -0.0595119771 -0.00536996427
v 0.00356782263 -0.0592771763 -0.00536996427
v 0.00348011299 -0.0592531923 -0.00560306147
v 0.00353301733 -0.0590196554 -0.00560306147
v 0.00375437921 -0.0578810078 -0.00543843676
v 0.00363325633 -0.0588921575 -0.00540347209
v 0.00373628018 -0.0578810078 -0.0054865127
v 0.0036694544 -0.0578810078 0.00565114838
v 0.00364300223 -0.0578810078 0.00571087944
v 0.00353301733 -0.0588997313 0.00564386414
v 0.00342303242 -0.0589994576 0.00582742821
v 0.00337152084 -0.0592228942 0.00582742821
v 0.00330051815 -0.0594412835 0.00582742821
v 0.0024651908 -0.0619836747 0.00450314627
v 0.00247075978 -0.0619836747 0.0044492426
v 0.00248328983 -0.0619836747 0.00420012043
v 0.0035441553 -0.0598111546 -0.00438513003
v 0.00238583497 -0.0619836747 0.00491252261
v 0.000851617505 -0.065159772 0.00457016156
v 0.00243595448 -0.0619836747 0.00470273565
v 0.00244430761 -0.0619836747 0.00464883197
v 0.00321141643 -0.0596520975 0.00582742821
v 0.00235242174 -0.0619836747 0.00502324365
v 0.000815419781 -0.065157247 0.00470710619
v 0.00321141643 -0.0597795955 0.00571670717
v 0.0032531828 -0.0597934819 0.00562492514
v 0.00219231733 -0.0619836747 0.00541659468
v 0.000670629911 -0.065126949 0.00511502568
v 0.000724925984 -0.0651395743 0.0049795379
v 0.000773653413 -0.065150933 0.00484405047
v 0.00351491829 -0.0598465001 -0.00464153643
v 0.00347872091 -0.059847764 -0.00489502948
v 0.00342164035 -0.0598389276 -0.00514415165
v 0.00335342181 -0.0598225161 -0.00536996427
v 0.00334646075 -0.0598212549 -0.00538890362
v 0.00327128183 -0.0597997932 -0.00558266527
v 0.00331165544 -0.0597000683 -0.00560306147
v 0.00340493407 -0.0594804179 -0.00560306147
v 0.00330051815 -0.0594412835 -0.00582741724
v 0.00337152084 -0.0592228942 -0.00582741724
v 0.00342303242 -0.0589994576 -0.00582741724
v 0.00348011299 -0.0589022564 -0.00575311771
v 0.00353301733 -0.0588997313 -0.00564385318
v 0.00364996329 -0.0578810078 -0.0056963
v 0.00352187935 -0.0578810078 0.00594543314
v 0.00341189513 -0.0589047814 0.00587404731
v 0.00333532346 -0.0589060439 0.00599933681
v 0.00329634124 -0.0589754736 0.00604158571
v 0.00324761381 -0.0591888127 0.00604158571
v 0.00317939527 -0.0593958378 0.00604158571
v 0.000903129085 -0.065159772 0.00429918635
v 0.000921228118 -0.0651547219 0.00416369891
v 0.000940718884 -0.0651395743 0.00392768837
v 0.00248328983 -0.0619836747 -0.00417971326
v 0.000921228118 -0.065157247 -0.00416514479
v 0.00087946175 -0.0651610332 0.00443467413
v -0.00174485785 -0.0704743025 0.00391749044
v -0.00171422911 -0.0704705162 0.00378345951
v 0.00309447046 -0.0595965544 0.00604158571
v 0.00307080313 -0.0597316275 0.00597748445
v 0.00314180582 -0.0597568726 0.00585365145
v 0.00315572794 -0.0597606616 0.00582742821
v -0.00181586062 -0.0704541047 0.00418700846
v -0.00181586062 -0.0705437321 0.00404277995
v 0.00206701823 -0.0619836747 0.00564095045
v 0.000543938733 -0.0650916035 0.00537871666
v 0.000609372435 -0.0651105374 0.00524759942
v 0.00216447308 -0.0619836747 0.00547049835
v -0.00181586062 -0.07009812 0.00461823785
v -0.00181586062 -0.0702331931 0.00447546618
v -0.00181586062 -0.0703518547 0.00433123732
v 0.0024651908 -0.0619836747 -0.00450459215
v 0.00238583497 -0.0619836747 -0.00491396849
v 0.00244430761 -0.0619836747 -0.00464882101
v 0.00243595448 -0.0619836747 -0.00470272468
v 0.000850225087 -0.0651622944 -0.00457160744
v 0.00237052077 -0.0619836747 -0.00496932901
v 0.000772261338 -0.065150933 -0.00484549635
v 0.000723533909 -0.0651408354 -0.00498098378
v 0.0032531828 -0.0597934819 -0.00562491417
v 0.00220484738 -0.0619836747 -0.00539181732
v 0.00219231733 -0.0619836747 -0.00541658371
v 0.00321141643 -0.0596520975 -0.00582741724
v 0.00317939527 -0.0593958378 -0.00604157475
v 0.00324761381 -0.0591888127 -0.00604157475
v 0.00343973938 -0.0589035189 -0.00582741724
v 0.00329634124 -0.0589754736 -0.00604157475
v 0.00341189513 -0.0589047814 -0.00587403634
v 0.00354693945 -0.0578810078 -0.00590171677
v 0.00359148997 -0.0578810078 -0.00581576247
v 0.00363882532 -0.0578810078 -0.00572106674
v 0.00344530768 -0.0578810078 0.00607072265
v 0.00330887129 -0.0589060439 0.00604158571
v 0.00327267391 -0.0589060439 0.00609403288
v 0.00315155103 -0.0589489646 0.00624408844
v 0.00310560844 -0.0591496784 0.00624408844
v 0.00304156681 -0.0593440809 0.00624408844
v -0.00168777711 -0.070462941 0.00364942892
v -0.00166828617 -0.0704528435 0.00351685484
v -0.00108773376 -0.0692838979 0.00344692585
v -0.00181586062 -0.0707747439 0.00320217422
v -0.00181586062 -0.070777269 0.000317600007
v -0.00181586062 -0.070777269 -0.00177298783
v -0.000625519396 -0.0683409167 -0.0035692907
v -0.00166967842 -0.0704578937 -0.00351684387
v -0.0016905616 -0.0704667273 -0.00364941795
v 0.000903129085 -0.065159772 -0.00429917538
v -0.00181586062 -0.0706194731 0.0038927237
v -0.00181586062 -0.0706219981 0.00388689631
v -0.00181586062 -0.0706750163 0.00375869311
v 0.00296081822 -0.059533436 0.00624408844
v 0.00301372256 -0.0597101658 0.00607072265
v 0.00197374028 -0.0619836747 0.00577935192
v 0.000470151208 -0.0650676195 0.00550837671
v -0.00973615417 -0.065838921 0.00661267307
v -0.00975564528 -0.065838921 0.00660247549
v -0.00979601957 -0.065838921 0.00658062244
v -0.00980854893 -0.065838921 0.00657333787
v -0.00985449221 -0.065838921 0.00654565812
v -0.00989208167 -0.065838921 0.00651797769
v -0.00990878863 -0.065838921 0.00650486573
v -0.00994777016 -0.065838921 0.0064728151
v -0.00996169228 -0.065838921 0.00646116032
v -0.00181586062 -0.0697661193 0.00491980684
v -0.00181586062 -0.0699504243 0.00476100986
v -0.0095690887 -0.065838921 0.00667677502
v -0.00963173825 -0.065838921 0.00665637916
v -0.00968603467 -0.065838921 0.00663598262
v 0.000815419781 -0.0651585081 -0.00470709522
v 0.00087946175 -0.0651622944 -0.00443612001
v -0.00174624992 -0.0704793526 -0.00391747947
v -0.00181586062 -0.0704793526 -0.00414766263
v -0.00181586062 -0.0704528435 -0.00418845434
v -0.00181586062 -0.0703442795 -0.00433996744
v 0.000669237493 -0.0651282129 -0.00511647156
v 0.00216447308 -0.0619836747 -0.00547048738
v 0.00315572794 -0.0597606616 -0.00582741724
v 0.00314180582 -0.0597568726 -0.00585364048
v 0.00307080313 -0.0597316275 -0.00597892999
v 0.00309447046 -0.0595965544 -0.00604157475
v 0.00304156681 -0.0593440809 -0.00624407747
v 0.00310560844 -0.0591496784 -0.00624407747
v 0.00315155103 -0.0589489646 -0.00624407747
v 0.00351631105 -0.0578810078 -0.00595416325
v 0.00327267391 -0.0589060439 -0.00609402191
v 0.00338544296 -0.0578810078 -0.00615958036
v 0.00341885619 -0.0578810078 0.00611005785
v 0.00337987398 -0.0578810078 0.00616687522
v 0.00327406598 -0.0578810078 0.00630819038
v 0.00315990485 -0.0589060439 0.00624408844
v 0.00311396157 -0.0589047814 0.0062994493
v 0.00294828818 -0.0591054966 0.00643493708
v 0.00288842346 -0.0592872765 0.00643493708
v 0.00281463594 -0.0594627452 0.00643493708
v -0.00181586062 -0.0707204619 0.0036188348
v -0.00181586062 -0.0707545462 0.0034658652
v -0.00181586062 -0.0707570712 0.00344109846
v -0.0102944312 -0.065838921 0.00580557516
v -0.0102986081 -0.065838921 0.0057458441
v -0.0103000001 -0.065838921 0.00571962086
v -0.0103000001 -0.065838921 -0.00570795478
v -0.00181586062 -0.0707747439 -0.00318031021
v -0.00181586062 -0.0707545462 -0.00346731108
v -0.00181586062 -0.0707267732 -0.00359260059
v -0.00181586062 -0.0707595963 -0.00341195056
v -0.00181586062 -0.070722987 -0.00360716905
v -0.00181586062 -0.0706788052 -0.00374848422
v -0.00171562136 -0.0704730413 -0.00378344854
v -0.00999649759 -0.065838921 0.00642910969
v -0.0100368719 -0.065838921 0.0063868608
v -0.0100772462 -0.065838921 0.00633878451
v -0.0101148356 -0.065838921 0.00628925103
v 0.00281742009 -0.0596344248 0.00634315471
v 0.00287032443 -0.0596558838 0.00627468257
v 0.00289259969 -0.0596647229 0.00624408844
v 0.00189577653 -0.0619836747 0.00588424558
v 0.000390795384 -0.0650411077 0.00563366622
v -0.00181586062 -0.0696095873 0.005042183
v -0.00974172316 -0.0620013474 0.00700748095
v -0.00979741165 -0.0620013474 0.00697834401
v -0.00984892323 -0.0620013474 0.00694629338
v -0.00986980641 -0.0620013474 0.00693172491
v -0.0099408091 -0.0620013474 0.00687782124
v -0.00994777016 -0.0620013474 0.00687199385
v -0.00930735321 -0.065838921 0.00673067869
v -0.00945075066 -0.065838921 0.00670299826
v -0.00952175335 -0.065838921 0.00668842979
v -0.00955655865 -0.0620013474 0.00707741028
v -0.00963869931 -0.0620013474 0.00705118704
v -0.00968603467 -0.0620013474 0.00703224768
v -0.0097194479 -0.0620013474 0.00701767922
v -0.00178383972 -0.0704806137 -0.00405151006
v -0.00181586062 -0.0706245232 -0.00387960111
v -0.00181586062 -0.0706182119 -0.00389416958
v -0.00181586062 -0.0705437321 -0.00403985529
v -0.00983360903 -0.065838921 -0.00655875843
v -0.00976539049 -0.065838921 -0.00659809364
v -0.00181586062 -0.0702256179 -0.00448273945
v -0.00972223205 -0.065838921 -0.00661994668
v -0.00965819042 -0.065838921 -0.00664762711
v 0.000607980359 -0.0651118013 -0.00524758846
v -0.00181586062 -0.0700867586 -0.00462842481
v 0.00206701823 -0.0619836747 -0.00564093948
v 0.00205727301 -0.0619836747 -0.00565550795
v 0.000468759133 -0.0650701419 -0.00550836574
v 0.00189577653 -0.0619836747 -0.00588423461
v 0.00301372256 -0.0597101658 -0.00607071168
v 0.00296081822 -0.059533436 -0.00624407747
v 0.00281463594 -0.0594627452 -0.00643492612
v 0.00288842346 -0.0592872765 -0.00643492612
v 0.00294828818 -0.0591054966 -0.00643492612
v 0.00311396157 -0.0589047814 -0.00630089484
v 0.00315990485 -0.0589060439 -0.00624407747
v 0.00336595185 -0.0578810078 -0.0061858036
v 0.00321837749 -0.0578810078 0.00637520602
v 0.00299144662 -0.0589199291 0.00643493708
v 0.00272275006 -0.0592241581 0.00660975938
v 0.00293854296 -0.0589009938 0.00649175445
v 0.00288563862 -0.0588997313 0.00654274443
v 0.00277565372 -0.0590575259 0.00660975938
v 0.00265313945 -0.0593857403 0.00660975938
v 0.00271300485 -0.0595927654 0.00646698771
v -0.0101524258 -0.065838921 0.00623097716
v -0.0101872311 -0.065838921 0.0061712461
v -0.0102095063 -0.065838921 0.00612462632
v -0.0102345657 -0.065838921 0.00606343876
v -0.0102540569 -0.065838921 0.00600662139
v -0.0102693711 -0.065838921 0.00595126053
v -0.0102832932 -0.065838921 0.00588278839
v -0.0102832932 -0.0620013474 0.00628196714
v -0.0102944312 -0.0620013474 0.00619601284
v -0.0103000001 -0.0646106433 0.00585802233
v -0.0103000001 -0.0620013474 -0.00610859038
v -0.0102944312 -0.065838921 -0.0058026505
v -0.0102888622 -0.065838921 -0.00585072679
v -0.0102777249 -0.065838921 -0.00591045785
v -0.0102638028 -0.065838921 -0.00597018891
v -0.0102470958 -0.065838921 -0.00602991997
v -0.0102276047 -0.065838921 -0.00608090995
v -0.0101914073 -0.065838921 -0.00616103687
v -0.0101705241 -0.065838921 -0.00620328576
v -0.0101398957 -0.065838921 -0.00625136205
v -0.0101078746 -0.065838921 -0.00629943834
v -0.0100661082 -0.065838921 -0.00635334201
v -0.0100201656 -0.065838921 -0.00640433199
v -0.0100034587 -0.0620013474 0.00681809018
v -0.0100368719 -0.0620013474 0.00678458236
v -0.0100772462 -0.0620013474 0.00673796258
v -0.0101162284 -0.0620013474 0.00668405891
v -0.0101496409 -0.0620013474 0.00663452612
v 0.000120706068 -0.0649439079 0.00598185465
v 0.00167441447 -0.0619836747 0.00613482459
v 0.0017106122 -0.0619836747 0.00609840308
v 0.00030587023 -0.0650108125 0.00575458518
v 0.00185261809 -0.0619836747 0.00593523555
v -0.00181586062 -0.069418971 0.00517912728
v -0.00769377906 -0.0578810078 0.00734255776
v -0.00774111441 -0.0578810078 0.0073207054
v -0.0077968029 -0.0578810078 0.00729156778
v -0.00780376396 -0.0578810078 0.00728719758
v -0.00784970724 -0.0578810078 0.00725805996
v -0.00789982675 -0.0578810078 0.00722309564
v -0.00794159311 -0.0578810078 0.00718958782
v -0.00798753571 -0.0578810078 0.00714733892
v -0.00800006576 -0.0578810078 0.00713568415
v -0.0025787927 -0.065838921 0.0067292215
v -0.00249943662 -0.0656722888 0.00674961735
v -0.00929760731 -0.0657038479 0.00674670366
v -0.00181586062 -0.0692144683 0.00531461472
v -0.00181586062 -0.0691677614 0.005343752
v -0.00181586062 -0.0689973429 0.0054471888
v -0.00181586062 -0.0687688561 0.005575392
v -0.00181586062 -0.068529008 0.00569922466
v -0.00181586062 -0.0684456918 0.00574001672
v -0.00181586062 -0.0682790595 0.00581868713
v -0.00181586062 -0.0681805957 0.00586239253
v -0.00181586062 -0.0679054022 0.00598185465
v -0.00181586062 -0.0676226334 0.00609257569
v -0.00181586062 -0.0674749377 0.00614793655
v -0.00181586062 -0.0673310282 0.00620038304
v -0.00947024177 -0.0620013474 0.00709634963
v -0.00751975252 -0.0578810078 0.00739937513
v -0.00757126479 -0.0578810078 0.00738626385
v -0.00762138429 -0.0578810078 0.00737023819
v -0.00762973743 -0.0578810078 0.0073673245
v -0.00998675238 -0.065838921 -0.00643783981
v -0.00997143818 -0.065838921 -0.00645240828
v -0.0099352408 -0.065838921 -0.00648445891
v -0.00988094438 -0.065838921 -0.0065267078
v -0.00983360903 -0.0620013474 -0.00695648
v -0.00979741165 -0.0620013474 -0.00697833304
v -0.00977931261 -0.0620013474 -0.00698853132
v -0.00959414879 -0.065838921 -0.00666947947
v -0.0097194479 -0.0620013474 -0.00701766825
v -0.00966515148 -0.0620013474 -0.0070409778
v -0.00963869931 -0.0620013474 -0.00705117607
v -0.00181586062 -0.069935274 -0.00477556736
v 0.000542546315 -0.0650916035 -0.00538016254
v 0.000389402966 -0.0650436328 -0.00563365525
v -0.00181586062 -0.0697408714 -0.00494019208
v -0.00181586062 -0.0695792893 -0.00506548158
v 0.00030587023 -0.0650133375 -0.00575457422
v 0.00289259969 -0.0596647229 -0.00624407747
v 0.00287032443 -0.0596558838 -0.0062746716
v 0.00271300485 -0.0595927654 -0.00646697674
v 0.00265313945 -0.0593857403 -0.00660974841
v 0.00272275006 -0.0592241581 -0.00660974841
v 0.00299144662 -0.0589199291 -0.00643492612
v 0.00277565372 -0.0590575259 -0.00660974841
v 0.00288563862 -0.0588997313 -0.00654273346
v 0.00293854296 -0.0589009938 -0.00649174348
v 0.00322394648 -0.0578810078 -0.00636936767
v 0.00326710492 -0.0578810078 -0.0063169205
v 0.00310560844 -0.0578810078 0.00650195203
v 0.00305409617 -0.0578810078 0.00655585571
v 0.0025904899 -0.0590057689 0.0067700139
v 0.00254176247 -0.0591572535 0.0067700139
v 0.00299840768 -0.0578810078 0.00660975938
v 0.0028369112 -0.0588972076 0.00658936352
v 0.00295246509 -0.0578810078 0.00665346547
v 0.00274781016 -0.05889342 0.00666803394
v 0.00247911292 -0.0593024242 0.0067700139
v 0.00251670306 -0.0595119771 0.00666366305
v 0.0025403704 -0.0595220746 0.00664181001
v 0.00257378363 -0.0595359611 0.00660975938
v 0.00140989448 -0.0619836747 0.00637229233
v 2.04670594e-05 -0.0649047735 0.00608820549
v -0.0101635631 -0.0620013474 0.00661121657
v -0.0102095063 -0.0620013474 0.00652380508
v -0.0102373506 -0.0620013474 0.00645241924
v -0.0102540569 -0.0620013474 0.00640434296
v -0.0102638028 -0.0620013474 0.00636792144
v -0.00827293922 -0.0578810078 0.00664909459
v -0.00828268512 -0.0578810078 0.00660247549
v -0.00828407719 -0.0578810078 0.00659519091
v -0.00828546927 -0.0578810078 0.00658644983
v -0.00829382241 -0.0578810078 0.00652380508
v -0.0102972153 -0.0620013474 0.00615959133
v -0.0103000001 -0.0620013474 0.00610860135
v -0.00829939139 -0.0578810078 -0.00641015938
v -0.00829799932 -0.0578810078 -0.00644658089
v -0.00829521448 -0.0578810078 -0.00650194107
v -0.0102944312 -0.0620013474 -0.00619600187
v -0.0102888622 -0.0620013474 -0.00624844836
v -0.0102832932 -0.0620013474 -0.00628195618
v -0.0102777249 -0.0620013474 -0.00630817942
v -0.0102638028 -0.0620013474 -0.00636791048
v -0.0102470958 -0.0620013474 -0.00642909873
v -0.0101997604 -0.0620013474 -0.00654273346
v -0.0101635631 -0.0620013474 -0.0066112056
v -0.0101398957 -0.0620013474 -0.00665054081
v -0.0101162284 -0.0620013474 -0.00668550513
v -0.0100633241 -0.0620013474 -0.00675397727
v -0.0100257346 -0.0620013474 -0.00679768267
v -0.00803765521 -0.0578810078 0.00709780613
v -0.00807385328 -0.0578810078 0.00705555723
v -0.00811561965 -0.0578810078 0.00700019706
v -0.00814624804 -0.0578810078 0.00695503446
v 0.000215376433 -0.0649805144 0.00586967711
v -0.00181586062 -0.0671934301 0.00624700213
v -0.00181586062 -0.0670331118 0.00630090581
v -0.00181586062 -0.0667301453 0.00639414469
v -0.00181586062 -0.0666140088 0.00642765251
v -0.00217644348 -0.065838921 0.00668405891
v -0.00139541254 -0.0642925291 0.00686908016
v -0.00181586062 -0.0646674504 0.00684868362
v -0.00729839132 -0.0620013474 0.0071123746
v -0.00929760731 -0.0620013474 0.0071123746
v -0.00932962846 -0.0620013474 0.0071109181
v -0.00938392488 -0.0620013474 0.0071080044
v -0.00945075066 -0.0620013474 0.00709926332
v -8.53412781e-05 -0.0648643779 0.00619018477
v -0.000193933766 -0.0648214573 0.00628633734
v -0.000305310747 -0.0647747505 0.00637520602
v -0.000419472049 -0.0647267825 0.00645678944
v -0.000539202338 -0.0646762867 0.00653254616
v -0.00744318085 -0.0578810078 0.00741394359
v -0.00745988781 -0.0578810078 0.0074110299
v -0.0099408091 -0.0620013474 -0.00687781028
v -0.00986980641 -0.0620013474 -0.00693171395
v -0.00788590462 -0.0578810078 -0.00723328294
v -0.00783439236 -0.0578810078 -0.00726824727
v -0.00778009663 -0.0578810078 -0.00730029789
v -0.00772440814 -0.0578810078 -0.00732943552
v -0.00952732233 -0.065838921 -0.00668696163
v -0.00955655865 -0.0620013474 -0.00707739931
v -0.00767289587 -0.0578810078 -0.00735128787
v -0.00765758168 -0.0578810078 -0.00735711526
v -0.0076060701 -0.0578810078 -0.00737605461
v -0.00948137974 -0.065838921 -0.0066971599
v -0.00181586062 -0.0693811005 -0.00520533956
v -0.00933102054 -0.065838921 -0.00672192664
v 0.000213984358 -0.0649805144 -0.00586966614
v 0.00170921978 -0.0619836747 -0.00609839211
v -0.00181586062 -0.0691664975 -0.00534519788
v 0.000119313993 -0.064945169 -0.00598330087
v 1.90746415e-05 -0.0649072985 -0.00608965103
v 0.00140850207 -0.0619836747 -0.00637373787
v 0.00257378363 -0.0595359611 -0.00660974841
v 0.0025403704 -0.0595220746 -0.00664179904
v 0.00247911292 -0.0593024242 -0.00677000293
v 0.00254176247 -0.0591572535 -0.00677000293
v 0.0025904899 -0.0590057689 -0.00677000293
v 0.00304574303 -0.0578810078 -0.00656312932
v 0.00309864737 -0.0578810078 -0.00650922564
v 0.00281324386 -0.0588959451 -0.00660974841
v 0.00274781016 -0.05889342 -0.00666802297
v 0.00299144662 -0.0578810078 -0.00661703299
v 0.00261972622 -0.0588883712 0.0067700139
v 0.00254176247 -0.0588845836 0.00682683126
v 0.00239140396 -0.0589514882 0.00691424207
v 0.00234824551 -0.0590852988 0.00691424207
v 0.0022939491 -0.0592140606 0.00691424207
v 0.00292322877 -0.0578810078 0.00667968871
v 0.00285222539 -0.0578810078 0.00673941977
v 0.00272414214 -0.0578810078 0.00684139973
v 0.00235659865 -0.0594438086 0.00680206452
v 0.00240532608 -0.0594425474 0.0067700139
v 0.00131522412 -0.0619836747 0.00644513467
v -0.00815460118 -0.0578810078 0.006940466
v -0.00817687644 -0.0578810078 0.0068996736
v -0.00820611344 -0.0578810078 0.00684431342
v -0.00823395769 -0.0578810078 0.00677875498
v -0.00825205604 -0.0578810078 0.00672630781
v -0.00829799932 -0.0578810078 0.00646698771
v -0.00829939139 -0.0578810078 0.00642765251
v -0.00828964618 -0.0578810078 -0.00655438824
v -0.00827990028 -0.0578810078 -0.0066155758
v -0.00827850821 -0.0578810078 -0.00662286038
v -0.00826458608 -0.0578810078 -0.00668259144
v -0.0082437029 -0.0578810078 -0.00674960639
v -0.00822560387 -0.0578810078 -0.00679913986
v -0.00820332861 -0.0578810078 -0.00684867265
v -0.00819636755 -0.0578810078 -0.00686324112
v -0.00817270021 -0.0578810078 -0.0069098609
v -0.00814067906 -0.0578810078 -0.00696376458
v -0.00810587375 -0.0578810078 -0.00701475456
v -0.00807246052 -0.0578810078 -0.00705700346
v -0.00806132323 -0.0578810078 -0.00707011473
v -0.00803069415 -0.0578810078 -0.00710362255
v -0.00798753571 -0.0578810078 -0.00714878515
v -0.00065754038 -0.0646257937 0.0066010183
v -0.000780054991 -0.0645715116 0.00666366305
v -0.000902569601 -0.0645184935 0.00671756673
v -0.00181586062 -0.0663198786 0.00650777942
v -0.00202608462 -0.065838921 0.00666366305
v -0.00151653507 -0.0642357247 0.00688947602
v -0.00181586062 -0.0654854587 0.00670154175
v -0.00127289793 -0.0643493362 0.00684139973
v -0.000228739072 -0.0619836747 0.00706284181
v 0.00126928084 -0.0589527508 0.00732216191
v -0.000296957268 -0.0619836747 0.00707158289
v -0.00158753776 -0.0643316635 0.00688073494
v -0.000589321842 -0.0619836747 0.00709489244
v 0.000438130395 -0.0595700453 0.00731342083
v -0.0014483167 -0.0593693288 0.00732944648
v -0.0073902772 -0.0603274603 0.00724931888
v -0.00738610028 -0.0602693921 0.00725368976
v -0.00735407981 -0.0578810078 0.00742705556
v 0.00229534117 -0.0594172995 0.00684868362
v 0.0022034553 -0.0593781651 0.00691424207
v 0.00216029686 -0.0593592312 0.00694337969
v 0.000766692352 -0.0619836747 0.0067714704
v -0.00793463205 -0.0578810078 -0.00719540424
v -0.00954542136 -0.0620013474 -0.007080313
v -0.00754620469 -0.0578810078 -0.00739353677
v -0.00947024177 -0.0620013474 -0.00709633866
v -0.00929760731 -0.0643632227 -0.00688800786
v -0.00929760731 -0.065838921 -0.00672338315
v -0.00181586062 -0.0686981626 -0.0056132594
v -0.00181586062 -0.0689380108 -0.00548068531
v -8.67333533e-05 -0.0648656418 -0.0061901738
v 0.00133053832 -0.0619836747 -0.00643492612
v -0.00181586062 -0.0684444279 -0.00574000575
v 0.00240811023 -0.0594665314 -0.00675980466
v 0.00235659865 -0.0594438086 -0.00680205356
v 0.0022939491 -0.0592140606 -0.0069142311
v 0.00234824551 -0.0590852988 -0.0069142311
v 0.00239140396 -0.0589514882 -0.0069142311
v 0.00261972622 -0.0588883712 -0.00677000293
v 0.00254176247 -0.0588845836 -0.0068268203
v 0.00292183601 -0.0578810078 -0.00667967774
v 0.00285222539 -0.0578810078 -0.00674086531
v 0.0026559236 -0.0578810078 0.00689093252
v 0.00264339424 -0.0578810078 0.0068996736
v 0.00241089438 -0.0588770098 0.00691424207
v 0.00232318542 -0.0588719597 0.00696814574
v 0.00214498198 -0.059008294 0.00703953226
v 0.00209903938 -0.0591206442 0.00703953226
v 0.00222851471 -0.0593390335 0.00691424207
v 0.00195424917 -0.0592683399 0.00706721201
v 0.000459013579 -0.0619836747 0.00689675991
v 0.000349029016 -0.0619836747 0.00693318142
v 0.000254358651 -0.0619836747 0.00696086185
v -0.00102647646 -0.0644616864 0.00676564301
v -0.00181586062 -0.0661128507 0.00656022659
v -0.00187015687 -0.065838921 0.00663598262
v -0.00181586062 -0.0657227818 0.00665200828
v 0.00112309855 -0.0588656484 0.00735129884
v 0.00107158697 -0.0588580732 0.00735712623
v -0.00115038332 -0.0644061433 0.00680789191
v 0.00144609187 -0.059034803 0.00727699931
v 0.00136534362 -0.0589704235 0.00730322255
v 0.00129573301 -0.0589641122 0.00731633452
v 0.00135281358 -0.0587962187 0.00732798929
v 0.00131661619 -0.0587924311 0.00733381668
v 0.00123308346 -0.0587848573 0.00734692864
v 0.00117878704 -0.0588101039 0.00735129884
v 0.00115233522 -0.0588391393 0.00735129884
v 0.00116904183 -0.0589047814 0.00734110126
v 0.000995015299 -0.0588227278 0.00736586731
v 0.000893383873 -0.0587722334 0.00737460839
v 0.000862755135 -0.0587570844 0.00737606558
v -0.0009290216 -0.0593693288 0.00732944648
v -0.00149982846 -0.0579832592 0.00743579664
v -0.00225997621 -0.0586649332 0.00738335016
v -0.00202747678 -0.0578810078 0.00744162403
v 0.00204195882 -0.0592279444 0.00703953226
v 0.00206005717 -0.0593150467 0.00700602444
v -0.00749190828 -0.0578810078 -0.00740519155
v -0.00942151434 -0.0620013474 -0.00710362255
v -0.00747520201 -0.0578810078 -0.00740810524
v -0.00742090559 -0.0578810078 -0.00741684632
v -0.0018548425 -0.0643291384 -0.00689237874
v -0.00938392488 -0.0620013474 -0.00710799344
v -0.00935747271 -0.0620013474 -0.00710944994
v -0.00929760731 -0.0620013474 -0.00711236363
v -0.00257600829 -0.065838921 -0.00671609926
v -0.00181586062 -0.0673297671 -0.00620037207
v -0.00181586062 -0.0676213722 -0.00609402191
v -0.00181586062 -0.0679054022 -0.00598184368
v -0.00181586062 -0.0681793346 -0.00586238156
v -0.00181586062 -0.0683497531 -0.00578516834
v -0.000195325841 -0.0648214573 -0.00628632637
v 0.0011509428 -0.0619836747 -0.00655875843
v 0.00222851471 -0.0593390335 -0.0069142311
v -0.000306702822 -0.0647760144 -0.00637519505
v 0.00209903938 -0.0591206442 -0.00703952129
v 0.00214498198 -0.059008294 -0.00703952129
v 0.00232318542 -0.0588719597 -0.00696813477
v 0.00241089438 -0.0588770098 -0.0069142311
v 0.0026503553 -0.0578810078 -0.00689529244
v 0.00271857315 -0.0578810078 -0.00684575896
v 0.00251948721 -0.0578810078 0.00698125771
v 0.00251252615 -0.0578810078 0.00698562859
v 0.0024345624 -0.0578810078 0.00703224768
v 0.00233014648 -0.0578810078 0.00709052156
v 0.00221041636 -0.0588643859 0.0070307905
v 0.00218396419 -0.05889342 0.00703953226
v 0.00209207832 -0.0588568121 0.00708906505
v 0.00193336599 -0.0589287668 0.00714733892
v 0.00189438377 -0.0590234443 0.00714733892
v 0.00184565703 -0.059113069 0.00714733892
v 0.00179275269 -0.059195124 0.00714733892
v 0.00174124111 -0.05917114 0.00717064916
v 0.00169390558 -0.0591496784 0.00718958782
v 0.00157417546 -0.0590953963 0.0072362076
v -0.00181586062 -0.0657985255 0.00663452612
v 0.00105766485 -0.0587684458 0.0073673245
v 0.00152127147 -0.0590701512 0.00725368976
v 0.0014767206 -0.0588492369 0.00729739517
v 0.0014043255 -0.0589224541 0.00730322255
v 0.00143634631 -0.0588719597 0.00730322255
v 0.00144469979 -0.0578810078 0.00739209124
v 0.00140850207 -0.0578810078 0.00739791862
v 0.00133053832 -0.0578810078 0.0074095734
v 0.00119131709 -0.0587810697 0.00735275603
v 0.00115511971 -0.0587772821 0.00735712623
v 0.000995015299 -0.0587621345 0.0073716947
v 0.000935150241 -0.0587558232 0.00737460839
v 0.000965778636 -0.0578810078 0.00743871033
v -0.0009290216 -0.0579617989 0.00743725383
v -0.000991671152 -0.0579416011 0.00743871033
v -0.00145110103 -0.0579617989 0.00743725383
v -0.0012617603 -0.0579188783 0.00744016752
v -0.000411118742 -0.0578810078 0.00744162403
v -0.00733737286 -0.0578810078 -0.00742704459
v -0.00163765744 -0.0641801788 -0.00690403352
v -0.00249108331 -0.065838921 -0.00671464207
v -0.00729839132 -0.0620013474 -0.00711236363
v -0.0009290216 -0.0593693288 -0.00732943552
v 0.000893383873 -0.0587722334 -0.00737459742
v -0.00729839132 -0.0578810078 -0.0074285011
v -0.00729839132 -0.0603274603 -0.00725222161
v -0.00181586062 -0.0670318506 -0.00630089484
v -0.000540594413 -0.0646775506 -0.00653253519
v -0.000420864296 -0.0647293076 -0.00645677847
v 0.0022034553 -0.0593781651 -0.0069142311
v 0.00216029686 -0.0593592312 -0.00694336872
v 0.00204195882 -0.0592279444 -0.00703952129
v 0.00189438377 -0.0590234443 -0.00714732796
v 0.00193336599 -0.0589287668 -0.00714732796
v 0.00218396419 -0.05889342 -0.00703952129
v 0.00220206323 -0.0588643859 -0.00703515041
v 0.00209207832 -0.0588568121 -0.00708905408
v 0.00242064028 -0.0578810078 -0.0070409778
v 0.00250556509 -0.0578810078 -0.00698998782
v 0.00232179334 -0.0578810078 0.00709489244
v 0.00219510217 -0.0578810078 0.00715753719
v 0.00204752712 -0.0588530245 0.00710946091
v 0.00196121023 -0.0588467132 0.00714733892
v 0.00185261809 -0.0588391393 0.00718958782
v 0.00173149521 -0.0588770098 0.00722600933
v 0.00168276795 -0.0589224541 0.00723475041
v 0.00164378608 -0.0589944089 0.00723475041
v 0.00119827815 -0.0578810078 0.00742414187
v 0.00118296395 -0.0578810078 0.00742559837
v 0.00114815865 -0.0578810078 0.00742851206
v 0.00160619628 -0.0588189416 0.00726971542
v 0.0017078277 -0.0578810078 0.00733381668
v 0.00145862191 -0.0578810078 0.00738917754
v 0.00125396664 -0.0578810078 0.00741831448
v 0.00100336844 -0.0578810078 0.00743725383
v -0.00111975458 -0.0579188783 0.00744016752
v -0.00151792732 -0.0642382498 -0.00688946505
v -0.000593498582 -0.0619836747 -0.00709488147
v -0.000558693276 -0.0619836747 -0.00709342497
v 0.00107158697 -0.0588580732 -0.00735711526
v -0.00213467711 -0.065838921 -0.00667822055
v -0.00181586062 -0.0667288841 -0.00639559091
v -0.00139680478 -0.064293793 -0.00686906919
v -0.00139262821 -0.0593870015 -0.00732797833
v -0.00225997621 -0.0586649332 -0.00738333919
v -0.000567046583 -0.0590840349 -0.00735128787
v 0.000862755135 -0.0587570844 -0.00737605461
v 0.000944895452 -0.0578810078 -0.00743724286
v 0.000935150241 -0.0587558232 -0.00737459742
v 0.000995015299 -0.0588227278 -0.00736585634
v -0.00198571041 -0.0578810078 -0.00744161306
v -0.00127707467 -0.0579201408 -0.00744015656
v -0.000658932455 -0.0646270548 -0.00660100733
v 0.000766692352 -0.0619836747 -0.00677145943
v 0.000910090146 -0.0619836747 -0.0067000736
v 0.00206005717 -0.0593150467 -0.00700601348
v 0.00195424917 -0.0592683399 -0.00706720104
v 0.00184565703 -0.059113069 -0.00714732796
v 0.00164378608 -0.0589944089 -0.00723473945
v 0.00168276795 -0.0589224541 -0.00723473945
v 0.00173149521 -0.0588770098 -0.00722599837
v 0.00185261809 -0.0588391393 -0.00718957685
v 0.00196121023 -0.0588467132 -0.00714732796
v 0.00204752712 -0.0588530245 -0.00710944994
v 0.00219510217 -0.0578810078 -0.00715752623
v 0.00229673325 -0.0578810078 -0.00710653625
v 0.00230508639 -0.0578810078 -0.00710216605
v 0.00215194304 -0.0578810078 0.00717647654
v 0.00206701823 -0.0578810078 0.00721289806
v 0.00195146502 -0.0578810078 0.00725660346
v 0.00173288728 -0.0578810078 0.00732653279
v 0.00112309855 -0.0588656484 -0.00735128787
v -0.000296957268 -0.0619836747 -0.00707157192
v 0.00105766485 -0.0587684458 -0.00736731353
v 0.00115233522 -0.0588391393 -0.00735128787
v -0.00181586062 -0.0654841975 -0.00670153079
v -0.00209291074 -0.065838921 -0.00667239317
v -0.00181586062 -0.0664208674 -0.00648008871
v -0.00127289793 -0.0643505973 -0.00684138876
v -0.000902569601 -0.0645197547 -0.00671755576
v -0.000781447237 -0.0645727728 -0.00666219558
v 0.00126928084 -0.0589527508 -0.00732215094
v 0.00132218518 -0.0589767361 -0.00731049616
v -0.00109051826 -0.0579214033 -0.00744015656
v -0.000438962987 -0.0586649332 -0.00738333919
v -0.000470983972 -0.0578810078 -0.00744161306
v 0.000996407375 -0.0578810078 -0.00743578567
v 0.000995015299 -0.0587621345 -0.00737168373
v 0.000447875949 -0.0619836747 -0.00690111982
v 0.00179275269 -0.059195124 -0.00714732796
v 0.00174124111 -0.05917114 -0.00717063819
v 0.00157417546 -0.0590953963 -0.00723619664
v 0.00152127147 -0.0590701512 -0.0072536788
v 0.0014767206 -0.0588492369 -0.0072973842
v 0.00160619628 -0.0588189416 -0.00726970446
v 0.0017078277 -0.0578810078 -0.00733380571
v 0.00195842608 -0.0578810078 -0.0072551353
v 0.00205448818 -0.0578810078 -0.00721725729
v 0.00213802091 -0.0578810078 -0.00718229296
v 0.00116904183 -0.0589047814 -0.00734109029
v 0.00114815865 -0.0578810078 -0.0074285011
v 0.00118296395 -0.0578810078 -0.0074255874
v 0.00124700558 -0.0578810078 -0.00741976002
v 0.00115511971 -0.0587772821 -0.00735711526
v 0.00117878704 -0.0588101039 -0.00735128787
v -0.00115038332 -0.0644074044 -0.00680788094
v -0.00194533629 -0.065838921 -0.00665054081
v -0.00181586062 -0.0661115896 -0.00656021562
v -0.00102647646 -0.0644629476 -0.00676563205
v 0.000254358651 -0.0619836747 -0.00696085088
v 0.000349029016 -0.0619836747 -0.00693317045
v 0.00123308346 -0.0587848573 -0.00734691768
v 0.00131661619 -0.0587924311 -0.00733380571
v 0.00135281358 -0.0587962187 -0.00732797833
v 0.0014043255 -0.0589224541 -0.00730321159
v 0.00136534362 -0.0589704235 -0.00730321159
v 0.00102982061 -0.0578810078 -0.00743432917
v 0.000144373745 -0.0619836747 -0.00699144501
v 0.00143634631 -0.0588719597 -0.00730321159
v 0.00145166085 -0.0578810078 -0.00739062308
v 0.00133053832 -0.0578810078 -0.00740956243
v 0.00119131709 -0.0587810697 -0.00735274506
v -0.00181586062 -0.0657985255 -0.00663451515
v 0.00140850207 -0.0578810078 -0.00739790766
v 0.00144330737 -0.0578810078 -0.00739208027
f 1 2 3
f 1 3 4
f 1 4 11
f 1 11 5
f 1 5 13
f 1 13 23
f 1 23 41
f 1 41 40
f 1 40 60
f 1 60 86
f 1 86 88
f 1 88 125
f 1 125 172
f 1 172 171
f 1 171 170
f 1 170 225
f 1 225 227
f 1 227 295
f 1 295 394
f 1 394 393
f 1 393 486
f 1 486 485
f 1 485 489
f 1 489 563
f 1 563 564
f 1 564 624
f 1 624 623
f 1 623 678
f 1 678 677
f 1 677 726
f 1 726 725
f 1 725 724
f 1 724 758
f 1 758 757
f 1 757 756
f 1 756 755
f 1 755 779
f 1 779 784
f 1 784 783
f 1 783 780
f 1 780 762
f 1 762 761
f 1 761 760
f 1 760 776
f 1 776 746
f 1 746 707
f 1 707 745
f 1 745 710
f 1 710 664
f 1 664 658
f 1 658 604
f 1 604 603
f 1 603 601
f 1 601 547
f 1 547 470
f 1 470 469
f 1 469 468
f 1 468 465
f 1 465 464
f 1 464 463
f 1 463 462
f 1 462 545
f 1 545 522
f 1 522 521
f 1 521 520
f 1 520 519
f 1 519 518
f 1 518 517
f 1 517 516
f 1 516 515
f 1 515 514
f 1 514 513
f 1 513 512
f 1 512 511
f 1 511 510
f 1 510 509
f 1 509 508
f 1 508 423
f 1 423 422
f 1 422 421
f 1 421 507
f 1 507 506
f 1 506 418
f 1 418 417
f 1 417 416
f 1 416 415
f 1 415 414
f 1 414 505
f 1 505 504
f 1 504 503
f 1 503 502
f 1 502 501
f 1 501 439
f 1 439 438
f 1 438 437
f 1 437 436
f 1 436 346
f 1 346 345
f 1 345 344
f 1 344 343
f 1 343 342
f 1 342 341
f 1 341 340
f 1 340 339
f 1 339 338
f 1 338 366
f 1 366 365
f 1 365 364
f 1 364 363
f 1 363 459
f 1 459 458
f 1 458 540
f 1 540 598
f 1 598 657
f 1 657 652
f 1 652 694
f 1 694 689
f 1 689 688
f 1 688 687
f 1 687 693
f 1 693 647
f 1 647 646
f 1 646 645
f 1 645 692
f 1 692 691
f 1 691 730
f 1 730 729
f 1 729 728
f 1 728 727
f 1 727 680
f 1 680 679
f 1 679 628
f 1 628 627
f 1 627 626
f 1 626 625
f 1 625 566
f 1 566 565
f 1 565 497
f 1 497 496
f 1 496 495
f 1 495 401
f 1 401 399
f 1 399 396
f 1 396 395
f 1 395 296
f 1 296 230
f 1 230 229
f 1 229 228
f 1 228 173
f 1 173 126
f 1 126 90
f 1 90 89
f 1 89 64
f 1 64 63
f 1 63 62
f 1 62 42
f 1 42 24
f 1 24 14
f 1 14 7
f 1 7 6
f 1 6 2
f 2 6 3
f 3 6 7
f 3 7 8
f 3 8 9
f 3 9 10
f 3 10 4
f 4 10 20
f 4 20 11
f 5 11 12
f 5 12 13
f 7 14 8
f 8 14 15
f 8 15 16
f 8 16 9
f 9 17 18
f 9 18 10
f 9 16 19
f 9 19 17
f 10 18 31
f 10 31 20
f 11 20 12
f 12 21 22
f 12 22 23
f 12 23 13
f 12 20 21
f 14 24 15
f 15 24 25
f 15 25 26
f 15 26 16
f 16 26 19
f 17 27 28
f 17 28 29
f 17 29 30
f 17 30 18
f 17 19 27
f 18 30 50
f 18 50 31
f 19 26 32
f 19 32 33
f 19 33 34
f 19 34 27
f 20 31 21
f 21 31 35
f 21 35 36
f 21 36 37
f 21 37 22
f 22 37 38
f 22 38 39
f 22 39 40
f 22 40 41
f 22 41 23
f 24 42 25
f 25 42 43
f 25 43 26
f 26 43 44
f 26 44 32
f 27 45 46
f 27 46 28
f 27 34 47
f 27 47 45
f 28 46 71
f 28 71 48
f 28 48 49
f 28 49 29
f 29 49 50
f 29 50 30
f 31 50 35
f 32 44 51
f 32 51 52
f 32 52 33
f 33 53 47
f 33 47 34
f 33 52 54
f 33 54 53
f 35 50 49
f 35 49 48
f 35 48 55
f 35 55 36
f 36 56 57
f 36 57 58
f 36 58 38
f 36 38 37
f 36 55 56
f 38 58 59
f 38 59 39
f 39 60 40
f 39 59 61
f 39 61 60
f 42 62 43
f 43 62 63
f 43 63 64
f 43 64 65
f 43 65 44
f 44 65 66
f 44 66 67
f 44 67 68
f 44 68 51
f 45 47 69
f 45 69 70
f 45 70 46
f 46 70 98
f 46 98 71
f 47 53 72
f 47 72 69
f 48 71 55
f 51 68 52
f 52 68 73
f 52 73 54
f 53 54 74
f 53 74 72
f 54 73 75
f 54 75 76
f 54 76 77
f 54 77 74
f 55 71 78
f 55 78 79
f 55 79 56
f 56 79 57
f 57 79 80
f 57 80 81
f 57 81 82
f 57 82 58
f 58 82 83
f 58 83 59
f 59 83 84
f 59 84 85
f 59 85 61
f 60 61 86
f 61 85 87
f 61 87 88
f 61 88 86
f 64 89 66
f 64 66 65
f 66 89 90
f 66 90 91
f 66 91 67
f 67 91 92
f 67 92 68
f 68 92 93
f 68 93 94
f 68 94 73
f 69 95 96
f 69 96 97
f 69 97 70
f 69 72 95
f 70 97 135
f 70 135 98
f 71 98 78
f 72 74 99
f 72 99 100
f 72 100 101
f 72 101 102
f 72 102 95
f 73 94 103
f 73 103 75
f 74 104 105
f 74 105 99
f 74 77 104
f 75 103 106
f 75 106 107
f 75 107 76
f 76 107 108
f 76 108 109
f 76 109 110
f 76 110 111
f 76 111 77
f 77 111 104
f 78 112 79
f 78 98 112
f 79 113 80
f 79 112 113
f 80 114 81
f 80 113 114
f 81 115 116
f 81 116 117
f 81 117 118
f 81 118 119
f 81 119 82
f 81 114 115
f 82 119 84
f 82 84 83
f 84 119 120
f 84 120 121
f 84 121 122
f 84 122 85
f 85 122 123
f 85 123 124
f 85 124 87
f 87 124 125
f 87 125 88
f 90 126 91
f 91 126 92
f 92 127 128
f 92 128 129
f 92 129 130
f 92 130 93
f 92 126 127
f 93 130 94
f 94 130 131
f 94 131 103
f 95 102 132
f 95 132 133
f 95 133 96
f 96 133 134
f 96 134 97
f 97 134 135
f 98 135 136
f 98 136 112
f 99 105 100
f 100 137 101
f 100 105 138
f 100 138 139
f 100 139 137
f 101 137 132
f 101 132 102
f 103 131 140
f 103 140 141
f 103 141 142
f 103 142 143
f 103 143 106
f 104 111 105
f 105 144 145
f 105 145 138
f 105 111 144
f 106 146 147
f 106 147 148
f 106 148 149
f 106 149 107
f 106 143 146
f 107 149 108
f 108 149 109
f 109 150 151
f 109 151 110
f 109 149 148
f 109 148 150
f 110 151 152
f 110 152 111
f 111 152 144
f 112 136 153
f 112 153 113
f 113 154 114
f 113 153 155
f 113 155 156
f 113 156 157
f 113 157 154
f 114 154 158
f 114 158 115
f 115 158 159
f 115 159 160
f 115 160 116
f 116 160 117
f 117 161 118
f 117 160 162
f 117 162 163
f 117 163 161
f 118 161 164
f 118 164 119
f 119 164 120
f 120 164 165
f 120 165 166
f 120 166 121
f 121 166 122
f 122 167 123
f 122 166 168
f 122 168 169
f 122 169 167
f 123 167 170
f 123 170 171
f 123 171 172
f 123 172 124
f 124 172 125
f 126 173 128
f 126 128 127
f 128 173 174
f 128 174 129
f 129 174 175
f 129 175 176
f 129 176 130
f 130 176 177
f 130 177 178
f 130 178 131
f 131 178 140
f 132 137 139
f 132 139 179
f 132 179 133
f 133 179 180
f 133 180 134
f 134 180 181
f 134 181 182
f 134 182 183
f 134 183 184
f 134 184 135
f 135 184 185
f 135 185 136
f 136 185 186
f 136 186 187
f 136 187 188
f 136 188 153
f 138 189 190
f 138 190 191
f 138 191 139
f 138 145 189
f 139 191 179
f 140 178 192
f 140 192 193
f 140 193 141
f 141 193 194
f 141 194 142
f 142 194 195
f 142 195 147
f 142 147 146
f 142 146 143
f 144 152 196
f 144 196 197
f 144 197 198
f 144 198 199
f 144 199 200
f 144 200 145
f 145 200 201
f 145 201 202
f 145 202 203
f 145 203 204
f 145 204 189
f 147 195 205
f 147 205 206
f 147 206 148
f 148 206 150
f 150 206 207
f 150 207 151
f 151 207 208
f 151 208 209
f 151 209 152
f 152 209 196
f 153 188 155
f 154 157 210
f 154 210 158
f 155 188 156
f 156 188 211
f 156 211 157
f 157 211 212
f 157 212 210
f 158 210 159
f 159 210 213
f 159 213 214
f 159 214 215
f 159 215 160
f 160 216 162
f 160 215 216
f 161 163 217
f 161 217 218
f 161 218 164
f 162 216 163
f 163 216 217
f 164 218 219
f 164 219 220
f 164 220 221
f 164 221 165
f 165 221 222
f 165 222 166
f 166 222 223
f 166 223 224
f 166 224 168
f 167 169 225
f 167 225 170
f 168 225 169
f 168 224 226
f 168 226 227
f 168 227 225
f 173 228 174
f 174 228 229
f 174 229 175
f 175 229 230
f 175 230 231
f 175 231 176
f 176 231 232
f 176 232 177
f 177 232 233
f 177 233 234
f 177 234 178
f 178 234 235
f 178 235 192
f 179 191 236
f 179 236 237
f 179 237 180
f 180 237 238
f 180 238 181
f 181 238 182
f 182 238 239
f 182 239 240
f 182 240 241
f 182 241 183
f 183 241 242
f 183 242 184
f 184 242 243
f 184 243 185
f 185 243 186
f 186 244 245
f 186 245 187
f 186 243 246
f 186 246 244
f 187 245 247
f 187 247 248
f 187 248 249
f 187 249 188
f 188 249 211
f 189 204 250
f 189 250 190
f 190 250 251
f 190 251 191
f 191 251 252
f 191 252 253
f 191 253 236
f 192 235 254
f 192 254 255
f 192 255 256
f 192 256 193
f 193 256 257
f 193 257 194
f 194 257 195
f 195 257 258
f 195 258 259
f 195 259 205
f 196 209 260
f 196 260 261
f 196 261 197
f 197 261 198
f 198 261 199
f 199 261 200
f 200 261 262
f 200 262 263
f 200 263 201
f 201 263 264
f 201 264 202
f 202 264 203
f 203 264 265
f 203 265 204
f 204 265 250
f 205 259 266
f 205 266 267
f 205 267 268
f 205 268 206
f 206 268 207
f 207 268 269
f 207 269 270
f 207 270 208
f 208 270 209
f 209 270 271
f 209 271 272
f 209 272 260
f 210 212 273
f 210 273 213
f 211 249 212
f 212 249 248
f 212 248 274
f 212 274 275
f 212 275 273
f 213 273 276
f 213 276 277
f 213 277 214
f 214 277 278
f 214 278 215
f 215 279 216
f 215 278 280
f 215 280 281
f 215 281 279
f 216 282 217
f 216 279 283
f 216 283 282
f 217 284 218
f 217 282 284
f 218 284 219
f 219 284 285
f 219 285 286
f 219 286 220
f 220 287 288
f 220 288 221
f 220 286 287
f 221 288 289
f 221 289 222
f 222 289 290
f 222 290 291
f 222 291 223
f 223 291 292
f 223 292 293
f 223 293 224
f 224 294 226
f 224 293 294
f 226 294 295
f 226 295 227
f 230 296 231
f 231 296 232
f 232 296 297
f 232 297 233
f 233 298 234
f 233 297 299
f 233 299 300
f 233 300 301
f 233 301 298
f 234 298 235
f 235 298 302
f 235 302 303
f 235 303 254
f 236 253 304
f 236 304 305
f 236 305 306
f 236 306 237
f 237 306 307
f 237 307 308
f 237 308 309
f 237 309 310
f 237 310 238
f 238 310 239
f 239 310 311
f 239 311 312
f 239 312 313
f 239 313 240
f 240 313 241
f 241 313 420
f 241 420 314
f 241 314 242
f 242 314 315
f 242 315 243
f 243 315 316
f 243 316 246
f 244 246 316
f 244 316 317
f 244 317 318
f 244 318 319
f 244 319 320
f 244 320 245
f 245 320 321
f 245 321 322
f 245 322 247
f 247 322 323
f 247 323 248
f 248 323 324
f 248 324 325
f 248 325 326
f 248 326 274
f 250 265 327
f 250 327 328
f 250 328 251
f 251 328 329
f 251 329 252
f 252 329 253
f 253 329 330
f 253 330 331
f 253 331 304
f 254 332 333
f 254 333 334
f 254 334 255
f 254 303 332
f 255 334 335
f 255 335 256
f 256 336 257
f 256 335 336
f 257 335 258
f 257 336 335
f 258 335 337
f 258 337 259
f 259 337 266
f 260 272 338
f 260 338 339
f 260 339 340
f 260 340 261
f 261 340 262
f 262 340 341
f 262 341 342
f 262 342 343
f 262 343 263
f 263 343 264
f 264 343 344
f 264 344 265
f 265 344 345
f 265 345 346
f 265 346 327
f 266 347 348
f 266 348 349
f 266 349 267
f 266 337 350
f 266 350 351
f 266 351 352
f 266 352 353
f 266 353 354
f 266 354 355
f 266 355 356
f 266 356 357
f 266 357 358
f 266 358 359
f 266 359 360
f 266 360 361
f 266 361 347
f 267 349 362
f 267 362 268
f 268 362 269
f 269 362 363
f 269 363 364
f 269 364 270
f 270 364 365
f 270 365 366
f 270 366 338
f 270 338 271
f 271 338 272
f 273 275 276
f 274 326 275
f 275 326 367
f 275 367 368
f 275 368 369
f 275 369 276
f 276 369 370
f 276 370 277
f 277 370 371
f 277 371 372
f 277 372 278
f 278 372 373
f 278 373 280
f 279 281 374
f 279 374 283
f 280 373 375
f 280 375 281
f 281 375 376
f 281 376 377
f 281 377 374
f 282 283 378
f 282 378 379
f 282 379 284
f 283 374 378
f 284 379 286
f 284 286 285
f 286 380 287
f 286 379 378
f 286 378 381
f 286 381 382
f 286 382 380
f 287 383 288
f 287 380 383
f 288 384 289
f 288 383 384
f 289 384 385
f 289 385 290
f 290 386 387
f 290 387 388
f 290 388 291
f 290 385 386
f 291 388 292
f 292 389 293
f 292 388 390
f 292 390 391
f 292 391 392
f 292 392 389
f 293 389 393
f 293 393 394
f 293 394 294
f 294 394 295
f 296 395 297
f 297 395 396
f 297 396 299
f 298 301 397
f 298 397 398
f 298 398 302
f 299 396 399
f 299 399 300
f 300 400 301
f 300 399 401
f 300 401 400
f 301 402 397
f 301 400 402
f 302 398 403
f 302 403 404
f 302 404 405
f 302 405 406
f 302 406 303
f 303 407 408
f 303 408 332
f 303 406 407
f 304 331 409
f 304 409 305
f 305 409 410
f 305 410 306
f 306 410 307
f 307 410 411
f 307 411 412
f 307 412 308
f 308 412 309
f 309 412 413
f 309 413 311
f 309 311 310
f 311 413 414
f 311 414 415
f 311 415 416
f 311 416 417
f 311 417 418
f 311 418 312
f 312 418 419
f 312 419 313
f 313 419 420
f 314 420 507
f 314 507 421
f 314 421 422
f 314 422 423
f 314 423 424
f 314 424 315
f 315 424 425
f 315 425 316
f 316 425 426
f 316 426 317
f 317 426 427
f 317 427 428
f 317 428 318
f 318 428 429
f 318 429 319
f 319 429 320
f 320 429 430
f 320 430 321
f 321 430 322
f 322 430 431
f 322 431 432
f 322 432 323
f 323 432 324
f 324 432 433
f 324 433 434
f 324 434 325
f 325 434 435
f 325 435 326
f 326 435 367
f 327 346 328
f 328 346 436
f 328 436 329
f 329 436 437
f 329 437 438
f 329 438 330
f 330 438 439
f 330 439 331
f 331 439 409
f 332 408 353
f 332 353 352
f 332 352 440
f 332 440 333
f 333 440 334
f 334 440 335
f 335 440 350
f 335 350 337
f 347 361 441
f 347 441 442
f 347 442 443
f 347 443 444
f 347 444 445
f 347 445 446
f 347 446 348
f 348 446 447
f 348 447 448
f 348 448 349
f 349 448 449
f 349 449 450
f 349 450 451
f 349 451 452
f 349 452 362
f 350 440 351
f 351 440 352
f 353 408 354
f 354 408 453
f 354 453 355
f 355 453 356
f 356 453 454
f 356 454 357
f 357 454 358
f 358 454 455
f 358 455 359
f 359 455 456
f 359 456 360
f 360 456 361
f 361 456 457
f 361 457 441
f 362 458 459
f 362 459 363
f 362 452 458
f 367 435 368
f 368 435 460
f 368 460 369
f 369 460 370
f 370 460 461
f 370 461 371
f 371 461 462
f 371 462 463
f 371 463 372
f 372 463 464
f 372 464 373
f 373 464 465
f 373 465 375
f 374 466 378
f 374 377 467
f 374 467 546
f 374 546 466
f 375 465 376
f 376 465 468
f 376 468 377
f 377 468 469
f 377 469 470
f 377 470 467
f 378 466 471
f 378 471 381
f 380 382 472
f 380 472 383
f 381 471 382
f 382 471 473
f 382 473 472
f 383 474 475
f 383 475 385
f 383 385 384
f 383 472 476
f 383 476 474
f 385 475 386
f 386 475 477
f 386 477 478
f 386 478 479
f 386 479 480
f 386 480 387
f 387 480 481
f 387 481 482
f 387 482 483
f 387 483 388
f 388 483 484
f 388 484 390
f 389 392 485
f 389 485 486
f 389 486 393
f 390 487 391
f 390 484 488
f 390 488 487
f 391 487 489
f 391 489 392
f 392 489 485
f 397 490 491
f 397 491 492
f 397 492 398
f 397 402 490
f 398 492 493
f 398 493 494
f 398 494 403
f 400 401 495
f 400 495 402
f 402 495 496
f 402 496 497
f 402 497 490
f 403 494 498
f 403 498 499
f 403 499 404
f 404 499 454
f 404 454 500
f 404 500 405
f 405 500 453
f 405 453 406
f 406 453 407
f 407 453 408
f 409 439 501
f 409 501 502
f 409 502 503
f 409 503 410
f 410 503 504
f 410 504 411
f 411 504 412
f 412 504 505
f 412 505 414
f 412 414 413
f 418 506 419
f 419 506 420
f 420 506 507
f 423 508 425
f 423 425 424
f 425 508 509
f 425 509 426
f 426 509 510
f 426 510 427
f 427 510 511
f 427 511 428
f 428 511 429
f 429 511 512
f 429 512 513
f 429 513 430
f 430 513 514
f 430 514 515
f 430 515 516
f 430 516 431
f 431 516 517
f 431 517 432
f 432 517 433
f 433 517 518
f 433 518 434
f 434 518 519
f 434 519 520
f 434 520 435
f 435 520 521
f 435 521 522
f 435 522 460
f 441 457 442
f 442 457 523
f 442 523 443
f 443 523 524
f 443 524 444
f 444 524 525
f 444 525 526
f 444 526 445
f 445 526 527
f 445 527 446
f 446 528 447
f 446 527 529
f 446 529 530
f 446 530 531
f 446 531 532
f 446 532 533
f 446 533 528
f 447 528 534
f 447 534 448
f 448 535 536
f 448 536 449
f 448 534 528
f 448 528 535
f 449 536 537
f 449 537 538
f 449 538 539
f 449 539 540
f 449 540 450
f 450 540 451
f 451 540 452
f 452 540 458
f 453 500 454
f 454 499 498
f 454 498 455
f 455 498 541
f 455 541 456
f 456 541 542
f 456 542 543
f 456 543 544
f 456 544 457
f 457 544 523
f 460 522 545
f 460 545 462
f 460 462 461
f 466 546 471
f 467 470 547
f 467 547 546
f 471 546 548
f 471 548 549
f 471 549 473
f 472 473 476
f 473 550 551
f 473 551 552
f 473 552 476
f 473 549 550
f 474 477 475
f 474 476 477
f 476 552 477
f 477 552 551
f 477 551 478
f 478 553 554
f 478 554 479
f 478 551 555
f 478 555 553
f 479 554 480
f 480 554 481
f 481 556 482
f 481 554 556
f 482 556 557
f 482 557 558
f 482 558 483
f 483 558 559
f 483 559 560
f 483 560 484
f 484 561 488
f 484 560 562
f 484 562 561
f 487 488 563
f 487 563 489
f 488 561 564
f 488 564 563
f 490 497 565
f 490 565 491
f 491 565 566
f 491 566 567
f 491 567 492
f 492 567 568
f 492 568 493
f 493 568 569
f 493 569 570
f 493 570 494
f 494 571 541
f 494 541 498
f 494 570 571
f 523 544 572
f 523 572 524
f 524 572 573
f 524 573 525
f 525 573 574
f 525 574 575
f 525 575 576
f 525 576 526
f 526 576 577
f 526 577 527
f 527 577 578
f 527 578 579
f 527 579 529
f 528 533 580
f 528 580 581
f 528 581 536
f 528 536 535
f 529 579 582
f 529 582 530
f 530 582 583
f 530 583 584
f 530 584 585
f 530 585 531
f 531 585 532
f 532 585 586
f 532 586 587
f 532 587 588
f 532 588 589
f 532 589 590
f 532 590 591
f 532 591 533
f 533 591 580
f 536 581 592
f 536 592 593
f 536 593 594
f 536 594 595
f 536 595 537
f 537 595 596
f 537 596 597
f 537 597 538
f 538 597 539
f 539 597 596
f 539 596 540
f 540 596 598
f 541 571 542
f 542 571 543
f 543 571 599
f 543 599 600
f 543 600 544
f 544 600 572
f 546 547 601
f 546 601 548
f 548 602 549
f 548 601 603
f 548 603 604
f 548 604 602
f 549 605 550
f 549 602 606
f 549 606 607
f 549 607 608
f 549 608 605
f 550 609 610
f 550 610 611
f 550 611 612
f 550 612 613
f 550 613 614
f 550 614 555
f 550 555 551
f 550 605 609
f 553 555 614
f 553 614 615
f 553 615 554
f 554 615 556
f 556 615 616
f 556 616 557
f 557 617 558
f 557 616 618
f 557 618 617
f 558 617 619
f 558 619 559
f 559 619 620
f 559 620 621
f 559 621 560
f 560 622 562
f 560 621 622
f 561 562 623
f 561 623 624
f 561 624 564
f 562 622 623
f 566 625 567
f 567 625 626
f 567 626 568
f 568 626 627
f 568 627 628
f 568 628 629
f 568 629 569
f 569 630 631
f 569 631 632
f 569 632 570
f 569 629 630
f 570 632 633
f 570 633 599
f 570 599 571
f 572 600 599
f 572 599 633
f 572 633 634
f 572 634 635
f 572 635 573
f 573 635 636
f 573 636 574
f 574 636 637
f 574 637 575
f 575 637 638
f 575 638 576
f 576 638 582
f 576 582 577
f 577 582 639
f 577 639 578
f 578 639 579
f 579 639 582
f 580 591 590
f 580 590 581
f 581 590 640
f 581 640 592
f 582 638 641
f 582 641 583
f 583 641 642
f 583 642 643
f 583 643 584
f 584 643 585
f 585 643 586
f 586 643 644
f 586 644 642
f 586 642 645
f 586 645 646
f 586 646 587
f 587 646 647
f 587 647 588
f 588 648 589
f 588 647 648
f 589 648 649
f 589 649 590
f 590 649 640
f 592 640 650
f 592 650 651
f 592 651 593
f 593 651 652
f 593 652 594
f 594 652 653
f 594 653 596
f 594 596 595
f 596 653 654
f 596 654 655
f 596 655 598
f 598 655 656
f 598 656 695
f 598 695 657
f 602 604 658
f 602 658 606
f 605 659 660
f 605 660 609
f 605 608 661
f 605 661 662
f 605 662 663
f 605 663 659
f 606 658 607
f 607 658 608
f 608 658 664
f 608 664 665
f 608 665 661
f 609 660 666
f 609 666 610
f 610 666 667
f 610 667 668
f 610 668 611
f 611 668 618
f 611 618 612
f 612 618 615
f 612 615 613
f 613 615 614
f 615 618 616
f 617 669 670
f 617 670 671
f 617 671 619
f 617 618 669
f 618 668 669
f 619 671 672
f 619 672 673
f 619 673 620
f 620 674 675
f 620 675 621
f 620 673 676
f 620 676 674
f 621 675 677
f 621 677 678
f 621 678 622
f 622 678 623
f 628 679 629
f 629 679 680
f 629 680 631
f 629 631 630
f 631 680 681
f 631 681 632
f 632 681 682
f 632 682 683
f 632 683 633
f 633 683 684
f 633 684 685
f 633 685 686
f 633 686 634
f 634 636 635
f 634 686 636
f 636 686 637
f 637 686 638
f 638 686 641
f 640 649 687
f 640 687 688
f 640 688 689
f 640 689 650
f 641 686 642
f 642 644 643
f 642 686 690
f 642 690 691
f 642 691 692
f 642 692 645
f 647 693 648
f 648 693 649
f 649 693 687
f 650 689 694
f 650 694 651
f 651 694 652
f 652 657 653
f 653 657 654
f 654 657 695
f 654 695 656
f 654 656 655
f 659 696 660
f 659 663 697
f 659 697 698
f 659 698 699
f 659 699 696
f 660 700 701
f 660 701 666
f 660 696 702
f 660 702 700
f 661 665 662
f 662 665 703
f 662 703 704
f 662 704 705
f 662 705 706
f 662 706 663
f 663 706 707
f 663 707 708
f 663 708 709
f 663 709 697
f 664 710 665
f 665 710 711
f 665 711 704
f 665 704 703
f 666 701 712
f 666 712 667
f 667 712 713
f 667 713 668
f 668 713 714
f 668 714 669
f 669 714 670
f 670 715 671
f 670 714 713
f 670 713 715
f 671 715 716
f 671 716 672
f 672 716 717
f 672 717 718
f 672 718 719
f 672 719 720
f 672 720 721
f 672 721 673
f 673 721 722
f 673 722 723
f 673 723 676
f 674 676 675
f 675 676 724
f 675 724 725
f 675 725 726
f 675 726 677
f 676 723 724
f 680 727 681
f 681 727 682
f 682 727 728
f 682 728 683
f 683 728 729
f 683 729 684
f 684 729 730
f 684 730 690
f 684 690 685
f 685 690 686
f 690 730 691
f 696 699 731
f 696 731 732
f 696 732 702
f 697 709 698
f 698 709 699
f 699 709 733
f 699 733 734
f 699 734 731
f 700 735 736
f 700 736 737
f 700 737 701
f 700 702 738
f 700 738 735
f 701 737 739
f 701 739 740
f 701 740 712
f 702 732 741
f 702 741 742
f 702 742 738
f 704 711 743
f 704 743 744
f 704 744 705
f 705 744 706
f 706 744 743
f 706 743 745
f 706 745 707
f 707 746 708
f 708 747 709
f 708 746 747
f 709 747 733
f 710 745 743
f 710 743 711
f 712 740 748
f 712 748 716
f 712 716 713
f 713 716 715
f 716 748 749
f 716 749 717
f 717 749 750
f 717 750 718
f 718 751 752
f 718 752 753
f 718 753 754
f 718 754 719
f 718 750 751
f 719 754 720
f 720 754 755
f 720 755 756
f 720 756 721
f 721 756 722
f 722 756 757
f 722 757 758
f 722 758 723
f 723 758 724
f 731 734 759
f 731 759 732
f 732 759 741
f 733 747 760
f 733 760 761
f 733 761 762
f 733 762 763
f 733 763 734
f 734 764 741
f 734 741 759
f 734 763 764
f 735 765 766
f 735 766 736
f 735 738 765
f 736 766 737
f 737 767 739
f 737 766 767
f 738 742 765
f 739 768 769
f 739 769 770
f 739 770 748
f 739 748 740
f 739 767 768
f 741 764 771
f 741 771 772
f 741 772 773
f 741 773 742
f 742 773 774
f 742 774 775
f 742 775 765
f 746 776 747
f 747 776 760
f 748 770 750
f 748 750 749
f 750 770 769
f 750 769 751
f 751 769 777
f 751 777 752
f 752 775 774
f 752 774 753
f 752 777 765
f 752 765 775
f 753 774 778
f 753 778 773
f 753 773 779
f 753 779 755
f 753 755 754
f 762 780 781
f 762 781 763
f 763 781 764
f 764 781 771
f 765 777 768
f 765 768 782
f 765 782 766
f 766 782 767
f 767 782 768
f 768 777 769
f 771 781 780
f 771 780 772
f 772 780 783
f 772 783 773
f 773 778 774
f 773 783 784
f 773 784 779
