# Derived from Apache-2.0 SO-ARM100 STL; see THIRD_PARTY.md
v -0.0100000001 -0.020996991 0.0142583619
v -0.00999412811 -0.021094232 0.0142583619
v -0.0100000001 -0.020996991 0.0183358138
v -0.0100000001 -0.0163513791 0.0142583619
v -0.00998238287 -0.0211695151 0.0142583619
v -0.00998238287 -0.0211695151 0.0183358138
v -0.00999412811 -0.0210848213 0.0183358138
v -0.0100000001 -0.0209938532 0.0184235427
v -0.00999412811 -0.0210816848 0.0184292631
v -0.0100000001 -0.00743030062 0.0160005286
v -0.00996280745 0.000854006622 0.0175014433
v -0.0098531865 0.00169780843 0.0175014433
v -0.00967309543 0.0025353346 0.0175014433
v -0.00941861846 0.00335090559 0.0175014433
v -0.00909758578 0.00414138222 0.0175014433
v -0.00871391245 0.00490362528 0.0175014433
v -0.00924635687 -0.0150464666 0.0142583619
v -0.00998042532 -0.0211789258 0.0142583619
v -0.00998238287 -0.0211663787 0.0184368918
v -0.00996280745 -0.0212573454 0.0183358138
v -0.00999412811 -0.0210691376 0.0185227124
v -0.0100000001 -0.020981306 0.0185084092
v -0.00998238287 -0.0211538315 0.0185379697
v -0.0100000001 -0.0024584606 0.0175014433
v -0.00999804251 7.95451497e-07 0.0175014433
v -0.00997063762 0.000744219801 0.0229987571
v -0.00996280745 0.000854006622 0.0229987571
v -0.00988842225 0.0014813685 0.0229987571
v -0.0098531865 0.00169780843 0.0229987571
v -0.00975139571 0.0022122443 0.0229987571
v -0.00967309543 0.0025353346 0.0229987571
v -0.00961828495 0.00272668016 0.020998173
v -0.00941861846 0.00335090559 0.020998173
v -0.00909758578 0.00414138222 0.020998173
v -0.00871391245 0.00490362528 0.020998173
v -0.00826172654 0.00562822817 0.0175014433
v -0.0087589359 -0.014205804 0.0142583619
v -0.00996280745 -0.0212573454 0.0142583619
v -0.00996280745 -0.0212510725 0.0184445204
v -0.00996280745 -0.0212385253 0.018552273
v -0.0099373601 -0.0213389028 0.0183358138
v -0.0099373601 -0.0213357663 0.018451195
v -0.00999412811 -0.0210503162 0.0186142549
v -0.0100000001 -0.0209656224 0.018592323
v -0.00998238287 -0.0211318736 0.0186361868
v -0.0100000001 -0.0024584606 0.0229987571
v -0.00999804251 7.95451497e-07 0.0229987571
v -0.00996672253 0.000744219801 0.0230855305
v -0.00999608566 7.95451497e-07 0.0230855305
v -0.00988450716 0.0014813685 0.0230855305
v -0.00974748063 0.00220910784 0.0230855305
v -0.00961436987 0.00272668016 0.0230855305
v -0.00961632741 0.00272668016 0.023049294
v -0.00961828495 0.00272668016 0.0229987571
v -0.00826172654 0.00562822817 0.020998173
v -0.00960849724 0.00272668016 0.0231255806
v -0.009596752 0.00272668016 0.0232028185
v -0.00774885753 0.00631205169 0.0175014433
v 0.000770249134 -0.0142026662 0.0142583619
v -0.00718117805 0.00695195938 0.0175014433
v -0.00656064563 0.00753854189 0.0175014433
v -0.0058931329 0.00807179922 0.0175014433
v -0.00518451249 0.00854545845 0.0175014433
v -0.00443674159 0.00895951685 0.0175014433
v -0.00365569317 0.00930456781 0.0175014433
v -0.0028452818 0.00958374228 0.0175014433
v -0.00201921027 0.00979077285 0.0175014433
v -0.00117552112 0.00992565404 0.0175014433
v -0.000324001978 0.00999466423 0.0175014433
v -0.0099373601 -0.0213389028 0.0142583619
v -0.00996280745 -0.0212134296 0.0186562118
v -0.0099373601 -0.0213200813 0.0185656234
v -0.0099373601 -0.0212949869 0.0186790978
v -0.00990408189 -0.0214204588 0.0183358138
v -0.00990408189 -0.0214141859 0.0184588236
v -0.00990408189 -0.0213985022 0.0185799267
v -0.00999412811 -0.0210220854 0.0187029365
v -0.0100000001 -0.0209373915 0.018673376
v -0.00996280745 -0.0211820623 0.0187601507
v -0.00998238287 -0.0211005049 0.0187324984
v -0.0100000001 -0.00763105555 0.0229987571
v -0.00995693483 0.000741083348 0.0231723066
v -0.00998434041 7.95451497e-07 0.0231723066
v -0.00999608566 -0.00684057892 0.0230855305
v -0.00987276191 0.00147823205 0.0231723066
v -0.00973377853 0.00220910784 0.0231723066
v -0.00774885753 0.00631205169 0.020998173
v -0.00958500743 0.00272354371 0.0232581259
v -0.00957130464 0.00272354371 0.0233019896
v -0.00971616065 0.00220283494 0.0232581259
v 0.00527253487 -0.014205804 0.0142583619
v -0.00718117805 0.00695195938 0.020998173
v -0.00656064563 0.00753854189 0.020998173
v -0.0058931329 0.00807179922 0.020998173
v -0.00518451249 0.00854545845 0.020998173
v -0.00443674159 0.00895951685 0.020998173
v -0.00365569317 0.00930456781 0.020998173
v -0.0028452818 0.00958374228 0.020998173
v -0.00201921027 0.00979077285 0.020998173
v -0.00117552112 0.00992565404 0.020998173
v -0.000324001978 0.00999466423 0.020998173
v 0.000527517249 0.00998211568 0.0175014433
v -0.00990408189 -0.0214204588 0.0142583619
v -0.00990408189 -0.0213734079 0.0186981687
v -0.0099373601 -0.0212604818 0.0187878044
v -0.00986297421 -0.0214957432 0.0183358138
v -0.00986297421 -0.0214926054 0.0184654996
v -0.00986297421 -0.0214737853 0.0185942299
v -0.00986297421 -0.021448691 0.0187181938
v -0.00998238287 -0.0210628634 0.0188249936
v -0.00999412811 -0.0209844438 0.0187897112
v -0.0100000001 -0.0209060229 0.018752522
v -0.00996280745 -0.0211412829 0.0188612286
v -0.0100000001 -0.0197987303 0.0194781873
v -0.00999412811 -0.0198238246 0.0195621011
v -0.00999412811 -0.0076404649 0.0230864846
v -0.00996476499 7.95451497e-07 0.0232581259
v -0.00993540256 0.000741083348 0.0232581259
v -0.00985514404 0.0014750956 0.0232581259
v -0.00998434041 -0.00684057892 0.0231723066
v -0.00997846778 -0.0024584606 0.0231999589
v -0.0095458566 0.00272040726 0.0233754138
v -0.00952236679 0.00272040726 0.0234211858
v -0.00951062154 0.0027172708 0.0234469327
v -0.00969071261 0.00219656203 0.0233401342
v 0.00541347511 -0.0142089404 0.0142583619
v -0.00945972615 0.0027109979 0.0235384738
v -0.00941274584 0.00270472499 0.0236033166
v -0.00936380799 0.00270158854 0.0236633918
v -0.00930703997 0.00269531289 0.0237206046
v -0.00924831441 0.00268903998 0.0237730525
v -0.009228739 0.00268590353 0.0237892639
v -0.0091641415 0.00267962788 0.0238350331
v -0.00903690268 0.00266708207 0.0239046437
v -0.00163749482 0.00660691117 0.0239990471
v -0.00156115173 0.00664455409 0.0239990471
v -0.00148089356 0.00667905782 0.0239990471
v -0.00139867785 0.00670415218 0.0239990471
v -0.00131450476 0.00672297364 0.0239990471
v -0.00122837405 0.00673238574 0.0239990471
v -0.00114224334 0.00673552219 0.0239990471
v 0.000527517249 0.00998211568 0.020998173
v 0.00137707893 0.00990369613 0.0175014433
v 0.00558965179 -0.0142246241 0.0142583619
v -0.00986297421 -0.0214957432 0.0142583619
v -0.00990408189 -0.0213357663 0.0188164122
v -0.0099373601 -0.0212165674 0.0188955583
v -0.00981795144 -0.0215710263 0.0183358138
v -0.00981795144 -0.0215647521 0.01847122
v -0.00981795144 -0.0215490684 0.0186066263
v -0.00981795144 -0.0215176998 0.0187372661
v -0.00981795144 -0.0214769218 0.0188669505
v -0.00986297421 -0.0214079116 0.0188421577
v -0.00998238287 -0.0210189475 0.018915582
v -0.00999412811 -0.020940528 0.0188717182
v -0.0100000001 -0.0208652449 0.0188297613
v -0.00996280745 -0.0210910942 0.0189575389
v -0.0099373601 -0.0211632408 0.0189994958
v -0.0100000001 -0.0201218219 0.0193694807
v -0.00998238287 -0.0198457825 0.0196441082
v -0.00999217057 -0.0112760252 0.0220604463
v -0.00999412811 -0.0201531892 0.0194505336
v -0.00998238287 -0.0201845578 0.0195306338
v -0.00998238287 -0.00765301346 0.0231723066
v -0.0099373601 7.95451497e-07 0.0233401342
v -0.00990995452 0.000737944153 0.0233401342
v -0.00996476499 -0.00684057892 0.0232581259
v -0.00995693483 -0.0024584606 0.0232838727
v -0.00982773915 0.00147195914 0.0233401342
v -0.00965939264 0.00219028639 0.0234211858
v -0.00947342894 0.0027109979 0.0235155892
v -0.00961828495 0.00218087703 0.0234984264
v -0.00957521972 0.00217146767 0.0235718507
v -0.00952040925 0.00215891911 0.0236414585
v -0.00946559877 0.00214637056 0.0237053501
v -0.00940100059 0.0021306883 0.0237644711
v -0.00933444487 0.00211500329 0.0238178703
v -0.00926397474 0.00209932102 0.0238645936
v -0.00909367069 0.00267021853 0.0238750832
v -0.00918567377 0.00208363602 0.0239046437
v -0.00910737348 0.00206481456 0.0239380178
v -0.00902319989 0.00266394562 0.0239103655
v -0.00894685714 0.00265767271 0.0239408801
v -0.00892728173 0.00265453626 0.0239475561
v -0.00886855617 0.00264826061 0.0239647188
v -0.00885093898 0.00264512416 0.0239694866
v -0.00876872292 0.00263885125 0.023985698
v -0.00869433772 0.00262943915 0.0239952334
v -0.00860820727 0.00262002979 0.0239990471
v -0.00898013466 -0.00684057892 0.0240000012
v 0.00851809474 -0.00684057892 0.0240000012
v -0.00105611272 0.00673238574 0.0239990471
v 0.00137707893 0.00990369613 0.020998173
v 0.00221685308 0.00974685703 0.0175014433
v 0.00570123028 -0.0142434442 0.0142583619
v -0.00981795144 -0.0215710263 0.0142583619
v -0.00986297421 -0.0213608607 0.0189603998
v -0.00990408189 -0.021288714 0.0189289324
v -0.00990408189 -0.0212353875 0.019037639
v -0.0097650985 -0.0216400365 0.0183358138
v -0.0097650985 -0.0216337622 0.018477896
v -0.0097650985 -0.0216149408 0.0186171158
v -0.0097650985 -0.0215835735 0.018755383
v -0.0097650985 -0.0215427955 0.0188907892
v -0.00981795144 -0.021426733 0.0189918685
v -0.00996280745 -0.0210346326 0.0190490813
v -0.00998238287 -0.0209656224 0.0190004499
v -0.00999412811 -0.0208934757 0.0189508643
v -0.0100000001 -0.0208213291 0.0189012787
v -0.0099373601 -0.0211036414 0.0190967601
v -0.0100000001 -0.0204355015 0.0192340745
v -0.00996280745 -0.0198708769 0.0197261138
v -0.00997846778 -0.0112760252 0.0221500806
v -0.00999412811 -0.0204700066 0.0193122665
v -0.00998238287 -0.020510786 0.0193895058
v -0.00996280745 -0.0205484275 0.0194657909
v -0.00996280745 -0.0202127887 0.0196097799
v -0.00996280745 -0.00766555927 0.0232571718
v -0.00990408189 7.95451497e-07 0.0234211858
v -0.00987863454 0.0007348077 0.0234211858
v -0.00993931764 -0.00684057892 0.0233401342
v -0.00992757239 -0.0024584606 0.0233668325
v -0.00993931764 -0.00767810782 0.0233401342
v -0.00979446094 0.00146882269 0.0234211858
v -0.0097553108 0.00146254704 0.0234984264
v -0.00970833049 0.00145627414 0.0235718507
v -0.0096574351 0.00144686478 0.0236414585
v -0.009596752 0.00143745542 0.0237053501
v -0.0095360689 0.00142804332 0.0237644711
v -0.00946755631 0.00141863122 0.0238178703
v -0.00939317042 0.00140608541 0.0238645936
v -0.00931487014 0.00139667605 0.0239046437
v -0.00923852671 0.00138412749 0.0239380178
v -0.00902907251 0.0020459931 0.0239647188
v -0.0089448996 0.00202717438 0.0239837898
v -0.00886072669 0.00200835292 0.0239952334
v -0.00877459555 0.00198953146 0.0239990471
v -0.00899775253 -0.00777221238 0.0240000012
v -0.00889791929 0.00133393876 0.0239990471
v -0.00897230449 0.000668936704 0.0239990471
v -0.00899775253 7.95451497e-07 0.0239990471
v 0.00842217658 -0.00697546285 0.0240000012
v 0.00751388968 -0.019356441 0.0203783548
v 0.0086003108 -0.00684057892 0.0239618593
v 0.00860618342 -0.00671197064 0.0239990471
v 0.00883325481 -0.00634496451 0.0239990471
v 0.00897223819 -0.0060908844 0.0239990471
v 0.0090661995 -0.0059089482 0.0239990471
v 0.00911905243 -0.00579916138 0.0239990471
v 0.00930501613 -0.00538510297 0.0239990471
v 0.00940876446 -0.00513415658 0.0239990471
v 0.00954774784 -0.00477342336 0.0239990471
v 0.00979439464 -0.0024584606 0.0239990471
v 0.00994316642 -0.00105317064 0.0239990471
v 0.00999797621 -0.000199959473 0.0239990471
v 0.00997840148 0.000653251697 0.0239990471
v 0.00988639841 0.00150332641 0.0239990471
v 0.00985116266 0.00171349344 0.0239990471
v -0.000723335124 0.00664455409 0.0239990471
v -0.000805550752 0.00667905782 0.0239990471
v -0.000887766379 0.00670415218 0.0239990471
v -0.000971939548 0.00672297364 0.0239990471
v 0.00221685308 0.00974685703 0.020998173
v 0.00304096707 0.00952414145 0.0175014433
v 0.00584608629 -0.0142716764 0.0142583619
v -0.0097650985 -0.0216400365 0.0142583619
v -0.00986297421 -0.0213012612 0.019076735
v -0.00986297421 -0.021232251 0.0191844889
v -0.00990408189 -0.0211695151 0.0191396711
v -0.00969658524 -0.0217121832 0.0142583619
v -0.0097044154 -0.0217027724 0.0183358138
v -0.0097044154 -0.0216964982 0.0184836164
v -0.0097044154 -0.0216808145 0.0186285595
v -0.0097044154 -0.0216463094 0.0187706403
v -0.0097044154 -0.0216055314 0.0189108142
v -0.0097650985 -0.021489469 0.019021429
v -0.0097650985 -0.021426733 0.0191444388
v -0.00981795144 -0.0213639971 0.0191129715
v -0.00996280745 -0.0209687588 0.0191329952
v -0.00998238287 -0.0209028864 0.0190815028
v -0.00999412811 -0.0208370127 0.0190271495
v -0.0100000001 -0.0207680039 0.0189708894
v -0.00990408189 -0.021094232 0.019236934
v -0.0099373601 -0.0210314947 0.0191863958
v -0.0100000001 -0.020510786 0.0191921176
v -0.00999412811 -0.0205547004 0.0192684028
v -0.0099373601 -0.0198928348 0.0198052599
v -0.00993931764 -0.0112760252 0.0222997914
v -0.0099373601 -0.0202441573 0.0196879719
v -0.00998238287 -0.0205986162 0.0193427811
v -0.00996280745 -0.0206425307 0.0194142985
v -0.0099373601 -0.0206833101 0.019485816
v -0.0099373601 -0.0205829326 0.0195401693
v -0.00986493175 7.95451497e-07 0.0234984264
v -0.00990799698 -0.00684057892 0.0234135585
v -0.00990408189 -0.00684057892 0.0234221399
v -0.00989233733 -0.0024584606 0.0234459786
v -0.00983556931 0.000731671247 0.0234984264
v -0.00990408189 -0.00769065364 0.0234221399
v -0.00979054654 0.000728534794 0.0235718507
v -0.00973573607 0.000725398341 0.0236414585
v -0.00967896805 0.000722261888 0.0237053501
v -0.00961241233 0.000715988982 0.0237644711
v -0.0095458566 0.000712852529 0.0238178703
v -0.00947342894 0.000706576882 0.0238645936
v -0.00939317042 0.000700303976 0.0239046437
v -0.0093129126 0.00069403107 0.0239380178
v -0.00923265408 0.000687755422 0.0239647188
v -0.00915631133 0.00137158168 0.0239647188
v -0.00907213842 0.00135903313 0.0239837898
v -0.00898404974 0.00134648732 0.0239952334
v -0.00908584053 -0.00777221238 0.0239952334
v -0.00902907251 -0.0112760252 0.0229844525
v -0.00899775253 -0.0200779061 0.0204374759
v 0.00612796883 -0.0199116549 0.0204870614
v 0.00724766747 -0.00777221238 0.0240000012
v -0.00901341286 -0.0024584606 0.0239990471
v -0.00903690268 -0.00684057892 0.023998093
v -0.00906039317 0.00067520961 0.0239952334
v -0.00908388299 7.95451497e-07 0.0239952334
v 0.00827536303 -0.00715425986 0.0240000012
v 0.00730443549 -0.0193627139 0.0204641755
v 0.00741405644 -0.0193595775 0.0204203117
v 0.00739056594 -0.0195321016 0.020372633
v 0.00759610505 -0.019535238 0.0202763228
v 0.00762155309 -0.0193501668 0.0203278151
v 0.00771551371 -0.0193438925 0.0202791837
v 0.00782317712 -0.0193313453 0.0202191085
v 0.00791322266 -0.0193250724 0.0201628484
v 0.00799348049 -0.0194160391 0.0200741668
v 0.00933046348 -0.00684057892 0.0234440704
v 0.00885870285 -0.0112760252 0.0222559277
v 0.00979439464 -0.0024584606 0.019001404
v 0.00994316642 -0.00105317064 0.019001404
v 0.00999797621 -0.000199959473 0.019001404
v 0.00997840148 0.000653251697 0.019001404
v 0.00988639841 0.00150332641 0.019001404
v 0.00985116266 0.00171349344 0.020998173
v 0.00972196698 0.00234085258 0.020998173
v 0.0094851072 0.00315956002 0.020998173
v 0.00918169239 0.00395630956 0.020998173
v 0.00880976499 0.00472482827 0.020998173
v 0.00837519627 0.00546197697 0.020998173
v 0.0078779876 0.00615521259 0.020998173
v 0.00732205336 0.00680452964 0.020998173
v 0.00671326551 0.00740679716 0.020998173
v 0.00605749803 0.00795260304 0.020998173
v 0.00535670778 0.00844194454 0.020998173
v 0.0046167667 0.00886855149 0.020998173
v 0.00384159056 0.00922928197 0.020998173
v 0.00304096707 0.00952414145 0.020998173
v 0.00384159056 0.00922928197 0.0175014433
v 0.00613775654 -0.0143626431 0.0142583619
v 0.00599289984 -0.0143124544 0.0142583619
v -0.00981795144 -0.0212918505 0.0192264458
v -0.00981795144 -0.0212134296 0.0193332443
v -0.00986297421 -0.0211538315 0.0192874737
v -0.00963981722 -0.0217623719 0.0142583619
v -0.00963981722 -0.0217623719 0.0183358138
v -0.00963981722 -0.0217560976 0.0184883842
v -0.00963981722 -0.0217372775 0.0186371409
v -0.00963981722 -0.0217059089 0.0187868517
v -0.00963981722 -0.0216023936 0.0190719673
v -0.0097044154 -0.0215490684 0.0190490813
v -0.00963981722 -0.0216588566 0.0189327461
v -0.0097044154 -0.0214800582 0.0191768603
v -0.0097044154 -0.0214047751 0.0193008242
v -0.0097650985 -0.0213514499 0.0192655418
v -0.0099373601 -0.0209562116 0.0192731705
v -0.00996280745 -0.0208966122 0.0192140495
v -0.00998238287 -0.0208370127 0.0191549284
v -0.00999412811 -0.0207742768 0.0190967601
v -0.0100000001 -0.0207115409 0.0190347781
v -0.00990408189 -0.0210158111 0.0193294306
v -0.0100000001 -0.0205829326 0.0191444388
v -0.00999412811 -0.0206331213 0.0192169104
v -0.00990408189 -0.0199147913 0.0198834532
v -0.00990408189 -0.0112760252 0.0223846593
v -0.00990408189 -0.0206174363 0.0196135935
v -0.00990408189 -0.0202723881 0.0197623502
v -0.00998238287 -0.0206833101 0.0192855669
v -0.00996280745 -0.0207303623 0.0193551775
v -0.0099373601 -0.0207805511 0.019423834
v -0.00990408189 -0.0207272245 0.0195554266
v -0.0098159939 7.95451497e-07 0.0235718507
v -0.00986493175 -0.00770006574 0.0234984264
v -0.00982382406 -0.00684057892 0.0235632665
v -0.00986493175 -0.0112760252 0.0224638054
v -0.0097650985 7.95451497e-07 0.0236414585
v -0.0097044154 7.95451497e-07 0.0237053501
v -0.00964177476 7.95451497e-07 0.0237644711
v -0.00957326218 7.95451497e-07 0.0238178703
v -0.00949691875 7.95451497e-07 0.0238645936
v -0.00942057601 7.95451497e-07 0.0239046437
v -0.00934031749 7.95451497e-07 0.0239380178
v -0.00925810212 7.95451497e-07 0.0239647188
v -0.00917197167 7.95451497e-07 0.0239837898
v -0.00914652363 0.000681482516 0.0239837898
v -0.00908584053 -0.00684057892 0.0239952334
v -0.00913477838 -0.00684057892 0.0239904657
v -0.00912890575 -0.00776907593 0.0239904657
v -0.00911520365 -0.0112760252 0.022977778
v -0.00908584053 -0.0200747696 0.0204346149
v 0.00606728573 -0.0202472937 0.0203850294
v 0.00601639034 -0.0200779061 0.0204374759
v 0.0060751159 -0.0199963487 0.0204622686
v -0.00908584053 -0.0204794173 0.0202992087
v -0.00899775253 -0.0204794173 0.0203030224
v 0.00610447834 -0.020140642 0.0204174508
v 0.00632567778 -0.0200088959 0.0204498722
v 0.00646270363 -0.0196920785 0.0205414147
v 0.00641376577 -0.0193501668 0.0206472604
v 0.00628848518 -0.0194411335 0.0206224676
v 0.00733967055 -0.00776593947 0.0240000012
v 0.00813637964 -0.00730482879 0.0240000012
v 0.00719872962 -0.0193658504 0.0204985037
v 0.00717719666 -0.0195258273 0.02045464
v 0.00735533088 -0.0197046257 0.0203259083
v 0.00779577154 -0.0195321016 0.0201647552
v 0.00755695491 -0.0197203093 0.0202248304
v 0.00775466385 -0.0197297201 0.020111356
v 0.00797782084 -0.0195258273 0.0200446063
v 0.00796607559 -0.0196199319 0.0142583619
v 0.00800326819 -0.0193344831 0.0143441825
v 0.00800522574 -0.0193125252 0.0201008665
v 0.00933046348 -0.00684057892 0.0190004499
v 0.00802088607 -0.0191776426 0.0142583619
v 0.00880976499 -0.0117465479 0.0189727962
v 0.00815595437 -0.0178884152 0.0142583619
v 0.00816769962 -0.0177598055 0.0142583619
v 0.00968085929 0.00249769442 0.0175014433
v 0.00817552979 -0.0176061015 0.0142583619
v 0.00972196698 0.00234085258 0.019001404
v 0.00968085929 0.00249769442 0.019001404
v 0.0094851072 0.00315956002 0.0175014433
v 0.00918169239 0.00395630956 0.0175014433
v 0.00880976499 0.00472482827 0.0175014433
v 0.00837519627 0.00546197697 0.0175014433
v 0.0078779876 0.00615521259 0.0175014433
v 0.00732205336 0.00680452964 0.0175014433
v 0.00671326551 0.00740679716 0.0175014433
v 0.00605749803 0.00795260304 0.0175014433
v 0.00535670778 0.00844194454 0.0175014433
v 0.0046167667 0.00886855149 0.0175014433
v 0.00637853071 -0.0144661584 0.0142583619
v 0.00628261255 -0.0144222426 0.0142583619
v -0.00981795144 -0.0211224628 0.0194343236
v -0.00986297421 -0.0210691376 0.0193837839
v -0.0097650985 -0.0212667561 0.0193771094
v -0.00957130464 -0.0218156971 0.0142583619
v -0.00957130464 -0.0218156971 0.0183358138
v -0.00957130464 -0.0218094242 0.0184931519
v -0.00957130464 -0.0217874663 0.0186466763
v -0.00957130464 -0.0217560976 0.0188002008
v -0.00957130464 -0.0217090453 0.0189499116
v -0.00957130464 -0.0215804371 0.0192312136
v -0.00963981722 -0.0215333848 0.0192064208
v -0.00957130464 -0.0216494459 0.0190938992
v -0.00963981722 -0.0213608607 0.0194562555
v -0.0097044154 -0.0213169448 0.0194190663
v -0.00963981722 -0.0214518274 0.0193332443
v -0.0099373601 -0.0208715178 0.0193504084
v -0.00996280745 -0.0208181926 0.0192884278
v -0.00998238287 -0.0207617296 0.0192235849
v -0.00999412811 -0.020705268 0.019157788
v -0.0100000001 -0.020648805 0.0190938992
v -0.00986297421 -0.0209750331 0.0194705587
v -0.00990408189 -0.0209248444 0.0194123903
v -0.00986297421 -0.0199367493 0.0199578316
v -0.00986297421 -0.0203006189 0.0198348204
v -0.00986297421 -0.0206519414 0.0196832041
v -0.00990408189 -0.0208276034 0.0194886769
v -0.00986297421 -0.0208746556 0.0195506575
v -0.00986297421 -0.0207648661 0.0196221763
v -0.00981795144 -0.00684057892 0.0235718507
v -0.00981795144 -0.0199587072 0.020029349
v -0.00981795144 -0.00771261155 0.0235718507
v -0.00977097113 -0.00684057892 0.0236338313
v -0.0097650985 -0.00684057892 0.0236414585
v -0.00970637295 -0.00684057892 0.0237053501
v -0.00967701051 -0.00684057892 0.0237330024
v -0.00964177476 -0.00684057892 0.0237654252
v -0.00961241233 -0.00684057892 0.0237892639
v -0.00957326218 -0.0024584606 0.0238178703
v -0.0095360689 -0.00774711801 0.0238426631
v -0.00951062154 -0.0024584606 0.0238579204
v -0.00943427811 -0.0024584606 0.0238989218
v -0.00942253355 -0.0024584606 0.0239046437
v -0.00935402028 -0.0024584606 0.0239332528
v -0.00932857293 -0.0024584606 0.0239427883
v -0.00927180491 -0.0024584606 0.0239609052
v -0.00925810212 -0.0024584606 0.0239647188
v -0.00920916427 -0.00684057892 0.0239771166
v -0.00917197167 -0.00776907593 0.0239828384
v -0.0092013341 -0.0112760252 0.0229634747
v -0.00917001413 -0.0200716318 0.0204241254
v 0.00615341619 -0.0203068932 0.0203583298
v 0.00619256633 -0.0202033779 0.020392658
v 0.00591264201 -0.020391587 0.0203354438
v 0.00588523643 -0.0204668701 0.0203087442
v 0.00611035096 -0.0204104071 0.0203230474
v -0.00917001413 -0.020473143 0.0202887192
v -0.00917001413 -0.0208652449 0.0201189833
v -0.00908584053 -0.0208683814 0.020130427
v -0.00899775253 -0.0208715178 0.0201332879
v 0.00582651156 -0.0206268471 0.0202448554
v 0.00663300768 -0.0198677404 0.0204641755
v 0.00636874301 -0.0203225768 0.020333537
v 0.00644900152 -0.0202159251 0.0203630975
v 0.00651947164 -0.0201030005 0.0203955189
v 0.00667998799 -0.0197454051 0.0204985037
v 0.0066388803 -0.0193595775 0.0206253286
v 0.00651359902 -0.0194693657 0.0206053035
v 0.00740622627 -0.00775339092 0.0240000012
v 0.00800131065 -0.00743030062 0.0240000012
v 0.00708323604 -0.0193689882 0.0205337861
v 0.00696187053 -0.0195101437 0.0205213897
v 0.00693250741 -0.0196513005 0.0204813396
v 0.00714587669 -0.0196795313 0.0204098222
v 0.00710085392 -0.0198332353 0.0203678652
v 0.00730639303 -0.0198708769 0.0202791837
v 0.00750410197 -0.0199022442 0.0201752448
v 0.00792888299 -0.0197328579 0.0199892989
v 0.00795041526 -0.019654437 0.020009324
v 0.0076959383 -0.0199242021 0.0200570027
v 0.00787211497 -0.0199398871 0.0199330388
v 0.00788581776 -0.019889697 0.019947342
v 0.00791713774 -0.0198395083 0.0142583619
v 0.00800131065 -0.0193470303 0.0142583619
v 0.00817552979 -0.017449261 0.0142583619
v 0.00816965716 -0.0172892855 0.0142583619
v 0.00815595437 -0.0171293072 0.0142583619
v 0.0081344221 -0.016963056 0.0142583619
v 0.0081011439 -0.0167999426 0.0142583619
v 0.00806395129 -0.0166336928 0.0142583619
v 0.00801697098 -0.0164674416 0.0142583619
v 0.00796216051 -0.0163074633 0.0142583619
v 0.00789560478 -0.0161380756 0.0142583619
v 0.00782317712 -0.0159749622 0.0142583619
v 0.00774291861 -0.0158181218 0.0142583619
v 0.0076450429 -0.0156518706 0.0142583619
v 0.00755499737 -0.0155138516 0.0142583619
v 0.00752367739 -0.0154667993 0.0142583619
v 0.00745320658 -0.0153695583 0.0142583619
v 0.00734162809 -0.0152315393 0.0142583619
v 0.00722613451 -0.015102931 0.0142583619
v 0.00710085392 -0.0149774578 0.0142583619
v 0.00697361509 -0.0148613967 0.0142583619
v 0.00684441941 -0.0147547436 0.0142583619
v 0.00670543602 -0.0146575026 0.0142583619
v 0.00654883476 -0.0145571251 0.0142583619
v 0.00642551102 -0.0144881149 0.0142583619
v -0.0097650985 -0.0211695151 0.0194829551
v -0.00981795144 -0.0210252218 0.0195277729
v -0.00949691875 -0.0218627494 0.0142583619
v -0.00949691875 -0.0218627494 0.0183358138
v -0.00949691875 -0.0218564751 0.0184979196
v -0.00949691875 -0.0218345185 0.018654305
v -0.00949691875 -0.0218031499 0.0188125972
v -0.00949691875 -0.0216933617 0.0191139242
v -0.00949691875 -0.0217529612 0.0189651675
v -0.00949691875 -0.0216180786 0.0192540982
v -0.00949691875 -0.0215333848 0.0193914126
v -0.00957130464 -0.0214957432 0.019364713
v -0.00957130464 -0.0214016387 0.0194905837
v -0.00963981722 -0.0212604818 0.0195697298
v -0.0097044154 -0.0212165674 0.0195277729
v -0.00981795144 -0.0206833101 0.0197499538
v -0.00981795144 -0.0203257133 0.0199034783
v -0.00981795144 -0.020802509 0.0196860651
v -0.00981795144 -0.0209154336 0.0196116867
v -0.0097650985 -0.0199775286 0.0200941905
v -0.0097650985 -0.0112760252 0.0226125621
v -0.0097650985 -0.0203508077 0.0199683198
v -0.0097650985 -0.0077188872 0.0236405072
v -0.00970637295 -0.00772829655 0.0237053501
v -0.00964177476 -0.00773770591 0.0237654252
v -0.0096065397 -0.00774084237 0.0237930775
v -0.00957130464 -0.00774711801 0.0238178703
v -0.00957130464 -0.0200277174 0.0202639264
v -0.00952432433 -0.0112760252 0.0228290213
v -0.0094714714 -0.0112760252 0.0228614427
v -0.00945972615 -0.00775339092 0.0238865268
v -0.00945581107 -0.00684057892 0.023888435
v -0.00942253355 -0.00684057892 0.0239046437
v -0.00938534026 -0.00684057892 0.0239208551
v -0.00934031749 -0.00776280028 0.0239380178
v -0.00929920981 -0.00776593947 0.0239532779
v -0.00925810212 -0.00776593947 0.0239637647
v -0.00921307935 -0.00776907593 0.0239752084
v -0.00922678214 -0.0112760252 0.0229577529
v -0.00925614458 -0.0200653589 0.0204050544
v 0.00594787707 -0.020551564 0.0202744159
v 0.00606728573 -0.020510786 0.0202858582
v 0.00627282485 -0.0205264696 0.0202610655
v -0.00925614458 -0.0204668701 0.0202696482
v -0.00925614458 -0.0208558342 0.0201018192
v -0.00917001413 -0.0210158111 0.0200388845
v -0.00908584053 -0.0210220854 0.0200474659
v 0.00572276255 -0.0208715178 0.0201332879
v -0.00899775253 -0.0210220854 0.0200512809
v 0.00572276255 -0.0209562116 0.0200894228
v 0.00602422051 -0.020608027 0.0202467622
v 0.00575408321 -0.020802509 0.0201647552
v 0.00586957679 -0.0207397717 0.0201924089
v 0.00684246187 -0.0199304764 0.0204021935
v 0.00671130796 -0.0201939672 0.0203278151
v 0.00632372024 -0.0204260921 0.0202963478
v 0.00654296214 -0.0204386393 0.0202562977
v 0.00663105013 -0.0203194404 0.0202915801
v 0.00671326551 -0.0196199319 0.0205337861
v 0.00673871354 -0.0194913236 0.0205709752
v 0.00767244848 -0.00765614991 0.0240000012
v 0.00761959555 -0.00768124428 0.0240000012
v 0.00754520966 -0.00771261155 0.0240000012
v 0.00747473954 -0.00773456946 0.0240000012
v 0.00795433034 -0.00747107725 0.0240000012
v 0.00697948772 -0.0193689882 0.0205614384
v 0.00686399414 -0.0193658504 0.0205881394
v 0.00689139972 -0.019792456 0.0204403354
v 0.00704604344 -0.019986938 0.0203240015
v 0.00724570993 -0.0200371281 0.020232459
v 0.00743754625 -0.0200810425 0.0201256592
v 0.00762351063 -0.0201155476 0.0200064631
v 0.00790735003 -0.0198771498 0.0142583619
v 0.00786819989 -0.0200057595 0.0142583619
v 0.00780360171 -0.0201218219 0.0198834532
v 0.00783492237 -0.0200967262 0.0142583619
v -0.0097650985 -0.0210691376 0.0195792653
v -0.0097650985 -0.0209562116 0.01966604
v -0.00942057601 -0.0219035274 0.0142583619
v -0.00942057601 -0.0219035274 0.0183358138
v -0.00942057601 -0.0218972545 0.0185007806
v -0.00942057601 -0.0218752965 0.0186619337
v -0.00942057601 -0.0217906027 0.0189794721
v -0.00942057601 -0.0218407914 0.0188221327
v -0.00942057601 -0.0217310033 0.0191291815
v -0.00942057601 -0.0216557202 0.0192760314
v -0.00942057601 -0.0215678899 0.0194142985
v -0.00942057601 -0.0214706489 0.019544937
v -0.00949691875 -0.0214361438 0.0195201442
v -0.00949691875 -0.021329492 0.0196393404
v -0.00957130464 -0.0212981234 0.0196050108
v -0.00957130464 -0.0211820623 0.0197127647
v -0.00963981722 -0.0211475572 0.0196717605
v -0.0097044154 -0.0211099156 0.0196288508
v -0.0097650985 -0.0208401505 0.0197451861
v -0.0097650985 -0.0207146773 0.0198119358
v -0.0097044154 -0.020375902 0.020029349
v -0.0097044154 -0.0199963487 0.0201561725
v -0.00970637295 -0.0112760252 0.0226802646
v -0.00963981722 -0.0200120337 0.020212434
v -0.00949691875 -0.0200402645 0.0203087442
v -0.00963981722 -0.0203947235 0.0200837023
v -0.00957130464 -0.0204135449 0.0201332879
v -0.00949691875 -0.020432365 0.0201781057
v -0.0094479809 -0.0112760252 0.0228738391
v -0.00942057601 -0.0200528117 0.0203487943
v -0.00942057601 -0.00775652737 0.0239046437
v -0.00937946832 -0.00775966383 0.0239227633
v -0.00933835995 -0.0112760252 0.0229224706
v -0.00933835995 -0.0200590846 0.0203802616
v 0.00649010921 -0.0205390168 0.0202200626
v 0.00609860571 -0.0206644886 0.0202152949
v 0.00622388699 -0.0206237106 0.0202219695
v 0.00643529873 -0.0206362578 0.0201847803
v -0.00933835995 -0.0204574594 0.0202448554
v -0.00933835995 -0.020843287 0.0200789346
v -0.00933835995 -0.0209907167 0.0199997885
v -0.00925614458 -0.0210032639 0.0200217204
v -0.00925614458 -0.0211444207 0.0199282711
v -0.00917001413 -0.0211569679 0.0199435284
v -0.00908584053 -0.0211632408 0.0199530638
v -0.00899775253 -0.0211663787 0.0199578316
v -0.00899775253 -0.0210597269 0.0200274422
v 0.0057951909 -0.0208934757 0.0201208915
v 0.00580106352 -0.0210691376 0.0200217204
v 0.00572276255 -0.0210597269 0.0200274422
v 0.00588523643 -0.0210032639 0.0200589095
v 0.00588523643 -0.0209217065 0.0201037274
v 0.00593613183 -0.0207930983 0.0201647552
v 0.00697948772 -0.0201343691 0.0202839514
v 0.00681309875 -0.0204135449 0.0202048053
v 0.00690314497 -0.0202755246 0.0202419945
v 0.00671326551 -0.0205452897 0.0201676162
v 0.00776249402 -0.00760596118 0.0240000012
v 0.00785645464 -0.00754322389 0.0240000012
v 0.00717132404 -0.020197105 0.0201876412
v 0.00735924596 -0.0202535667 0.0200789346
v 0.00753933704 -0.0203006189 0.0199549707
v 0.00771747125 -0.0203163039 0.0198338677
v 0.00778402698 -0.0202253358 0.0142583619
v -0.0097044154 -0.0209938532 0.0197203933
v -0.00932857293 -0.0219411689 0.0142583619
v -0.00933835995 -0.021934896 0.0183358138
v -0.00933835995 -0.0219286217 0.0185026874
v -0.00933835995 -0.0219066652 0.0186686082
v -0.00933835995 -0.0218721601 0.0188316681
v -0.00933835995 -0.0218219714 0.0189899603
v -0.00933835995 -0.021683951 0.0192912873
v -0.00933835995 -0.0217592341 0.019142532
v -0.00933835995 -0.0215961207 0.0194333695
v -0.00933835995 -0.0214957432 0.0195668689
v -0.00942057601 -0.0213608607 0.0196679468
v -0.00949691875 -0.0212134296 0.019748047
v -0.00957130464 -0.0210597269 0.019810029
v -0.00963981722 -0.0210283583 0.019767118
v -0.0097044154 -0.0208715178 0.0197995394
v -0.0097044154 -0.0207429095 0.01986915
v -0.00963981722 -0.0207680039 0.0199235033
v -0.00957130464 -0.0207899618 0.019970228
v -0.00949691875 -0.0208119183 0.0200121849
v -0.00942057601 -0.0208307398 0.0200474659
v -0.00942057601 -0.0204449122 0.0202152949
v 0.00617103406 -0.0207178152 0.0201828735
v 0.00599877247 -0.0208464234 0.0201351947
v 0.00637853071 -0.0207303623 0.0201475911
v 0.00659385753 -0.0207397717 0.0200960987
v 0.00665454063 -0.0206456685 0.020130427
v -0.00942057601 -0.0209750331 0.019970228
v -0.00942057601 -0.0211130521 0.0198815464
v -0.00933835995 -0.0211318736 0.019908246
v -0.00925614458 -0.0212793033 0.0198243322
v -0.00917001413 -0.0212918505 0.0198395895
v -0.00908584053 -0.0212981234 0.0198472168
v -0.00899775253 -0.0211946095 0.0199358997
v 0.00572276255 -0.0212197038 0.0199177815
v 0.00572276255 -0.02113501 0.0199797635
v 0.00580106352 -0.0211538315 0.0199645061
v 0.00596157987 -0.0211130521 0.0199845312
v 0.00596549495 -0.0210252218 0.0200398372
v 0.00598115528 -0.0209499387 0.0200817955
v 0.00708519359 -0.0203508077 0.0201437761
v 0.0067974391 -0.0205986162 0.0201161238
v 0.00699123297 -0.0205013752 0.0201018192
v 0.00726724289 -0.0204198179 0.0200322099
v 0.00744146133 -0.0204825538 0.0199053851
v 0.00776836665 -0.0202598409 0.0142583619
v 0.00760393522 -0.0205264696 0.0197766534
v 0.00765091553 -0.0204856916 0.0142583619
v -0.00963981722 -0.0209028864 0.0198510318
v -0.00924635687 -0.0219662633 0.0142583619
v -0.00925614458 -0.0219631268 0.0183358138
v -0.00925614458 -0.0219568539 0.0185055483
v -0.00925614458 -0.0218972545 0.01883739
v -0.00925614458 -0.0219317595 0.0186714691
v -0.00925614458 -0.0218470657 0.0189994958
v -0.00925614458 -0.0217843284 0.0191539743
v -0.00925614458 -0.0217059089 0.0193046378
v -0.00925614458 -0.0216180786 0.0194486268
v -0.00925614458 -0.0215145633 0.0195821262
v -0.00925614458 -0.0214016387 0.0197079969
v -0.00933835995 -0.0213828172 0.0196908328
v -0.00933835995 -0.0212604818 0.0198043071
v -0.00942057601 -0.0212385253 0.0197795144
v -0.00949691875 -0.0210879577 0.0198472168
v -0.00957130464 -0.0209311173 0.0198958496
v -0.00949691875 -0.0209530752 0.0199358997
v 0.00606532819 -0.02089975 0.0201008665
v 0.00622192945 -0.0210189475 0.0200140917
v 0.00646270363 -0.0209217065 0.0200217204
v 0.00667215782 -0.0207899618 0.0200465131
v -0.00917001413 -0.0214141859 0.0197223001
v -0.00908584053 -0.0214235966 0.0197299288
v -0.00899775253 -0.0213012612 0.0198510318
v 0.00587936449 -0.0211726516 0.019947342
v 0.00572276255 -0.0213200813 0.0198319608
v 0.00587153433 -0.0213326285 0.0198176563
v 0.00587544941 -0.0212542089 0.0198834532
v 0.00604183769 -0.0211318736 0.0199645061
v 0.00604771032 -0.0210471797 0.0200169526
v 0.00605358294 -0.0209687588 0.0200636773
v 0.00688161201 -0.0206456685 0.0200617705
v 0.00696382739 -0.0206958572 0.0200045562
v 0.00716153702 -0.0205829326 0.0199873921
v 0.00732596776 -0.0206582157 0.0198586605
v 0.0074864841 -0.020705268 0.019728022
v 0.00750410197 -0.0207272245 0.0142583619
v 0.00758240226 -0.020608027 0.0142583619
v -0.00917001413 -0.0219819483 0.0142583619
v -0.00917001413 -0.0219819483 0.0183358138
v -0.00917001413 -0.021975674 0.0185074565
v -0.00917001413 -0.0219537161 0.0186762369
v -0.00917001413 -0.0219160745 0.0188421577
v -0.00917001413 -0.0218658858 0.0190052176
v -0.00917001413 -0.0218000134 0.019161603
v -0.00917001413 -0.0217247303 0.0193132206
v -0.00917001413 -0.0215302483 0.0195945226
v -0.00917001413 -0.0216337622 0.0194581623
v 0.00630414482 -0.0210409055 0.0199845312
v 0.00621409929 -0.0210910942 0.0199673671
v 0.00635699776 -0.0210534526 0.0199654602
v 0.00643725627 -0.0210754106 0.0199330388
v 0.0066056021 -0.0210158111 0.0199254101
v 0.00674850125 -0.0208370127 0.0199931126
v -0.00908584053 -0.0215396577 0.0196021512
v -0.00899775253 -0.021426733 0.0197327897
v 0.00572276255 -0.0213765443 0.0197804671
v 0.00603596576 -0.0212102931 0.0199053851
v 0.00586957679 -0.0214047751 0.0197470929
v 0.00602030542 -0.0213639971 0.0197776075
v 0.00602813559 -0.021288714 0.0198434031
v 0.00612209621 -0.0211506936 0.0199406675
v 0.0070440859 -0.0207397717 0.0199435284
v 0.006824844 -0.020884065 0.0199387593
v 0.00690118743 -0.0209279808 0.0198815464
v 0.00720068716 -0.0208244655 0.0198138426
v 0.00734358563 -0.02089975 0.0196765296
v 0.00733379792 -0.0209436644 0.0142583619
v -0.00908584053 -0.0219944955 0.0142583619
v -0.00908584053 -0.0219944955 0.0183358138
v -0.00908584053 -0.0219882212 0.0185084092
v -0.00908584053 -0.0219631268 0.0186781451
v -0.00908584053 -0.0219286217 0.0188459727
v -0.00908584053 -0.0218752965 0.0190099853
v -0.00908584053 -0.0218125606 0.0191673248
v -0.00908584053 -0.0217341397 0.0193198951
v -0.00908584053 -0.0216400365 0.0194657909
v 0.00629631466 -0.0211130521 0.0199378065
v 0.00638048825 -0.02113501 0.0199063378
v 0.00646270363 -0.0211538315 0.0198720096
v 0.00655862179 -0.0211036414 0.0198805923
v 0.00664866801 -0.0211255993 0.0198367286
v -0.00899775253 -0.0215490684 0.0195964294
v -0.00899775253 -0.0215427955 0.0196040581
v 0.00572276255 -0.0214392802 0.0197184865
v 0.00619452387 -0.0212479347 0.0198538927
v 0.0058656617 -0.0214769218 0.0196736687
v 0.0060144328 -0.0214330073 0.0197060901
v 0.00617103406 -0.0213953644 0.019728022
v 0.00618277931 -0.0213200813 0.0197928635
v 0.00628457009 -0.021191473 0.0198834532
v 0.00674458617 -0.0211005049 0.0198176563
v 0.0068483345 -0.0211695151 0.0197261138
v 0.00704604344 -0.0210095382 0.0197556757
v 0.00718111175 -0.0210816848 0.0196288508
v 0.00721634749 -0.0210440419 0.0196383863
v 0.0072398373 -0.0210534526 0.0142583619
v -0.00899775253 -0.0219976319 0.0142583619
v -0.00899775253 -0.0219976319 0.0183358138
v -0.00899775253 -0.0219913576 0.0185084092
v -0.00899775253 -0.0219850847 0.018552273
v -0.00899775253 -0.0219662633 0.0186790978
v -0.00899775253 -0.0219599904 0.018713426
v -0.00899775253 -0.0219317595 0.0188469254
v -0.00899775253 -0.0218721601 0.0190300104
v -0.00899775253 -0.0218094242 0.0191787671
v -0.00899775253 -0.0217372775 0.0193208479
v -0.00899775253 -0.021643173 0.0194667437
v 0.00636678546 -0.0212102931 0.0198510318
v 0.00644900152 -0.0212291146 0.0198176563
v 0.00654491968 -0.0211726516 0.0198348204
v 0.0067269683 -0.0211412829 0.0197947717
v 0.00670935042 -0.0212102931 0.0197499538
v 0.00572276255 -0.02158671 0.0195468438
v 0.00572276255 -0.0215490684 0.0195964294
v 0.00635308267 -0.0212824398 0.0197947717
v 0.00600660263 -0.0215020161 0.0196336186
v 0.00586174662 -0.0215427955 0.0195964294
v 0.00632567778 -0.0214235966 0.0196689009
v 0.00633938057 -0.0213545864 0.0197327897
v 0.00616320389 -0.0214612381 0.0196584114
v 0.00685029204 -0.0213106706 0.0196040581
v 0.00689335726 -0.0211789258 0.0196984615
v 0.00704800098 -0.0212102931 0.0195926144
v 0.0071184711 -0.0211820623 0.0142583619
v -0.00729667162 -0.0220478206 0.0142583619
v 0.00507286838 -0.0219976319 0.0183691894
v 0.0018958204 -0.0220509571 0.0142583619
v 0.00527644995 -0.0219882212 0.0185446457
v 0.00536062286 -0.0219788105 0.0186123481
v 0.00553875639 -0.0219537161 0.018755383
v 0.00572276255 -0.0219160745 0.0189060465
v 0.00581672385 -0.0218909802 0.0189775639
v 0.00572276255 -0.0218721601 0.0190300104
v 0.00572276255 -0.0218470657 0.0190938992
v 0.00572276255 -0.0218094242 0.0191787671
v 0.00572276255 -0.0217592341 0.019282706
v 0.00572276255 -0.0217341397 0.019325617
v 0.00572276255 -0.0216463094 0.0194638841
v 0.00651164148 -0.0213169448 0.0197232542
v 0.00652925935 -0.0212447982 0.0197804671
v 0.00668977569 -0.0212793033 0.0196984615
v 0.00585783154 -0.0216055314 0.0195153765
v 0.00615145865 -0.0215239741 0.0195868939
v 0.00599877247 -0.0215647521 0.0195573334
v 0.00649402429 -0.0213828172 0.0196641332
v 0.00631001745 -0.0214863325 0.0196021512
v 0.00647640642 -0.021448691 0.0196011971
v 0.00667020028 -0.0213451757 0.0196412472
v 0.00682288646 -0.0213765443 0.0195497048
v 0.00691684708 -0.0213232178 0.0195573334
v 0.00693250741 -0.0213106706 0.0195621011
v 0.00695208282 -0.0212573454 0.0196021512
v 0.00697557263 -0.021273029 0.0195744975
v 0.00692467724 -0.0213577229 0.0142583619
v 0.00703429819 -0.0212604818 0.0142583619
v 0.00509635819 -0.0220509571 0.0142583619
v 0.00514138096 -0.0220478206 0.0142583619
v 0.00526861978 -0.0220384099 0.0142583619
v 0.00540173055 -0.0220227263 0.0142583619
v 0.00553288377 -0.0220039062 0.0142583619
v 0.00560726966 -0.0219913576 0.0142583619
v 0.00566208013 -0.0219788105 0.0142583619
v 0.00573646534 -0.0219599904 0.0142583619
v 0.0057951909 -0.0219443067 0.0142583619
v 0.00593025989 -0.0219066652 0.0142583619
v 0.00589110906 -0.0218690223 0.0190319172
v 0.00583825612 -0.0218156971 0.0191644639
v 0.00596353741 -0.021781192 0.0192245377
v 0.00584804383 -0.0217184561 0.0193446879
v 0.00585391646 -0.0216651309 0.0194314627
v 0.0059909423 -0.0216243515 0.0194781873
v 0.00613775654 -0.0215835735 0.0195125156
v 0.00629240026 -0.0215490684 0.0195306338
v 0.00612405375 -0.021643173 0.0194343236
v 0.00664671047 -0.0214110494 0.019584033
v 0.00645487346 -0.0215114269 0.0195354015
v 0.00662321997 -0.0214737853 0.0195230051
v 0.00684637695 -0.0213796808 0.0195325406
v 0.00677394861 -0.0214330073 0.0195077478
v 0.00684441941 -0.0214235966 0.0142583619
v 0.00605945557 -0.0218596129 0.0142583619
v 0.00604379524 -0.0218188335 0.0191349034
v 0.00601639034 -0.0218282443 0.019118692
v 0.00594787707 -0.0218502022 0.0190738741
v 0.00611035096 -0.0217937392 0.0191768603
v 0.00609664817 -0.0217466869 0.0192712637
v 0.00597332511 -0.0217310033 0.0193122665
v 0.00598311282 -0.0216808145 0.0193971344
v 0.00627673993 -0.0216055314 0.0194581623
v 0.00641180823 -0.0216243515 0.0193961803
v 0.00643529873 -0.0215678899 0.0194657909
v 0.0061123085 -0.0216964982 0.0193542234
v 0.00625912205 -0.0216619931 0.0193837839
v 0.00654296214 -0.0215835735 0.0194114376
v 0.00659973016 -0.0215333848 0.0194581623
v 0.00662321997 -0.0215365212 0.0194457659
v 0.00667998799 -0.0214988797 0.0194705587
v 0.00669369078 -0.0215333848 0.0142583619
v 0.00619060947 -0.0218062863 0.0142583619
v 0.0062101842 -0.0217529612 0.0192359813
v 0.00624150487 -0.0217121832 0.0193046378
v 0.00639810544 -0.0216651309 0.019341827
v 0.00645878854 -0.0216306258 0.0193723416
v 0.00644704398 -0.021683951 0.0142583619
v 0.0063217627 -0.0217498247 0.0142583619
v 0.00628848518 -0.0217153196 0.019282706
f 1 2 3
f 1 3 8
f 1 8 22
f 1 22 44
f 1 44 78
f 1 78 112
f 1 112 156
f 1 156 209
f 1 209 282
f 1 282 373
f 1 373 466
f 1 466 375
f 1 375 285
f 1 285 211
f 1 211 159
f 1 159 114
f 1 114 81
f 1 81 46
f 1 46 24
f 1 24 10
f 1 10 4
f 1 4 17
f 1 17 37
f 1 37 59
f 1 59 91
f 1 91 126
f 1 126 144
f 1 144 195
f 1 195 265
f 1 265 354
f 1 354 353
f 1 353 446
f 1 446 445
f 1 445 552
f 1 552 551
f 1 551 550
f 1 550 549
f 1 549 548
f 1 548 547
f 1 547 546
f 1 546 545
f 1 545 544
f 1 544 543
f 1 543 542
f 1 542 541
f 1 541 540
f 1 540 539
f 1 539 538
f 1 538 537
f 1 537 536
f 1 536 535
f 1 535 534
f 1 534 533
f 1 533 532
f 1 532 531
f 1 531 530
f 1 530 432
f 1 432 430
f 1 430 429
f 1 429 427
f 1 427 529
f 1 529 423
f 1 423 528
f 1 528 625
f 1 625 626
f 1 626 628
f 1 628 692
f 1 692 738
f 1 738 740
f 1 740 779
f 1 779 778
f 1 778 809
f 1 809 838
f 1 838 866
f 1 866 897
f 1 897 896
f 1 896 922
f 1 922 940
f 1 940 946
f 1 946 947
f 1 947 941
f 1 941 923
f 1 923 907
f 1 907 906
f 1 906 905
f 1 905 904
f 1 904 903
f 1 903 902
f 1 902 901
f 1 901 900
f 1 900 899
f 1 899 898
f 1 898 869
f 1 869 867
f 1 867 839
f 1 839 810
f 1 810 780
f 1 780 742
f 1 742 694
f 1 694 631
f 1 631 555
f 1 555 450
f 1 450 358
f 1 358 270
f 1 270 266
f 1 266 196
f 1 196 145
f 1 145 103
f 1 103 70
f 1 70 38
f 1 38 18
f 1 18 5
f 1 5 2
f 2 5 6
f 2 6 7
f 2 7 3
f 3 7 9
f 3 9 8
f 4 10 11
f 4 11 12
f 4 12 13
f 4 13 14
f 4 14 15
f 4 15 16
f 4 16 17
f 5 18 6
f 6 19 7
f 6 18 20
f 6 20 19
f 7 19 9
f 8 9 21
f 8 21 22
f 9 19 23
f 9 23 21
f 10 24 25
f 10 25 11
f 11 25 26
f 11 26 27
f 11 27 28
f 11 28 12
f 12 28 29
f 12 29 30
f 12 30 13
f 13 30 31
f 13 31 54
f 13 54 32
f 13 32 14
f 14 33 34
f 14 34 15
f 14 32 54
f 14 54 33
f 15 34 35
f 15 35 16
f 16 35 55
f 16 55 36
f 16 36 37
f 16 37 17
f 18 38 20
f 19 20 39
f 19 39 40
f 19 40 23
f 20 38 70
f 20 70 41
f 20 41 42
f 20 42 39
f 21 43 44
f 21 44 22
f 21 23 43
f 23 45 43
f 23 40 45
f 24 46 47
f 24 47 25
f 25 47 26
f 26 48 27
f 26 47 49
f 26 49 48
f 27 48 50
f 27 50 28
f 28 50 29
f 29 50 51
f 29 51 30
f 30 51 31
f 31 52 53
f 31 53 54
f 31 51 52
f 33 54 34
f 34 54 53
f 34 53 52
f 34 52 35
f 35 52 56
f 35 56 57
f 35 57 55
f 36 55 87
f 36 87 58
f 36 58 37
f 37 58 60
f 37 60 61
f 37 61 62
f 37 62 63
f 37 63 64
f 37 64 65
f 37 65 66
f 37 66 67
f 37 67 68
f 37 68 69
f 37 69 59
f 39 42 40
f 40 71 45
f 40 42 72
f 40 72 73
f 40 73 71
f 41 70 103
f 41 103 74
f 41 74 42
f 42 74 75
f 42 75 76
f 42 76 72
f 43 77 44
f 43 45 77
f 44 77 78
f 45 71 79
f 45 79 80
f 45 80 77
f 46 49 47
f 46 81 84
f 46 84 49
f 48 82 50
f 48 49 82
f 49 83 82
f 49 84 120
f 49 120 83
f 50 82 85
f 50 85 51
f 51 86 57
f 51 57 56
f 51 56 52
f 51 85 86
f 55 57 88
f 55 88 89
f 55 89 87
f 57 86 90
f 57 90 88
f 58 87 92
f 58 92 60
f 59 69 91
f 60 92 93
f 60 93 61
f 61 93 94
f 61 94 62
f 62 94 95
f 62 95 63
f 63 95 96
f 63 96 64
f 64 96 97
f 64 97 65
f 65 97 98
f 65 98 66
f 66 98 99
f 66 99 67
f 67 99 100
f 67 100 68
f 68 100 101
f 68 101 69
f 69 101 142
f 69 142 102
f 69 102 91
f 71 73 79
f 72 76 104
f 72 104 73
f 73 104 105
f 73 105 79
f 74 103 145
f 74 145 106
f 74 106 107
f 74 107 75
f 75 107 76
f 76 107 108
f 76 108 109
f 76 109 104
f 77 80 110
f 77 110 111
f 77 111 112
f 77 112 78
f 79 113 80
f 79 105 113
f 80 113 110
f 81 114 115
f 81 115 116
f 81 116 84
f 82 83 117
f 82 117 118
f 82 118 119
f 82 119 85
f 83 120 121
f 83 121 117
f 84 116 120
f 85 119 86
f 86 119 90
f 87 89 122
f 87 122 123
f 87 123 124
f 87 124 92
f 88 90 89
f 89 90 125
f 89 125 122
f 90 119 125
f 91 102 126
f 92 124 127
f 92 127 128
f 92 128 93
f 93 128 129
f 93 129 130
f 93 130 94
f 94 130 131
f 94 131 132
f 94 132 133
f 94 133 95
f 95 133 134
f 95 134 96
f 96 134 135
f 96 135 136
f 96 136 97
f 97 136 137
f 97 137 98
f 98 137 138
f 98 138 99
f 99 138 139
f 99 139 100
f 100 139 140
f 100 140 101
f 101 140 141
f 101 141 142
f 102 143 144
f 102 144 126
f 102 142 193
f 102 193 143
f 104 146 105
f 104 109 146
f 105 146 147
f 105 147 113
f 106 145 196
f 106 196 148
f 106 148 107
f 107 148 149
f 107 149 150
f 107 150 108
f 108 150 109
f 109 150 151
f 109 151 152
f 109 152 153
f 109 153 146
f 110 154 111
f 110 113 154
f 111 155 156
f 111 156 112
f 111 154 155
f 113 157 154
f 113 147 158
f 113 158 157
f 114 159 115
f 115 160 161
f 115 161 116
f 115 159 162
f 115 162 163
f 115 163 160
f 116 164 120
f 116 161 164
f 117 165 166
f 117 166 118
f 117 121 167
f 117 167 168
f 117 168 165
f 118 166 119
f 119 169 125
f 119 166 169
f 120 167 121
f 120 164 167
f 122 124 123
f 122 125 170
f 122 170 124
f 124 171 127
f 124 170 172
f 124 172 171
f 125 169 170
f 127 171 172
f 127 172 173
f 127 173 128
f 128 173 129
f 129 173 174
f 129 174 175
f 129 175 130
f 130 175 131
f 131 175 176
f 131 176 132
f 132 176 177
f 132 177 133
f 133 177 178
f 133 178 179
f 133 179 134
f 134 179 178
f 134 178 180
f 134 180 181
f 134 181 182
f 134 182 183
f 134 183 135
f 135 183 184
f 135 184 185
f 135 185 186
f 135 186 187
f 135 187 188
f 135 188 189
f 135 189 190
f 135 190 136
f 136 190 137
f 137 190 138
f 138 190 139
f 139 190 140
f 140 190 141
f 141 190 191
f 141 191 192
f 141 192 142
f 142 192 193
f 143 194 195
f 143 195 144
f 143 193 263
f 143 263 194
f 146 153 197
f 146 197 198
f 146 198 147
f 147 199 158
f 147 198 199
f 148 196 266
f 148 266 200
f 148 200 201
f 148 201 149
f 149 201 150
f 150 201 202
f 150 202 203
f 150 203 151
f 151 203 204
f 151 204 152
f 152 205 197
f 152 197 153
f 152 204 205
f 154 157 206
f 154 206 207
f 154 207 208
f 154 208 155
f 155 208 156
f 156 208 209
f 157 158 210
f 157 210 206
f 158 199 210
f 159 211 162
f 160 163 212
f 160 212 213
f 160 213 161
f 161 213 164
f 162 211 214
f 162 214 215
f 162 215 163
f 163 215 216
f 163 216 217
f 163 217 212
f 164 218 167
f 164 213 218
f 165 219 220
f 165 220 166
f 165 168 221
f 165 221 222
f 165 222 219
f 166 220 169
f 167 218 223
f 167 223 168
f 168 223 221
f 169 224 170
f 169 220 224
f 170 224 225
f 170 225 172
f 172 225 173
f 173 225 226
f 173 226 227
f 173 227 174
f 174 227 175
f 175 227 228
f 175 228 229
f 175 229 176
f 176 229 177
f 177 229 230
f 177 230 178
f 178 230 231
f 178 231 232
f 178 232 180
f 180 232 233
f 180 233 181
f 181 234 184
f 181 184 183
f 181 183 182
f 181 233 234
f 184 234 185
f 185 234 186
f 186 234 235
f 186 235 187
f 187 235 236
f 187 236 188
f 188 236 189
f 189 236 237
f 189 237 190
f 190 238 316
f 190 316 414
f 190 414 514
f 190 514 616
f 190 616 615
f 190 615 614
f 190 614 613
f 190 613 686
f 190 686 687
f 190 687 617
f 190 617 515
f 190 515 415
f 190 415 321
f 190 321 242
f 190 242 191
f 190 237 239
f 190 239 240
f 190 240 241
f 190 241 238
f 191 242 243
f 191 243 244
f 191 244 245
f 191 245 246
f 191 246 247
f 191 247 248
f 191 248 249
f 191 249 250
f 191 250 251
f 191 251 252
f 191 252 253
f 191 253 254
f 191 254 255
f 191 255 256
f 191 256 257
f 191 257 258
f 191 258 259
f 191 259 260
f 191 260 261
f 191 261 262
f 191 262 192
f 192 262 193
f 193 262 263
f 194 263 351
f 194 351 264
f 194 264 265
f 194 265 195
f 197 267 199
f 197 199 198
f 197 205 267
f 199 268 269
f 199 269 210
f 199 267 268
f 200 266 270
f 200 270 271
f 200 271 272
f 200 272 201
f 201 272 273
f 201 273 202
f 202 273 203
f 203 273 274
f 203 274 275
f 203 275 204
f 204 275 276
f 204 276 205
f 205 276 277
f 205 277 278
f 205 278 267
f 206 279 280
f 206 280 207
f 206 210 279
f 207 280 281
f 207 281 208
f 208 281 209
f 209 281 282
f 210 283 284
f 210 284 279
f 210 269 283
f 211 285 286
f 211 286 214
f 212 287 288
f 212 288 218
f 212 218 213
f 212 217 289
f 212 289 287
f 214 286 215
f 215 286 290
f 215 290 216
f 216 289 217
f 216 290 291
f 216 291 292
f 216 292 293
f 216 293 289
f 218 288 223
f 219 294 220
f 219 222 295
f 219 295 296
f 219 296 297
f 219 297 294
f 220 294 298
f 220 298 225
f 220 225 224
f 221 223 295
f 221 295 222
f 223 299 295
f 223 288 299
f 225 298 300
f 225 300 226
f 226 300 227
f 227 300 301
f 227 301 302
f 227 302 228
f 228 302 229
f 229 302 303
f 229 303 304
f 229 304 230
f 230 304 305
f 230 305 231
f 231 305 232
f 232 305 306
f 232 306 233
f 233 306 307
f 233 307 308
f 233 308 309
f 233 309 234
f 234 309 310
f 234 310 235
f 235 310 236
f 236 310 311
f 236 311 239
f 236 239 237
f 238 312 313
f 238 313 314
f 238 314 315
f 238 315 316
f 238 241 317
f 238 317 318
f 238 318 312
f 239 311 319
f 239 319 240
f 240 319 241
f 241 319 320
f 241 320 317
f 242 321 322
f 242 322 323
f 242 323 243
f 243 323 324
f 243 324 325
f 243 325 326
f 243 326 244
f 244 326 327
f 244 327 246
f 244 246 245
f 246 327 328
f 246 328 247
f 247 328 329
f 247 329 248
f 248 329 330
f 248 330 249
f 249 330 250
f 250 330 251
f 251 331 252
f 251 330 332
f 251 332 331
f 252 331 253
f 253 333 334
f 253 334 254
f 253 331 426
f 253 426 333
f 254 334 335
f 254 335 255
f 255 335 336
f 255 336 256
f 256 336 337
f 256 337 257
f 257 337 338
f 257 338 258
f 258 338 433
f 258 433 339
f 258 339 340
f 258 340 341
f 258 341 342
f 258 342 343
f 258 343 344
f 258 344 345
f 258 345 346
f 258 346 347
f 258 347 348
f 258 348 349
f 258 349 259
f 259 349 350
f 259 350 260
f 260 350 351
f 260 351 261
f 261 351 263
f 261 263 262
f 264 352 353
f 264 353 354
f 264 354 265
f 264 351 350
f 264 350 352
f 267 278 355
f 267 355 268
f 268 356 357
f 268 357 269
f 268 355 356
f 269 357 283
f 270 358 359
f 270 359 271
f 271 359 360
f 271 360 272
f 272 360 273
f 273 360 361
f 273 361 362
f 273 362 274
f 274 362 275
f 275 363 364
f 275 364 276
f 275 362 365
f 275 365 363
f 276 364 277
f 277 364 366
f 277 366 367
f 277 367 368
f 277 368 278
f 278 368 355
f 279 369 370
f 279 370 280
f 279 284 369
f 280 370 371
f 280 371 281
f 281 371 372
f 281 372 373
f 281 373 282
f 283 357 374
f 283 374 284
f 284 374 369
f 285 375 376
f 285 376 286
f 286 376 290
f 287 377 288
f 287 289 377
f 288 377 378
f 288 378 299
f 289 293 379
f 289 379 380
f 289 380 377
f 290 376 381
f 290 381 382
f 290 382 291
f 291 382 383
f 291 383 292
f 292 384 293
f 292 383 384
f 293 384 379
f 294 385 300
f 294 300 298
f 294 297 386
f 294 386 387
f 294 387 385
f 295 299 296
f 296 299 297
f 297 299 386
f 299 378 388
f 299 388 386
f 300 385 389
f 300 389 301
f 301 389 302
f 302 389 390
f 302 390 391
f 302 391 303
f 303 391 304
f 304 391 392
f 304 392 305
f 305 392 393
f 305 393 394
f 305 394 306
f 306 394 395
f 306 395 307
f 307 395 308
f 308 395 396
f 308 396 397
f 308 397 398
f 308 398 310
f 308 310 309
f 310 398 319
f 310 319 311
f 312 318 399
f 312 399 400
f 312 400 401
f 312 401 402
f 312 402 403
f 312 403 313
f 313 403 314
f 314 404 405
f 314 405 406
f 314 406 315
f 314 403 407
f 314 407 408
f 314 408 404
f 315 406 409
f 315 409 410
f 315 410 411
f 315 411 412
f 315 412 413
f 315 413 316
f 316 413 412
f 316 412 414
f 317 320 318
f 318 320 399
f 319 398 397
f 319 397 320
f 320 397 400
f 320 400 399
f 321 415 322
f 322 416 417
f 322 417 418
f 322 418 324
f 322 324 323
f 322 415 416
f 324 418 325
f 325 419 327
f 325 327 326
f 325 418 420
f 325 420 421
f 325 421 419
f 327 419 328
f 328 419 329
f 329 419 422
f 329 422 330
f 330 422 423
f 330 423 424
f 330 424 425
f 330 425 332
f 331 332 425
f 331 425 427
f 331 427 428
f 331 428 426
f 333 426 427
f 333 427 334
f 334 427 429
f 334 429 430
f 334 430 335
f 335 431 336
f 335 430 432
f 335 432 431
f 336 431 337
f 337 431 433
f 337 433 338
f 339 433 431
f 339 431 434
f 339 434 340
f 340 434 431
f 340 431 435
f 340 435 436
f 340 436 341
f 341 436 437
f 341 437 342
f 342 437 438
f 342 438 343
f 343 438 439
f 343 439 344
f 344 439 440
f 344 440 345
f 345 440 441
f 345 441 346
f 346 441 442
f 346 442 347
f 347 442 443
f 347 443 348
f 348 443 444
f 348 444 349
f 349 444 352
f 349 352 350
f 352 444 445
f 352 445 446
f 352 446 353
f 355 368 356
f 356 447 448
f 356 448 357
f 356 368 449
f 356 449 447
f 357 448 374
f 358 450 451
f 358 451 359
f 359 451 452
f 359 452 360
f 360 452 361
f 361 452 453
f 361 453 454
f 361 454 362
f 362 455 365
f 362 454 455
f 363 456 457
f 363 457 364
f 363 365 455
f 363 455 458
f 363 458 456
f 364 457 366
f 366 457 367
f 367 459 460
f 367 460 368
f 367 457 461
f 367 461 459
f 368 460 449
f 369 374 468
f 369 468 462
f 369 462 463
f 369 463 370
f 370 463 371
f 371 463 464
f 371 464 372
f 372 464 465
f 372 465 466
f 372 466 373
f 374 448 467
f 374 467 468
f 375 466 376
f 376 466 465
f 376 465 464
f 376 464 381
f 377 469 388
f 377 388 378
f 377 380 470
f 377 470 469
f 379 384 471
f 379 471 470
f 379 470 380
f 381 464 463
f 381 463 382
f 382 463 383
f 383 463 462
f 383 462 468
f 383 468 472
f 383 472 384
f 384 472 473
f 384 473 474
f 384 474 471
f 385 387 475
f 385 475 389
f 386 388 476
f 386 476 477
f 386 477 387
f 387 477 475
f 388 469 476
f 389 475 478
f 389 478 479
f 389 479 576
f 389 576 480
f 389 480 390
f 390 480 391
f 391 480 481
f 391 481 482
f 391 482 483
f 391 483 392
f 392 483 484
f 392 484 485
f 392 485 486
f 392 486 393
f 393 486 487
f 393 487 394
f 394 487 488
f 394 488 489
f 394 489 395
f 395 489 490
f 395 490 396
f 396 490 491
f 396 491 588
f 396 588 492
f 396 492 493
f 396 493 397
f 397 493 400
f 400 493 494
f 400 494 401
f 401 494 495
f 401 495 496
f 401 496 402
f 402 496 403
f 403 496 407
f 404 497 498
f 404 498 410
f 404 410 409
f 404 409 406
f 404 406 405
f 404 408 499
f 404 499 500
f 404 500 501
f 404 501 497
f 407 496 502
f 407 502 503
f 407 503 504
f 407 504 505
f 407 505 408
f 408 500 499
f 408 505 506
f 408 506 500
f 410 507 411
f 410 498 508
f 410 508 509
f 410 509 510
f 410 510 507
f 411 511 512
f 411 512 513
f 411 513 412
f 411 507 511
f 412 513 514
f 412 514 414
f 415 515 516
f 415 516 416
f 416 516 417
f 417 517 518
f 417 518 519
f 417 519 418
f 417 516 517
f 418 519 520
f 418 520 521
f 418 521 522
f 418 522 420
f 419 421 422
f 420 522 421
f 421 523 524
f 421 524 422
f 421 522 525
f 421 525 526
f 421 526 527
f 421 527 523
f 422 524 423
f 423 529 424
f 423 524 528
f 424 529 427
f 424 427 425
f 426 428 427
f 431 432 530
f 431 530 531
f 431 531 532
f 431 532 533
f 431 533 534
f 431 534 535
f 431 535 536
f 431 536 435
f 435 536 537
f 435 537 436
f 436 537 538
f 436 538 539
f 436 539 437
f 437 539 540
f 437 540 541
f 437 541 438
f 438 541 542
f 438 542 543
f 438 543 439
f 439 543 544
f 439 544 545
f 439 545 440
f 440 545 546
f 440 546 547
f 440 547 441
f 441 547 548
f 441 548 442
f 442 548 549
f 442 549 550
f 442 550 443
f 443 550 551
f 443 551 444
f 444 551 552
f 444 552 445
f 447 449 553
f 447 553 554
f 447 554 448
f 448 554 467
f 449 460 553
f 450 555 556
f 450 556 451
f 451 556 557
f 451 557 452
f 452 557 558
f 452 558 453
f 453 558 559
f 453 559 454
f 454 559 455
f 455 560 458
f 455 559 561
f 455 561 560
f 456 458 560
f 456 560 562
f 456 562 563
f 456 563 564
f 456 564 457
f 457 564 461
f 459 461 564
f 459 564 565
f 459 565 566
f 459 566 460
f 460 566 567
f 460 567 553
f 467 473 468
f 467 554 473
f 468 473 472
f 469 470 476
f 470 471 568
f 470 568 569
f 470 569 476
f 471 474 570
f 471 570 568
f 473 554 571
f 473 571 570
f 473 570 474
f 475 477 478
f 476 572 573
f 476 573 477
f 476 569 574
f 476 574 572
f 477 575 478
f 477 573 575
f 478 575 479
f 479 575 576
f 480 576 481
f 481 576 577
f 481 577 482
f 482 577 483
f 483 577 578
f 483 578 579
f 483 579 485
f 483 485 484
f 485 579 580
f 485 580 581
f 485 581 582
f 485 582 583
f 485 583 486
f 486 583 584
f 486 584 487
f 487 584 583
f 487 583 585
f 487 585 488
f 488 585 586
f 488 586 489
f 489 586 587
f 489 587 490
f 490 587 588
f 490 588 491
f 492 588 493
f 493 588 589
f 493 589 590
f 493 590 494
f 494 590 495
f 495 590 591
f 495 591 496
f 496 591 592
f 496 592 596
f 496 596 502
f 497 501 508
f 497 508 498
f 500 506 593
f 500 593 501
f 501 593 594
f 501 594 595
f 501 595 508
f 502 596 597
f 502 597 503
f 503 597 598
f 503 598 504
f 504 598 599
f 504 599 505
f 505 600 604
f 505 604 506
f 505 599 601
f 505 601 602
f 505 602 600
f 506 603 593
f 506 604 605
f 506 605 603
f 507 606 511
f 507 510 607
f 507 607 606
f 508 595 608
f 508 608 609
f 508 609 610
f 508 610 509
f 509 610 607
f 509 607 510
f 511 518 611
f 511 611 512
f 511 606 518
f 512 611 612
f 512 612 613
f 512 613 614
f 512 614 615
f 512 615 513
f 513 615 616
f 513 616 514
f 515 617 516
f 516 618 517
f 516 617 618
f 517 618 619
f 517 619 518
f 518 619 611
f 518 606 620
f 518 620 520
f 518 520 519
f 520 620 606
f 520 606 621
f 520 621 622
f 520 622 521
f 521 622 623
f 521 623 522
f 522 623 624
f 522 624 525
f 523 527 526
f 523 526 524
f 524 526 625
f 524 625 528
f 525 624 526
f 526 626 625
f 526 624 627
f 526 627 628
f 526 628 626
f 553 567 629
f 553 629 554
f 554 629 630
f 554 630 571
f 555 631 632
f 555 632 556
f 556 632 633
f 556 633 557
f 557 633 634
f 557 634 558
f 558 634 559
f 559 635 561
f 559 634 636
f 559 636 635
f 560 561 637
f 560 637 638
f 560 638 562
f 561 635 637
f 562 638 563
f 563 638 639
f 563 639 640
f 563 640 641
f 563 641 565
f 563 565 564
f 565 642 643
f 565 643 566
f 565 641 642
f 566 643 644
f 566 644 645
f 566 645 646
f 566 646 567
f 567 646 629
f 568 570 647
f 568 647 648
f 568 648 574
f 568 574 569
f 570 571 647
f 571 630 647
f 572 574 649
f 572 649 650
f 572 650 651
f 572 651 573
f 573 651 575
f 574 648 649
f 575 651 576
f 576 651 577
f 577 651 652
f 577 652 580
f 577 580 578
f 578 580 579
f 580 653 581
f 580 652 654
f 580 654 655
f 580 655 656
f 580 656 653
f 581 653 582
f 582 657 583
f 582 653 658
f 582 658 657
f 583 659 585
f 583 657 659
f 585 659 660
f 585 660 586
f 586 660 587
f 587 660 661
f 587 661 588
f 588 661 662
f 588 662 592
f 588 592 591
f 588 591 590
f 588 590 589
f 592 662 596
f 593 603 594
f 594 603 595
f 595 663 609
f 595 609 608
f 595 603 664
f 595 664 665
f 595 665 666
f 595 666 663
f 596 662 667
f 596 667 668
f 596 668 597
f 597 668 669
f 597 669 670
f 597 670 598
f 598 670 671
f 598 671 672
f 598 672 673
f 598 673 599
f 599 673 674
f 599 674 675
f 599 675 601
f 600 605 604
f 600 602 676
f 600 676 605
f 601 675 677
f 601 677 678
f 601 678 602
f 602 678 677
f 602 677 679
f 602 679 680
f 602 680 676
f 603 605 681
f 603 681 664
f 605 676 681
f 606 607 682
f 606 682 621
f 607 610 683
f 607 683 684
f 607 684 682
f 609 663 685
f 609 685 610
f 610 685 683
f 611 619 612
f 612 619 613
f 613 619 686
f 617 687 618
f 618 687 619
f 619 687 686
f 621 682 622
f 622 682 688
f 622 688 689
f 622 689 623
f 623 689 624
f 624 689 690
f 624 690 691
f 624 691 627
f 627 691 692
f 627 692 628
f 629 693 630
f 629 646 693
f 630 693 647
f 631 694 632
f 632 694 695
f 632 695 696
f 632 696 633
f 633 696 697
f 633 697 634
f 634 698 636
f 634 697 698
f 635 636 699
f 635 699 637
f 636 698 699
f 637 700 638
f 637 699 701
f 637 701 700
f 638 700 702
f 638 702 639
f 639 702 640
f 640 702 703
f 640 703 704
f 640 704 641
f 641 704 642
f 642 704 705
f 642 705 643
f 643 705 644
f 644 705 706
f 644 706 707
f 644 707 645
f 645 707 646
f 646 707 693
f 647 708 709
f 647 709 648
f 647 693 708
f 648 709 649
f 649 709 710
f 649 710 654
f 649 654 652
f 649 652 650
f 650 652 651
f 653 656 658
f 654 710 655
f 655 710 711
f 655 711 656
f 656 711 712
f 656 712 713
f 656 713 714
f 656 714 658
f 657 658 659
f 658 662 661
f 658 661 660
f 658 660 659
f 658 714 667
f 658 667 662
f 663 666 685
f 664 715 665
f 664 681 716
f 664 716 715
f 665 715 717
f 665 717 666
f 666 717 718
f 666 718 719
f 666 719 685
f 667 714 668
f 668 714 713
f 668 713 720
f 668 720 669
f 669 720 721
f 669 721 722
f 669 722 670
f 670 722 671
f 671 722 723
f 671 723 724
f 671 724 672
f 672 724 673
f 673 724 725
f 673 725 726
f 673 726 674
f 674 726 727
f 674 727 728
f 674 728 675
f 675 728 677
f 676 680 681
f 677 728 729
f 677 729 730
f 677 730 679
f 679 730 731
f 679 731 732
f 679 732 680
f 680 732 716
f 680 716 681
f 682 684 733
f 682 733 688
f 683 685 734
f 683 734 735
f 683 735 684
f 684 735 733
f 685 719 734
f 688 733 736
f 688 736 689
f 689 736 737
f 689 737 690
f 690 737 691
f 691 738 692
f 691 737 739
f 691 739 740
f 691 740 738
f 693 741 708
f 693 707 741
f 694 742 743
f 694 743 695
f 695 743 744
f 695 744 696
f 696 744 697
f 697 745 698
f 697 744 746
f 697 746 745
f 698 747 699
f 698 745 747
f 699 748 701
f 699 747 748
f 700 701 748
f 700 748 749
f 700 749 750
f 700 750 702
f 702 750 703
f 703 750 751
f 703 751 752
f 703 752 753
f 703 753 704
f 704 753 754
f 704 754 755
f 704 755 705
f 705 755 721
f 705 721 756
f 705 756 706
f 706 757 741
f 706 741 707
f 706 756 757
f 708 741 709
f 709 741 710
f 710 741 757
f 710 757 711
f 711 757 712
f 712 757 758
f 712 758 720
f 712 720 713
f 715 716 759
f 715 759 717
f 716 732 759
f 717 759 760
f 717 760 761
f 717 761 718
f 718 762 734
f 718 734 719
f 718 761 762
f 720 758 721
f 721 755 754
f 721 754 722
f 721 758 756
f 722 754 723
f 723 754 753
f 723 753 752
f 723 752 724
f 724 752 763
f 724 763 764
f 724 764 725
f 725 764 765
f 725 765 726
f 726 765 727
f 727 766 729
f 727 729 728
f 727 765 767
f 727 767 768
f 727 768 769
f 727 769 766
f 729 766 730
f 730 766 770
f 730 770 731
f 731 771 760
f 731 760 772
f 731 772 732
f 731 770 771
f 732 772 759
f 733 735 736
f 734 762 773
f 734 773 735
f 735 773 774
f 735 774 775
f 735 775 736
f 736 775 776
f 736 776 737
f 737 776 739
f 739 776 777
f 739 777 778
f 739 778 779
f 739 779 740
f 742 780 781
f 742 781 743
f 743 781 782
f 743 782 744
f 744 782 783
f 744 783 746
f 745 746 783
f 745 783 784
f 745 784 785
f 745 785 747
f 747 785 748
f 748 785 786
f 748 786 787
f 748 787 749
f 749 787 750
f 750 788 751
f 750 787 789
f 750 789 788
f 751 788 752
f 752 788 763
f 756 758 757
f 759 772 760
f 760 790 761
f 760 771 770
f 760 770 791
f 760 791 819
f 760 819 790
f 761 790 792
f 761 792 793
f 761 793 794
f 761 794 762
f 762 795 774
f 762 774 773
f 762 794 795
f 763 788 796
f 763 796 764
f 764 796 797
f 764 797 765
f 765 797 798
f 765 798 767
f 766 769 799
f 766 799 770
f 767 798 768
f 768 798 800
f 768 800 801
f 768 801 802
f 768 802 769
f 769 802 799
f 770 803 791
f 770 799 803
f 774 804 775
f 774 795 805
f 774 805 806
f 774 806 804
f 775 804 807
f 775 807 776
f 776 807 808
f 776 808 777
f 777 808 778
f 778 808 809
f 780 810 811
f 780 811 781
f 781 811 812
f 781 812 782
f 782 812 783
f 783 812 813
f 783 813 814
f 783 814 784
f 784 814 785
f 785 814 815
f 785 815 816
f 785 816 786
f 786 816 787
f 787 816 817
f 787 817 789
f 788 789 796
f 789 817 818
f 789 818 796
f 790 819 820
f 790 820 792
f 791 803 819
f 792 820 793
f 793 820 821
f 793 821 822
f 793 822 794
f 794 805 795
f 794 822 823
f 794 823 805
f 796 824 825
f 796 825 797
f 796 818 824
f 797 825 826
f 797 826 798
f 798 826 800
f 799 802 827
f 799 827 803
f 800 826 828
f 800 828 801
f 801 828 829
f 801 829 830
f 801 830 802
f 802 831 827
f 802 830 831
f 803 827 832
f 803 832 819
f 804 806 807
f 805 823 806
f 806 823 833
f 806 833 834
f 806 834 835
f 806 835 807
f 807 835 836
f 807 836 837
f 807 837 808
f 808 837 838
f 808 838 809
f 810 839 840
f 810 840 811
f 811 840 841
f 811 841 812
f 812 841 842
f 812 842 813
f 813 842 843
f 813 843 844
f 813 844 814
f 814 845 815
f 814 844 845
f 815 846 816
f 815 845 846
f 816 847 848
f 816 848 817
f 816 846 847
f 817 848 849
f 817 849 818
f 818 849 824
f 819 832 820
f 820 832 850
f 820 850 851
f 820 851 821
f 821 851 852
f 821 852 822
f 822 852 823
f 823 853 833
f 823 852 854
f 823 854 853
f 824 855 856
f 824 856 825
f 824 849 855
f 825 856 826
f 826 856 828
f 827 831 857
f 827 857 832
f 828 858 829
f 828 856 859
f 828 859 858
f 829 858 830
f 830 860 861
f 830 861 857
f 830 857 831
f 830 858 862
f 830 862 860
f 832 857 850
f 833 853 834
f 834 853 854
f 834 854 863
f 834 863 864
f 834 864 835
f 835 864 836
f 836 864 865
f 836 865 866
f 836 866 838
f 836 838 837
f 839 867 840
f 840 868 841
f 840 867 869
f 840 869 868
f 841 870 871
f 841 871 842
f 841 868 870
f 842 871 843
f 843 871 872
f 843 872 844
f 844 872 845
f 845 873 846
f 845 872 873
f 846 873 874
f 846 874 875
f 846 875 876
f 846 876 847
f 847 877 878
f 847 878 848
f 847 876 877
f 848 878 879
f 848 879 880
f 848 880 849
f 849 880 855
f 850 857 851
f 851 857 881
f 851 881 882
f 851 882 852
f 852 882 854
f 854 882 883
f 854 883 863
f 855 884 856
f 855 880 884
f 856 884 859
f 857 861 881
f 858 885 862
f 858 859 886
f 858 886 885
f 859 884 886
f 860 887 861
f 860 862 888
f 860 888 889
f 860 889 887
f 861 887 881
f 862 885 888
f 863 883 890
f 863 890 891
f 863 891 892
f 863 892 893
f 863 893 894
f 863 894 864
f 864 894 865
f 865 894 895
f 865 895 893
f 865 893 896
f 865 896 897
f 865 897 866
f 868 869 898
f 868 898 870
f 870 898 899
f 870 899 900
f 870 900 871
f 871 900 901
f 871 901 872
f 872 901 902
f 872 902 903
f 872 903 873
f 873 903 904
f 873 904 905
f 873 905 874
f 874 905 906
f 874 906 907
f 874 907 908
f 874 908 875
f 875 908 876
f 876 908 909
f 876 909 877
f 877 909 878
f 878 910 911
f 878 911 879
f 878 909 910
f 879 911 912
f 879 912 880
f 880 912 884
f 881 883 882
f 881 887 890
f 881 890 883
f 884 913 886
f 884 912 913
f 885 886 914
f 885 914 915
f 885 915 888
f 886 913 916
f 886 916 914
f 887 889 917
f 887 917 890
f 888 915 918
f 888 918 889
f 889 918 919
f 889 919 917
f 890 917 891
f 891 920 892
f 891 917 921
f 891 921 920
f 892 920 922
f 892 922 893
f 893 895 894
f 893 922 896
f 907 923 924
f 907 924 925
f 907 925 908
f 908 926 909
f 908 925 926
f 909 925 910
f 909 926 925
f 910 925 924
f 910 924 927
f 910 927 928
f 910 928 929
f 910 929 911
f 911 929 930
f 911 930 912
f 912 930 913
f 913 930 916
f 914 931 915
f 914 916 931
f 915 931 932
f 915 932 933
f 915 933 918
f 916 930 934
f 916 934 935
f 916 935 931
f 917 919 921
f 918 933 936
f 918 936 937
f 918 937 919
f 919 937 938
f 919 938 939
f 919 939 921
f 920 921 922
f 921 939 940
f 921 940 922
f 923 941 942
f 923 942 927
f 923 927 924
f 927 942 928
f 928 942 943
f 928 943 934
f 928 934 930
f 928 930 929
f 931 935 932
f 932 936 933
f 932 935 944
f 932 944 945
f 932 945 936
f 934 943 935
f 935 943 944
f 936 938 937
f 936 945 944
f 936 944 946
f 936 946 938
f 938 940 939
f 938 946 940
f 941 947 942
f 942 947 944
f 942 944 948
f 942 948 943
f 943 948 944
f 944 947 946
