# Derived from Apache-2.0 SO-ARM100 STL; see THIRD_PARTY.md
v 0.00575399411 -0.0405866444 0.00566997121
v 0.00574298979 -0.0405866444 0.00592968302
v 0.00555728998 -0.0423648666 0.00575484427
v 0.00464392416 -0.0510692255 0.00492308723
v 0.00542386187 -0.0437100759 0.000127751953
v 0.00575399411 -0.0405866444 -0.00570133882
v 0.00572923422 -0.0405866444 0.00606717769
v 0.00463291916 -0.0510692255 0.00517600934
v 0.00464392416 -0.0510692255 -0.00492220271
v 0.00542386187 -0.0437100759 -0.000128565078
v 0.00556279248 -0.0423648666 -0.0056639944
v 0.00574986723 -0.0405866444 -0.00581676591
v 0.00464254854 -0.0510692255 -0.00498331145
v 0.00460815928 -0.0510692255 0.00537970503
v 0.00461916359 -0.0510692255 0.00530501653
v 0.00462604172 -0.0510692255 0.00524221036
v 0.00570722559 -0.0405866444 0.00620636944
v 0.00463704604 -0.0510692255 -0.00512080612
v 0.00574161417 -0.0405866444 -0.0059525635
v 0.00459715496 -0.0510692255 0.0054425112
v 0.00568384065 -0.0405866444 0.00632688984
v 0.00463154353 -0.0510692255 -0.00518700714
v 0.00462466609 -0.0510692255 -0.00524981331
v 0.00572510735 -0.0405866444 -0.00609175525
v 0.00457101945 -0.0510692255 0.00556642576
v 0.00567971446 -0.0405866444 0.00634556188
v 0.00460815928 -0.0510692255 -0.00538221536
v 0.0057223561 -0.0405866444 -0.00611042729
v 0.00455313769 -0.0510692255 0.00564450912
v 0.00564945207 -0.0405866444 0.00646608159
v 0.0045380065 -0.0510692255 0.00570901271
v 0.00459577933 -0.0510692255 -0.005453509
v 0.00570309872 -0.0405866444 -0.00622755215
v 0.00564394957 -0.0405866444 0.0064864514
v 0.00447610645 -0.0510692255 0.00590761613
v 0.00560818537 -0.0405866444 0.00660697112
v 0.00455176207 -0.0510692255 -0.00565550727
v 0.00567421196 -0.0405866444 -0.00636674459
v 0.00569897184 -0.0405866444 -0.00624961973
v 0.00445272219 -0.0510692255 0.00597042264
v 0.00560130793 -0.0405866444 0.00662734093
v 0.00555178816 -0.0405866444 0.00676653268
v 0.00453525525 -0.0510692255 -0.00571831344
v 0.00563844776 -0.0405866444 -0.00650763411
v 0.00441007986 -0.0510692255 0.00607906002
v 0.00549401464 -0.0405866444 0.00690402735
v 0.00451599718 -0.0510692255 -0.00578281669
v 0.00558755236 -0.0405866444 -0.00666719567
v 0.00447885736 -0.0510692255 -0.00589994223
v 0.00437294004 -0.0510692255 0.00616393342
v 0.004342678 -0.0510692255 0.00622843702
v 0.00543899238 -0.0405866444 0.00702115221
v 0.00554353441 -0.0405866444 -0.00678432053
v 0.00444859532 -0.0510692255 -0.0059814201
v 0.00427802704 -0.0510692255 0.00635404936
v 0.00542936368 -0.0405866444 0.00703982425
v 0.00553528135 -0.0405866444 -0.00680469034
v 0.00436881351 -0.0510692255 -0.0061732338
v 0.00424363812 -0.0510692255 0.00641346033
v 0.00536746398 -0.0405866444 0.00715525202
v 0.00548576158 -0.0405866444 -0.0069218152
v 0.00433992675 -0.0510692255 -0.00623603963
v 0.00420374739 -0.0510692255 0.00648135878
v 0.00535645966 -0.0405866444 0.00717392406
v 0.00541973499 -0.0405866444 -0.00705591502
v 0.0043096647 -0.0510692255 -0.00629545129
v 0.00540873068 -0.0405866444 -0.00707798191
v 0.00416660722 -0.0510692255 0.00654246752
v 0.00528905745 -0.0405866444 0.00728595698
v 0.00425464278 -0.0510692255 -0.00639729896
v 0.00534683097 -0.0405866444 -0.00719001415
v 0.00415147637 -0.0510692255 0.00656623218
v 0.00527667751 -0.0405866444 0.00730462902
v 0.00423951159 -0.0510692255 -0.00642276071
v 0.00533582665 -0.0405866444 -0.00720868687
v 0.00409232757 -0.0510692255 0.00665110559
v 0.00519001791 -0.0405866444 0.00743193845
v 0.00420374739 -0.0510692255 -0.0064804746
v 0.00526704882 -0.0405866444 -0.00731902134
v 0.00403180348 -0.0510692255 0.00673258345
v 0.00509648019 -0.0405866444 0.0075558537
v 0.00412809177 -0.0510692255 -0.00660099431
v 0.00525466887 -0.0405866444 -0.00733769407
v 0.00396302565 -0.0510692255 0.00681915394
v 0.00501119623 -0.0405866444 0.0076560036
v 0.00391763241 -0.0510692255 0.00687347298
v 0.00408820103 -0.0510692255 -0.00665701111
v 0.00518038922 -0.0405866444 -0.00744633145
v 0.00499606503 -0.0405866444 0.00767297856
v 0.00382271941 -0.0510692255 0.00697871551
v 0.003983659 -0.0510692255 -0.0067945051
v 0.00516663366 -0.0405866444 -0.00746500349
v 0.00489014737 -0.0405866444 0.00778670857
v 0.00377319964 -0.0510692255 0.00702963969
v 0.00395889911 -0.0510692255 -0.00682505947
v 0.00508547588 -0.0405866444 -0.00756854893
v 0.00479385909 -0.0405866444 0.00787837168
v 0.0036659067 -0.0510692255 0.00713148736
v 0.00391350588 -0.0510692255 -0.0068793785
v 0.00498643634 -0.0405866444 -0.00768567379
v 0.00477735227 -0.0405866444 0.00789364886
v 0.00356411557 -0.0510692255 0.00721975562
v 0.00466043029 -0.0405866444 0.00799549654
v 0.00379933515 -0.0510692255 -0.00700329375
v 0.00486263624 -0.0405866444 -0.0078129839
v 0.00349396245 -0.0510692255 0.00727577174
v 0.00455588826 -0.0405866444 0.00807527732
v 0.00371817738 -0.0510692255 -0.00708307454
v 0.00368929096 -0.0510692255 -0.00711023337
v 0.00364939988 -0.0510692255 -0.00714757813
v 0.00476772358 -0.0405866444 -0.00790125147
v 0.0034375649 -0.0510692255 0.00731820844
v 0.0045380065 -0.0405866444 0.00808885742
v 0.00361363568 -0.0510692255 -0.0071781325
v 0.0046508016 -0.0405866444 -0.00800309983
v 0.00339629855 -0.0510692255 0.00734876281
v 0.00442933759 -0.0405866444 0.00816524266
v 0.00355861341 -0.0510692255 -0.00722396337
v 0.00452837781 -0.0405866444 -0.00809646003
v 0.00343343837 -0.0510692255 -0.00732241688
v 0.00333714974 -0.0510692255 0.00738950174
v 0.00441145549 -0.0405866444 0.00817712499
v 0.0044018268 -0.0405866444 -0.00818303052
v 0.00333302321 -0.0510692255 -0.00739201241
v 0.00320784782 -0.0510692255 0.00747437515
v 0.00430003601 -0.0405866444 0.00824672121
v 0.0043839447 -0.0405866444 -0.00819491285
v 0.00320372129 -0.0510692255 -0.00747518805
v 0.00315832806 -0.0510692255 0.00750323243
v 0.00428077829 -0.0405866444 0.00825860354
v 0.00427252488 -0.0405866444 -0.0082628113
v 0.00315420118 -0.0510692255 -0.00750404534
v 0.00303590392 -0.0510692255 0.00756943311
v 0.00416660722 -0.0405866444 0.00832140937
v 0.00413909643 -0.0405866444 -0.00833580237
v 0.00302765051 -0.0510692255 -0.00757364155
v 0.00290935325 -0.0510692255 0.00763054186
v 0.00414734949 -0.0405866444 0.00833159462
v 0.00401117013 -0.0405866444 0.0083977953
v 0.00400429235 -0.0405866444 -0.00840200374
v 0.0029657508 -0.0510692255 -0.00760419593
v 0.00288459303 -0.0510692255 0.00764242419
v 0.0038736148 -0.0405866444 0.00845720696
v 0.00386673702 -0.0405866444 -0.00845971763
v 0.00290522638 -0.0510692255 -0.00763305253
v 0.00277179792 -0.0510692255 -0.00769076641
v 0.00277454917 -0.0510692255 0.00768995283
v 0.00375394192 -0.0405866444 0.00850134074
v 0.00271402475 -0.0510692255 0.00771371749
v 0.00372918204 -0.0405866444 -0.00850724627
v 0.00271127384 -0.0510692255 -0.00771453108
v 0.00264937379 -0.0510692255 -0.00773659797
v 0.00373468419 -0.0405866444 0.00850813045
v 0.00265212504 -0.0510692255 0.00773578439
v 0.00370854868 -0.0405866444 -0.00851403597
v 0.00244991875 -0.0510692255 -0.0077994038
v 0.00359437796 -0.0405866444 0.00855226492
v 0.00245129438 -0.0510692255 0.00780028798
v 0.0035888758 -0.0405866444 -0.00855138005
v 0.00238664342 -0.0510692255 -0.00781637875
v 0.00345407172 -0.0405866444 0.00858791123
v 0.00238801904 -0.0510692255 0.00781726294
v 0.00343068712 -0.0405866444 -0.00859381676
v 0.00218306185 -0.0510692255 -0.00786051254
v 0.00333302321 -0.0405866444 0.00861337366
v 0.00218443747 -0.0510692255 0.00785969964
v 0.00330963861 -0.0405866444 -0.00861758142
v 0.00210052879 -0.0510692255 -0.00787409264
v 0.00331376549 -0.0405866444 0.00861676852
v 0.00210052879 -0.0510692255 0.00787327905
v 0.00317345891 -0.0405866444 0.0086405325
v 0.00317208362 -0.0405866444 -0.00863795123
v 0.00199186022 -0.0510692255 -0.00788767206
v 0.00205651118 -0.0510692255 0.00788006876
v 0.00303590392 -0.0405866444 0.00865580968
v 0.00191758022 -0.0510692255 0.00789704372
v 0.00203312658 -0.0510692255 0.0078834643
v 0.0030345283 -0.0405866444 -0.0086549255
v 0.00194921789 -0.0510692255 -0.00789276468
v 0.00291347979 -0.0405866444 0.00866260007
v 0.00179928296 -0.0510692255 0.00790553119
v 0.00289834859 -0.0405866444 -0.0086617152
v 0.00191620494 -0.0510692255 -0.00789615953
v 0.00181716506 -0.0510692255 -0.00790294924
v -0.00732887852 -0.0405866444 0.00866769201
v 0.00164934769 -0.0510692255 0.0079123209
v -0.000148498293 -0.0405866444 -0.00866680783
v 0.00178140086 -0.0510692255 -0.00790464701
v 0.0016754832 -0.0510692255 -0.00790804186
v -0.00738252448 -0.0405866444 0.00866429716
v -0.00730549358 -0.0510692255 0.0079123209
v -0.00566308511 -0.0405866444 -0.00867359754
v -0.00729861614 -0.0510692255 -0.00791143672
v -0.00744992669 -0.0405866444 0.00865580968
v -0.00745130232 -0.0510692255 0.00789025401
v -0.00736464272 -0.0405866444 -0.00866511074
v -0.00742103993 -0.0510692255 -0.00789276468
v -0.00741966431 -0.0405866444 -0.00866001812
v -0.00750357334 -0.0405866444 0.00864562512
v -0.00751045078 -0.0510692255 0.00787837168
v -0.00748294033 -0.0510692255 -0.00788257943
v -0.00748294033 -0.0405866444 -0.00864983356
v -0.00756272179 -0.0405866444 0.0086320457
v -0.00757097555 -0.0510692255 0.00786309449
v -0.00756959992 -0.0405866444 0.00863034793
v -0.00754621566 -0.0510692255 -0.0078706971
v -0.00749119339 -0.0405866444 -0.00864813579
v -0.00762874838 -0.0510692255 0.00784442245
v -0.00762874838 -0.0405866444 0.00861167589
v -0.00757647736 -0.0510692255 -0.00786221031
v -0.00755171748 -0.0405866444 -0.00863455637
v -0.00754484004 -0.0405866444 -0.00863625346
v -0.00768514627 -0.0510692255 0.00782235556
v -0.00768514627 -0.0405866444 0.008589609
v -0.00760536412 -0.0405866444 -0.00861758142
v -0.0076658882 -0.0510692255 -0.00783165594
v -0.00771403303 -0.0510692255 0.00781047323
v -0.00773466604 -0.0405866444 0.00856584434
v -0.00766451258 -0.0405866444 -0.00859551452
v -0.00772366172 -0.0510692255 -0.00780619351
v -0.00772916354 -0.0405866444 -0.00856835501
v -0.00777043024 -0.0510692255 0.00778331371
v -0.00774154348 -0.0405866444 0.00856244948
v -0.00778005893 -0.0510692255 -0.0077773369
v -0.00778556143 -0.0405866444 -0.00853780064
v -0.00784883677 -0.0510692255 0.00773578439
v -0.00778968831 -0.0405866444 0.00853698774
v -0.00784883677 -0.0405866444 0.00850134074
v -0.00783370557 -0.0510692255 -0.00774508476
v -0.00783920808 -0.0405866444 -0.00850724627
v -0.00787497228 -0.0510692255 0.00771711235
v -0.00789285472 -0.0405866444 0.00847078637
v -0.00785984108 -0.0510692255 -0.00772811049
v -0.00788460097 -0.0405866444 -0.0084766919
v -0.00789835653 -0.0510692255 0.00770013808
v -0.0079478763 -0.0405866444 0.00842665258
v -0.0079478763 -0.0510692255 0.00766109623
v -0.00792449204 -0.0510692255 0.00767976827
v -0.00788597659 -0.0510692255 -0.00770943845
v -0.00793412073 -0.0405866444 -0.00843595296
v -0.00790936085 -0.0510692255 -0.00769076641
v -0.00798226556 -0.0510692255 -0.00763135476
v -0.00799326988 -0.0405866444 0.00838421588
v -0.00799326988 -0.0510692255 0.00761865953
v -0.00798088994 -0.0405866444 -0.00839691111
v -0.0080455409 -0.0510692255 -0.00756515408
v -0.0080304097 -0.0405866444 -0.0083476847
v -0.00798639175 -0.0405866444 -0.00839181849
v -0.00803178533 -0.0405866444 0.00834517403
v -0.00803728714 -0.0510692255 0.00757452574
v -0.00806754953 -0.0510692255 -0.00754138941
v -0.0080661739 -0.0405866444 -0.008305248
v -0.00807305203 -0.0405866444 0.00829764539
v -0.00807855385 -0.0510692255 0.00752699641
v -0.00810468935 -0.0510692255 -0.00749046523
v -0.00810881623 -0.0405866444 -0.00825092897
v -0.00807030078 -0.0405866444 -0.00830015606
v -0.00807717822 -0.0405866444 0.00829255277
v -0.00811569367 -0.0510692255 0.00747777
v -0.00814045356 -0.0510692255 -0.00744123882
v -0.00814320481 -0.0405866444 -0.00820000547
v -0.00811019186 -0.0405866444 0.00824841898
v -0.00816658906 -0.0510692255 0.00739798922
v -0.00814595606 -0.0405866444 0.00819579703
v -0.00817209157 -0.0510692255 -0.00738692048
v -0.00817484282 -0.0405866444 -0.00814568644
v -0.00818172026 -0.0510692255 0.0073708297
v -0.00818034463 -0.0405866444 0.00813468829
v -0.0081996027 -0.0510692255 -0.00733260144
v -0.00820235326 -0.0405866444 -0.0080913674
v -0.00822161133 -0.0510692255 0.00728425921
v -0.00820510451 -0.0405866444 0.00808546188
v -0.00822436258 -0.0510692255 -0.00727488755
v -0.00822436258 -0.0405866444 -0.00804044391
v -0.00823261565 -0.0510692255 0.00725540261
v -0.0082298644 -0.0405866444 0.00802605091
v -0.00823261565 -0.0405866444 0.0080192612
v -0.00824637122 -0.0510692255 -0.00721887144
v -0.00822711315 -0.0405866444 -0.0080336542
v -0.00824361997 -0.0510692255 0.00722484824
v -0.00825324866 -0.0405866444 0.00795984954
v -0.00826425366 -0.0510692255 -0.00715945978
v -0.00824637122 -0.0405866444 -0.00798103225
v -0.00826287803 -0.0510692255 0.00716543659
v -0.00826837985 -0.0405866444 0.00790553119
v -0.00827938417 -0.0510692255 -0.00710004881
v -0.0082656286 -0.0405866444 -0.00791483157
v -0.0082711311 -0.0510692255 0.00713318513
v -0.00828351104 -0.0405866444 0.00783593498
v -0.00827800923 -0.0510692255 0.00710263076
v -0.00828901354 -0.0510692255 -0.00704063783
v -0.00827938417 -0.0405866444 -0.00785711768
v -0.00827800923 -0.0405866444 -0.00786390739
v -0.00829176411 -0.0405866444 0.00777312915
v -0.00829313973 -0.0510692255 0.00700926988
v -0.00828901354 -0.0510692255 0.00703982425
v -0.00829313973 -0.0510692255 -0.00701008346
v -0.00828901354 -0.0405866444 -0.00779600894
v -0.00829726661 -0.0405866444 0.00767467564
v -0.00829589098 -0.0510692255 0.00698041328
v -0.00829589098 -0.0510692255 -0.00697783132
v -0.00829451536 -0.0405866444 -0.00774168991
v -0.00829864223 -0.0423648666 0.00750832437
v -0.00829864223 -0.0510692255 0.00692439716
v -0.00829726661 -0.0405866444 -0.00766190913
v -0.00829864223 -0.0510692255 -0.0069082351
v -0.00829589098 -0.0423648666 -0.00759231359
v -0.00829864223 -0.0423648666 -0.00751083504
f 1 2 3
f 1 3 4
f 1 4 5
f 1 5 10
f 1 10 6
f 1 6 12
f 1 12 19
f 1 19 24
f 1 24 28
f 1 28 33
f 1 33 39
f 1 39 38
f 1 38 44
f 1 44 48
f 1 48 53
f 1 53 57
f 1 57 61
f 1 61 65
f 1 65 67
f 1 67 71
f 1 71 75
f 1 75 79
f 1 79 83
f 1 83 88
f 1 88 92
f 1 92 96
f 1 96 100
f 1 100 105
f 1 105 111
f 1 111 115
f 1 115 119
f 1 119 123
f 1 123 127
f 1 127 131
f 1 131 135
f 1 135 140
f 1 140 144
f 1 144 150
f 1 150 155
f 1 155 159
f 1 159 163
f 1 163 167
f 1 167 172
f 1 172 178
f 1 178 182
f 1 182 187
f 1 187 192
f 1 192 196
f 1 196 198
f 1 198 202
f 1 202 207
f 1 207 212
f 1 212 211
f 1 211 215
f 1 215 219
f 1 219 221
f 1 221 225
f 1 225 230
f 1 230 234
f 1 234 240
f 1 240 245
f 1 245 248
f 1 248 247
f 1 247 252
f 1 252 257
f 1 257 256
f 1 256 261
f 1 261 266
f 1 266 270
f 1 270 274
f 1 274 279
f 1 279 283
f 1 283 287
f 1 287 293
f 1 293 292
f 1 292 298
f 1 298 302
f 1 302 305
f 1 305 299
f 1 299 294
f 1 294 289
f 1 289 285
f 1 285 281
f 1 281 277
f 1 277 276
f 1 276 272
f 1 272 268
f 1 268 264
f 1 264 262
f 1 262 258
f 1 258 253
f 1 253 249
f 1 249 243
f 1 243 236
f 1 236 232
f 1 232 228
f 1 228 227
f 1 227 223
f 1 223 218
f 1 218 214
f 1 214 209
f 1 209 205
f 1 205 203
f 1 203 199
f 1 199 194
f 1 194 190
f 1 190 185
f 1 185 180
f 1 180 175
f 1 175 171
f 1 171 169
f 1 169 165
f 1 165 161
f 1 161 157
f 1 157 153
f 1 153 148
f 1 148 143
f 1 143 139
f 1 139 138
f 1 138 134
f 1 134 130
f 1 130 126
f 1 126 122
f 1 122 117
f 1 117 113
f 1 113 107
f 1 107 103
f 1 103 101
f 1 101 97
f 1 97 93
f 1 93 89
f 1 89 85
f 1 85 81
f 1 81 77
f 1 77 73
f 1 73 69
f 1 69 64
f 1 64 60
f 1 60 56
f 1 56 52
f 1 52 46
f 1 46 42
f 1 42 41
f 1 41 36
f 1 36 34
f 1 34 30
f 1 30 26
f 1 26 21
f 1 21 17
f 1 17 7
f 1 7 2
f 2 7 8
f 2 8 3
f 3 8 4
f 4 8 16
f 4 16 15
f 4 15 14
f 4 14 20
f 4 20 25
f 4 25 29
f 4 29 31
f 4 31 35
f 4 35 40
f 4 40 45
f 4 45 50
f 4 50 51
f 4 51 55
f 4 55 59
f 4 59 63
f 4 63 68
f 4 68 72
f 4 72 76
f 4 76 80
f 4 80 84
f 4 84 86
f 4 86 90
f 4 90 94
f 4 94 98
f 4 98 102
f 4 102 106
f 4 106 112
f 4 112 116
f 4 116 121
f 4 121 125
f 4 125 129
f 4 129 133
f 4 133 137
f 4 137 142
f 4 142 147
f 4 147 149
f 4 149 154
f 4 154 158
f 4 158 162
f 4 162 166
f 4 166 170
f 4 170 174
f 4 174 177
f 4 177 176
f 4 176 181
f 4 181 186
f 4 186 191
f 4 191 195
f 4 195 200
f 4 200 204
f 4 204 208
f 4 208 213
f 4 213 217
f 4 217 222
f 4 222 226
f 4 226 231
f 4 231 235
f 4 235 238
f 4 238 237
f 4 237 244
f 4 244 250
f 4 250 254
f 4 254 259
f 4 259 263
f 4 263 267
f 4 267 271
f 4 271 275
f 4 275 280
f 4 280 284
f 4 284 288
f 4 288 290
f 4 290 296
f 4 296 295
f 4 295 300
f 4 300 304
f 4 304 306
f 4 306 301
f 4 301 297
f 4 297 291
f 4 291 286
f 4 286 282
f 4 282 278
f 4 278 273
f 4 273 269
f 4 269 265
f 4 265 260
f 4 260 255
f 4 255 251
f 4 251 246
f 4 246 242
f 4 242 241
f 4 241 239
f 4 239 233
f 4 233 229
f 4 229 224
f 4 224 220
f 4 220 216
f 4 216 210
f 4 210 206
f 4 206 201
f 4 201 197
f 4 197 193
f 4 193 189
f 4 189 188
f 4 188 184
f 4 184 183
f 4 183 179
f 4 179 173
f 4 173 168
f 4 168 164
f 4 164 160
f 4 160 156
f 4 156 152
f 4 152 151
f 4 151 146
f 4 146 145
f 4 145 141
f 4 141 136
f 4 136 132
f 4 132 128
f 4 128 124
f 4 124 120
f 4 120 118
f 4 118 114
f 4 114 110
f 4 110 109
f 4 109 108
f 4 108 104
f 4 104 99
f 4 99 95
f 4 95 91
f 4 91 87
f 4 87 82
f 4 82 78
f 4 78 74
f 4 74 70
f 4 70 66
f 4 66 62
f 4 62 58
f 4 58 54
f 4 54 49
f 4 49 47
f 4 47 43
f 4 43 37
f 4 37 32
f 4 32 27
f 4 27 23
f 4 23 22
f 4 22 18
f 4 18 13
f 4 13 9
f 4 9 10
f 4 10 5
f 6 11 12
f 6 10 9
f 6 9 13
f 6 13 11
f 7 14 15
f 7 15 16
f 7 16 8
f 7 17 14
f 11 13 18
f 11 18 12
f 12 18 19
f 14 17 20
f 17 21 20
f 18 22 19
f 19 23 24
f 19 22 23
f 20 21 25
f 21 26 25
f 23 27 24
f 24 27 28
f 25 26 29
f 26 30 31
f 26 31 29
f 27 32 33
f 27 33 28
f 30 34 31
f 31 34 36
f 31 36 35
f 32 37 38
f 32 38 39
f 32 39 33
f 35 36 41
f 35 41 42
f 35 42 40
f 37 43 44
f 37 44 38
f 40 42 45
f 42 46 45
f 43 47 44
f 44 47 49
f 44 49 48
f 45 46 50
f 46 51 50
f 46 52 51
f 48 49 54
f 48 54 53
f 51 52 55
f 52 56 55
f 53 54 57
f 54 58 57
f 55 56 60
f 55 60 59
f 57 58 61
f 58 62 61
f 59 60 63
f 60 64 63
f 61 62 65
f 62 66 67
f 62 67 65
f 63 64 69
f 63 69 68
f 66 70 67
f 67 70 71
f 68 69 72
f 69 73 72
f 70 74 75
f 70 75 71
f 72 73 77
f 72 77 76
f 74 78 75
f 75 78 79
f 76 77 80
f 77 81 80
f 78 82 79
f 79 82 83
f 80 81 84
f 81 85 86
f 81 86 84
f 82 87 88
f 82 88 83
f 85 89 86
f 86 89 90
f 87 91 92
f 87 92 88
f 89 93 90
f 90 93 94
f 91 95 96
f 91 96 92
f 93 97 94
f 94 97 98
f 95 99 96
f 96 99 100
f 97 101 98
f 98 101 103
f 98 103 102
f 99 104 100
f 100 104 105
f 102 103 106
f 103 107 106
f 104 108 105
f 105 108 109
f 105 109 110
f 105 110 111
f 106 107 113
f 106 113 112
f 110 114 115
f 110 115 111
f 112 113 116
f 113 117 116
f 114 118 115
f 115 118 120
f 115 120 119
f 116 117 121
f 117 122 121
f 119 120 124
f 119 124 123
f 121 122 125
f 122 126 125
f 123 124 127
f 124 128 127
f 125 126 130
f 125 130 129
f 127 128 131
f 128 132 131
f 129 130 134
f 129 134 133
f 131 132 136
f 131 136 135
f 133 134 138
f 133 138 139
f 133 139 137
f 135 136 141
f 135 141 140
f 137 139 142
f 139 143 147
f 139 147 142
f 140 141 145
f 140 145 146
f 140 146 144
f 143 148 149
f 143 149 147
f 144 146 151
f 144 151 152
f 144 152 150
f 148 153 154
f 148 154 149
f 150 152 155
f 152 156 155
f 153 157 158
f 153 158 154
f 155 156 159
f 156 160 163
f 156 163 159
f 157 161 162
f 157 162 158
f 160 164 163
f 161 165 162
f 162 165 166
f 163 164 167
f 164 168 167
f 165 169 166
f 166 169 171
f 166 171 170
f 167 168 172
f 168 173 172
f 170 171 174
f 171 175 176
f 171 176 177
f 171 177 174
f 172 173 178
f 173 179 178
f 175 180 181
f 175 181 176
f 178 179 183
f 178 183 184
f 178 184 182
f 180 185 186
f 180 186 181
f 182 184 188
f 182 188 189
f 182 189 187
f 185 190 191
f 185 191 186
f 187 189 192
f 189 193 192
f 190 194 191
f 191 194 195
f 192 193 196
f 193 197 198
f 193 198 196
f 194 199 195
f 195 199 200
f 197 201 202
f 197 202 198
f 199 203 200
f 200 203 205
f 200 205 204
f 201 206 202
f 202 206 207
f 204 205 209
f 204 209 208
f 206 210 211
f 206 211 212
f 206 212 207
f 208 209 214
f 208 214 213
f 210 215 211
f 210 216 215
f 213 214 217
f 214 218 217
f 215 216 219
f 216 220 221
f 216 221 219
f 217 218 222
f 218 223 222
f 220 224 221
f 221 224 225
f 222 223 227
f 222 227 228
f 222 228 226
f 224 229 230
f 224 230 225
f 226 228 232
f 226 232 231
f 229 233 230
f 230 233 234
f 231 232 235
f 232 236 237
f 232 237 238
f 232 238 235
f 233 239 234
f 234 239 241
f 234 241 242
f 234 242 240
f 236 243 244
f 236 244 237
f 240 242 245
f 242 246 247
f 242 247 248
f 242 248 245
f 243 249 250
f 243 250 244
f 246 251 247
f 247 251 252
f 249 253 254
f 249 254 250
f 251 255 256
f 251 256 257
f 251 257 252
f 253 258 254
f 254 258 259
f 255 260 256
f 256 260 261
f 258 262 259
f 259 262 264
f 259 264 263
f 260 265 266
f 260 266 261
f 263 264 268
f 263 268 267
f 265 269 270
f 265 270 266
f 267 268 272
f 267 272 271
f 269 273 274
f 269 274 270
f 271 272 276
f 271 276 277
f 271 277 275
f 273 278 279
f 273 279 274
f 275 277 280
f 277 281 280
f 278 282 283
f 278 283 279
f 280 281 284
f 281 285 284
f 282 286 287
f 282 287 283
f 284 285 288
f 285 289 290
f 285 290 288
f 286 291 292
f 286 292 293
f 286 293 287
f 289 294 295
f 289 295 296
f 289 296 290
f 291 297 298
f 291 298 292
f 294 299 300
f 294 300 295
f 297 301 302
f 297 302 298
f 299 303 304
f 299 304 300
f 299 305 308
f 299 308 303
f 301 306 307
f 301 307 302
f 302 307 305
f 303 308 306
f 303 306 304
f 305 307 308
f 306 308 307
