# Derived from Apache-2.0 SO-ARM100 STL; see THIRD_PARTY.md
v 0.00653779138 -0.0332026147 0.00642262088
v 0.00652762464 -0.0332026147 0.00666512847
v 0.00574477735 -0.0405866441 0.00592834989
v 0.00575494409 -0.0405866441 0.0056710336
v 0.00632138298 -0.035245221 -1.04339774e-06
v 0.00647824264 -0.0337649459 0.000128540607
v 0.00653779138 -0.0332026147 -0.00538618459
v 0.00651310072 -0.0332026147 0.0068039686
v 0.00573025275 -0.0405866441 0.00606719003
v 0.00575494409 -0.0405866441 -0.00570273981
v 0.00647824264 -0.0337649459 -0.000128776207
v 0.00649712373 -0.0335741291 -0.00637657616
v 0.00653633899 -0.0332026147 -0.00644136832
v 0.00649276655 -0.0332026147 0.00694280874
v 0.00570846688 -0.0405866441 0.00620603016
v 0.00575203931 -0.0405866441 -0.00581751438
v 0.00652907703 -0.0332503188 -0.00655058899
v 0.0065334342 -0.0332026147 -0.0065579942
v 0.00646371872 -0.0332026147 0.00708349949
v 0.00568522861 -0.0405866441 0.00632635864
v 0.00574187257 -0.0405866441 -0.00595450253
v 0.00651891029 -0.0332662204 -0.0066838759
v 0.00652471985 -0.0332026147 -0.00669313173
v 0.00642886064 -0.0332026147 0.00722419025
v 0.00568087144 -0.0405866441 0.00634672229
v 0.00574042018 -0.0405866441 -0.00597301556
v 0.00572734797 -0.0405866441 -0.00609149205
v 0.00651019594 -0.0332026147 -0.00683012125
v 0.00638528889 -0.0332026147 0.0073685836
v 0.00564601335 -0.0405866441 0.00648741304
v 0.00572444318 -0.0405866441 -0.00611000371
v 0.00647824264 -0.0332965777 -0.00695600158
v 0.00648695699 -0.0332026147 -0.00696896001
v 0.00633590689 -0.0332026147 0.00750742374
v 0.00556032156 -0.0405866441 0.00674658029
v 0.00560244092 -0.0405866441 0.00662625317
v 0.00570120492 -0.0405866441 -0.00624884384
v 0.00645790916 -0.0332026147 -0.00710965214
v 0.00627926294 -0.0332026147 0.00764626388
v 0.00555305961 -0.0405866441 0.00676694393
v 0.00567070401 -0.0405866441 -0.00638953459
v 0.00642305107 -0.0332026147 -0.00724849227
v 0.00543977169 -0.0405866441 0.00702055795
v 0.00549496326 -0.0405866441 0.00690393345
v 0.00550367761 -0.0405866441 0.00688356981
v 0.00621680941 -0.0332026147 0.00777584819
v 0.00563875139 -0.0405866441 -0.00650801109
v 0.00637947933 -0.0332026147 -0.00738918303
v 0.00563294183 -0.0405866441 -0.00652837473
v 0.00542960495 -0.0405866441 0.00704092159
v 0.00621390463 -0.0332026147 0.00778140141
v 0.00632864494 -0.0332026147 -0.00752802316
v 0.00559517896 -0.0405866441 -0.00664685123
v 0.005587917 -0.0405866441 -0.00666721487
v 0.00535843708 -0.0405866441 0.00717420851
v 0.00614273676 -0.0332026147 0.00791653894
v 0.00632719254 -0.0332026147 -0.00753172577
v 0.00553708261 -0.0405866441 -0.006806055
v 0.00527855417 -0.0405866441 0.00730564344
v 0.00606721171 -0.0332026147 0.00804057003
v 0.00627054859 -0.0332026147 -0.00766501131
v 0.00547753387 -0.0405866441 -0.00694304315
v 0.00520448151 -0.0405866441 0.00741301349
v 0.00597716206 -0.0332026147 0.00817385557
v 0.00620519028 -0.0332026147 -0.00780014884
v 0.0054208906 -0.0405866441 -0.00705781841
v 0.00519140999 -0.0405866441 0.00743152514
v 0.00588856549 -0.0332026147 0.00829048145
v 0.00509845556 -0.0405866441 0.00755555486
v 0.0062022855 -0.0332026147 -0.00780570343
v 0.00541072317 -0.0405866441 -0.00707818205
v 0.00588420831 -0.0332026147 0.00829603604
v 0.00499823985 -0.0405866441 0.00767403273
v 0.00613257002 -0.0332026147 -0.00793343576
v 0.00534826965 -0.0405866441 -0.00719110396
v 0.00578399192 -0.0332026147 0.00841451254
v 0.00568377622 -0.0332026147 0.00852188122
v 0.00490673781 -0.0405866441 0.00777029496
v 0.00604978232 -0.0332026147 -0.00806857329
v 0.00526838743 -0.0405866441 -0.00732068827
v 0.0048907615 -0.0405866441 0.007786956
v 0.0055719407 -0.0332026147 0.00862925127
v 0.00596699532 -0.0332026147 -0.00818890177
v 0.00518124325 -0.0405866441 -0.00744656997
v 0.00477892598 -0.0405866441 0.00789432468
v 0.00556613113 -0.0332026147 0.00863480449
v 0.00508683642 -0.0405866441 -0.00756874907
v 0.00586823201 -0.0332026147 -0.00831478348
v 0.00466128158 -0.0405866441 0.00799428952
v 0.00544993843 -0.0332026147 0.00873662132
v 0.00498662072 -0.0405866441 -0.00768537495
v 0.00577382518 -0.0332026147 -0.00842770675
v 0.00455670801 -0.0405866441 0.00807574271
v 0.00533374573 -0.0332026147 0.00882733034
v 0.0049720968 -0.0405866441 -0.00770203599
v 0.00566779923 -0.0332026147 -0.00853877804
v 0.00453927897 -0.0405866441 0.00808870115
v 0.00520157673 -0.0332026147 0.00891988997
v 0.00441291988 -0.0405866441 0.00817755817
v 0.00486461846 -0.0405866441 -0.00781310727
v 0.00566198966 -0.0332026147 -0.00854433126
v 0.00507231251 -0.0332026147 0.00899949118
v 0.00430108435 -0.0405866441 0.00824605293
v 0.00476875993 -0.0405866441 -0.00790196567
v 0.00555015482 -0.0332026147 -0.00864985069
v 0.0049401435 -0.0332026147 0.00907353916
v 0.00428220292 -0.0405866441 0.00825716075
v 0.00463368545 -0.0405866441 -0.00801673956
v 0.00543396212 -0.0332026147 -0.00874981554
v 0.00480361732 -0.0332026147 0.0091401833
v 0.00401350774 -0.0405866441 0.0083978515
v 0.00403238917 -0.0405866441 0.00838859568
v 0.00414858152 -0.0405866441 0.00833120873
v 0.00452911223 -0.0405866441 -0.00809634077
v 0.00531922182 -0.0332026147 -0.00883867257
v 0.00467290071 -0.0332026147 0.00919571826
v 0.00387407677 -0.0405866441 0.00845709043
v 0.00451168353 -0.0405866441 -0.0081092992
v 0.00519286238 -0.0332026147 -0.00892567898
v 0.00453346941 -0.0332026147 0.00924755198
v 0.00373464547 -0.0405866441 0.00850707217
v 0.00440275279 -0.0405866441 -0.00818334718
v 0.00518705281 -0.0332026147 -0.00892938158
v 0.00438822888 -0.0332026147 0.00929383249
v 0.00361409594 -0.0405866441 0.00854594746
v 0.00438532409 -0.0405866441 -0.00819445499
v 0.00505778859 -0.0332026147 -0.00900898279
v 0.00425315509 -0.0332026147 0.00932900517
v 0.00345433115 -0.0405866441 0.00858852536
v 0.0035952145 -0.0405866441 0.00855150069
v 0.00427348857 -0.0405866441 -0.00826294975
v 0.00492561959 -0.0332026147 -0.00908118015
v 0.00425460748 -0.0405866441 -0.0082740562
v 0.00411372378 -0.0332026147 0.00935862464
v 0.00331489985 -0.0405866441 0.00861814483
v 0.00479054511 -0.0332026147 -0.00914597231
v 0.00414131957 -0.0405866441 -0.00833514575
v 0.00400479339 -0.0405866441 -0.00840178989
v 0.00397429282 -0.0332026147 0.0093808389
v 0.00317401649 -0.0405866441 0.00864035909
v 0.0046598285 -0.0332026147 -0.00920150726
v 0.00386826686 -0.0405866441 -0.00845917683
v 0.00382759956 -0.0332026147 0.00939749993
v 0.00305491901 -0.0405866441 0.00865331752
v 0.00452185027 -0.0332026147 -0.00925149037
v 0.00384938577 -0.0405866441 -0.00846658204
v 0.00379128942 -0.0332026147 0.00940120254
v 0.00303603758 -0.0405866441 0.00865516813
v 0.00451604071 -0.0332026147 -0.00925334099
v 0.00370995481 -0.0405866441 -0.00851656378
v 0.00317546888 -0.0332026147 0.00943082063
v 0.00291403566 -0.0405866441 0.00866257334
v 0.00437806179 -0.0332026147 -0.00929591888
v 0.00358940494 -0.0405866441 -0.00855358846
v -0.00570745331 -0.0332026147 0.00943267262
v -0.00732979218 -0.0405866441 0.00866627595
v 0.0042444404 -0.0332026147 -0.00933109157
v 0.00344997363 -0.0405866441 -0.00858876114
v -0.00732979218 -0.0332026147 0.00941045836
v -0.00739079331 -0.0405866441 0.00866257334
v 0.00410065226 -0.0332026147 -0.00936071104
v 0.00331054267 -0.0405866441 -0.00861837924
v -0.00739079331 -0.0332026147 0.00940675576
v -0.00744453249 -0.0405866441 0.00865702012
v 0.00396703086 -0.0332026147 -0.00938107468
v 0.0031725641 -0.0405866441 -0.00864059487
v -0.00745179444 -0.0332026147 0.00939935055
v -0.00750408123 -0.0405866441 0.00864591231
v 0.00382905195 -0.0332026147 -0.00939588373
v 0.00303458519 -0.0405866441 -0.00865540392
v -0.00751134318 -0.0332026147 0.00938824411
v -0.00756362928 -0.0405866441 0.00863110326
v 0.00280365253 -0.0332026147 -0.00947918754
v 0.00301715649 -0.0405866441 -0.00865725453
v -0.00757089192 -0.0332026147 0.00937343369
v -0.00757089192 -0.0405866441 0.00862925127
v -0.00395585021 -0.0332026147 -0.00947733692
v 0.0028995114 -0.0405866441 -0.00866465974
v -0.00014909109 -0.0405866441 -0.00866836235
v -0.00566388122 -0.0405866441 -0.00867206495
v -0.00762898759 -0.0332026147 0.00935492204
v -0.00762898759 -0.0405866441 0.00861073962
v -0.00729929127 -0.0332026147 -0.00941069415
v -0.00736610197 -0.0405866441 -0.00866465974
v -0.00768708394 -0.0332026147 0.00933270778
v -0.00767982198 -0.0405866441 0.00859222797
v -0.00735593523 -0.0332026147 -0.00940884216
v -0.00742855549 -0.0405866441 -0.00865910652
v -0.00741984114 -0.0332026147 -0.00940513955
v -0.0077422755 -0.0332026147 0.00930679092
v -0.00773646594 -0.0405866441 0.0085663111
v -0.00748374706 -0.0405866441 -0.00864985069
v -0.00748229467 -0.0332026147 -0.00939403311
v -0.00779746707 -0.0332026147 0.00927902207
v -0.00779746707 -0.0405866441 0.00853483965
v -0.00754620058 -0.0405866441 -0.00863689226
v -0.00754474819 -0.0332026147 -0.00938107468
v -0.00784975385 -0.0332026147 0.00924570137
v -0.00784975385 -0.0405866441 0.00850151895
v -0.00761446367 -0.0405866441 -0.00861652862
v -0.00760574932 -0.0332026147 -0.00936256166
v -0.00790058824 -0.0332026147 0.00921052868
v -0.00790058824 -0.0405866441 0.00846634626
v -0.00766675045 -0.0405866441 -0.00859801697
v -0.00766529806 -0.0332026147 -0.00934219939
v -0.00794851716 -0.0332026147 0.00917165338
v -0.00794851716 -0.0405866441 0.00842747097
v -0.0077248468 -0.0405866441 -0.00857210011
v -0.00772339441 -0.0332026147 -0.00931628252
v -0.00799499438 -0.0332026147 0.00912907549
v -0.00798918481 -0.0405866441 0.00839044629
v -0.00778003837 -0.0405866441 -0.00854433126
v -0.00777858598 -0.0332026147 -0.00928851368
v -0.00803711442 -0.0332026147 0.00908464697
v -0.00803275725 -0.0405866441 0.00834601778
v -0.00799499438 -0.0405866441 0.00838489307
v -0.0078410395 -0.0405866441 -0.00850730795
v -0.00783232515 -0.0332026147 -0.00925704359
v -0.00807778207 -0.0332026147 0.00903651585
v -0.00807342421 -0.0405866441 0.00829788666
v -0.00789187389 -0.0405866441 -0.00847213527
v -0.00788461125 -0.0332026147 -0.0092218709
v -0.00811554425 -0.0332026147 0.00898653275
v -0.00807778207 -0.0405866441 0.00829233344
v -0.00794125521 -0.0405866441 -0.00843325997
v -0.00793399325 -0.0332026147 -0.00918299561
v -0.00815040233 -0.0332026147 0.00893469902
v -0.00811554425 -0.0405866441 0.00824235033
v -0.00798192286 -0.0405866441 -0.0083962353
v -0.00798047046 -0.0332026147 -0.0091422697
v -0.00818235495 -0.0332026147 0.00887916406
v -0.00815040233 -0.0405866441 0.00819051661
v -0.00798773242 -0.0405866441 -0.00839068207
v -0.00802549529 -0.0332026147 -0.00909784119
v -0.00820995108 -0.0332026147 0.00882362774
v -0.00818235495 -0.0405866441 0.00813498165
v -0.00802694768 -0.0405866441 -0.00835180678
v -0.00806616225 -0.0332026147 -0.00905156068
v -0.00823318934 -0.0332026147 0.0087643888
v -0.00823173695 -0.0405866441 0.00802575961
v -0.00820704629 -0.0405866441 0.00808499854
v -0.00806761464 -0.0405866441 -0.00830552765
v -0.00810392512 -0.0332026147 -0.00900157895
v -0.00810537751 -0.0405866441 -0.00825739516
v -0.00825497521 -0.0332026147 0.00870515124
v -0.00825497521 -0.0405866441 0.00795911684
v -0.00814023491 -0.0332026147 -0.00895159584
v -0.00814459277 -0.0405866441 -0.00820000821
v -0.00827095221 -0.0332026147 0.0086422097
v -0.00826949982 -0.0405866441 0.0079054325
v -0.00817218821 -0.0332026147 -0.0088979115
v -0.00817218821 -0.0405866441 -0.0081518771
v -0.00828402373 -0.0332026147 0.00858112015
v -0.00828402373 -0.0405866441 0.00783693774
v -0.00819978365 -0.0332026147 -0.00884422579
v -0.00820414082 -0.0405866441 -0.00809078754
v -0.00829273808 -0.0332026147 0.00851817999
v -0.00829273808 -0.0405866441 0.00777955079
v -0.00822447499 -0.0332026147 -0.00878683884
v -0.00822592738 -0.0405866441 -0.00804080581
v -0.00830000004 -0.0332026147 0.00840710733
v -0.00830000004 -0.0405866441 0.00766292491
v -0.00824626086 -0.0332026147 -0.0087294519
v -0.00822883217 -0.0405866441 -0.0080334006
v -0.00830000004 -0.0332026147 -0.00840364051
v -0.00830000004 -0.0405866441 -0.00766316069
v -0.00826368956 -0.0332026147 -0.00867021296
v -0.00824771326 -0.0405866441 -0.00798341886
v -0.00829564286 -0.0332026147 -0.0084887963
v -0.00829709526 -0.0405866441 -0.00773350607
v -0.00827821416 -0.0332026147 -0.0086109754
v -0.00826514196 -0.0405866441 -0.00792417993
v -0.00828838091 -0.0332026147 -0.00854988585
v -0.0082898333 -0.0405866441 -0.00780385145
v -0.00827821416 -0.0405866441 -0.007864941
v -0.00827966656 -0.0405866441 -0.00785753716
f 1 2 3
f 1 3 4
f 1 4 5
f 1 5 6
f 1 6 11
f 1 11 7
f 1 7 13
f 1 13 18
f 1 18 23
f 1 23 28
f 1 28 33
f 1 33 38
f 1 38 42
f 1 42 48
f 1 48 52
f 1 52 57
f 1 57 61
f 1 61 65
f 1 65 70
f 1 70 74
f 1 74 79
f 1 79 83
f 1 83 88
f 1 88 92
f 1 92 96
f 1 96 101
f 1 101 105
f 1 105 109
f 1 109 115
f 1 115 119
f 1 119 123
f 1 123 127
f 1 127 132
f 1 132 136
f 1 136 141
f 1 141 145
f 1 145 149
f 1 149 153
f 1 153 157
f 1 157 161
f 1 161 165
f 1 165 169
f 1 169 173
f 1 173 177
f 1 177 183
f 1 183 187
f 1 187 189
f 1 189 193
f 1 193 197
f 1 197 201
f 1 201 205
f 1 205 209
f 1 209 213
f 1 213 218
f 1 218 222
f 1 222 226
f 1 226 230
f 1 230 234
f 1 234 238
f 1 238 243
f 1 243 247
f 1 247 251
f 1 251 255
f 1 255 259
f 1 259 263
f 1 263 267
f 1 267 271
f 1 271 273
f 1 273 269
f 1 269 265
f 1 265 261
f 1 261 257
f 1 257 253
f 1 253 249
f 1 249 245
f 1 245 239
f 1 239 235
f 1 235 231
f 1 231 227
f 1 227 223
f 1 223 219
f 1 219 214
f 1 214 210
f 1 210 206
f 1 206 202
f 1 202 198
f 1 198 194
f 1 194 190
f 1 190 185
f 1 185 181
f 1 181 175
f 1 175 171
f 1 171 167
f 1 167 163
f 1 163 159
f 1 159 155
f 1 155 151
f 1 151 147
f 1 147 143
f 1 143 139
f 1 139 134
f 1 134 128
f 1 128 124
f 1 124 120
f 1 120 116
f 1 116 110
f 1 110 106
f 1 106 102
f 1 102 98
f 1 98 94
f 1 94 90
f 1 90 86
f 1 86 82
f 1 82 77
f 1 77 76
f 1 76 72
f 1 72 68
f 1 68 64
f 1 64 60
f 1 60 56
f 1 56 51
f 1 51 46
f 1 46 39
f 1 39 34
f 1 34 29
f 1 29 24
f 1 24 19
f 1 19 14
f 1 14 8
f 1 8 2
f 2 8 9
f 2 9 3
f 3 9 15
f 3 15 20
f 3 20 25
f 3 25 30
f 3 30 36
f 3 36 35
f 3 35 40
f 3 40 45
f 3 45 44
f 3 44 43
f 3 43 50
f 3 50 55
f 3 55 59
f 3 59 63
f 3 63 67
f 3 67 69
f 3 69 73
f 3 73 78
f 3 78 81
f 3 81 85
f 3 85 89
f 3 89 93
f 3 93 97
f 3 97 99
f 3 99 103
f 3 103 107
f 3 107 113
f 3 113 112
f 3 112 111
f 3 111 117
f 3 117 121
f 3 121 125
f 3 125 130
f 3 130 129
f 3 129 135
f 3 135 140
f 3 140 144
f 3 144 148
f 3 148 152
f 3 152 156
f 3 156 160
f 3 160 164
f 3 164 168
f 3 168 172
f 3 172 176
f 3 176 182
f 3 182 186
f 3 186 191
f 3 191 195
f 3 195 199
f 3 199 203
f 3 203 207
f 3 207 211
f 3 211 216
f 3 216 215
f 3 215 220
f 3 220 224
f 3 224 228
f 3 228 232
f 3 232 236
f 3 236 241
f 3 241 240
f 3 240 246
f 3 246 250
f 3 250 254
f 3 254 258
f 3 258 262
f 3 262 266
f 3 266 270
f 3 270 274
f 3 274 276
f 3 276 275
f 3 275 272
f 3 272 268
f 3 268 264
f 3 264 260
f 3 260 256
f 3 256 252
f 3 252 248
f 3 248 244
f 3 244 242
f 3 242 237
f 3 237 233
f 3 233 229
f 3 229 225
f 3 225 221
f 3 221 217
f 3 217 212
f 3 212 208
f 3 208 204
f 3 204 200
f 3 200 196
f 3 196 192
f 3 192 188
f 3 188 184
f 3 184 180
f 3 180 179
f 3 179 178
f 3 178 174
f 3 174 170
f 3 170 166
f 3 166 162
f 3 162 158
f 3 158 154
f 3 154 150
f 3 150 146
f 3 146 142
f 3 142 138
f 3 138 137
f 3 137 133
f 3 133 131
f 3 131 126
f 3 126 122
f 3 122 118
f 3 118 114
f 3 114 108
f 3 108 104
f 3 104 100
f 3 100 95
f 3 95 91
f 3 91 87
f 3 87 84
f 3 84 80
f 3 80 75
f 3 75 71
f 3 71 66
f 3 66 62
f 3 62 58
f 3 58 54
f 3 54 53
f 3 53 49
f 3 49 47
f 3 47 41
f 3 41 37
f 3 37 31
f 3 31 27
f 3 27 26
f 3 26 21
f 3 21 16
f 3 16 10
f 3 10 4
f 4 10 5
f 5 10 7
f 5 7 11
f 5 11 6
f 7 10 12
f 7 12 13
f 8 14 9
f 9 14 15
f 10 16 17
f 10 17 13
f 10 13 12
f 13 17 18
f 14 19 20
f 14 20 15
f 16 21 22
f 16 22 17
f 17 22 18
f 18 22 23
f 19 24 30
f 19 30 25
f 19 25 20
f 21 26 22
f 22 26 27
f 22 27 28
f 22 28 23
f 24 29 30
f 27 31 28
f 28 32 33
f 28 31 32
f 29 34 35
f 29 35 36
f 29 36 30
f 31 37 32
f 32 38 33
f 32 37 38
f 34 39 40
f 34 40 35
f 37 41 38
f 38 41 42
f 39 43 44
f 39 44 45
f 39 45 40
f 39 46 43
f 41 47 42
f 42 47 49
f 42 49 48
f 43 46 50
f 46 51 50
f 48 49 53
f 48 53 54
f 48 54 58
f 48 58 52
f 50 51 56
f 50 56 55
f 52 58 57
f 55 56 59
f 56 60 59
f 57 58 61
f 58 62 61
f 59 60 64
f 59 64 63
f 61 62 65
f 62 66 65
f 63 64 67
f 64 68 69
f 64 69 67
f 65 66 71
f 65 71 70
f 68 72 69
f 69 72 76
f 69 76 73
f 70 71 74
f 71 75 74
f 73 76 77
f 73 77 78
f 74 75 79
f 75 80 79
f 77 81 78
f 77 82 85
f 77 85 81
f 79 80 83
f 80 84 83
f 82 86 85
f 83 84 87
f 83 87 88
f 85 86 90
f 85 90 89
f 87 91 92
f 87 92 88
f 89 90 94
f 89 94 93
f 91 95 92
f 92 95 96
f 93 94 97
f 94 98 99
f 94 99 97
f 95 100 96
f 96 100 101
f 98 102 99
f 99 102 103
f 100 104 105
f 100 105 101
f 102 106 107
f 102 107 103
f 104 108 109
f 104 109 105
f 106 110 111
f 106 111 112
f 106 112 113
f 106 113 107
f 108 114 115
f 108 115 109
f 110 116 117
f 110 117 111
f 114 118 115
f 115 118 119
f 116 120 117
f 117 120 121
f 118 122 119
f 119 122 126
f 119 126 123
f 120 124 125
f 120 125 121
f 123 126 127
f 124 128 129
f 124 129 130
f 124 130 125
f 126 131 127
f 127 131 133
f 127 133 132
f 128 134 135
f 128 135 129
f 132 133 137
f 132 137 138
f 132 138 136
f 134 139 135
f 135 139 140
f 136 138 141
f 138 142 141
f 139 143 140
f 140 143 144
f 141 142 146
f 141 146 145
f 143 147 144
f 144 147 148
f 145 146 150
f 145 150 149
f 147 151 152
f 147 152 148
f 149 150 153
f 150 154 153
f 151 155 156
f 151 156 152
f 153 154 157
f 154 158 157
f 155 159 156
f 156 159 163
f 156 163 160
f 157 158 162
f 157 162 161
f 160 163 164
f 161 162 166
f 161 166 165
f 163 167 164
f 164 167 171
f 164 171 168
f 165 166 170
f 165 170 169
f 168 171 175
f 168 175 172
f 169 170 174
f 169 174 173
f 172 175 176
f 173 174 178
f 173 178 179
f 173 179 180
f 173 180 177
f 175 181 182
f 175 182 176
f 177 180 184
f 177 184 183
f 181 185 186
f 181 186 182
f 183 184 187
f 184 188 189
f 184 189 187
f 185 190 191
f 185 191 186
f 188 192 189
f 189 192 193
f 190 194 191
f 191 194 195
f 192 196 197
f 192 197 193
f 194 198 199
f 194 199 195
f 196 200 197
f 197 200 201
f 198 202 203
f 198 203 199
f 200 204 205
f 200 205 201
f 202 206 207
f 202 207 203
f 204 208 209
f 204 209 205
f 206 210 211
f 206 211 207
f 208 212 213
f 208 213 209
f 210 214 215
f 210 215 216
f 210 216 211
f 212 217 218
f 212 218 213
f 214 219 220
f 214 220 215
f 217 221 222
f 217 222 218
f 219 223 228
f 219 228 224
f 219 224 220
f 221 225 226
f 221 226 222
f 223 227 232
f 223 232 228
f 225 229 230
f 225 230 226
f 227 231 236
f 227 236 232
f 229 233 230
f 230 233 234
f 231 235 236
f 233 237 234
f 234 237 242
f 234 242 238
f 235 239 240
f 235 240 241
f 235 241 236
f 238 242 244
f 238 244 243
f 239 245 240
f 240 245 246
f 243 244 247
f 244 248 247
f 245 249 250
f 245 250 246
f 247 248 251
f 248 252 251
f 249 253 250
f 250 253 254
f 251 252 256
f 251 256 255
f 253 257 258
f 253 258 254
f 255 256 260
f 255 260 259
f 257 261 258
f 258 261 262
f 259 260 264
f 259 264 263
f 261 265 266
f 261 266 262
f 263 264 268
f 263 268 272
f 263 272 267
f 265 269 270
f 265 270 266
f 267 272 271
f 269 273 274
f 269 274 270
f 271 272 275
f 271 275 276
f 271 276 274
f 271 274 273
