# Derived from Apache-2.0 SO-ARM100 STL; see THIRD_PARTY.md
v -0.00670811923 -0.0140467291 -0.0158612676
v -0.00871280139 -0.0140488484 -0.0158612676
v -0.0091988392 -0.0150005206 -0.0107549206
v 0.00513125534 -0.0150005206 -0.0107549206
v 0.00530395012 -0.0140488484 -0.0158612676
v -0.009581616 -0.0155505404 -0.0158612676
v -0.00986291252 -0.0161493096 -0.0107549206
v 0.0052719036 -0.0150036995 -0.0107549206
v 0.00544281835 -0.0140530883 -0.0158612676
v -0.0100000001 -0.0162775409 -0.0158612676
v -0.0100000001 -0.0163866971 -0.0107549206
v 0.00537160387 -0.0150100588 -0.0107549206
v 0.00558524663 -0.0140658041 -0.0158612676
v -0.0100000001 -0.0209998697 -0.0158612676
v -0.0100000001 -0.0209998697 -0.0107549206
v 0.00538228605 -0.0150111185 -0.0107549206
v 0.00554251794 -0.0150291339 -0.0107549206
v 0.00556032156 -0.0150312532 -0.0107549206
v 0.00571521272 -0.0140859402 -0.0158612676
v -0.00999643933 -0.0210804127 -0.0158612676
v -0.00999643933 -0.0210729938 -0.0107549206
v 0.00563153604 -0.0150429107 -0.0107549206
v 0.00572767559 -0.0140880595 -0.0158612676
v -0.00998397645 -0.0211726118 -0.0158612676
v -0.00998575716 -0.0211598946 -0.0107549206
v 0.0056991898 -0.0150545682 -0.0107549206
v 0.00587188458 -0.0141187935 -0.0158612676
v -0.00998397645 -0.0211726118 -0.0107549206
v -0.00996617283 -0.0212520951 -0.0158612676
v -0.00996973356 -0.0212404376 -0.0107549206
v 0.00587722532 -0.0150948404 -0.0107549206
v 0.00599116849 -0.0151266326 -0.0107549206
v 0.00601609287 -0.0141601239 -0.0158612676
v -0.00996439281 -0.021258453 -0.0158612676
v -0.00996439281 -0.021258453 -0.0107549206
v 0.00610689168 -0.0151637244 -0.0107549206
v 0.00613715749 -0.0151743223 -0.0107549206
v 0.00611757385 -0.0141961561 -0.0158612676
v -0.00994480917 -0.0213241595 -0.0107549206
v -0.00994124845 -0.021335817 -0.0158612676
v 0.00615852183 -0.0142109939 -0.0158612676
v 0.00634723952 -0.0152580442 -0.0107549206
v -0.00993946774 -0.0213411153 -0.0107549206
v -0.00993946774 -0.0213411153 -0.0158612676
v 0.00624575923 -0.0142470248 -0.0158612676
v 0.00643625762 -0.015299376 -0.0107549206
v 0.00630273081 -0.0142713995 -0.0158612676
v -0.00991276266 -0.0214057608 -0.0107549206
v -0.00990564121 -0.0214216582 -0.0158612676
v 0.00644515909 -0.0153036146 -0.0107549206
v 0.00644337907 -0.0143424042 -0.0158612676
v -0.00990564121 -0.0214216582 -0.0107549206
v -0.00986825326 -0.0214937213 -0.0158612676
v 0.00657690588 -0.0153724987 -0.0107549206
v 0.00648966848 -0.0143688982 -0.0158612676
v -0.00987359469 -0.0214831248 -0.0107549206
v -0.00982196454 -0.0215679063 -0.0158612676
v -0.00783864604 -0.0248733234 -0.0107549206
v -0.00986469254 -0.0214990209 -0.0107549206
v 0.00671399341 -0.015451982 -0.0107549206
v 0.00658402733 -0.0144240068 -0.0158612676
v -0.00981840381 -0.0215732046 -0.0158612676
v 0.0054641827 -0.0248733234 -0.0107549206
v -0.00976855368 -0.02163785 -0.0158612676
v -0.00976499295 -0.02164209 -0.0158612676
v -0.00970980139 -0.0217024969 -0.0158612676
v -0.00964570904 -0.0217618428 -0.0158612676
v -0.00957271454 -0.0218190707 -0.0158612676
v -0.00949971935 -0.0218657007 -0.0158612676
v -0.00942138411 -0.0219059715 -0.0158612676
v -0.0093466089 -0.0219367055 -0.0158612676
v -0.00934126747 -0.0219388248 -0.0158612676
v -0.00779947876 -0.0248733234 -0.0107814146
v 0.00673001633 -0.0154615202 -0.0107549206
v 0.00660717169 -0.0144388433 -0.0158612676
v 0.00543747693 -0.0248733234 -0.010764918
v 0.00565290039 -0.0219324655 -0.0158612676
v 0.0057864272 -0.0219017329 -0.0158612676
v 0.00586832385 -0.0218784179 -0.0158612676
v 0.00591995401 -0.0218635814 -0.0158612676
v 0.00605170011 -0.021818011 -0.0158612676
v 0.0061834469 -0.0217671424 -0.0158612676
v 0.00626534287 -0.0217300505 -0.0158612676
v 0.00631163228 -0.0217088548 -0.0158612676
v 0.00639530895 -0.0216675243 -0.0158612676
v 0.00643981835 -0.021645269 -0.0158612676
v 0.006564443 -0.0215742642 -0.0158612676
v 0.00668728764 -0.0214969016 -0.0158612676
v 0.00676918429 -0.0214396737 -0.0158612676
v 0.00680657155 -0.0214131797 -0.0158612676
v 0.00688668819 -0.0213506535 -0.0158612676
v 0.00692051472 -0.0213241595 -0.0158612676
v 0.00700063067 -0.0212563337 -0.0158612676
v 0.00703089648 -0.0212298397 -0.0158612676
v 0.00559414878 -0.0247525096 -0.0107549206
v -0.0092575908 -0.0219653188 -0.0158612676
v -0.00772114283 -0.0248733234 -0.0108229054
v 0.00679232866 -0.015501791 -0.0107549206
v 0.00672111486 -0.0145151463 -0.0158612676
v 0.0055211536 -0.0219578999 -0.0158612676
v 0.00559948953 -0.0219430634 -0.0158612676
v 0.00530038939 -0.0248733234 -0.0108089079
v 0.00713771821 -0.0211302217 -0.0158612676
v 0.00575438068 -0.0245893058 -0.0107549206
v -0.00917925556 -0.0219833356 -0.0158612676
v -0.00771046066 -0.0248733234 -0.0108279041
v 0.0068582024 -0.0155473614 -0.0107549206
v 0.00685642169 -0.0146137046 -0.0158612676
v 0.00546596272 -0.0219663784 -0.0158612676
v 0.0052149327 -0.0248733234 -0.0108324025
v 0.00721249341 -0.0210517981 -0.0158612676
v 0.00590927184 -0.0244282199 -0.0107549206
v -0.00917213411 -0.0219843952 -0.0158612676
v -0.00755200878 -0.0248733234 -0.0108868908
v -0.00755735021 -0.0248733234 -0.0108853911
v -0.00763212473 -0.0248733234 -0.0108608965
v -0.00764102688 -0.0248733234 -0.0108578971
v 0.00699528993 -0.0156501584 -0.0107549206
v 0.00711279314 -0.0157487168 -0.0107549206
v 0.00698638778 -0.0147228609 -0.0158612676
v 0.00538940749 -0.0219769763 -0.0158612676
v 0.00516152184 -0.0248733234 -0.0108454
v 0.00723741848 -0.0210253041 -0.0158612676
v 0.00606416299 -0.0242575985 -0.0107549206
v -0.00908667673 -0.0219960513 -0.0158612676
v -0.00747189283 -0.0248733234 -0.0109048864
v 0.00712525601 -0.0157593147 -0.0107549206
v 0.00718578764 -0.0158144233 -0.0107549206
v 0.00703801793 -0.0147705506 -0.0158612676
v 0.00509208806 -0.0248733234 -0.0108608965
v 0.0050226536 -0.0248733234 -0.0108743937
v 0.00525944141 -0.0219907531 -0.0158612676
v 0.00733355734 -0.0209161478 -0.0158612676
v 0.00621193269 -0.0240901546 -0.0107549206
v -0.00900478008 -0.0219992317 -0.0158612676
v -0.00738643545 -0.0248733234 -0.0109168838
v -0.0074665514 -0.0248733234 -0.0109058864
v 0.00711279314 -0.0148404957 -0.0158612676
v 0.00724810065 -0.0158737691 -0.0107549206
v 0.00500841071 -0.0248733234 -0.0108768927
v 0.00495321983 -0.0248733234 -0.0108863905
v 0.00488556607 -0.0248733234 -0.0108963886
v 0.00481613229 -0.0248733234 -0.0109043867
v 0.00474847854 -0.0248733234 -0.0109098858
v 0.0050386772 -0.0219992317 -0.0158612676
v 0.00740299112 -0.0208281873 -0.0158612676
v 0.00649678993 -0.0237425512 -0.0107549206
v 0.00635792169 -0.0239131726 -0.0107549206
v -0.00729919806 -0.0248733234 -0.0109208826
v 0.00713771821 -0.01486593 -0.0158612676
v 0.00735136096 -0.0159829254 -0.0107549206
v 0.00722851633 -0.0149613094 -0.0158612676
v 0.00461317171 -0.0248733234 -0.0109183835
v 0.0045027896 -0.0248733234 -0.0109203829
v -0.00661910182 -0.0248733234 -0.0109208826
v 0.00742257545 -0.020802753 -0.0158612676
v 0.00675850212 -0.0233864678 -0.0107549206
v 0.00736204314 -0.0159945829 -0.0107549206
v 0.00734958094 -0.015099079 -0.0158612676
v 0.0074884485 -0.0207105525 -0.0158612676
v 0.00681013228 -0.0233112245 -0.0107549206
v 0.00750625212 -0.0206851182 -0.0158612676
v 0.00747064488 -0.0161228156 -0.0107549206
v 0.00752227503 -0.0161874611 -0.0107549206
v 0.00741011257 -0.015175382 -0.0158612676
v 0.00688134676 -0.0232052472 -0.0107549206
v 0.00758458805 -0.0205653641 -0.0158612676
v 0.00757212517 -0.0162552868 -0.0107549206
v 0.0074599627 -0.0152389692 -0.0158612676
v 0.00697926633 -0.0230526412 -0.0107549206
v 0.00765580184 -0.020442431 -0.0158612676
v 0.00710389167 -0.0228470459 -0.0107549206
v 0.0075632237 -0.0153862755 -0.0158612676
v 0.00749378993 -0.0152866575 -0.0158612676
v 0.007664704 -0.016394116 -0.0107549206
v 0.0077092127 -0.0203385744 -0.0158612676
v 0.00730151083 -0.022484606 -0.0107549206
v 0.00720715198 -0.0226626463 -0.0107549206
v 0.00765936257 -0.0155378232 -0.0158612676
v 0.0077394792 -0.0165202294 -0.0107549206
v 0.00771989488 -0.0203173787 -0.0158612676
v 0.0073869682 -0.0223150429 -0.0107549206
v 0.00774838067 -0.0156925499 -0.0158612676
v 0.00779110936 -0.0166124285 -0.0107549206
v 0.00776974501 -0.0202114014 -0.0158612676
v 0.00746886486 -0.0221264033 -0.0107549206
v 0.00778398791 -0.0157635546 -0.0158612676
v 0.00789793039 -0.0168392182 -0.0107549206
v 0.00782849662 -0.0158536344 -0.0158612676
v 0.00777864648 -0.020190207 -0.0158612676
v 0.00782315587 -0.0200821104 -0.0158612676
v 0.00753473791 -0.0219653188 -0.0107549206
v 0.00790149112 -0.0160200172 -0.0158567685
v 0.00794600051 -0.0169653315 -0.0107549206
v 0.00795312196 -0.0161493096 -0.0158612676
v 0.00790149112 -0.0160200172 -0.0158612676
v 0.00787656673 -0.019933743 -0.0158612676
v 0.00760595239 -0.0217830385 -0.0107549206
v 0.00790505184 -0.0160284958 -0.0158612676
v 0.00798516847 -0.0170755474 -0.0107549206
v 0.00796558415 -0.0161821628 -0.0158612676
v 0.00791573401 -0.0198044507 -0.0158612676
v 0.00769318979 -0.021514917 -0.0107549206
v 0.00766292329 -0.0216134754 -0.0107549206
v 0.00805282155 -0.017317175 -0.0107549206
v 0.00807062517 -0.0165170491 -0.0158612676
v 0.00802255573 -0.0163485456 -0.0158612676
v 0.00794421981 -0.0196899962 -0.0158612676
v 0.00775906284 -0.0212732895 -0.0107549206
v 0.00771455413 -0.0214439122 -0.0107549206
v 0.00807774661 -0.0174379873 -0.0107549206
v 0.00810979313 -0.0166876718 -0.0158612676
v 0.00794778053 -0.0196751598 -0.0158612676
v 0.0077964501 -0.0211037277 -0.0107549206
v 0.00809911096 -0.0175641007 -0.0107549206
v 0.00814005963 -0.0168519367 -0.0158612676
v 0.00811157384 -0.0166972101 -0.0158612676
v 0.0079744863 -0.0195458674 -0.0158612676
v 0.00780535225 -0.0210570977 -0.0107549206
v 0.00812581673 -0.0178142054 -0.0107549206
v 0.00816320399 -0.0170162002 -0.0158612676
v 0.00815608254 -0.0169579126 -0.0158612676
v 0.00798160775 -0.0195013567 -0.0158612676
v 0.0078267166 -0.0209352243 -0.0107549206
v 0.00813115748 -0.0180653712 -0.0107549206
v 0.00818634836 -0.0173415496 -0.0158612676
v 0.00817922691 -0.0171804637 -0.0158612676
v 0.00800831284 -0.0193169571 -0.0158612676
v 0.00784452022 -0.0208112316 -0.0107549206
v 0.00818278763 -0.0176319251 -0.0158612676
v 0.00818812906 -0.0175015745 -0.0158612676
v 0.00811513456 -0.0183165355 -0.0107549206
v 0.00802077572 -0.0192025026 -0.0158612676
v 0.00787656673 -0.0205600658 -0.0107549206
v 0.00786766458 -0.0206395491 -0.0107549206
v 0.00818100761 -0.0176552402 -0.0158612676
v 0.00811513456 -0.0183165355 -0.0132003683
v 0.00815430184 -0.017945617 -0.0154808534
v 0.00816854474 -0.0178089072 -0.0158612676
v 0.00817388616 -0.0177442617 -0.0158612676
v 0.00791573401 -0.0201976246 -0.0107549206
v 0.00800653282 -0.0193392125 -0.0143426102
v 0.0081364989 -0.0181141205 -0.0158612676
f 1 2 3
f 1 3 4
f 1 4 5
f 1 5 9
f 1 9 13
f 1 13 19
f 1 19 23
f 1 23 27
f 1 27 33
f 1 33 38
f 1 38 41
f 1 41 45
f 1 45 47
f 1 47 51
f 1 51 55
f 1 55 61
f 1 61 75
f 1 75 99
f 1 99 108
f 1 108 120
f 1 120 129
f 1 129 138
f 1 138 150
f 1 150 152
f 1 152 159
f 1 159 165
f 1 165 169
f 1 169 174
f 1 174 173
f 1 173 179
f 1 179 183
f 1 183 187
f 1 187 189
f 1 189 196
f 1 196 199
f 1 199 195
f 1 195 201
f 1 201 207
f 1 207 206
f 1 206 212
f 1 212 217
f 1 217 216
f 1 216 222
f 1 222 221
f 1 221 227
f 1 227 226
f 1 226 231
f 1 231 230
f 1 230 236
f 1 236 240
f 1 240 239
f 1 239 243
f 1 243 233
f 1 233 228
f 1 228 223
f 1 223 218
f 1 218 213
f 1 213 208
f 1 208 202
f 1 202 197
f 1 197 191
f 1 191 190
f 1 190 185
f 1 185 181
f 1 181 176
f 1 176 171
f 1 171 167
f 1 167 162
f 1 162 160
f 1 160 156
f 1 156 146
f 1 146 133
f 1 133 123
f 1 123 111
f 1 111 103
f 1 103 94
f 1 94 93
f 1 93 92
f 1 92 91
f 1 91 90
f 1 90 89
f 1 89 88
f 1 88 87
f 1 87 86
f 1 86 85
f 1 85 84
f 1 84 83
f 1 83 82
f 1 82 81
f 1 81 80
f 1 80 79
f 1 79 78
f 1 78 77
f 1 77 101
f 1 101 100
f 1 100 109
f 1 109 121
f 1 121 132
f 1 132 145
f 1 145 135
f 1 135 125
f 1 125 113
f 1 113 105
f 1 105 96
f 1 96 72
f 1 72 71
f 1 71 70
f 1 70 69
f 1 69 68
f 1 68 67
f 1 67 66
f 1 66 65
f 1 65 64
f 1 64 62
f 1 62 57
f 1 57 53
f 1 53 49
f 1 49 44
f 1 44 40
f 1 40 34
f 1 34 29
f 1 29 24
f 1 24 20
f 1 20 14
f 1 14 10
f 1 10 6
f 1 6 2
f 2 6 3
f 3 6 7
f 3 7 11
f 3 11 15
f 3 15 21
f 3 21 25
f 3 25 28
f 3 28 30
f 3 30 35
f 3 35 39
f 3 39 43
f 3 43 48
f 3 48 52
f 3 52 56
f 3 56 59
f 3 59 58
f 3 58 63
f 3 63 95
f 3 95 104
f 3 104 112
f 3 112 124
f 3 124 134
f 3 134 148
f 3 148 147
f 3 147 157
f 3 157 161
f 3 161 166
f 3 166 170
f 3 170 172
f 3 172 178
f 3 178 177
f 3 177 182
f 3 182 186
f 3 186 192
f 3 192 198
f 3 198 204
f 3 204 203
f 3 203 210
f 3 210 209
f 3 209 214
f 3 214 219
f 3 219 224
f 3 224 229
f 3 229 235
f 3 235 234
f 3 234 241
f 3 241 232
f 3 232 225
f 3 225 220
f 3 220 215
f 3 215 211
f 3 211 205
f 3 205 200
f 3 200 194
f 3 194 188
f 3 188 184
f 3 184 180
f 3 180 175
f 3 175 168
f 3 168 164
f 3 164 163
f 3 163 158
f 3 158 151
f 3 151 139
f 3 139 128
f 3 128 127
f 3 127 119
f 3 119 118
f 3 118 107
f 3 107 98
f 3 98 74
f 3 74 60
f 3 60 54
f 3 54 50
f 3 50 46
f 3 46 42
f 3 42 37
f 3 37 36
f 3 36 32
f 3 32 31
f 3 31 26
f 3 26 22
f 3 22 18
f 3 18 17
f 3 17 16
f 3 16 12
f 3 12 8
f 3 8 4
f 4 8 5
f 5 8 9
f 6 10 11
f 6 11 7
f 8 12 9
f 9 12 13
f 10 14 15
f 10 15 11
f 12 16 13
f 13 17 18
f 13 18 19
f 13 16 17
f 14 20 15
f 15 20 21
f 18 22 19
f 19 22 23
f 20 24 25
f 20 25 21
f 22 26 23
f 23 26 27
f 24 28 25
f 24 29 30
f 24 30 28
f 26 31 27
f 27 31 32
f 27 32 33
f 29 34 30
f 30 34 35
f 32 36 33
f 33 36 37
f 33 37 38
f 34 39 35
f 34 40 39
f 37 41 38
f 37 42 41
f 39 40 43
f 40 44 43
f 41 42 45
f 42 46 47
f 42 47 45
f 43 44 48
f 44 49 48
f 46 50 47
f 47 50 51
f 48 49 52
f 49 53 52
f 50 54 51
f 51 54 55
f 52 53 56
f 53 57 58
f 53 58 59
f 53 59 56
f 54 60 55
f 55 60 61
f 57 62 58
f 58 62 64
f 58 64 65
f 58 65 66
f 58 66 67
f 58 67 68
f 58 68 69
f 58 69 70
f 58 70 71
f 58 71 72
f 58 72 73
f 58 73 97
f 58 97 106
f 58 106 117
f 58 117 116
f 58 116 115
f 58 115 114
f 58 114 126
f 58 126 137
f 58 137 136
f 58 136 149
f 58 149 155
f 58 155 154
f 58 154 153
f 58 153 144
f 58 144 143
f 58 143 142
f 58 142 141
f 58 141 140
f 58 140 131
f 58 131 130
f 58 130 122
f 58 122 110
f 58 110 102
f 58 102 76
f 58 76 63
f 60 74 61
f 61 74 75
f 63 76 77
f 63 77 78
f 63 78 79
f 63 79 80
f 63 80 81
f 63 81 82
f 63 82 83
f 63 83 84
f 63 84 85
f 63 85 86
f 63 86 87
f 63 87 88
f 63 88 89
f 63 89 90
f 63 90 91
f 63 91 92
f 63 92 93
f 63 93 94
f 63 94 95
f 72 96 73
f 73 96 97
f 74 98 75
f 75 98 99
f 76 100 101
f 76 101 77
f 76 102 100
f 94 103 95
f 95 103 104
f 96 105 106
f 96 106 97
f 98 107 99
f 99 107 108
f 100 102 110
f 100 110 109
f 103 111 112
f 103 112 104
f 105 113 114
f 105 114 115
f 105 115 116
f 105 116 117
f 105 117 106
f 107 118 108
f 108 118 119
f 108 119 120
f 109 110 122
f 109 122 121
f 111 123 112
f 112 123 124
f 113 125 114
f 114 125 126
f 119 127 120
f 120 127 128
f 120 128 129
f 121 122 130
f 121 130 131
f 121 131 132
f 123 133 134
f 123 134 124
f 125 135 136
f 125 136 137
f 125 137 126
f 128 138 129
f 128 139 138
f 131 140 132
f 132 140 141
f 132 141 142
f 132 142 143
f 132 143 144
f 132 144 145
f 133 146 147
f 133 147 148
f 133 148 134
f 135 149 136
f 135 145 155
f 135 155 149
f 138 139 150
f 139 151 152
f 139 152 150
f 144 153 145
f 145 153 154
f 145 154 155
f 146 156 147
f 147 156 157
f 151 158 152
f 152 158 159
f 156 160 157
f 157 160 162
f 157 162 161
f 158 163 159
f 159 163 164
f 159 164 165
f 161 162 166
f 162 167 166
f 164 168 169
f 164 169 165
f 166 167 170
f 167 171 172
f 167 172 170
f 168 173 174
f 168 174 169
f 168 175 173
f 171 176 177
f 171 177 178
f 171 178 172
f 173 175 179
f 175 180 179
f 176 181 182
f 176 182 177
f 179 180 183
f 180 184 183
f 181 185 182
f 182 185 186
f 183 184 187
f 184 188 189
f 184 189 187
f 185 190 186
f 186 190 191
f 186 191 192
f 188 193 189
f 188 194 195
f 188 195 193
f 189 193 196
f 191 197 198
f 191 198 192
f 193 195 199
f 193 199 196
f 194 200 201
f 194 201 195
f 197 202 203
f 197 203 204
f 197 204 198
f 200 205 206
f 200 206 207
f 200 207 201
f 202 208 209
f 202 209 210
f 202 210 203
f 205 211 212
f 205 212 206
f 208 213 209
f 209 213 214
f 211 215 216
f 211 216 217
f 211 217 212
f 213 218 214
f 214 218 219
f 215 220 221
f 215 221 222
f 215 222 216
f 218 223 224
f 218 224 219
f 220 225 226
f 220 226 227
f 220 227 221
f 223 228 224
f 224 228 229
f 225 230 231
f 225 231 226
f 225 232 230
f 228 233 234
f 228 234 235
f 228 235 229
f 230 232 236
f 232 237 238
f 232 238 239
f 232 239 240
f 232 240 236
f 232 241 237
f 233 242 241
f 233 241 234
f 233 243 242
f 237 243 238
f 237 241 243
f 238 243 239
f 241 242 243
