# Derived from Apache-2.0 SO-ARM100 STL; see THIRD_PARTY.md
v 0.00772370578 -0.0220109358 0.00887043052
v -0.00829843181 -0.0220109358 0.00887043052
v -0.0036588351 -0.0248737867 0.0109230677
v 0.00452398362 -0.0248737867 0.0109187914
v 0.0046353469 -0.0248737867 0.0109166535
v 0.00472788734 -0.0248737867 0.0109102388
v 0.00477180522 -0.0248737867 0.0109059625
v 0.00485650384 -0.0248737867 0.0108974099
v 0.00490826354 -0.0248737867 0.0108909958
v 0.00498668858 -0.0248737867 0.0108781662
v 0.00504472255 -0.0248737867 0.0108674758
v 0.00515137977 -0.0248737867 0.0108460943
v 0.00518274979 -0.0248737867 0.0108396795
v 0.00532077702 -0.0248737867 0.0108011929
v 0.00545723603 -0.0248737867 0.0107562914
v 0.00559369436 -0.0248737867 0.0107028374
v 0.00572858514 -0.0248737867 0.0106429686
v 0.0057552491 -0.0248737867 0.0106301397
v 0.00585876987 -0.0248737867 0.0105766856
v 0.00588229669 -0.0248737867 0.0105638567
v 0.00599052283 -0.0248737867 0.0105018494
v 0.0061160022 -0.0248737867 0.0104184613
v 0.00612855006 -0.0248737867 0.0104099087
v 0.00623834442 -0.0248737867 0.0103286584
v 0.0063795088 -0.0248737867 0.0102131977
v 0.00646734388 -0.0248737867 0.0101340852
v 0.00656929642 -0.0248737867 0.0100335919
v 0.00668222723 -0.0248737867 0.00990744017
v 0.00677947372 -0.0248737867 0.009789841
v 0.00687828913 -0.0248737867 0.00965513665
v 0.00766253466 -0.0225827764 0.00887043052
v 0.00693475488 -0.0294368433 0.00696960293
v 0.00744294594 -0.024657159 0.00794674375
v 0.00749941169 -0.0241268928 0.00061284182
v 0.00772370578 -0.0220109358 -0.00928685703
v -0.00830000072 -0.0248737867 0.0098775061
v -0.00829529536 -0.0248737867 0.0099694468
v -0.00828431572 -0.0248737867 0.0100592497
v -0.00827804144 -0.0248737867 0.010087046
v -0.00826392535 -0.0248737867 0.0101469148
v -0.00825765107 -0.0248737867 0.0101725726
v -0.0082372607 -0.0248737867 0.0102345792
v -0.00820589137 -0.0248737867 0.0103179673
v -0.008185501 -0.0248737867 0.0103585925
v -0.00816354171 -0.0248737867 0.0103992176
v -0.00815726812 -0.0248737867 0.0104099087
v -0.00811805561 -0.0248737867 0.0104761916
v -0.00806943236 -0.0248737867 0.0105403368
v -0.00800512411 -0.0248737867 0.0106151723
v -0.00795650086 -0.0248737867 0.0106622122
v -0.00788905616 -0.0248737867 0.0107178041
v -0.00787807651 -0.0248737867 0.0107263567
v -0.00779965217 -0.0248737867 0.0107798107
v -0.00772122713 -0.0248737867 0.0108225744
v -0.00764123456 -0.0248737867 0.0108567847
v -0.00755810416 -0.0248737867 0.010884581
v -0.00747183731 -0.0248737867 0.0109038247
v -0.00739184405 -0.0248737867 0.0109145151
v -0.00730400897 -0.0248737867 0.0109187914
v -0.00829843181 -0.0220109358 -0.0107536375
v -0.00732910471 -0.0294616422 0.00998441418
v 0.00397030611 -0.0294616422 0.0099694468
v 0.00423851808 -0.0294616422 0.00994806532
v 0.00437654531 -0.0294616422 0.00993309795
v 0.00450829862 -0.0294616422 0.00991171647
v 0.00464632585 -0.0294616422 0.00988178239
v 0.00478592131 -0.0294616422 0.00984543354
v 0.00479376382 -0.0294616422 0.00984329505
v 0.00492708569 -0.0294616422 0.00980053209
v 0.00493335996 -0.0294616422 0.0097983936
v 0.00507138651 -0.0294616422 0.00974707804
v 0.00520784552 -0.0294616422 0.00968934771
v 0.00534430453 -0.0294616422 0.00962306409
v 0.0054697839 -0.0294616422 0.00955250487
v 0.00559996863 -0.0294616422 0.00947125456
v 0.00573015336 -0.0294616422 0.00937931385
v 0.00585092737 -0.0294616422 0.00928523466
v 0.00596699532 -0.0294616422 0.00918474067
v 0.00607365323 -0.0294616422 0.00908210889
v 0.00618344759 -0.0294616422 0.00896450972
v 0.00627755694 -0.0294616422 0.00885118685
v 0.00637009807 -0.0294616422 0.00872931207
v 0.00695514525 -0.0248737867 0.00953753749
v 0.00637480343 -0.0294616422 0.00872289729
v 0.00646107028 -0.0294616422 0.00859674553
v 0.00759822641 -0.0230758438 0.00887043052
v 0.00692220701 -0.0294616422 0.00722190645
v 0.00693161774 -0.0294616422 0.00696746513
v 0.00693161774 -0.0294616422 -0.00699688308
v 0.0070712132 -0.0281516597 -0.00719573256
v 0.00743353452 -0.0247476027 -0.000723510597
v 0.00743353452 -0.0247476027 0.000721888223
v 0.00749941169 -0.0241268928 -0.000614464237
v 0.00771115791 -0.0220109358 -0.00960971977
v 0.00744294594 -0.024657159 -0.00794622832
v 0.00693004883 -0.0294616422 -0.00711020595
v -0.00830000072 -0.0294616422 0.0089858912
v -0.00830000072 -0.0248737867 -0.00987912847
v -0.00829372645 -0.0294616422 0.00908424738
v -0.00828431572 -0.0294616422 0.00914839182
v -0.00827490499 -0.0294616422 0.00919115546
v -0.00827019962 -0.0294616422 0.00921039845
v -0.00825921998 -0.0294616422 0.00925316209
v -0.0082529457 -0.0294616422 0.00927240577
v -0.00823882961 -0.0294616422 0.00931516873
v -0.00823255533 -0.0294616422 0.00933227391
v -0.00820902782 -0.0294616422 0.00939214274
v -0.00818079563 -0.0294616422 0.00944773459
v -0.00814942562 -0.0294616422 0.00950332712
v -0.00812589811 -0.0294616422 0.00954181378
v -0.00808825451 -0.0294616422 0.00959313002
v -0.00803806235 -0.0294616422 0.00965513665
v -0.00799257624 -0.0294616422 0.0097000381
v -0.00794865836 -0.0294616422 0.00974280175
v -0.00791258298 -0.0294616422 0.00977059733
v -0.00789846689 -0.0294616422 0.00978128841
v -0.00784827541 -0.0294616422 0.00981763727
v -0.00781220003 -0.0294616422 0.00984115724
v -0.00774161751 -0.0294616422 0.0098796439
v -0.00770083676 -0.0294616422 0.00989888758
v -0.00768515176 -0.0294616422 0.00990530168
v -0.00762868669 -0.0294616422 0.00992668384
v -0.00758633704 -0.0294616422 0.00994165054
v -0.00751104983 -0.0294616422 0.00996089421
v -0.00746713195 -0.0294616422 0.0099694468
v -0.00740596083 -0.0294616422 0.0099779994
v -0.00739027583 -0.0294616422 0.00998013789
v 0.00751509601 -0.0220109358 -0.0107536375
v -0.00729930292 -0.0248737867 -0.0109204137
v -0.00738557046 -0.0248737867 -0.0109161374
v -0.00746556303 -0.0248737867 -0.010905447
v -0.00829843181 -0.0230714682 -0.0107536375
v 0.00703043246 -0.0248737867 0.00940711012
v 0.00653949463 -0.0294616422 0.00846631747
v 0.00755587744 -0.0233530114 0.00887043052
v 0.00688769986 -0.0294616422 0.00749772925
v 0.00690809023 -0.0294616422 0.0073587486
v 0.00710258322 -0.0248737867 0.00927881987
v 0.00770017827 -0.0220109358 -0.00978932557
v 0.0069206381 -0.0294616422 -0.0072449103
v -0.00830000072 -0.0294616422 -0.00897254688
v 0.00758097318 -0.0220109358 -0.0105077481
v 0.00681868624 -0.0294616422 -0.00780083288
v 0.00677476836 -0.0294616422 -0.00793981353
v 0.00672614511 -0.0294616422 -0.00807879418
v 0.00667124828 -0.0294616422 -0.00820494593
v 0.00666654291 -0.0294616422 -0.00821563702
v 0.00660694002 -0.0294616422 -0.00834178878
v 0.0065300839 -0.0294616422 -0.00848290723
v 0.00645636492 -0.0294616422 -0.00860478269
v 0.00637009807 -0.0294616422 -0.00873093445
v 0.00636539202 -0.0294616422 -0.00873734855
v 0.00627755694 -0.0294616422 -0.00885280991
v 0.00617717331 -0.0294616422 -0.00897040839
v 0.00607365323 -0.0294616422 -0.00908159345
v 0.00606737895 -0.0294616422 -0.00908800756
v 0.0074021652 -0.0222822691 -0.0107536375
v 0.0048157231 -0.0248737867 -0.0109033085
v 0.00474827771 -0.0248737867 -0.0109097233
v 0.00461338761 -0.0248737867 -0.0109161374
v 0.00452555219 -0.0248737867 -0.0109182759
v -0.00661857816 -0.0248737867 -0.0109204137
v -0.00735733759 -0.0294616422 -0.00998176026
v -0.00742007693 -0.0294616422 -0.00997748396
v -0.00755183057 -0.0248737867 -0.0108862034
v -0.00828274749 -0.0233712462 -0.0107536375
v -0.00829372645 -0.0232217218 -0.0107536375
v -0.00748438518 -0.0294616422 -0.00996679288
v -0.00828902108 -0.0294616422 -0.00911366533
v -0.00829372645 -0.0294616422 -0.00907304018
v -0.00829529536 -0.0294616422 -0.00905379719
v 0.00661164539 -0.0294616422 0.00833161312
v 0.00750411705 -0.023658625 0.00887043052
v 0.00682025447 -0.0294616422 0.00779065792
v 0.00685946698 -0.0294616422 0.00763884838
v 0.00667595364 -0.0294616422 0.00819690877
v 0.00716532256 -0.0248737867 0.00913983922
v 0.00767821967 -0.0220109358 -0.00996893137
v 0.00690495309 -0.0294616422 -0.00738389095
v 0.00762018501 -0.0220109358 -0.010328143
v 0.00685476162 -0.0294616422 -0.00766185224
v 0.00596228995 -0.0294616422 -0.00918850154
v 0.00738648019 -0.0223165508 -0.0107536375
v 0.005846222 -0.0294616422 -0.00928899484
v 0.00487062062 -0.0248737867 -0.0108968944
v 0.00437497709 -0.0294616422 -0.00993258251
v 0.00424479201 -0.0294616422 -0.00994754921
v 0.00411147049 -0.0294616422 -0.00995824029
v -0.00826392535 -0.0235200412 -0.0107536375
v -0.00752830306 -0.0294616422 -0.00995610248
v -0.00754555629 -0.0294616422 -0.0099518255
v -0.00760672741 -0.0294616422 -0.00993472032
v -0.00763182314 -0.0248737867 -0.0108605456
v -0.00820432246 -0.0238402432 -0.0107536375
v -0.00823882961 -0.0236826954 -0.0107536375
v -0.008201186 -0.0294616422 -0.0094108703
v -0.00822471283 -0.0294616422 -0.00935313996
v -0.00824667211 -0.0294616422 -0.00929540962
v -0.00825921998 -0.0294616422 -0.00925264598
v -0.00826392535 -0.0294616422 -0.00923554079
v -0.00827490499 -0.0294616422 -0.00919277783
v -0.00828588394 -0.0294616422 -0.00913290901
v 0.00673398762 -0.0294616422 0.00805792813
v 0.00678261086 -0.0294616422 0.00791894748
v 0.00765312325 -0.0220109358 -0.0101485372
v 0.00688613163 -0.0294616422 -0.00751004271
v 0.00729864443 -0.0224857685 -0.0107536375
v 0.00572074263 -0.0294616422 -0.00938735033
v 0.00559526327 -0.0294616422 -0.00947287693
v 0.00699592599 -0.0230262459 -0.0107536375
v 0.00688142558 -0.0232064042 -0.0107536375
v 0.00502276395 -0.0248737867 -0.0108733745
v 0.0072061033 -0.0226630096 -0.0107536375
v 0.00719669257 -0.022680515 -0.0107536375
v 0.00710258322 -0.0228482742 -0.0107536375
v 0.00451143575 -0.0294616422 -0.00991120103
v -0.00813060348 -0.0294616422 -0.00953488357
v -0.00817138422 -0.0294616422 -0.00946646283
v -0.00764907706 -0.0294616422 -0.00991975363
v -0.00770711104 -0.0294616422 -0.00989623366
v -0.00772122713 -0.0248737867 -0.0108220582
v -0.00807884309 -0.0242778757 -0.0107536375
v -0.00811648738 -0.0241648209 -0.0107536375
v -0.00816354171 -0.0239963325 -0.0107536375
v -0.00793454226 -0.0294616422 -0.00975297671
v -0.00798002837 -0.0294616422 -0.00971235156
v -0.00801296661 -0.0294616422 -0.009680279
v -0.00802551448 -0.0294616422 -0.00966745011
v -0.00806629522 -0.0294616422 -0.00962041017
v -0.00810550774 -0.0294616422 -0.00957123242
v 0.00546664676 -0.0294616422 -0.00955412724
v 0.0053348938 -0.0294616422 -0.00962682496
v 0.0052062773 -0.0294616422 -0.00968883159
v 0.00675908335 -0.0233880223 -0.0107536375
v 0.00506511292 -0.0294616422 -0.00975083822
v 0.00509177757 -0.0248737867 -0.0108605456
v 0.00464946299 -0.0294616422 -0.00988126628
v -0.00776357679 -0.0294616422 -0.00986843739
v -0.0079815966 -0.0245462913 -0.0107536375
v -0.00800512411 -0.0244857521 -0.0107536375
v -0.00806315877 -0.024323098 -0.0107536375
v -0.0077792618 -0.0294616422 -0.0098598848
v -0.00783259041 -0.0294616422 -0.00982781224
v -0.00788591902 -0.0294616422 -0.00979146338
v 0.00649714566 -0.0237425046 -0.0107536375
v 0.00493492819 -0.0294616422 -0.00979787816
v 0.00514510618 -0.0248737867 -0.0108477167
v 0.00621168046 -0.0240911526 -0.0107536375
v 0.00478749023 -0.0294616422 -0.00984491742
v 0.00521255157 -0.0248737867 -0.0108306108
v 0.00479533273 -0.0294616422 -0.00984277961
v 0.0061018861 -0.0242151494 -0.0107536375
v 0.00590739312 -0.0244295893 -0.0107536375
f 1 2 3
f 1 3 4
f 1 4 5
f 1 5 6
f 1 6 7
f 1 7 8
f 1 8 9
f 1 9 10
f 1 10 11
f 1 11 12
f 1 12 13
f 1 13 14
f 1 14 15
f 1 15 16
f 1 16 17
f 1 17 18
f 1 18 19
f 1 19 20
f 1 20 21
f 1 21 22
f 1 22 23
f 1 23 24
f 1 24 25
f 1 25 26
f 1 26 27
f 1 27 28
f 1 28 29
f 1 29 30
f 1 30 31
f 1 31 32
f 1 32 33
f 1 33 34
f 1 34 93
f 1 93 35
f 1 35 94
f 1 94 139
f 1 139 178
f 1 178 205
f 1 205 180
f 1 180 142
f 1 142 128
f 1 128 60
f 1 60 2
f 2 36 37
f 2 37 38
f 2 38 39
f 2 39 40
f 2 40 41
f 2 41 42
f 2 42 43
f 2 43 44
f 2 44 45
f 2 45 46
f 2 46 47
f 2 47 48
f 2 48 49
f 2 49 50
f 2 50 51
f 2 51 52
f 2 52 53
f 2 53 54
f 2 54 55
f 2 55 56
f 2 56 57
f 2 57 58
f 2 58 59
f 2 59 3
f 2 60 98
f 2 98 36
f 3 59 61
f 3 61 4
f 4 61 62
f 4 62 5
f 5 62 6
f 6 62 63
f 6 63 7
f 7 63 8
f 8 63 64
f 8 64 9
f 9 64 65
f 9 65 10
f 10 65 11
f 11 65 12
f 12 65 13
f 13 65 66
f 13 66 67
f 13 67 68
f 13 68 14
f 14 68 69
f 14 69 15
f 15 69 70
f 15 70 71
f 15 71 16
f 16 71 72
f 16 72 17
f 17 72 18
f 18 72 73
f 18 73 19
f 19 73 20
f 20 73 74
f 20 74 21
f 21 74 75
f 21 75 22
f 22 75 23
f 23 75 76
f 23 76 24
f 24 76 77
f 24 77 25
f 25 77 78
f 25 78 26
f 26 78 79
f 26 79 27
f 27 79 80
f 27 80 28
f 28 80 81
f 28 81 29
f 29 81 82
f 29 82 84
f 29 84 30
f 30 83 31
f 30 84 85
f 30 85 83
f 31 86 87
f 31 87 32
f 31 83 86
f 32 87 88
f 32 88 89
f 32 89 90
f 32 90 91
f 32 91 92
f 32 92 33
f 33 92 34
f 34 92 91
f 34 91 93
f 35 93 95
f 35 95 90
f 35 90 89
f 35 89 96
f 35 96 94
f 36 97 37
f 36 98 141
f 36 141 97
f 37 97 99
f 37 99 38
f 38 99 100
f 38 100 101
f 38 101 39
f 39 101 40
f 40 101 102
f 40 102 41
f 41 102 103
f 41 103 104
f 41 104 42
f 42 104 105
f 42 105 106
f 42 106 43
f 43 106 107
f 43 107 44
f 44 107 108
f 44 108 45
f 45 108 109
f 45 109 46
f 46 109 47
f 47 109 110
f 47 110 111
f 47 111 48
f 48 111 112
f 48 112 49
f 49 112 113
f 49 113 114
f 49 114 50
f 50 114 51
f 51 114 52
f 52 114 115
f 52 115 116
f 52 116 117
f 52 117 53
f 53 117 118
f 53 118 119
f 53 119 54
f 54 119 120
f 54 120 55
f 55 120 121
f 55 121 122
f 55 122 123
f 55 123 56
f 56 123 124
f 56 124 57
f 57 124 125
f 57 125 126
f 57 126 127
f 57 127 58
f 58 127 61
f 58 61 59
f 60 128 162
f 60 162 129
f 60 129 130
f 60 130 131
f 60 131 132
f 60 132 98
f 61 127 126
f 61 126 125
f 61 125 124
f 61 124 123
f 61 123 122
f 61 122 121
f 61 121 120
f 61 120 119
f 61 119 118
f 61 118 117
f 61 117 116
f 61 116 115
f 61 115 114
f 61 114 113
f 61 113 112
f 61 112 111
f 61 111 110
f 61 110 109
f 61 109 108
f 61 108 107
f 61 107 106
f 61 106 105
f 61 105 104
f 61 104 103
f 61 103 102
f 61 102 101
f 61 101 100
f 61 100 99
f 61 99 97
f 61 97 141
f 61 141 171
f 61 171 170
f 61 170 169
f 61 169 202
f 61 202 201
f 61 201 200
f 61 200 199
f 61 199 198
f 61 198 197
f 61 197 196
f 61 196 218
f 61 218 217
f 61 217 230
f 61 230 229
f 61 229 228
f 61 228 227
f 61 227 226
f 61 226 225
f 61 225 244
f 61 244 243
f 61 243 242
f 61 242 238
f 61 238 220
f 61 220 219
f 61 219 192
f 61 192 191
f 61 191 190
f 61 190 168
f 61 168 164
f 61 164 163
f 61 163 188
f 61 188 187
f 61 187 186
f 61 186 216
f 61 216 237
f 61 237 249
f 61 249 251
f 61 251 246
f 61 246 235
f 61 235 233
f 61 233 232
f 61 232 231
f 61 231 209
f 61 209 208
f 61 208 184
f 61 184 182
f 61 182 156
f 61 156 155
f 61 155 154
f 61 154 153
f 61 153 152
f 61 152 151
f 61 151 150
f 61 150 149
f 61 149 148
f 61 148 147
f 61 147 146
f 61 146 145
f 61 145 144
f 61 144 143
f 61 143 181
f 61 181 206
f 61 206 179
f 61 179 140
f 61 140 96
f 61 96 89
f 61 89 88
f 61 88 87
f 61 87 137
f 61 137 136
f 61 136 175
f 61 175 174
f 61 174 204
f 61 204 203
f 61 203 176
f 61 176 172
f 61 172 134
f 61 134 85
f 61 85 84
f 61 84 82
f 61 82 81
f 61 81 80
f 61 80 79
f 61 79 78
f 61 78 77
f 61 77 76
f 61 76 75
f 61 75 74
f 61 74 73
f 61 73 72
f 61 72 71
f 61 71 70
f 61 70 69
f 61 69 68
f 61 68 67
f 61 67 66
f 61 66 65
f 61 65 64
f 61 64 63
f 61 63 62
f 83 133 86
f 83 85 134
f 83 134 133
f 86 135 136
f 86 136 137
f 86 137 87
f 86 133 138
f 86 138 135
f 90 95 91
f 91 95 93
f 94 96 139
f 96 140 139
f 98 132 141
f 128 142 143
f 128 143 144
f 128 144 145
f 128 145 146
f 128 146 147
f 128 147 148
f 128 148 149
f 128 149 150
f 128 150 151
f 128 151 152
f 128 152 153
f 128 153 154
f 128 154 155
f 128 155 156
f 128 156 157
f 128 157 158
f 128 158 159
f 128 159 160
f 128 160 161
f 128 161 162
f 129 162 163
f 129 163 130
f 130 163 164
f 130 164 131
f 131 165 166
f 131 166 167
f 131 167 132
f 131 164 168
f 131 168 165
f 132 167 169
f 132 169 170
f 132 170 171
f 132 171 141
f 133 134 138
f 134 172 138
f 135 173 174
f 135 174 175
f 135 175 136
f 135 138 173
f 138 172 176
f 138 176 177
f 138 177 173
f 139 140 179
f 139 179 178
f 142 180 181
f 142 181 143
f 156 182 157
f 157 183 158
f 157 182 184
f 157 184 183
f 158 185 186
f 158 186 187
f 158 187 159
f 158 183 185
f 159 187 188
f 159 188 160
f 160 188 161
f 161 188 163
f 161 163 162
f 165 189 166
f 165 168 190
f 165 190 191
f 165 191 192
f 165 192 193
f 165 193 194
f 165 194 195
f 165 195 189
f 166 189 196
f 166 196 197
f 166 197 198
f 166 198 199
f 166 199 167
f 167 199 200
f 167 200 201
f 167 201 202
f 167 202 169
f 173 177 203
f 173 203 204
f 173 204 174
f 176 203 177
f 178 179 205
f 179 206 205
f 180 205 206
f 180 206 181
f 183 207 185
f 183 184 208
f 183 208 209
f 183 209 207
f 185 210 211
f 185 211 212
f 185 212 186
f 185 207 213
f 185 213 214
f 185 214 215
f 185 215 210
f 186 212 216
f 189 195 217
f 189 217 218
f 189 218 196
f 192 219 193
f 193 219 220
f 193 220 221
f 193 221 222
f 193 222 223
f 193 223 224
f 193 224 194
f 194 224 225
f 194 225 226
f 194 226 227
f 194 227 228
f 194 228 195
f 195 228 229
f 195 229 230
f 195 230 217
f 207 209 213
f 209 231 213
f 210 215 232
f 210 232 233
f 210 233 211
f 211 234 212
f 211 233 235
f 211 235 234
f 212 236 216
f 212 234 236
f 213 231 214
f 214 231 215
f 215 231 232
f 216 236 237
f 220 238 221
f 221 239 240
f 221 240 241
f 221 241 222
f 221 238 239
f 222 241 242
f 222 242 243
f 222 243 223
f 223 243 244
f 223 244 224
f 224 244 225
f 234 245 236
f 234 235 246
f 234 246 245
f 236 247 237
f 236 245 248
f 236 248 247
f 237 247 250
f 237 250 249
f 238 242 240
f 238 240 239
f 240 242 241
f 245 246 251
f 245 251 248
f 247 248 252
f 247 252 250
f 248 251 252
f 249 250 253
f 249 253 252
f 249 252 251
f 250 252 253
