# Derived from Apache-2.0 SO-ARM100 STL; see THIRD_PARTY.md
v 0.0046446226 -0.0510698931 0.0049224241
v 0.00463195136 -0.0510698931 0.00517649358
v 0.00391224266 -0.0578803416 0.00467300274
v 0.00392111226 -0.0578803416 0.00445146676
v 0.0046446226 -0.0510698931 -0.00492275824
v 0.00389703745 -0.0578803416 0.00483257048
v 0.00390970835 -0.0578803416 0.00471173273
v 0.00461801347 -0.0510698931 0.00530507719
v 0.00392111226 -0.0578803416 -0.00445954676
v 0.00391097568 -0.0578803416 -0.0047058697
v 0.00464208794 -0.0510698931 -0.00498317711
v 0.0045977403 -0.0510698931 0.00544295637
v 0.00387676394 -0.0578803416 0.00496270346
v 0.00388056524 -0.0578803416 -0.00494754554
v 0.00462434875 -0.0510698931 -0.0052496399
v 0.00463068471 -0.0510698931 -0.00518612261
v 0.00463575266 -0.0510698931 -0.00511950692
v 0.00383241596 -0.0578803416 0.00517029676
v 0.00387549695 -0.0578803416 0.00497044966
v 0.00455339198 -0.0510698931 0.00564590188
v 0.00387422996 -0.0578803416 -0.0049800787
v 0.00459520564 -0.0510698931 -0.00545258541
v 0.00460534223 -0.0510698931 -0.00538906812
v 0.00382101205 -0.0578803416 0.00521832198
v 0.00453818677 -0.0510698931 0.00570941916
v 0.00381847773 -0.0578803416 -0.00522795101
v 0.00455212465 -0.0510698931 -0.00565553091
v 0.00458253509 -0.0510698931 -0.00551610269
v 0.00381340944 -0.0578803416 0.00524310928
v 0.00447609925 -0.0510698931 0.00590771757
v 0.0037538559 -0.0578803416 -0.00543709334
v 0.00447990056 -0.0510698931 -0.00589875647
v 0.00453565211 -0.0510698931 -0.00571749916
v 0.00374245233 -0.0578803416 0.00546929271
v 0.00373991801 -0.0578803416 0.00547703891
v 0.0044520241 -0.0510698931 0.00597123485
v 0.00374245233 -0.0578803416 -0.00546962685
v 0.00444949012 -0.0510698931 -0.00598086354
v 0.00366389261 -0.0578803416 0.00566449235
v 0.00440894311 -0.0510698931 0.00607967826
v 0.00363855047 -0.0578803416 -0.00572059758
v 0.00436839609 -0.0510698931 -0.00617296443
v 0.00364235177 -0.0578803416 0.00571251758
v 0.00437219739 -0.0510698931 0.00616488478
v 0.00358786687 -0.0578803416 -0.00582439457
v 0.00431010988 -0.0510698931 -0.0062953519
v 0.00363855047 -0.0578803416 0.00572026344
v 0.00434305429 -0.0510698931 0.00622685303
v 0.00352071107 -0.0578803416 -0.00594523163
v 0.00425435765 -0.0510698931 -0.00639605014
v 0.00352197805 -0.0578803416 0.00594489852
v 0.00427716547 -0.0510698931 0.0063538876
v 0.0033838648 -0.0578803416 -0.00615902175
v 0.00412764865 -0.0510698931 -0.00659899564
v 0.00420240672 -0.0510698931 -0.00648125665
v 0.00424041976 -0.0510698931 -0.00642083744
v 0.00424422106 -0.0510698931 0.00641430682
v 0.00345482225 -0.0578803416 0.00605489096
v 0.00337879651 -0.0578803416 -0.0061667683
v 0.00408710163 -0.0510698931 -0.00665786445
v 0.00420240672 -0.0510698931 0.00648247121
v 0.00415172312 -0.0510698931 0.00656457828
v 0.00341807654 -0.0578803416 0.00611066307
v 0.00326729238 -0.0578803416 -0.00631704113
v 0.00398319977 -0.0510698931 -0.00679574364
v 0.00338513213 -0.0578803416 0.00616023767
v 0.00409216958 -0.0510698931 0.00665133383
v 0.00321787577 -0.0578803416 -0.00637590994
v 0.00391224266 -0.0510698931 -0.00687940112
v 0.00327362766 -0.0578803416 0.0063089601
v 0.0040313494 -0.0510698931 0.00673344228
v 0.00309876904 -0.0578803416 -0.00650914202
v 0.00379820422 -0.0510698931 -0.00700333762
v 0.00321914276 -0.0578803416 0.00637557683
v 0.00396292661 -0.0510698931 0.00682019783
v 0.00304681811 -0.0578803416 -0.00656336373
v 0.00368796708 -0.0510698931 -0.007110232
v 0.00310510431 -0.0578803416 0.0065026114
v 0.00385268947 -0.0510698931 0.0069472324
v 0.00298473059 -0.0578803416 -0.00662223391
v 0.0036486874 -0.0510698931 -0.00714586391
v 0.00304681811 -0.0578803416 0.00656302925
v 0.00377286242 -0.0510698931 0.00702933947
v 0.00292137609 -0.0578803416 -0.00667955368
v 0.00355872377 -0.0510698931 -0.00722332388
v 0.00285168597 -0.0578803416 -0.0067399729
v 0.0037449863 -0.0510698931 0.00705722484
v 0.00295178619 -0.0578803416 0.00665443327
v 0.00271864101 -0.0578803416 -0.00684531824
v 0.00343328141 -0.0510698931 -0.00732092405
v 0.00366642659 -0.0510698931 0.00713158675
v 0.00285295296 -0.0578803416 0.00674118745
v 0.00265021788 -0.0578803416 -0.00689489284
v 0.00339146741 -0.0510698931 -0.00735190749
v 0.00356379206 -0.0510698931 0.00721989133
v 0.00273131191 -0.0578803416 0.00683723858
v 0.00349410194 -0.0510698931 0.00727566344
v 0.00250576934 -0.0578803416 -0.00698939494
v 0.0033331812 -0.0510698931 -0.00739218651
v 0.00264261561 -0.0578803416 0.00690075587
v 0.00343708272 -0.0510698931 0.00731904053
v 0.00339526871 -0.0510698931 0.00735002534
v 0.00241960702 -0.0578803416 -0.00704051857
v 0.00315452093 -0.0510698931 -0.00750527839
v 0.00320267055 -0.0510698931 -0.00747584399
v 0.00251210496 -0.0578803416 0.00698596238
v 0.0033369825 -0.0510698931 0.00739030436
v 0.00326602539 -0.0510698931 0.00743677952
v 0.00230556857 -0.0578803416 -0.00710248682
v 0.00302781158 -0.0510698931 -0.00757344416
v 0.00242847661 -0.0578803416 0.00703708602
v 0.00320647186 -0.0510698931 0.00747396047
v 0.00219406445 -0.0578803416 -0.00715670853
v 0.00290490389 -0.0510698931 -0.00763231297
v 0.00232077379 -0.0578803416 0.00709595483
v 0.00315832223 -0.0510698931 0.00750339625
v 0.00213831256 -0.0578803416 -0.00718304486
v 0.00281874156 -0.0510698931 -0.00767104295
v 0.00219406445 -0.0578803416 0.00715792308
v 0.00303541419 -0.0510698931 0.0075700116
v 0.00206101983 -0.0578803416 -0.00721557734
v 0.00277059194 -0.0510698931 -0.00769118315
v 0.00206735511 -0.0578803416 0.00721369519
v 0.00290870485 -0.0510698931 0.00763197985
v 0.00282127554 -0.0510698931 0.00767070984
v 0.00195078269 -0.0578803416 -0.00725740676
v 0.00271230573 -0.0510698931 -0.00771442141
v 0.00277439324 -0.0510698931 0.00769084866
v 0.00271483971 -0.0510698931 0.00771408693
v 0.00195078269 -0.0578803416 0.00725862132
v 0.00170750093 -0.0578803416 -0.0073333177
v 0.00264895089 -0.0510698931 -0.00773765968
v 0.00265148521 -0.0510698931 0.00773577616
v 0.00245255143 -0.0510698931 0.00779929345
v 0.00173157574 -0.0578803416 0.00732678708
v 0.00145028094 -0.0578803416 -0.00739063747
v 0.00218392787 -0.0510698931 -0.00786004577
v 0.00238539562 -0.0510698931 -0.00781511965
v 0.00244875012 -0.0510698931 -0.00779962793
v 0.00238792994 -0.0510698931 0.0078163342
v 0.00169989832 -0.0578803416 0.00733608129
v 0.00140846694 -0.0578803416 -0.00739838402
v 0.00212057302 -0.0510698931 -0.00787089039
v 0.0022485497 -0.0510698931 0.00784731901
v 0.00145915054 -0.0578803416 0.00739030436
v 0.00132230461 -0.0578803416 -0.00741077767
v 0.00210029952 -0.0510698931 -0.00787398846
v 0.00218519485 -0.0510698931 0.00785971266
v 0.00144394532 -0.0578803416 0.00739340243
v 0.00124627887 -0.0578803416 -0.00742007325
v 0.00196978921 -0.0510698931 -0.00789103058
v 0.00205468421 -0.0510698931 -0.00788018597
v 0.00205595154 -0.0510698931 0.00788140052
v 0.00140846694 -0.0578803416 0.00739959857
v 0.00114617866 -0.0578803416 -0.00742936746
v 0.0019165713 -0.0510698931 -0.00789567769
v 0.00203314371 -0.0510698931 0.00788449996
v 0.00132990722 -0.0578803416 0.00741044319
v 0.00102960607 -0.0578803416 -0.00743556497
v 0.00178225934 -0.0510698931 -0.00790497327
v 0.00183421027 -0.0510698931 -0.0079018752
v 0.0019165713 -0.0510698931 0.00789689361
v 0.00119052698 -0.0578803416 0.00742593628
v 0.00129062719 -0.0578803416 0.00741509166
v 0.000971319692 -0.0578803416 -0.007437114
v 0.00141480222 -0.0532704891 -0.00775934754
v 0.00167582351 -0.0510698931 -0.00790807134
v 0.00164794739 -0.0510698931 0.00791393437
v 0.00136665294 -0.0537198079 0.00773112906
v 0.00114744565 -0.0578803416 0.00742903435
v -0.00106743292 -0.0578803416 -0.00744176111
v -0.00610412756 -0.0541931258 -0.00769738066
v -0.00729899654 -0.0510698931 -0.00791271981
v 0.00151997106 -0.0510698931 -0.00790962037
v -0.00729899654 -0.0510698931 0.00791238533
v -0.00276787169 -0.0537204755 0.00773112906
v -0.00276787169 -0.057003703 0.00750339625
v -0.000741789973 -0.0578803416 0.007441428
v 0.000964984242 -0.0578803416 0.00743832856
v 0.00102960607 -0.0578803416 0.00743523049
v -0.00132465278 -0.0578803416 -0.00744176111
v -0.00729899654 -0.0532711553 -0.00775934754
v -0.00276787169 -0.0570897004 -0.00749598419
v -0.00610412756 -0.0578803416 -0.00743091649
v -0.00729899654 -0.0578803416 -0.00742781842
v -0.00731040046 -0.0510698931 -0.00791116941
v -0.00745104734 -0.0510698931 0.00788914707
v -0.00729899654 -0.0537211417 0.00772957865
v -0.00610412756 -0.0546617774 0.00766451233
v -0.00735474809 -0.0578803416 0.00742593628
v -0.00174025932 -0.0578803416 0.007441428
v -0.00276787169 -0.0578803416 -0.00743866304
v -0.00733700959 -0.0578803416 -0.00742626939
v -0.00742063691 -0.0578803416 -0.00741697381
v -0.00747638983 -0.0578803416 -0.00740922863
v -0.00748399244 -0.0510698931 -0.00788328404
v -0.00751060088 -0.0510698931 0.00787830245
v -0.00750299827 -0.0578803416 0.00740269801
v -0.00753721001 -0.0578803416 -0.00739683498
v -0.00754607995 -0.0510698931 -0.00786934135
v -0.00757015442 -0.0510698931 0.00786281073
v -0.00756255181 -0.0578803416 0.00738875533
v -0.00751060088 -0.0578803416 0.00740114898
v -0.00759803019 -0.0578803416 -0.00737979286
v -0.00760690013 -0.0510698931 -0.00785384963
v -0.00762970796 -0.0510698931 0.00784422094
v -0.00762970796 -0.0578803416 0.00736861513
v -0.00766645367 -0.0578803416 -0.00735500556
v -0.00766645367 -0.0510698931 -0.00783061137
v -0.00768672684 -0.0510698931 0.00782253171
v -0.00768672684 -0.0578803416 0.00734537687
v -0.00767405559 -0.0578803416 -0.00735190749
v -0.00772347255 -0.0510698931 -0.00780582407
v -0.00774247907 -0.0510698931 0.00779619538
v -0.00774247907 -0.0578803416 0.00732058957
v -0.00773107516 -0.0578803416 -0.00732557115
v -0.00775134832 -0.0510698931 -0.00779188138
v -0.00777035484 -0.0510698931 0.00778225269
v -0.00779696397 -0.0578803416 0.00729115516
v -0.00779696397 -0.0510698931 0.00776831001
v -0.00777922478 -0.0578803416 -0.00730078385
v -0.00777922478 -0.0510698931 -0.00777638966
v -0.00784257963 -0.0578803416 0.00726326979
v -0.0078489149 -0.0510698931 0.00773577616
v -0.00782610708 -0.0578803416 -0.00727289848
v -0.00783370969 -0.0510698931 -0.00774540485
v -0.00785651751 -0.0578803416 0.00725397421
v -0.0078995985 -0.0510698931 0.00769859521
v -0.0078995985 -0.0578803416 0.0072229894
v -0.00783370969 -0.0578803416 -0.00726825138
v -0.00788566062 -0.0510698931 -0.00771132334
v -0.00792367297 -0.0510698931 0.00768000542
v -0.00790593378 -0.0578803416 0.0072183423
v -0.00788566062 -0.0578803416 -0.00723261946
v -0.00793507689 -0.0510698931 -0.00767104295
v -0.00793507689 -0.0578803416 -0.00719698755
v -0.00794901477 -0.0510698931 0.00765986522
v -0.00794901477 -0.0578803416 0.00718271038
v -0.00798195987 -0.0510698931 -0.00763076393
v -0.0079756239 -0.0578803416 -0.0071598066
v -0.0079718226 -0.0510698931 0.00763972503
v -0.00799463042 -0.0578803416 0.00714243136
v -0.00800350036 -0.0510698931 -0.00761062511
v -0.0080263075 -0.0578803416 -0.00711178103
v -0.00799463042 -0.0510698931 0.00761803717
v -0.00803771142 -0.0578803416 0.00709750524
v -0.00803771142 -0.0510698931 0.00757465871
v -0.00806685452 -0.0510698931 -0.00754091031
v -0.00806685452 -0.0578803416 -0.00706530587
v -0.00807825843 -0.0578803416 0.00704947967
v -0.00807825843 -0.0510698931 0.00752663314
v -0.00810613489 -0.0510698931 -0.00749133571
v -0.0081099362 -0.0578803416 -0.00700953376
v -0.00808332707 -0.0578803416 0.00704328216
v -0.00811627148 -0.0510698931 0.00747705991
v -0.00814034595 -0.0510698931 -0.00744021207
v -0.00814034595 -0.0578803416 -0.00696460764
v -0.00811627148 -0.0578803416 0.00699990507
v -0.00815048321 -0.0510698931 0.00742438587
v -0.00814668191 -0.0578803416 0.00695342854
v -0.00817202371 -0.0510698931 -0.00738599037
v -0.00817202371 -0.0578803416 -0.00691193497
v -0.00818089296 -0.0510698931 0.00736861513
v -0.00817709166 -0.0578803416 0.00690075587
v -0.0081859616 -0.0510698931 -0.00735965403
v -0.00819736551 -0.0578803416 -0.0068639094
v -0.00821003607 -0.0510698931 0.00731129399
v -0.00821003607 -0.0578803416 0.00683723858
v -0.00819989948 -0.0510698931 -0.00733176866
v -0.00820370079 -0.0578803416 -0.00684996672
v -0.00822143998 -0.0510698931 0.00728340862
v -0.0082366452 -0.0578803416 0.00677062323
v -0.00821257073 -0.0510698931 -0.00730388192
v -0.00822143998 -0.0578803416 -0.00680813729
v -0.00822524128 -0.0510698931 -0.00727444752
v -0.0082442478 -0.0510698931 0.00722453981
v -0.00825438439 -0.0578803416 0.00671795056
v -0.00825438439 -0.0510698931 0.00719510403
v -0.0082442478 -0.0578803416 -0.00675081751
v -0.0082366452 -0.0510698931 -0.00724656215
v -0.00827085693 -0.0578803416 0.00665753134
v -0.00827085693 -0.0510698931 0.00713313578
v -0.00826452097 -0.0578803416 -0.00668265175
v -0.00825565172 -0.0510698931 -0.007189241
v -0.00824678178 -0.0510698931 -0.00721712774
v -0.00828226085 -0.0578803416 0.00660330964
v -0.00828352749 -0.0510698931 0.00707116753
v -0.00827845954 -0.0578803416 -0.00662378294
v -0.00826452097 -0.0510698931 -0.00715825756
v -0.00829239743 -0.0578803416 0.00653979235
v -0.00828859613 -0.0510698931 0.00704018409
v -0.00828859613 -0.0578803416 -0.00656336373
v -0.00828859613 -0.0510698931 -0.00704051857
v -0.00827845954 -0.0510698931 -0.00709938738
v -0.00829746538 -0.0578803416 0.00648092217
v -0.00829239743 -0.0510698931 0.00700920065
v -0.00829619873 -0.0578803416 -0.00650139548
v -0.00829619873 -0.0510698931 -0.00698009936
v -0.00830000004 -0.0578803416 0.00642515006
v -0.0082949314 -0.0510698931 0.00697821584
v -0.00829873271 -0.0510698931 0.00692399413
v -0.00830000004 -0.0510698931 -0.00690109035
v -0.00830000004 -0.0578803416 -0.00640999282
v -0.00830000004 -0.0510698931 0.00689146029
f 1 2 3
f 1 3 4
f 1 4 9
f 1 9 5
f 1 5 11
f 1 11 17
f 1 17 16
f 1 16 15
f 1 15 23
f 1 23 22
f 1 22 28
f 1 28 27
f 1 27 33
f 1 33 32
f 1 32 38
f 1 38 42
f 1 42 46
f 1 46 50
f 1 50 56
f 1 56 55
f 1 55 54
f 1 54 60
f 1 60 65
f 1 65 69
f 1 69 73
f 1 73 77
f 1 77 81
f 1 81 85
f 1 85 90
f 1 90 94
f 1 94 99
f 1 99 105
f 1 105 104
f 1 104 110
f 1 110 114
f 1 114 118
f 1 118 122
f 1 122 127
f 1 127 132
f 1 132 139
f 1 139 138
f 1 138 137
f 1 137 143
f 1 143 147
f 1 147 152
f 1 152 151
f 1 151 156
f 1 156 161
f 1 161 160
f 1 160 167
f 1 167 174
f 1 174 173
f 1 173 186
f 1 186 196
f 1 196 200
f 1 200 205
f 1 205 209
f 1 209 213
f 1 213 217
f 1 217 222
f 1 222 226
f 1 226 231
f 1 231 235
f 1 235 239
f 1 239 243
f 1 243 248
f 1 248 252
f 1 252 256
f 1 256 261
f 1 261 265
f 1 265 269
f 1 269 273
f 1 273 275
f 1 275 280
f 1 280 285
f 1 285 284
f 1 284 289
f 1 289 294
f 1 294 293
f 1 293 298
f 1 298 302
f 1 302 304
f 1 304 301
f 1 301 300
f 1 300 296
f 1 296 291
f 1 291 287
f 1 287 282
f 1 282 278
f 1 278 276
f 1 276 271
f 1 271 267
f 1 267 263
f 1 263 259
f 1 259 255
f 1 255 251
f 1 251 247
f 1 247 245
f 1 245 241
f 1 241 237
f 1 237 232
f 1 232 228
f 1 228 224
f 1 224 220
f 1 220 218
f 1 218 214
f 1 214 210
f 1 210 206
f 1 206 201
f 1 201 197
f 1 197 187
f 1 187 175
f 1 175 168
f 1 168 162
f 1 162 157
f 1 157 153
f 1 153 148
f 1 148 144
f 1 144 140
f 1 140 134
f 1 134 133
f 1 133 129
f 1 129 128
f 1 128 125
f 1 125 124
f 1 124 120
f 1 120 116
f 1 116 112
f 1 112 108
f 1 108 107
f 1 107 102
f 1 102 101
f 1 101 97
f 1 97 95
f 1 95 91
f 1 91 87
f 1 87 83
f 1 83 79
f 1 79 75
f 1 75 71
f 1 71 67
f 1 67 62
f 1 62 61
f 1 61 57
f 1 57 52
f 1 52 48
f 1 48 44
f 1 44 40
f 1 40 36
f 1 36 30
f 1 30 25
f 1 25 20
f 1 20 12
f 1 12 8
f 1 8 2
f 2 6 7
f 2 7 3
f 2 8 6
f 3 7 6
f 3 6 13
f 3 13 19
f 3 19 18
f 3 18 24
f 3 24 29
f 3 29 34
f 3 34 35
f 3 35 39
f 3 39 43
f 3 43 47
f 3 47 51
f 3 51 58
f 3 58 63
f 3 63 66
f 3 66 70
f 3 70 74
f 3 74 78
f 3 78 82
f 3 82 88
f 3 88 92
f 3 92 96
f 3 96 100
f 3 100 106
f 3 106 111
f 3 111 115
f 3 115 119
f 3 119 123
f 3 123 130
f 3 130 135
f 3 135 141
f 3 141 145
f 3 145 149
f 3 149 154
f 3 154 158
f 3 158 164
f 3 164 163
f 3 163 170
f 3 170 180
f 3 180 179
f 3 179 178
f 3 178 191
f 3 191 190
f 3 190 198
f 3 198 203
f 3 203 202
f 3 202 207
f 3 207 211
f 3 211 215
f 3 215 219
f 3 219 223
f 3 223 227
f 3 227 229
f 3 229 233
f 3 233 238
f 3 238 242
f 3 242 246
f 3 246 250
f 3 250 254
f 3 254 258
f 3 258 260
f 3 260 264
f 3 264 268
f 3 268 272
f 3 272 277
f 3 277 281
f 3 281 286
f 3 286 290
f 3 290 295
f 3 295 299
f 3 299 303
f 3 303 297
f 3 297 292
f 3 292 288
f 3 288 283
f 3 283 279
f 3 279 274
f 3 274 270
f 3 270 266
f 3 266 262
f 3 262 257
f 3 257 253
f 3 253 249
f 3 249 244
f 3 244 240
f 3 240 236
f 3 236 234
f 3 234 230
f 3 230 225
f 3 225 221
f 3 221 216
f 3 216 212
f 3 212 208
f 3 208 204
f 3 204 199
f 3 199 195
f 3 195 194
f 3 194 193
f 3 193 185
f 3 185 184
f 3 184 192
f 3 192 181
f 3 181 171
f 3 171 165
f 3 165 159
f 3 159 155
f 3 155 150
f 3 150 146
f 3 146 142
f 3 142 136
f 3 136 131
f 3 131 126
f 3 126 121
f 3 121 117
f 3 117 113
f 3 113 109
f 3 109 103
f 3 103 98
f 3 98 93
f 3 93 89
f 3 89 86
f 3 86 84
f 3 84 80
f 3 80 76
f 3 76 72
f 3 72 68
f 3 68 64
f 3 64 59
f 3 59 53
f 3 53 49
f 3 49 45
f 3 45 41
f 3 41 37
f 3 37 31
f 3 31 26
f 3 26 21
f 3 21 14
f 3 14 10
f 3 10 9
f 3 9 4
f 5 9 10
f 5 10 11
f 6 8 12
f 6 12 13
f 10 14 15
f 10 15 16
f 10 16 17
f 10 17 11
f 12 18 19
f 12 19 13
f 12 20 18
f 14 21 22
f 14 22 23
f 14 23 15
f 18 20 24
f 20 25 24
f 21 26 27
f 21 27 28
f 21 28 22
f 24 25 29
f 25 30 29
f 26 31 32
f 26 32 33
f 26 33 27
f 29 30 34
f 30 35 34
f 30 36 35
f 31 37 32
f 32 37 38
f 35 36 40
f 35 40 39
f 37 41 38
f 38 41 42
f 39 40 44
f 39 44 43
f 41 45 46
f 41 46 42
f 43 44 48
f 43 48 47
f 45 49 50
f 45 50 46
f 47 48 52
f 47 52 51
f 49 53 54
f 49 54 55
f 49 55 56
f 49 56 50
f 51 52 57
f 51 57 58
f 53 59 54
f 54 59 60
f 57 61 58
f 58 61 62
f 58 62 63
f 59 64 60
f 60 64 65
f 62 66 63
f 62 67 66
f 64 68 65
f 65 68 69
f 66 67 71
f 66 71 70
f 68 72 69
f 69 72 73
f 70 71 75
f 70 75 74
f 72 76 73
f 73 76 77
f 74 75 79
f 74 79 78
f 76 80 77
f 77 80 81
f 78 79 82
f 79 83 82
f 80 84 81
f 81 84 86
f 81 86 85
f 82 83 87
f 82 87 88
f 85 86 89
f 85 89 90
f 87 91 88
f 88 91 92
f 89 93 94
f 89 94 90
f 91 95 92
f 92 95 97
f 92 97 96
f 93 98 99
f 93 99 94
f 96 97 101
f 96 101 102
f 96 102 100
f 98 103 104
f 98 104 105
f 98 105 99
f 100 102 107
f 100 107 108
f 100 108 106
f 103 109 104
f 104 109 110
f 106 108 112
f 106 112 116
f 106 116 111
f 109 113 110
f 110 113 114
f 111 116 115
f 113 117 114
f 114 117 118
f 115 116 120
f 115 120 124
f 115 124 119
f 117 121 118
f 118 121 122
f 119 124 125
f 119 125 123
f 121 126 127
f 121 127 122
f 123 125 128
f 123 128 129
f 123 129 130
f 126 131 132
f 126 132 127
f 129 133 130
f 130 133 134
f 130 134 135
f 131 136 137
f 131 137 138
f 131 138 139
f 131 139 132
f 134 140 141
f 134 141 135
f 136 142 137
f 137 142 143
f 140 144 145
f 140 145 141
f 142 146 147
f 142 147 143
f 144 148 149
f 144 149 145
f 146 150 151
f 146 151 152
f 146 152 147
f 148 153 154
f 148 154 149
f 150 155 151
f 151 155 156
f 153 157 158
f 153 158 154
f 155 159 160
f 155 160 161
f 155 161 156
f 157 162 163
f 157 163 164
f 157 164 158
f 159 165 166
f 159 166 160
f 160 166 167
f 162 168 169
f 162 169 170
f 162 170 163
f 165 171 166
f 166 172 173
f 166 173 174
f 166 174 167
f 166 171 172
f 168 175 176
f 168 176 169
f 169 176 177
f 169 177 178
f 169 178 179
f 169 179 180
f 169 180 170
f 171 181 172
f 172 182 173
f 172 181 183
f 172 183 184
f 172 184 185
f 172 185 182
f 173 182 186
f 175 187 188
f 175 188 176
f 176 188 177
f 177 188 189
f 177 189 190
f 177 190 191
f 177 191 178
f 181 192 183
f 182 185 193
f 182 193 194
f 182 194 195
f 182 195 186
f 183 192 184
f 186 195 196
f 187 197 198
f 187 198 188
f 188 198 190
f 188 190 189
f 195 199 196
f 196 199 200
f 197 201 202
f 197 202 203
f 197 203 198
f 199 204 205
f 199 205 200
f 201 206 207
f 201 207 202
f 204 208 205
f 205 208 209
f 206 210 207
f 207 210 211
f 208 212 209
f 209 212 213
f 210 214 215
f 210 215 211
f 212 216 213
f 213 216 217
f 214 218 215
f 215 218 220
f 215 220 219
f 216 221 217
f 217 221 222
f 219 220 223
f 220 224 223
f 221 225 226
f 221 226 222
f 223 224 227
f 224 228 233
f 224 233 229
f 224 229 227
f 225 230 226
f 226 230 231
f 228 232 233
f 230 234 231
f 231 234 236
f 231 236 235
f 232 237 233
f 233 237 238
f 235 236 239
f 236 240 239
f 237 241 242
f 237 242 238
f 239 240 243
f 240 244 243
f 241 245 242
f 242 245 247
f 242 247 246
f 243 244 248
f 244 249 248
f 246 247 251
f 246 251 250
f 248 249 252
f 249 253 252
f 250 251 254
f 251 255 254
f 252 253 257
f 252 257 256
f 254 255 258
f 255 259 260
f 255 260 258
f 256 257 262
f 256 262 261
f 259 263 264
f 259 264 260
f 261 262 265
f 262 266 265
f 263 267 268
f 263 268 264
f 265 266 269
f 266 270 273
f 266 273 269
f 267 271 268
f 268 271 272
f 270 274 275
f 270 275 273
f 271 276 272
f 272 276 278
f 272 278 277
f 274 279 280
f 274 280 275
f 277 278 281
f 278 282 281
f 279 283 284
f 279 284 285
f 279 285 280
f 281 282 286
f 282 287 286
f 283 288 294
f 283 294 289
f 283 289 284
f 286 287 291
f 286 291 290
f 288 292 293
f 288 293 294
f 290 291 296
f 290 296 295
f 292 297 298
f 292 298 293
f 295 296 300
f 295 300 301
f 295 301 299
f 297 302 298
f 297 303 302
f 299 301 304
f 299 304 302
f 299 302 303
