# Derived from Apache-2.0 SO-ARM100 STL; see THIRD_PARTY.md
v 0.00527542046 -0.0142059329 0.0142575079
v 0.00541600292 -0.0142090652 0.0142575079
v 0.00514729471 -0.0150005617 0.00887061421
v -0.00875967341 -0.0142059329 0.0142575079
v 0.00555836471 -0.0142215959 0.0142575079
v 0.00538219146 -0.0150120479 0.00887061421
v 0.00527186179 -0.0150036941 0.00887061421
v -0.00919743616 -0.0150005617 0.00887061421
v -0.00916718474 -0.0149086724 0.0142575079
v 0.00557082142 -0.0150329311 0.00887061421
v 0.00540176687 -0.0150141356 0.00887061421
v 0.0057007265 -0.0142435237 0.0142575079
v -0.0100000007 -0.0163862036 0.00887061421
v -0.0099982214 -0.0163527883 0.0142575079
v 0.00563132425 -0.015043374 0.00887061421
v 0.00573987596 -0.0142508329 0.0142575079
v -0.0100000007 -0.0209983947 0.00887061421
v -0.0100000007 -0.0163862036 0.0128775645
v -0.0099982214 -0.0209994393 0.0142575079
v 0.00570962454 -0.0150579925 0.00887061421
v 0.00584842629 -0.0142738053 0.0142575079
v -0.0100000007 -0.0209983947 0.0128775645
v -0.00999466274 -0.0210934164 0.00887061421
v -0.00999466274 -0.0210965487 0.0142575079
v 0.00572919858 -0.0150621681 0.00887061421
v 0.00599434812 -0.0143134839 0.0142575079
v 0.00589113579 -0.0150987157 0.00887061421
v -0.00998398536 -0.0211727749 0.00887061421
v -0.00998398536 -0.0211727749 0.0128775645
v -0.00998220603 -0.021182172 0.0142575079
v 0.00602104087 -0.0151363065 0.00887061421
v 0.00604951296 -0.0143322793 0.0142575079
v 0.0061171345 -0.0151676327 0.00887061421
v -0.00998042532 -0.0211915704 0.00887061421
v -0.00996263061 -0.021266752 0.0142575079
v 0.00613848925 -0.0143636054 0.0142575079
v 0.00628440971 -0.0152323727 0.00887061421
v -0.00996263061 -0.0212657074 0.00887061421
v -0.00996263061 -0.021266752 0.0128775645
v -0.00993949653 -0.0213408891 0.0142575079
v 0.00621322813 -0.0143928424 0.0142575079
v 0.00631110246 -0.0152428143 0.00887061421
v -0.00993949653 -0.0213408891 0.00887061421
v -0.00993593786 -0.0213502875 0.0142575079
v 0.00628440971 -0.014423124 0.0142575079
v 0.00636270862 -0.0152657867 0.00887061421
v -0.00990568645 -0.0214223368 0.00887061421
v -0.00990568645 -0.0214223368 0.0128775645
v -0.00990390711 -0.0214223368 0.0142575079
v 0.006378724 -0.0144680241 0.0142575079
v 0.00645168492 -0.0153065098 0.00887061421
v -0.00829877658 -0.0248712994 0.00887061421
v -0.00829877658 -0.0248712994 0.00989779434
v -0.00986475765 -0.0214996062 0.0142575079
v 0.0064267715 -0.014492041 0.0142575079
v 0.006576252 -0.0153722931 0.00887061421
v 0.00726670621 -0.0248712994 0.00887061421
v -0.00829521791 -0.0248712994 0.00997056129
v -0.00981315149 -0.0215810539 0.0142575079
v -0.00828454053 -0.0248712994 0.0100607295
v 0.00654955788 -0.0145599134 0.0142575079
v 0.00656913329 -0.0145713995 0.0142575079
v 0.00674352583 -0.0154714916 0.00887061421
v 0.00728628025 -0.0247773216 0.00887061421
v 0.00794826375 -0.019712996 0.0142575079
v 0.00793936571 -0.0197505868 0.0142575079
v 0.00790733358 -0.0198779778 0.0142575079
v 0.00788064083 -0.0199698671 0.0142575079
v 0.00783615337 -0.0200993458 0.0142575079
v 0.00782369666 -0.0201338043 0.0142575079
v 0.00778632654 -0.0202267382 0.0142575079
v 0.0077720905 -0.0202601521 0.0142575079
v 0.00724001346 -0.0248712994 0.00894918181
v -0.00976332465 -0.0216416157 0.0142575079
v -0.00826496649 -0.0248712994 0.0101493158
v 0.00670793641 -0.0146601551 0.0142575079
v 0.00679157333 -0.0155028178 0.00887061421
v 0.00736991854 -0.024349204 0.00887061421
v 0.00796605846 -0.0196231958 0.0142575079
v 0.00765286279 -0.0204867416 0.0142575079
v 0.00716527321 -0.0248712994 0.00914059181
v -0.00970637911 -0.0217063558 0.0142575079
v -0.00825784778 -0.0248712994 0.010174099
v -0.00823827374 -0.0248712994 0.0102357931
v 0.00672039312 -0.0146685089 0.0142575079
v 0.00687343092 -0.015559204 0.00887061421
v 0.00750338229 -0.0236569046 0.00887061421
v 0.00800520791 -0.0193485725 0.0142575079
v 0.00753185437 -0.023494012 0.00887061421
v 0.00755676779 -0.0233509579 0.00887061421
v 0.00759769658 -0.0230742468 0.00887061421
v 0.00760837396 -0.0229959328 0.00889697934
v 0.00758346054 -0.0206089112 0.0142575079
v 0.00715103716 -0.0248712994 0.009175393
v -0.00964231624 -0.0217648312 0.0142575079
v -0.00820802095 -0.0248712994 0.0103148878
v 0.00684495883 -0.0147572659 0.0142575079
v 0.00699443933 -0.0156510919 0.00887061421
v 0.00802300262 -0.0191825461 0.0142575079
v 0.00766175946 -0.0225813891 0.00887061421
v 0.00766887816 -0.0225156045 0.0089175438
v 0.00760837396 -0.0229980206 0.00887061421
v 0.00750516162 -0.0207289929 0.0142575079
v 0.00710298967 -0.0248712994 0.00927979864
v -0.00957113603 -0.0218180851 0.0142575079
v -0.00816531282 -0.0248712994 0.0104003109
v -0.00815819549 -0.0248712994 0.0104124386
v -0.00811726533 -0.0248712994 0.0104772965
v 0.00697664325 -0.0148637723 0.0142575079
v 0.00701045471 -0.0156636227 0.00887061421
v 0.008140451 -0.0180746599 0.0136532225
v 0.00816002641 -0.0178867057 0.014250126
v 0.00815824708 -0.0179023688 0.0142575079
v 0.00772048433 -0.0220321439 0.00927136188
v 0.00795538108 -0.0198195038 0.00887061421
v 0.00769201225 -0.022298412 0.00887061421
v 0.00733610708 -0.02094723 0.0142575079
v 0.00703003012 -0.0248712994 0.00940898747
v -0.00949995445 -0.0218650729 0.0142575079
v -0.00808523457 -0.0248712994 0.0105215893
v -0.0080692192 -0.0248712994 0.0105426816
v 0.00706028154 -0.014938954 0.0142575079
v 0.00713324245 -0.0157680427 0.00887061421
v 0.00812621496 -0.0182083169 0.0130431371
v 0.00811197892 -0.0183179571 0.00887061421
v 0.00817070379 -0.0177624471 0.0142575079
v 0.00796427912 -0.0197349237 0.00887061421
v 0.00724179279 -0.0210568701 0.0142575079
v 0.00695351054 -0.0248712994 0.00953870269
v 0.00698376196 -0.0248712994 0.00948860923
v -0.00806387982 -0.0248712994 0.0105490093
v -0.00802473037 -0.0248712994 0.0105938299
v -0.00800515632 -0.0248712994 0.0106159763
v -0.00794109345 -0.0248712994 0.0106776704
v -0.00942165553 -0.0219057961 0.0142575079
v 0.007104769 -0.0149796772 0.0142575079
v 0.00718484862 -0.0158150306 0.00887061421
v 0.00812799429 -0.0180663061 0.00887061421
v 0.00817782112 -0.0176089514 0.0142575079
v 0.00722577741 -0.021074621 0.0142575079
v 0.00687699096 -0.0248712994 0.00965629089
v -0.0078716912 -0.0248712994 0.0107325096
v -0.00779873166 -0.0248712994 0.0107815482
v -0.00934157728 -0.0219392114 0.0142575079
v 0.00722755675 -0.0151039372 0.0142575079
v 0.00725602883 -0.015882903 0.00887061421
v 0.00812799429 -0.0180370691 0.00887061421
v 0.00817960046 -0.0174523221 0.0142575079
v 0.00714213912 -0.0211633765 0.0142575079
v 0.00677911662 -0.0248712994 0.00979127969
v -0.00772043274 -0.0248712994 0.0108232049
v -0.00925794036 -0.021965316 0.0142575079
v 0.00734322579 -0.0152344605 0.0142575079
v 0.00735924117 -0.0159935877 0.00887061421
v 0.00812265629 -0.0178146564 0.00887061421
v 0.00817248312 -0.0172925604 0.0142575079
v 0.00703714746 -0.0212636197 0.0142575079
v 0.00677021995 -0.0248712994 0.00980235254
v -0.00764035449 -0.0248712994 0.0108585339
v -0.00917252274 -0.0219841114 0.0142575079
v -0.0075567162 -0.0248712994 0.010884899
v 0.00737881658 -0.0152772728 0.0142575079
v 0.00747846887 -0.0161335094 0.00887061421
v 0.00812087696 -0.0177864626 0.00887061421
v 0.00815646775 -0.0171328 0.0142575079
v 0.00809952221 -0.01756405 0.00887061421
v 0.00692681779 -0.0213596845 0.0142575079
v 0.00668124366 -0.0248712994 0.00990992205
v -0.00908710512 -0.021994553 0.0142575079
v -0.00747841728 -0.0248712994 0.0109033545
v -0.00747307928 -0.0248712994 0.0109044093
v 0.00745533479 -0.0153722931 0.0142575079
v 0.00752651637 -0.0161961603 0.00887061421
v 0.00814579037 -0.0170471754 0.0142575079
v 0.0080817275 -0.017456499 0.00887061421
v 0.008135113 -0.0169678182 0.0142575079
v 0.00681292808 -0.021449486 0.0142575079
v 0.00657803133 -0.0248712994 0.0100248735
v 0.00659048804 -0.0248712994 0.0100111631
v -0.00907642911 -0.0219955976 0.0142575079
v -0.00739122033 -0.0248712994 0.0109160099
v 0.00752473704 -0.0154683593 0.0142575079
v 0.00757812254 -0.0162671651 0.00887061421
v 0.00805503475 -0.0173322403 0.00887061421
v 0.00810486158 -0.0168017918 0.0142575079
v 0.00813155433 -0.0169479782 0.0142575079
v 0.00669547971 -0.0215340647 0.0142575079
v 0.00646592096 -0.0248712994 0.0101350791
v -0.0089981302 -0.0219987299 0.0142575079
v -0.00738588232 -0.0248712994 0.010916537
v -0.00729868537 -0.0248712994 0.0109207551
v 0.00755854712 -0.0155174363 0.0142575079
v 0.00767421617 -0.0164102191 0.00887061421
v 0.00805147608 -0.0173176218 0.00887061421
v 0.00806571212 -0.0166357655 0.0142575079
v 0.00657269196 -0.0216123787 0.0142575079
v 0.00635914996 -0.0248712994 0.0102326292
v -0.00729868537 -0.0220498947 0.0142575079
v -0.00365778248 -0.0248712994 0.0109228648
v 0.00765820079 -0.0156719765 0.0142575079
v 0.00776141312 -0.0165584947 0.00887061421
v 0.00804435737 -0.017289428 0.00887061421
v 0.00798385317 -0.0170753692 0.00887061421
v 0.00803368 -0.016522993 0.0142575079
v 0.00649617238 -0.0216572788 0.0142575079
v 0.00623814154 -0.0248712994 0.01033018
v 0.00189788692 -0.0220509393 0.0142575079
v 0.00450310764 -0.0248712994 0.0109207551
v 0.00501561029 -0.0220509393 0.0142575079
v 0.00774361841 -0.015820252 0.0142575079
v 0.00778988521 -0.0166127931 0.00887061421
v 0.00801766462 -0.0164697391 0.0142575079
v 0.00790377492 -0.0168571335 0.00887061421
v 0.00796249979 -0.0163058005 0.0142575079
v 0.00796427912 -0.0163110219 0.0142575079
v 0.00644812625 -0.021684428 0.0142575079
v 0.00611535517 -0.0248712994 0.0104203482
v 0.00452446204 -0.0248712994 0.010920228
v 0.00509746788 -0.0220498947 0.0142575079
v 0.00777386983 -0.0158787261 0.0142575079
v 0.007825476 -0.0159789692 0.0142575079
v 0.00783971204 -0.0167151227 0.00887061421
v 0.00789665758 -0.0168404259 0.00887061421
v 0.00789843691 -0.0161408187 0.0142575079
v 0.00632177983 -0.0217502127 0.0142575079
v 0.00598900875 -0.0248712994 0.0105026068
v 0.00463657173 -0.0248712994 0.0109170641
v 0.00514195671 -0.0220488515 0.0142575079
v 0.00787708216 -0.0160927862 0.0142575079
v 0.00619365408 -0.0218097312 0.0142575079
v 0.00585910367 -0.0248712994 0.0105780105
v 0.00472910737 -0.0248712994 0.0109107371
v 0.00519000283 -0.0220467624 0.0142575079
v 0.00606196966 -0.0218619406 0.0142575079
v 0.00572741925 -0.0248712994 0.0106455053
v 0.0047718155 -0.0248712994 0.0109075732
v 0.00527186179 -0.0220404977 0.0142575079
v 0.00593028525 -0.0219078852 0.0142575079
v 0.0055939555 -0.0248712994 0.0107050897
v 0.00485545242 -0.0248712994 0.0108980816
v 0.00490705859 -0.0248712994 0.0108917538
v 0.00535194004 -0.0220321439 0.0142575079
v 0.00586800171 -0.0219266806 0.0142575079
v 0.00545693171 -0.0248712994 0.0107578199
v 0.00548896246 -0.0248712994 0.0107456922
v 0.00498713821 -0.0248712994 0.0108785713
v 0.00540176687 -0.0220269224 0.0142575079
v 0.00579859946 -0.0219465206 0.0142575079
v 0.00531990792 -0.0248712994 0.0108026405
v 0.00504408238 -0.0248712994 0.0108690804
v 0.00553345129 -0.0220060392 0.0142575079
v 0.00566513571 -0.0219799345 0.0142575079
v 0.0051828855 -0.0248712994 0.0108400784
v 0.00515085338 -0.0248712994 0.010847461
f 1 2 3
f 1 3 8
f 1 8 4
f 1 4 9
f 1 9 14
f 1 14 19
f 1 19 24
f 1 24 30
f 1 30 35
f 1 35 40
f 1 40 44
f 1 44 49
f 1 49 54
f 1 54 59
f 1 59 74
f 1 74 82
f 1 82 95
f 1 95 105
f 1 105 119
f 1 119 135
f 1 135 144
f 1 144 152
f 1 152 160
f 1 160 169
f 1 169 180
f 1 180 189
f 1 189 198
f 1 198 207
f 1 207 209
f 1 209 219
f 1 219 228
f 1 228 233
f 1 233 237
f 1 237 242
f 1 242 247
f 1 247 251
f 1 251 252
f 1 252 248
f 1 248 243
f 1 243 238
f 1 238 234
f 1 234 230
f 1 230 225
f 1 225 216
f 1 216 205
f 1 205 196
f 1 196 187
f 1 187 177
f 1 177 167
f 1 167 157
f 1 157 149
f 1 149 140
f 1 140 128
f 1 128 117
f 1 117 103
f 1 103 93
f 1 93 80
f 1 80 72
f 1 72 71
f 1 71 70
f 1 70 69
f 1 69 68
f 1 68 67
f 1 67 66
f 1 66 65
f 1 65 79
f 1 79 88
f 1 88 99
f 1 99 113
f 1 113 126
f 1 126 139
f 1 139 148
f 1 148 156
f 1 156 165
f 1 165 174
f 1 174 176
f 1 176 186
f 1 186 185
f 1 185 195
f 1 195 204
f 1 204 212
f 1 212 215
f 1 215 214
f 1 214 224
f 1 224 229
f 1 229 221
f 1 221 220
f 1 220 210
f 1 210 200
f 1 200 192
f 1 192 182
f 1 182 172
f 1 172 162
f 1 162 153
f 1 153 145
f 1 145 136
f 1 136 122
f 1 122 109
f 1 109 97
f 1 97 85
f 1 85 76
f 1 76 62
f 1 62 61
f 1 61 55
f 1 55 50
f 1 50 45
f 1 45 41
f 1 41 36
f 1 36 32
f 1 32 26
f 1 26 21
f 1 21 16
f 1 16 12
f 1 12 5
f 1 5 2
f 2 5 6
f 2 6 7
f 2 7 3
f 3 7 6
f 3 6 11
f 3 11 10
f 3 10 15
f 3 15 20
f 3 20 25
f 3 25 27
f 3 27 31
f 3 31 33
f 3 33 37
f 3 37 42
f 3 42 46
f 3 46 51
f 3 51 56
f 3 56 63
f 3 63 77
f 3 77 86
f 3 86 98
f 3 98 110
f 3 110 123
f 3 123 137
f 3 137 146
f 3 146 154
f 3 154 163
f 3 163 173
f 3 173 183
f 3 183 193
f 3 193 201
f 3 201 211
f 3 211 222
f 3 222 223
f 3 223 213
f 3 213 203
f 3 203 202
f 3 202 194
f 3 194 184
f 3 184 175
f 3 175 166
f 3 166 164
f 3 164 155
f 3 155 147
f 3 147 138
f 3 138 125
f 3 125 127
f 3 127 115
f 3 115 116
f 3 116 100
f 3 100 102
f 3 102 91
f 3 91 90
f 3 90 89
f 3 89 87
f 3 87 78
f 3 78 64
f 3 64 57
f 3 57 52
f 3 52 47
f 3 47 43
f 3 43 38
f 3 38 34
f 3 34 28
f 3 28 23
f 3 23 17
f 3 17 13
f 3 13 8
f 4 8 9
f 5 10 11
f 5 11 6
f 5 12 10
f 8 13 9
f 9 13 14
f 10 12 15
f 12 16 20
f 12 20 15
f 13 17 22
f 13 22 18
f 13 18 14
f 14 18 22
f 14 22 19
f 16 21 20
f 17 23 24
f 17 24 22
f 19 22 24
f 20 21 25
f 21 26 27
f 21 27 25
f 23 28 24
f 24 29 30
f 24 28 29
f 26 31 27
f 26 32 33
f 26 33 31
f 28 34 30
f 28 30 29
f 30 34 35
f 32 36 33
f 33 36 37
f 34 38 39
f 34 39 35
f 35 39 43
f 35 43 40
f 36 41 42
f 36 42 37
f 38 43 39
f 40 43 44
f 41 45 42
f 42 45 46
f 43 47 44
f 44 47 48
f 44 48 49
f 45 50 51
f 45 51 46
f 47 52 53
f 47 53 48
f 48 53 49
f 49 53 54
f 50 55 51
f 51 55 56
f 52 57 73
f 52 73 81
f 52 81 94
f 52 94 104
f 52 104 118
f 52 118 130
f 52 130 129
f 52 129 141
f 52 141 150
f 52 150 158
f 52 158 168
f 52 168 179
f 52 179 178
f 52 178 188
f 52 188 197
f 52 197 206
f 52 206 217
f 52 217 226
f 52 226 231
f 52 231 235
f 52 235 239
f 52 239 245
f 52 245 244
f 52 244 249
f 52 249 253
f 52 253 254
f 52 254 250
f 52 250 246
f 52 246 241
f 52 241 240
f 52 240 236
f 52 236 232
f 52 232 227
f 52 227 218
f 52 218 208
f 52 208 199
f 52 199 191
f 52 191 190
f 52 190 181
f 52 181 171
f 52 171 170
f 52 170 161
f 52 161 159
f 52 159 151
f 52 151 143
f 52 143 142
f 52 142 134
f 52 134 133
f 52 133 132
f 52 132 131
f 52 131 121
f 52 121 120
f 52 120 108
f 52 108 107
f 52 107 106
f 52 106 96
f 52 96 84
f 52 84 83
f 52 83 75
f 52 75 60
f 52 60 58
f 52 58 53
f 53 58 54
f 54 58 60
f 54 60 59
f 55 61 56
f 56 61 62
f 56 62 63
f 57 64 65
f 57 65 66
f 57 66 67
f 57 67 68
f 57 68 69
f 57 69 70
f 57 70 71
f 57 71 72
f 57 72 73
f 59 60 75
f 59 75 74
f 62 76 63
f 63 76 77
f 64 78 79
f 64 79 65
f 72 80 73
f 73 80 81
f 74 75 83
f 74 83 84
f 74 84 82
f 76 85 77
f 77 85 86
f 78 87 79
f 79 87 89
f 79 89 90
f 79 90 91
f 79 91 92
f 79 92 88
f 80 93 81
f 81 93 94
f 82 84 96
f 82 96 95
f 85 97 86
f 86 97 98
f 88 92 100
f 88 100 101
f 88 101 99
f 91 102 92
f 92 102 100
f 93 103 104
f 93 104 94
f 95 96 106
f 95 106 107
f 95 107 108
f 95 108 105
f 97 109 110
f 97 110 98
f 99 111 112
f 99 112 113
f 99 101 114
f 99 114 115
f 99 115 111
f 100 116 101
f 101 116 114
f 103 117 104
f 104 117 118
f 105 108 120
f 105 120 121
f 105 121 119
f 109 122 123
f 109 123 110
f 111 124 125
f 111 125 112
f 111 115 124
f 112 126 113
f 112 125 126
f 114 116 115
f 115 127 124
f 117 128 129
f 117 129 130
f 117 130 118
f 119 121 131
f 119 131 132
f 119 132 133
f 119 133 134
f 119 134 135
f 122 136 137
f 122 137 123
f 124 127 125
f 125 138 126
f 126 138 139
f 128 140 141
f 128 141 129
f 134 142 135
f 135 142 143
f 135 143 144
f 136 145 146
f 136 146 137
f 138 147 148
f 138 148 139
f 140 149 141
f 141 149 150
f 143 151 144
f 144 151 152
f 145 153 154
f 145 154 146
f 147 155 148
f 148 155 156
f 149 157 150
f 150 157 158
f 151 159 152
f 152 159 161
f 152 161 160
f 153 162 163
f 153 163 154
f 155 164 156
f 156 164 166
f 156 166 165
f 157 167 168
f 157 168 158
f 160 161 170
f 160 170 171
f 160 171 169
f 162 172 163
f 163 172 173
f 165 166 174
f 166 175 176
f 166 176 174
f 167 177 178
f 167 178 179
f 167 179 168
f 169 171 181
f 169 181 180
f 172 182 183
f 172 183 173
f 175 184 185
f 175 185 186
f 175 186 176
f 177 187 188
f 177 188 178
f 180 181 190
f 180 190 191
f 180 191 189
f 182 192 183
f 183 192 193
f 184 194 195
f 184 195 185
f 187 196 197
f 187 197 188
f 189 191 198
f 191 199 198
f 192 200 193
f 193 200 201
f 194 202 195
f 195 202 203
f 195 203 204
f 196 205 206
f 196 206 197
f 198 199 207
f 199 208 209
f 199 209 207
f 200 210 201
f 201 210 211
f 203 212 204
f 203 213 214
f 203 214 215
f 203 215 212
f 205 216 217
f 205 217 206
f 208 218 219
f 208 219 209
f 210 220 211
f 211 220 221
f 211 221 222
f 213 223 224
f 213 224 214
f 216 225 217
f 217 225 226
f 218 227 228
f 218 228 219
f 221 229 223
f 221 223 222
f 223 229 224
f 225 230 226
f 226 230 231
f 227 232 233
f 227 233 228
f 230 234 235
f 230 235 231
f 232 236 233
f 233 236 237
f 234 238 239
f 234 239 235
f 236 240 237
f 237 240 241
f 237 241 242
f 238 243 244
f 238 244 245
f 238 245 239
f 241 246 247
f 241 247 242
f 243 248 244
f 244 248 249
f 246 250 247
f 247 250 251
f 248 252 249
f 249 252 253
f 250 254 251
f 251 254 253
f 251 253 252
