# Derived from Apache-2.0 SO-ARM100 STL; see THIRD_PARTY.md
v -0.00999999937 -0.00734857464 -0.0229993904
v -0.00999999937 -0.00734857464 -0.0189005453
v -0.00999999937 -1.65558781e-06 -0.0229993904
v -0.00999608497 -0.00734857464 -0.0230862269
v -0.00999412743 -0.00764295433 -0.0230862269
v -0.00999804183 -0.00763042496 -0.0229993904
v -0.00999804183 -0.0198001299 -0.0194789248
v -0.00999804183 -0.0201226938 -0.0193713752
v -0.00999804183 -0.0204327297 -0.0192351451
v -0.00999804183 -0.0205110217 -0.0191945152
v -0.00999804183 -0.0205830505 -0.0191475122
v -0.00999804183 -0.0206488159 -0.0190949328
v -0.00999804183 -0.020711449 -0.0190351825
v -0.00999804183 -0.0207709512 -0.0189706522
v -0.00999804183 -0.0208210576 -0.0189029361
v -0.00999804183 -0.0208680332 -0.0188304399
v -0.00999804183 -0.0209087454 -0.0187523658
v -0.00999804183 -0.0209400619 -0.0186734966
v -0.00999804183 -0.0209651152 -0.0185914402
v -0.00999804183 -0.0209839051 -0.0185069932
v -0.00999804183 -0.0209932994 -0.0184217496
v -0.00999804183 -0.0209964317 -0.0183357096
v -0.00999999937 -1.65558781e-06 -0.0189005453
v -0.00999804183 -0.0209964317 -0.0158612676
v -0.00997063693 0.000743682436 -0.0229993904
v -0.00999608497 -1.65558781e-06 -0.0230862269
v -0.00998433972 -0.00734857464 -0.0231730633
v -0.00998238218 -0.00765234724 -0.0231730633
v -0.00998238218 -0.0198471054 -0.0196462247
v -0.00999412743 -0.0198220521 -0.0195633719
v -0.00999412743 -0.0201540103 -0.0194526351
v -0.00999412743 -0.0204734419 -0.0193140157
v -0.00999412743 -0.0205548649 -0.0192694021
v -0.00999412743 -0.020633157 -0.0192184155
v -0.00999412743 -0.0207051857 -0.019161056
v -0.00999412743 -0.0207740821 -0.0190965257
v -0.00999412743 -0.0208367166 -0.0190264188
v -0.00999412743 -0.0208930864 -0.0189515319
v -0.00999412743 -0.0209431929 -0.0188726627
v -0.00999412743 -0.0209870361 -0.0187898099
v -0.00999412743 -0.0210214849 -0.0187021757
v -0.00999412743 -0.0210496705 -0.0186129499
v -0.00999412743 -0.0210684605 -0.0185221298
v -0.00999412743 -0.0210809871 -0.0184297169
v -0.00999412743 -0.021084118 -0.0183357096
v -0.00999608497 -0.0210778547 -0.0158612676
v -0.00996280677 0.00085329105 -0.0189005453
v -0.00999804183 -0.0162738602 -0.0158612676
v -0.00999804183 -0.00742999904 -0.0174012221
v -0.00996672185 0.000740551467 -0.0230862269
v -0.00996280677 0.00085329105 -0.0229993904
v -0.00995693414 0.000740551467 -0.0231730633
v -0.00998433972 -1.65558781e-06 -0.0231730633
v -0.00996476431 -0.00734857464 -0.0232583068
v -0.00996280677 -0.00766800757 -0.0232583068
v -0.00996280677 -0.0198690276 -0.0197274846
v -0.00998238218 -0.0201853269 -0.019533895
v -0.00998238218 -0.0205110217 -0.0193920884
v -0.00998238218 -0.0205987081 -0.019344289
v -0.00998238218 -0.0206832635 -0.0192885224
v -0.00998238218 -0.0207615555 -0.019225585
v -0.00998238218 -0.0208367166 -0.0191570724
v -0.00998238218 -0.020905613 -0.019081389
v -0.00998238218 -0.0209651152 -0.0190009256
v -0.00998238218 -0.021018354 -0.0189148856
v -0.00998238218 -0.0210653281 -0.0188256598
v -0.00998238218 -0.0211029093 -0.0187316526
v -0.00998238218 -0.0211310936 -0.018635256
v -0.00998238218 -0.0211530158 -0.0185372665
v -0.00998238218 -0.0211655425 -0.0184360898
v -0.00998238218 -0.0211718058 -0.0183357096
v -0.00998433972 -0.0211655425 -0.0158612676
v -0.00985318581 0.00169884478 -0.0189005453
v -0.00988842156 0.00147962755 -0.0229993904
v -0.00958109166 -0.0155473107 -0.0158612676
v -0.00871391176 0.0049025533 -0.0189005453
v -0.00909954263 0.00414155494 -0.0189005453
v -0.00942057532 0.00334923866 -0.0189005453
v -0.00967309474 0.00253187189 -0.0189005453
v -0.00988450648 0.00147962755 -0.0230862269
v -0.00993735941 0.000740551467 -0.0232583068
v -0.00987276123 0.00147649658 -0.0231730633
v -0.00985514336 0.00147336561 -0.0232583068
v -0.00996476431 -1.65558781e-06 -0.0232583068
v -0.00993931695 -0.00767740048 -0.0233411596
v -0.00993931695 -0.0198940809 -0.0198087445
v -0.00996280677 -0.0202135124 -0.0196119677
v -0.00996280677 -0.0205486016 -0.0194677718
v -0.00996280677 -0.0206425526 -0.0194167852
v -0.00996280677 -0.0207333713 -0.019357035
v -0.00996280677 -0.0208179267 -0.0192901153
v -0.00996280677 -0.0208962174 -0.0192160248
v -0.00996280677 -0.0209713785 -0.0191363592
v -0.00996280677 -0.0210340116 -0.0190495228
v -0.00996280677 -0.0210935137 -0.0189579062
v -0.00996280677 -0.0211436202 -0.0188615097
v -0.00996280677 -0.0211812014 -0.0187611295
v -0.00996280677 -0.0212156489 -0.0186575635
v -0.00996280677 -0.0212375712 -0.0185516067
v -0.00996280677 -0.0212500978 -0.0184448535
v -0.00996280677 -0.0212563611 -0.0183357096
v -0.00996476431 -0.0212500978 -0.0158612676
v -0.00975139503 0.00220930799 -0.0229993904
v -0.00985318581 0.00169884478 -0.0229993904
v -0.00871195491 -0.0140472363 -0.0158612676
v -0.00826368339 0.00562910002 -0.0189005453
v -0.00871391176 0.0049025533 -0.0223994999
v -0.00909954263 0.00414155494 -0.0223994999
v -0.00942057532 0.00334923866 -0.0223994999
v -0.00962024181 0.00272916684 -0.0223994999
v -0.00967309474 0.00253187189 -0.0229993904
v -0.00974747995 0.00220930799 -0.0230862269
v -0.00991191137 0.000737420497 -0.0233411596
v -0.00993931695 -1.65558781e-06 -0.0233411596
v -0.00973573538 0.00220617702 -0.0231730633
v -0.00971811751 0.00220304605 -0.0232583068
v -0.009829696 0.0014702319 -0.0233411596
v -0.00990408121 -0.0076899271 -0.0234224195
v -0.00990603875 -0.00734857464 -0.0234216217
v -0.00990408121 -0.0199160032 -0.0198852243
v -0.00993931695 -0.020244829 -0.0196908383
v -0.00993931695 -0.0205830505 -0.0195434552
v -0.00993931695 -0.0206863958 -0.019488485
v -0.00993931695 -0.0207834778 -0.0194255489
v -0.00993931695 -0.0208742965 -0.0193530513
v -0.00993931695 -0.0209588518 -0.0192749786
v -0.00993931695 -0.0210340116 -0.0191881422
v -0.00993931695 -0.0211029093 -0.0190965257
v -0.00993931695 -0.0211655425 -0.0189993327
v -0.00993931695 -0.0212156489 -0.0188965631
v -0.00993931695 -0.0212626244 -0.0187882156
v -0.00993931695 -0.0212970733 -0.0186790731
v -0.00993931695 -0.0213189942 -0.018565947
v -0.00993931695 -0.0213346532 -0.0184512265
v -0.00993931695 -0.0213409165 -0.0183357096
v -0.00993931695 -0.0213409165 -0.0158612676
v 0.00530189799 -0.0140472363 -0.0158612676
v -0.000325958834 0.00999466423 -0.0189005453
v -0.00117747797 0.00992889742 -0.0189005453
v -0.00202116712 0.00979110185 -0.0189005453
v -0.00284919602 0.00958128027 -0.0189005453
v -0.00365765002 0.00930256091 -0.0189005453
v -0.00443869844 0.00895807748 -0.0189005453
v -0.00518646934 0.00854782724 -0.0189005453
v -0.0058970473 0.00807181018 -0.0189005453
v -0.00656260248 0.0075394247 -0.0189005453
v -0.00718509244 0.00695067081 -0.0189005453
v -0.00775277193 0.0063149414 -0.0189005453
v -0.00826368339 0.00562910002 -0.0223994999
v -0.00952432365 0.00271664022 -0.0234216217
v -0.00953411135 0.00271664022 -0.0234009085
v -0.00957130396 0.0027229049 -0.0233069026
v -0.00958500675 0.0027229049 -0.0232583068
v -0.00960653902 0.00272603587 -0.0231555359
v -0.00961632672 0.00272603587 -0.0230862269
v -0.00962024181 0.00272916684 -0.0229993904
v -0.00987863385 0.000737420497 -0.0234216217
v -0.00990603875 -1.65558781e-06 -0.0234216217
v -0.00959087869 0.0027229049 -0.0232320143
v -0.00969266947 0.00219678137 -0.0233411596
v -0.0097964178 0.00146710093 -0.0234216217
v -0.00986297352 -0.00769932275 -0.0234996958
v -0.00986493106 -0.00734857464 -0.0234996958
v -0.00986297352 -0.0199379241 -0.0199577205
v -0.00986297352 -0.0203011988 -0.0198382214
v -0.00990408121 -0.0202730132 -0.0197649274
v -0.00990408121 -0.020617498 -0.0196159514
v -0.00990408121 -0.020727108 -0.0195577954
v -0.00990408121 -0.020827321 -0.0194900779
v -0.00990408121 -0.020924403 -0.0194143945
v -0.00990408121 -0.0210152216 -0.0193307452
v -0.00990408121 -0.021096646 -0.0192391287
v -0.00990408121 -0.0211686734 -0.0191427322
v -0.00990408121 -0.0212344389 -0.0190375719
v -0.00990408121 -0.02129081 -0.0189292258
v -0.00990408121 -0.0213377842 -0.0188160996
v -0.00990408121 -0.0213722331 -0.0186997863
v -0.00990408121 -0.0214004186 -0.0185794894
v -0.00990408121 -0.0214160762 -0.0184575995
v -0.00990408121 -0.0214192086 -0.0183357096
v -0.00990408121 -0.0214192086 -0.0158612676
v 0.00544088138 -0.0140503686 -0.0158612676
v 0.000525560393 0.00998213487 -0.0189005453
v -0.000325958834 0.00999466423 -0.0223994999
v -0.00117747797 0.00992889742 -0.0223994999
v -0.00202116712 0.00979110185 -0.0223994999
v -0.00284919602 0.00958128027 -0.0223994999
v -0.00365765002 0.00930256091 -0.0223994999
v -0.00443869844 0.00895807748 -0.0223994999
v -0.00518646934 0.00854782724 -0.0223994999
v -0.0058970473 0.00807181018 -0.0223994999
v -0.00656260248 0.0075394247 -0.0223994999
v -0.00718509244 0.00695067081 -0.0223994999
v -0.00775277193 0.0063149414 -0.0223994999
v -0.00940295745 0.0027041136 -0.0236168056
v -0.0094147027 0.0027041136 -0.023602464
v -0.00943623497 0.00270724457 -0.0235729885
v -0.00945972546 0.00271037828 -0.0235387315
v -0.00949887561 0.00271350925 -0.0234718132
v -0.00965939195 0.00219051943 -0.0234216217
v -0.00983752617 0.000731155816 -0.0234996958
v -0.00986493106 -1.65558781e-06 -0.0234996958
v -0.00975531011 0.00146083625 -0.0234996958
v -0.00962024181 0.00218112378 -0.0234996958
v -0.00981795075 -0.00771184937 -0.0235729885
v -0.00981795075 -0.019956714 -0.0200286239
v -0.00981795075 -0.0203293844 -0.0199059375
v -0.00981795075 -0.0206863958 -0.0197521814
v -0.00986297352 -0.0206519469 -0.0196860582
v -0.00986297352 -0.0207678188 -0.0196247151
v -0.00986297352 -0.0208742965 -0.0195538118
v -0.00986297352 -0.0209745094 -0.0194733483
v -0.00986297352 -0.0210684605 -0.0193857154
v -0.00986297352 -0.0211561468 -0.0192893188
v -0.00986297352 -0.0212344389 -0.0191865493
v -0.00986297352 -0.0213002043 -0.0190766089
v -0.00986297352 -0.0213597064 -0.0189610921
v -0.00986297352 -0.0214098129 -0.0188423894
v -0.00986297352 -0.0214473928 -0.0187197031
v -0.00986297352 -0.0214755784 -0.0185930331
v -0.00986297352 -0.0214912373 -0.0184655667
v -0.00986297352 -0.0214975006 -0.0183357096
v -0.0098668886 -0.0214912373 -0.0158612676
v 0.00558377985 -0.0140660262 -0.0158612676
v 0.00137512208 0.00990071321 -0.0189005453
v 0.000525560393 0.00998213487 -0.0223994999
v -0.0011442002 0.00673771552 -0.0240000012
v -0.00123033091 0.00673458455 -0.0240000012
v -0.00131646153 0.00672205793 -0.0240000012
v -0.0014006347 0.00670326937 -0.0240000012
v -0.00148285042 0.00667821613 -0.0240000012
v -0.00156310842 0.00664689821 -0.0240000012
v -0.00163945151 0.00660618738 -0.0240000012
v -0.00887051302 0.00264774244 -0.0239649464
v -0.00893706875 0.00265400712 -0.023945031
v -0.00901341218 0.00266340277 -0.0239163505
v -0.00908583984 0.00266966471 -0.0238812985
v -0.00915631065 0.00267906036 -0.0238398721
v -0.00918958817 0.00268219133 -0.0238183611
v -0.00923461094 0.00268845601 -0.023785697
v -0.00929529404 0.00269158698 -0.0237339154
v -0.00932269962 0.00269471795 -0.0237068278
v -0.00935010451 0.00269784892 -0.0236781474
v -0.00952236611 0.0021592015 -0.0236422975
v -0.00957521904 0.00216859715 -0.0235729885
v -0.00971028734 0.00145144334 -0.0235729885
v -0.00979054586 0.000728024846 -0.0235729885
v -0.00981795075 -1.65558781e-06 -0.0235729885
v -0.00976509782 -0.00772124502 -0.0236415024
v -0.00976509782 -0.0199786363 -0.0200947471
v -0.00976509782 -0.00734857464 -0.0236422975
v -0.00976509782 -0.0203513053 -0.0199696714
v -0.00976509782 -0.02071458 -0.019814321
v -0.00976509782 -0.0208398476 -0.0197474014
v -0.00981795075 -0.0208053987 -0.0196868547
v -0.00981795075 -0.0209181396 -0.019613562
v -0.00981795075 -0.0210246173 -0.0195291149
v -0.00981795075 -0.0211216993 -0.019436702
v -0.00981795075 -0.021212518 -0.0193355253
v -0.00981795075 -0.021293941 -0.0192279757
v -0.00981795075 -0.0213659697 -0.0191124588
v -0.00981795075 -0.0214286028 -0.0189929597
v -0.00981795075 -0.0214787107 -0.0188670862
v -0.00981795075 -0.0215194215 -0.0187372291
v -0.00981795075 -0.0215476071 -0.0186049826
v -0.00981795075 -0.021566397 -0.0184711433
v -0.00981795075 -0.0215726604 -0.0183357096
v -0.00981795075 -0.0215726604 -0.0158612676
v 0.005726679 -0.0140848161 -0.0158612676
v 0.00137512208 0.00990071321 -0.0223994999
v 0.00221489623 0.00974726005 -0.0189005453
v -0.00105806949 0.00673458455 -0.0240000012
v -0.00860820658 0.00261955823 -0.0240000012
v -0.00868650687 0.00262895388 -0.0239968154
v -0.0087667647 0.00263521856 -0.0239872552
v -0.00884506567 0.00264461147 -0.0239713207
v -0.00902907183 0.00204646192 -0.0239649464
v -0.00910933034 0.00206525048 -0.0239394545
v -0.00918763063 0.00208404178 -0.0239059953
v -0.00903690199 0.00266340277 -0.0239059953
v -0.00926397406 0.00209969937 -0.023865364
v -0.00933444418 0.00211535696 -0.0238183611
v -0.00940295745 0.00213101729 -0.0237657816
v -0.00946559809 0.00214667488 -0.0237068278
v -0.00965743441 0.00144517866 -0.0236422975
v -0.00973769292 0.000724893877 -0.0236422975
v -0.00976509782 -1.65558781e-06 -0.0236422975
v -0.00970441472 -0.00773064067 -0.0237060327
v -0.00970441472 -0.0199942939 -0.0201576845
v -0.00970637226 -0.00734857464 -0.0237068278
v -0.00970441472 -0.0203763599 -0.0200302181
v -0.00970441472 -0.0207427656 -0.0198708841
v -0.00970441472 -0.0208742965 -0.0198023715
v -0.00976509782 -0.0209588518 -0.0196685308
v -0.00976509782 -0.0210684605 -0.0195808979
v -0.00976509782 -0.0211718058 -0.0194845014
v -0.00976509782 -0.0212657554 -0.0193801389
v -0.00976509782 -0.0213503108 -0.0192662149
v -0.00976509782 -0.0214254719 -0.0191475122
v -0.00976509782 -0.0214912373 -0.0190208423
v -0.00976509782 -0.0215444761 -0.0188901887
v -0.00976509782 -0.021585187 -0.0187555529
v -0.00976509782 -0.0216165035 -0.01861773
v -0.00976509782 -0.0216352948 -0.0184767198
v -0.00976509782 -0.0216384258 -0.0183357096
v -0.00976509782 -0.0216384258 -0.0158612676
v 0.00586957747 -0.0141161327 -0.0158612676
v 0.00221489623 0.00974726005 -0.0223994999
v -0.000973896404 0.00672205793 -0.0240000012
v 0.00303901022 0.00952177814 -0.0189005453
v -0.0087765524 0.00199009076 -0.0240000012
v -0.008860726 0.00200888206 -0.0239952197
v -0.00894489891 0.00202767062 -0.0239840667
v -0.00907213774 0.00135749232 -0.0239840667
v -0.00915631065 0.00137001894 -0.0239649464
v -0.00923852602 0.00138254556 -0.0239394545
v -0.00931682699 0.00139194121 -0.0239059953
v -0.00939512728 0.00140446783 -0.023865364
v -0.00946755563 0.00141699445 -0.0238183611
v -0.00953606821 0.0014263901 -0.0237657816
v -0.00959870885 0.00143578301 -0.0237068278
v -0.00967896737 0.000721760165 -0.0237068278
v -0.00970637226 -1.65558781e-06 -0.0237068278
v -0.00967505228 -0.00773377164 -0.0237363061
v -0.00963981654 -0.0200130852 -0.0202142476
v -0.00967700982 -0.00734857464 -0.0237347104
v -0.00963981654 -0.0203982808 -0.0200843905
v -0.00963981654 -0.0207709512 -0.0199250578
v -0.00963981654 -0.0209024807 -0.0198517638
v -0.00963981654 -0.0210277483 -0.019768911
v -0.00970441472 -0.0209932994 -0.0197219081
v -0.00970441472 -0.0211123036 -0.019631088
v -0.00970441472 -0.0212187813 -0.0195299114
v -0.00970441472 -0.0213158633 -0.0194207688
v -0.00970441472 -0.0214035496 -0.0193036591
v -0.00970441472 -0.0214818417 -0.019178582
v -0.00970441472 -0.0215507395 -0.0190479285
v -0.00970441472 -0.0216039769 -0.0189124962
v -0.00970441472 -0.0216478214 -0.0187714861
v -0.00970441472 -0.021679138 -0.018628883
v -0.00970441472 -0.0216979279 -0.0184822963
v -0.00970441472 -0.0217041912 -0.0183357096
v -0.0097083298 -0.0217010589 -0.0158612676
v 0.0059870279 -0.0141505816 -0.0158612676
v 0.00303901022 0.00952177814 -0.0223994999
v -0.000889723235 0.00670326937 -0.0240000012
v 0.00601443348 -0.0141599772 -0.0158612676
v 0.0061592895 -0.0142100837 -0.0158612676
v 0.00384159125 0.00923053216 -0.0189005453
v -0.00889987615 0.00132930811 -0.0240000012
v -0.0089860066 0.0013449657 -0.0239952197
v -0.00906039249 0.000674787395 -0.0239952197
v -0.00914652294 0.000681049335 -0.0239840667
v -0.0092326534 0.000687311274 -0.0239649464
v -0.00931486945 0.000693575955 -0.0239394545
v -0.00939512728 0.000699840636 -0.0239059953
v -0.00947342825 0.000706102575 -0.023865364
v -0.00954585592 0.000709233545 -0.0238183611
v -0.00961436918 0.000715498226 -0.0237657816
v -0.00964177408 -1.65558781e-06 -0.0237657816
v -0.00963981654 -0.00773690261 -0.0237657816
v -0.00964177408 -0.00734857464 -0.0237657816
v -0.00960653902 -0.00774003632 -0.0237928692
v -0.0095732615 -0.0200256118 -0.0202652341
v -0.0095732615 -0.0204139397 -0.0201337841
v -0.0095732615 -0.0207928721 -0.0199712643
v -0.0095732615 -0.0209306663 -0.0198987681
v -0.0095732615 -0.0210621971 -0.0198127281
v -0.00963981654 -0.0211498835 -0.0196757016
v -0.00963981654 -0.0212594921 -0.0195705413
v -0.00963981654 -0.0213628388 -0.0194582116
v -0.00963981654 -0.0214536575 -0.0193363218
v -0.00963981654 -0.0215350805 -0.0192080589
v -0.00963981654 -0.0216039769 -0.0190726253
v -0.00963981654 -0.0216603481 -0.018932413
v -0.00963981654 -0.0217073222 -0.0187866227
v -0.00963981654 -0.0217386401 -0.0186384432
v -0.00963981654 -0.0217574301 -0.0184870764
v -0.00963981654 -0.0217636934 -0.0183357096
v -0.00964373162 -0.021760561 -0.0158612676
v 0.00384159125 0.00923053216 -0.0223994999
v -0.000807507522 0.00667821613 -0.0240000012
v 0.00630218797 -0.0142695858 -0.0158612676
v 0.00461480985 0.00886725743 -0.0189005453
v -0.00897426135 0.000668522714 -0.0240000012
v -0.00899970939 -1.65558781e-06 -0.0240000012
v -0.00908583984 -1.65558781e-06 -0.0239952197
v -0.00917197098 -1.65558781e-06 -0.0239840667
v -0.00925810143 -1.65558781e-06 -0.0239649464
v -0.00934031681 -1.65558781e-06 -0.0239394545
v -0.00942253286 -1.65558781e-06 -0.0239059953
v -0.00949887561 -1.65558781e-06 -0.023865364
v -0.0095732615 -1.65558781e-06 -0.0238183611
v -0.0096104541 -0.00734857464 -0.0237912735
v -0.0095732615 -0.00774629826 -0.023817566
v -0.00953411135 -0.00774942923 -0.0238430579
v -0.00949887561 -0.0200412694 -0.0203106442
v -0.00949887561 -0.0204327297 -0.0201783977
v -0.00949887561 -0.020811662 -0.0200126907
v -0.00949887561 -0.0209557195 -0.0199362109
v -0.00949887561 -0.0210872504 -0.0198501709
v -0.00949887561 -0.0212156489 -0.019751385
v -0.0095732615 -0.0211843324 -0.0197155351
v -0.0095732615 -0.0212970733 -0.0196087819
v -0.0095732615 -0.0214004186 -0.0194924686
v -0.0095732615 -0.0214975006 -0.0193665951
v -0.0095732615 -0.0215789237 -0.0192343487
v -0.0095732615 -0.0216509524 -0.0190949328
v -0.0095732615 -0.0217104545 -0.0189491425
v -0.0095732615 -0.0217574301 -0.018800963
v -0.0095732615 -0.0217918776 -0.0186480033
v -0.0095732615 -0.0218106689 -0.0184918565
v -0.0095732615 -0.0218169322 -0.0183357096
v -0.0095732615 -0.0218169322 -0.0158612676
v 0.00461480985 0.00886725743 -0.0223994999
v 0.0098492058 0.0017113714 -0.0240000012
v -0.000727249436 0.00664689821 -0.0240000012
v 0.00644312958 -0.0143416146 -0.0158612676
v 0.00648815235 -0.0143666678 -0.0158612676
v 0.00535475092 0.0084413496 -0.0189005453
v -0.00899970939 -0.0077713515 -0.0240000012
v -0.00904473216 -0.00735170835 -0.0239984083
v -0.00908583984 -0.00776822053 -0.0239952197
v -0.00912890507 -0.00776822053 -0.0239912388
v -0.00917197098 -0.00734857464 -0.0239840667
v -0.00921307867 -0.00776822053 -0.0239761022
v -0.00921699375 -0.00734857464 -0.0239753043
v -0.00925810143 -0.00776508956 -0.0239649464
v -0.00929920912 -0.00776508956 -0.0239529982
v -0.00934031681 -0.00776195585 -0.0239394545
v -0.00946364055 -0.00734857464 -0.0238852821
v -0.00942253286 -0.00775882488 -0.0239059953
v -0.00949887561 -0.00734857464 -0.023865364
v -0.00953802575 -0.00734857464 -0.023841465
v -0.0095732615 -0.00734857464 -0.0238183611
v -0.00949887561 -0.00775256294 -0.0238645689
v -0.00945972546 -0.00775569391 -0.023886875
v -0.00942253286 -0.020050665 -0.0203480869
v -0.00942253286 -0.0204483873 -0.020215044
v -0.00942253286 -0.0208304533 -0.0200485406
v -0.00942253286 -0.0209745094 -0.0199712643
v -0.00942253286 -0.0211123036 -0.0198836314
v -0.00942253286 -0.0212407022 -0.0197816583
v -0.00942253286 -0.0213597064 -0.0196685308
v -0.00949887561 -0.0213315209 -0.0196406482
v -0.00949887561 -0.0214379985 -0.0195219455
v -0.00949887561 -0.0215350805 -0.0193928848
v -0.00949887561 -0.0216196359 -0.0192574526
v -0.00949887561 -0.0216916646 -0.0191140517
v -0.00949887561 -0.0217542977 -0.0189650757
v -0.00949887561 -0.0218012732 -0.018812116
v -0.00949887561 -0.0218357221 -0.0186551727
v -0.00949887561 -0.021857643 -0.0184966366
v -0.00949887561 -0.0218639063 -0.0183357096
v -0.00949887561 -0.0218639063 -0.0158612676
v 0.00535475092 0.0084413496 -0.0223994999
v 0.00948510789 0.00315820565 -0.0223994999
v 0.00972196766 0.0023377079 -0.0223994999
v 0.0098492058 0.0017113714 -0.0223994999
v 0.00988444155 0.00150154982 -0.0240000012
v 0.00605554117 0.00795280592 -0.0223994999
v 0.00671326619 0.00740789656 -0.0223994999
v 0.00732205405 0.0068066133 -0.0223994999
v 0.00787798828 0.00615522356 -0.0223994999
v 0.00837519696 0.00545999202 -0.0223994999
v 0.00880976568 0.00472717787 -0.0223994999
v 0.00918169307 0.00395678386 -0.0223994999
v 0.00658407051 -0.0144230376 -0.0158612676
v 0.00671913882 -0.0145138563 -0.0158612676
v 0.00605554117 0.00795280592 -0.0189005453
v 0.00723200782 -0.0077713515 -0.0240000012
v 0.00617299229 -0.0198220521 -0.0205129975
v -0.00899970939 -0.0200757183 -0.020438907
v -0.00904277462 -0.0077713515 -0.0239984083
v -0.00908583984 -0.0200757183 -0.0204341269
v -0.00917197098 -0.0200725859 -0.0204237703
v -0.00925810143 -0.0200663226 -0.0204054465
v -0.00934031681 -0.0200600593 -0.020380751
v -0.00934031681 -0.0204577829 -0.0202461138
v -0.00934031681 -0.0208429799 -0.020078814
v -0.00934031681 -0.0209932994 -0.0200007412
v -0.00934031681 -0.0211310936 -0.0199107176
v -0.00934031681 -0.0212626244 -0.0198071516
v -0.00934031681 -0.0213847597 -0.0196924312
v -0.00942253286 -0.0214693151 -0.019546641
v -0.00942253286 -0.0215695294 -0.0194167852
v -0.00942253286 -0.0216572157 -0.0192765715
v -0.00942253286 -0.0217292445 -0.0191315791
v -0.00942253286 -0.0217918776 -0.0189794159
v -0.00942253286 -0.0218419854 -0.0188224726
v -0.00942253286 -0.021876433 -0.01866314
v -0.00942253286 -0.0218952229 -0.0184998237
v -0.00942253286 -0.0219046185 -0.0183357096
v -0.00942253286 -0.0219046185 -0.0158612676
v 0.00967890244 0.002497423 -0.0203998699
v 0.00948510789 0.00315820565 -0.0189005453
v 0.00972196766 0.0023377079 -0.0203998699
v 0.00988444155 0.00150154982 -0.0203998699
v 0.00997644463 0.000652865124 -0.0240000012
v 0.00671326619 0.00740789656 -0.0189005453
v 0.00732205405 0.0068066133 -0.0189005453
v 0.00787798828 0.00615522356 -0.0189005453
v 0.00837519696 0.00545999202 -0.0189005453
v 0.00880976568 0.00472717787 -0.0189005453
v 0.00918169307 0.00395678386 -0.0189005453
v 0.00685420781 -0.0146109383 -0.0158612676
v 0.00729660601 -0.00776822053 -0.0240000012
v 0.0067563321 -0.013555563 -0.0223262073
v 0.00610643656 -0.0201414837 -0.0204181938
v 0.00607511658 -0.0199942939 -0.0204628074
v 0.00627282553 -0.0195370695 -0.0205950538
v 0.006415724 -0.0193491688 -0.0206468368
v 0.00646270431 -0.0196936536 -0.0205408801
v 0.00601639103 -0.0200757183 -0.020438907
v 0.00599485807 -0.020147747 -0.0204173973
v 0.00598311351 -0.0201821945 -0.0204070407
v 0.00594787776 -0.0202886722 -0.0203727838
v -0.00899970939 -0.0204797052 -0.0203026769
v -0.00908583984 -0.0204797052 -0.0202994911
v -0.00917197098 -0.0204765728 -0.0202883367
v -0.00925810143 -0.0204671786 -0.0202708107
v -0.00925810143 -0.0208555065 -0.0201035108
v -0.00925810143 -0.0210058274 -0.0200222509
v -0.00925810143 -0.0211467525 -0.0199306344
v -0.00925810143 -0.0212814144 -0.0198262705
v -0.00925810143 -0.0214035496 -0.0197115515
v -0.00925810143 -0.0215162906 -0.0195848816
v -0.00934031681 -0.0214943683 -0.0195689484
v -0.00934031681 -0.0215945826 -0.0194343112
v -0.00934031681 -0.0216854013 -0.0192940989
v -0.00934031681 -0.021760561 -0.0191443251
v -0.00934031681 -0.0218231955 -0.018990569
v -0.00934031681 -0.021873302 -0.0188312363
v -0.00934031681 -0.0219077509 -0.0186687165
v -0.00934031681 -0.0219296718 -0.0185022131
v -0.00934031681 -0.0219359351 -0.0183357096
v -0.00934618943 -0.0219359351 -0.0158612676
v 0.00967890244 0.002497423 -0.0189005453
v 0.00796411874 -0.0161799105 -0.0158612676
v 0.0079993538 -0.0162801235 -0.0158612676
v 0.00802088675 -0.0163458889 -0.0158612676
v 0.00804046217 -0.0164116544 -0.0158612676
v 0.00997644463 0.000652865124 -0.0203998699
v 0.0099979769 -0.000202084255 -0.0240000012
v 0.00698536103 -0.0147205469 -0.0158612676
v 0.00711259985 -0.0148364202 -0.0158612676
v 0.00723200782 -0.0149648174 -0.0158612676
v 0.00734945894 -0.0150963483 -0.0158612676
v 0.00741014204 -0.0151715094 -0.0158612676
v 0.00745907989 -0.0152372748 -0.0158612676
v 0.00749235741 -0.0152842503 -0.0158612676
v 0.00757261593 -0.0154001209 -0.0158612676
v 0.00765678884 -0.0155347841 -0.0158612676
v 0.00774487683 -0.0156913669 -0.0158612676
v 0.00778207012 -0.0157602646 -0.0158612676
v 0.00782709289 -0.0158510833 -0.0158612676
v 0.00784471008 -0.0158886632 -0.0158612676
v 0.00790343564 -0.0160264574 -0.0158612676
v 0.00736511927 -0.00775882488 -0.0240000012
v 0.00632567846 -0.0200099528 -0.0204492636
v 0.00619452456 -0.0202041168 -0.020393497
v 0.00606728642 -0.020244829 -0.0203839368
v 0.00642551171 -0.0198001299 -0.0205098103
v 0.00651555724 -0.0194681731 -0.0206054104
v 0.00743950448 -0.00774316729 -0.0240000012
v 0.00664279607 -0.0193585631 -0.0206253272
v 0.00671326619 -0.0196216248 -0.0205345071
v 0.00667998867 -0.0197468924 -0.0204986572
v 0.0066349659 -0.0198690276 -0.0204636038
v 0.00615341687 -0.0203074621 -0.02035924
v 0.00593221811 -0.0203356477 -0.0203568506
v 0.0059126427 -0.0203920175 -0.0203369339
v 0.00587153501 -0.0205047584 -0.020294711
v 0.00580302175 -0.0206863958 -0.0202190277
v -0.00899970939 -0.0208711641 -0.0201337841
v -0.00908583984 -0.0208711641 -0.0201298005
v -0.00917197098 -0.0208649008 -0.0201194439
v -0.00917197098 -0.0210152216 -0.020038184
v -0.00917197098 -0.0211592791 -0.019945771
v -0.00917197098 -0.02129081 -0.0198406108
v -0.00917197098 -0.0214160762 -0.019723501
v -0.00917197098 -0.0215319482 -0.0195968311
v -0.00925810143 -0.0216165035 -0.0194494479
v -0.00925810143 -0.0217073222 -0.0193060484
v -0.00925810143 -0.0217856143 -0.0191562759
v -0.00925810143 -0.0218482487 -0.0190001291
v -0.00925810143 -0.0218983552 -0.0188376093
v -0.00925810143 -0.0219328041 -0.0186727001
v -0.00925810143 -0.0219578574 -0.0185054003
v -0.00925810143 -0.0219641207 -0.0183357096
v -0.00926397406 -0.0219641207 -0.0158612676
v 0.0099979769 -0.000202084255 -0.0203998699
v 0.00806786706 -0.0165149983 -0.0158612676
v 0.00810897475 -0.0166872414 -0.0158612676
v 0.00814029541 -0.0168500888 -0.0158612676
v 0.00815595506 -0.0169565665 -0.0158612676
v 0.00816182768 -0.0170129363 -0.0158612676
v 0.00816965785 -0.0170912283 -0.0158612676
v 0.00817748801 -0.0171789147 -0.0158612676
v 0.00818531818 -0.0173386298 -0.0158612676
v 0.00818531818 -0.0174983462 -0.0158612676
v 0.0081814031 -0.0176298771 -0.0158612676
v 0.00994316711 -0.00105389992 -0.0240000012
v 0.00638048894 -0.0199066075 -0.0204787405
v 0.00658211297 -0.0199880305 -0.0204285504
v 0.00651947233 -0.0201039038 -0.0203950899
v 0.00644900221 -0.0202166434 -0.0203632236
v 0.00637070123 -0.0203231211 -0.0203321538
v 0.00713608966 -0.0120648842 -0.0227460506
v 0.00751780545 -0.00772124502 -0.0240000012
v 0.0067563321 -0.0193648264 -0.0206077998
v 0.00674067177 -0.0194932263 -0.0205711535
v 0.00758827557 -0.00769619178 -0.0240000012
v 0.00693250809 -0.0196529414 -0.0204795369
v 0.00689140041 -0.0197938666 -0.0204397034
v 0.00684246256 -0.0199316607 -0.0204014642
v 0.00632372092 -0.0204264664 -0.0202971004
v 0.00611230919 -0.0204108074 -0.0203225937
v 0.00595179284 -0.0205517339 -0.0202747943
v 0.00586761993 -0.0207396346 -0.0201935344
v 0.00572472146 -0.0208711641 -0.0201337841
v 0.00572472146 -0.0209181396 -0.0201098838
v 0.00572472146 -0.0209557195 -0.020089967
v -0.00899970939 -0.0210214849 -0.0200525242
v -0.00908583984 -0.0210214849 -0.0200477442
v -0.00908583984 -0.0211624101 -0.0199545347
v -0.00908583984 -0.0213002043 -0.0198493745
v -0.00908583984 -0.0214254719 -0.0197322647
v -0.00908583984 -0.0215382115 -0.0196047983
v -0.00908583984 -0.0216415581 -0.0194677718
v -0.00917197098 -0.0216321625 -0.0194613988
v -0.00917197098 -0.0217229812 -0.0193156086
v -0.00917197098 -0.0218012732 -0.0191634454
v -0.00917197098 -0.0218670387 -0.0190057056
v -0.00917197098 -0.0219171452 -0.0188423894
v -0.00917197098 -0.021951594 -0.0186750895
v -0.00917197098 -0.0219766473 -0.0185061967
v -0.00917197098 -0.0219829106 -0.0183357096
v -0.00917197098 -0.0219829106 -0.0158612676
v 0.00994316711 -0.00105389992 -0.0203998699
v 0.00816770031 -0.0177989879 -0.0158612676
v 0.00979048024 -0.00250073691 -0.0203998699
v 0.00845545479 -0.0150932173 -0.0191992952
v 0.00927565438 -0.00734857464 -0.0233084955
v 0.00954774853 -0.00477433633 -0.0239992034
v 0.00941268023 -0.00512821541 -0.0240000012
v 0.00671130865 -0.0201947225 -0.0203265773
v 0.00663300836 -0.0203199887 -0.0202915239
v 0.00645683169 -0.0203794909 -0.0202963039
v 0.00686399483 -0.0193679587 -0.0205870866
v 0.00767636425 -0.00765234724 -0.0240000012
v 0.00777423996 -0.00759910978 -0.0240000012
v 0.00714587737 -0.019681127 -0.0204094301
v 0.0071008546 -0.0198345788 -0.0203672072
v 0.00695991367 -0.0195120162 -0.0205201669
v 0.00704604413 -0.0199880305 -0.0203233901
v 0.0069794884 -0.0201352204 -0.0202819637
v 0.0063550409 -0.0205830505 -0.0202246042
v 0.00627478307 -0.0205266793 -0.0202612505
v 0.00606728642 -0.0205110217 -0.0202859473
v 0.00602422119 -0.0206081037 -0.0202469103
v 0.00593417566 -0.0207960044 -0.0201648539
v 0.00579714912 -0.0208930864 -0.0201218346
v 0.00586957747 -0.0209181396 -0.0201074944
v 0.00580497929 -0.0209776418 -0.0200764246
v 0.00572472146 -0.0210621971 -0.0200286239
v -0.00899970939 -0.0210621971 -0.0200286239
v -0.00899970939 -0.021196859 -0.0199354144
v -0.00899970939 -0.0213221266 -0.0198342378
v -0.00899970939 -0.0214286028 -0.019734654
v -0.00899970939 -0.0214411295 -0.0197211116
v -0.00899970939 -0.0215507395 -0.0195968311
v -0.00899970939 -0.0216446891 -0.0194685682
v -0.00899970939 -0.0217386401 -0.0193235758
v -0.00908583984 -0.0217323768 -0.0193211851
v -0.00908583984 -0.0218106689 -0.0191682254
v -0.00908583984 -0.021876433 -0.0190096893
v -0.00908583984 -0.0219296718 -0.018846373
v -0.00908583984 -0.0219641207 -0.0186782767
v -0.00908583984 -0.0219860416 -0.0185069932
v -0.00908583984 -0.0219954372 -0.0183357096
v -0.00908583984 -0.0219954372 -0.0158612676
v 0.00979048024 -0.00250073691 -0.0203759709
v 0.00813246524 -0.0181403403 -0.0158612676
v 0.00800718396 -0.0193147199 -0.0201027143
v 0.00926390913 -0.00548209449 -0.0240000012
v 0.00690314566 -0.0202761456 -0.0202421302
v 0.00681309943 -0.0204139397 -0.020203891
v 0.00663105082 -0.0204922318 -0.0202142476
v 0.00654296283 -0.020438993 -0.0202564704
v 0.0069794884 -0.0193679587 -0.0205607969
v 0.00789169039 -0.00751768538 -0.0240000012
v 0.00717719735 -0.0195245428 -0.0204540437
v 0.00739056663 -0.0195339371 -0.0203727838
v 0.00735533157 -0.0197030479 -0.0203249844
v 0.00730639371 -0.0198721586 -0.0202779801
v 0.00724571061 -0.0200381384 -0.0202317736
v 0.00708519427 -0.0193679587 -0.0205337107
v 0.00717132472 -0.0201978535 -0.0201879579
v 0.00708715181 -0.0203544376 -0.0201441407
v 0.00643529942 -0.0206362893 -0.0201847707
v 0.00624541995 -0.0207709512 -0.0201473279
v 0.00617299229 -0.0207177123 -0.0201839742
v 0.00622584522 -0.0206237613 -0.0202222135
v 0.0060986064 -0.0206644735 -0.0202158405
v 0.00600073069 -0.0208461109 -0.0201345806
v 0.00606728642 -0.0208993497 -0.0201027143
v 0.00596353809 -0.0209431929 -0.0200875777
v 0.00596549563 -0.0210277483 -0.0200405747
v 0.00588523712 -0.021002695 -0.0200588972
v 0.00588328026 -0.0210903827 -0.0200055213
v 0.00572472146 -0.0211342259 -0.0199808245
v 0.00572472146 -0.0212187813 -0.0199202778
v 0.00572472146 -0.0213221266 -0.0198342378
v 0.00572472146 -0.0213784964 -0.0197832512
v 0.00572472146 -0.0214411295 -0.0197211116
v 0.00572472146 -0.0215225539 -0.019631088
v 0.00572472146 -0.0215507395 -0.0195968311
v 0.00572472146 -0.0216478214 -0.0194661789
v 0.00572472146 -0.0217073222 -0.0193753588
v 0.00572472146 -0.0217355078 -0.0193267616
v 0.00572472146 -0.0218106689 -0.0191817692
v -0.00899970939 -0.0218106689 -0.0191817692
v -0.00899970939 -0.021873302 -0.0190304025
v -0.00899970939 -0.0219234085 -0.0188734592
v -0.00899970939 -0.0219296718 -0.0188471694
v -0.00899970939 -0.0219609883 -0.0187141265
v -0.00899970939 -0.0219672516 -0.0186790731
v -0.00899970939 -0.0219860416 -0.0185524032
v -0.00899970939 -0.0219891739 -0.0185077896
v -0.00899970939 -0.0219985696 -0.0183357096
v -0.00900362447 -0.0219985696 -0.0158612676
v 0.00800718396 -0.0193147199 -0.0158612676
v 0.00797782153 -0.0195276738 -0.0200453548
v 0.00791322334 -0.0193241155 -0.0201640575
v 0.00897615396 -0.00608650872 -0.0240000012
v 0.00912101066 -0.00579526274 -0.0240000012
v 0.00922475899 -0.00557291455 -0.0240000012
v 0.00699123365 -0.0205016261 -0.0201027143
v 0.0068816127 -0.0206488159 -0.0200628808
v 0.00671522373 -0.0205454693 -0.0201672447
v 0.00665454132 -0.0206456836 -0.0201321912
v 0.00651555724 -0.0206895268 -0.0201409536
v 0.00799739625 -0.00743313001 -0.0240000012
v 0.00720068785 -0.0193679587 -0.0204994537
v 0.00730247863 -0.0193648264 -0.0204644003
v 0.00741601467 -0.0193585631 -0.0204197867
v 0.00751389037 -0.0193554321 -0.0203783603
v 0.00759610574 -0.0195370695 -0.0202763872
v 0.00755695559 -0.0197187068 -0.0202254006
v 0.00750410266 -0.0199034752 -0.0201744141
v 0.00743754694 -0.0200788492 -0.0201266147
v 0.00735924665 -0.0202542233 -0.0200780175
v 0.00808940002 -0.00735170835 -0.0240000012
v 0.00726724357 -0.020423334 -0.020031811
v 0.00631980584 -0.02082419 -0.0201082909
v 0.00622193014 -0.021018354 -0.0200150814
v 0.00613579968 -0.0209932994 -0.0200405747
v 0.00605358363 -0.0209713785 -0.0200636773
v 0.00602617873 -0.0209619828 -0.0200716445
v 0.00604966855 -0.0210496705 -0.0200182673
v 0.00596353809 -0.0211123036 -0.019986401
v 0.00587936518 -0.0211749367 -0.0199465675
v 0.00580302175 -0.0211530158 -0.0199648913
v 0.0058754501 -0.0212532288 -0.0198860208
v 0.00587349256 -0.0213315209 -0.0198191011
v 0.00586957747 -0.0214066819 -0.0197489943
v 0.00586566239 -0.0214755784 -0.0196757016
v 0.00600856086 -0.0215037639 -0.0196358681
v 0.00586174731 -0.0215444761 -0.0195984253
v 0.00585783222 -0.0216071092 -0.0195179619
v 0.00598311351 -0.021682269 -0.0193976649
v 0.00585000206 -0.0217198488 -0.0193466784
v 0.00584412943 -0.0217699567 -0.019258249
v 0.00584021435 -0.0218137999 -0.019167429
v 0.0059498353 -0.0218513797 -0.0190742196
v 0.00572472146 -0.0218482487 -0.0190949328
v 0.00572472146 -0.021873302 -0.0190304025
v 0.00581672454 -0.0218920919 -0.018977823
v 0.00572472146 -0.0219140142 -0.0189053254
v 0.00568557063 -0.0219234085 -0.0188734592
v 0.00551722481 -0.0219578574 -0.0187372291
v 0.00544871154 -0.0219672516 -0.0186814625
v 0.00529015274 -0.0219860416 -0.0185524032
v 0.00525687453 -0.0219891739 -0.0185237227
v 0.00515899883 -0.0219954372 -0.0184432606
v 0.00510027396 -0.0219985696 -0.0183946634
v 0.00503763332 -0.0219985696 -0.0158612676
v 0.00797390644 -0.0195464637 -0.0158612676
v 0.0079484584 -0.0196717313 -0.0158612676
v 0.0079484584 -0.0196717313 -0.0175932175
v 0.0079719489 -0.0195558594 -0.0200373876
v 0.00792692613 -0.0197562867 -0.0199832138
v 0.007752707 -0.0197312335 -0.0201098838
v 0.00779577223 -0.0195339371 -0.0201640575
v 0.00782513535 -0.0193335098 -0.0202190277
v 0.00889393859 -0.00623682817 -0.0240000012
v 0.00716349524 -0.0205830505 -0.019986401
v 0.00704408659 -0.0207396346 -0.0199449746
v 0.00697361578 -0.0208367166 -0.0199147012
v 0.00674850194 -0.0208398476 -0.0199951647
v 0.00659385822 -0.0207396346 -0.0200963414
v 0.00646466185 -0.020924403 -0.0200222509
v 0.00813833787 -0.00735170835 -0.0239848645
v 0.00822446832 -0.00735170835 -0.023955389
v 0.00829102405 -0.00735170835 -0.0239306921
v 0.00835170646 -0.00735170835 -0.0239075882
v 0.00838498467 -0.00702287976 -0.0240000012
v 0.00857094836 -0.00735170835 -0.0238080058
v 0.00762351132 -0.0193491688 -0.0203273737
v 0.00852201051 -0.00683811143 -0.0240000012
v 0.00771747194 -0.0193429055 -0.0202795744
v 0.00769593898 -0.0199253974 -0.0200573043
v 0.00762546886 -0.0201164305 -0.0200063177
v 0.00753933772 -0.0203043311 -0.0199553312
v 0.00814029541 -0.00729846815 -0.0240000012
v 0.00743950448 -0.0204828362 -0.0199075304
v 0.00732792598 -0.0206582102 -0.0198597311
v 0.00630610305 -0.0210402749 -0.0199856045
v 0.00621409997 -0.0210935137 -0.019968875
v 0.00612992706 -0.0210715914 -0.0199951647
v 0.00604379592 -0.0211310936 -0.0199648913
v 0.00603596644 -0.021212518 -0.019906734
v 0.00603009382 -0.02129081 -0.0198445944
v 0.00602226365 -0.0213628388 -0.0197784712
v 0.00601639103 -0.0214348662 -0.0197083643
v 0.00615145933 -0.0215256848 -0.0195888652
v 0.00613775723 -0.0215883193 -0.0195139783
v 0.00600073069 -0.021566397 -0.0195593883
v 0.00616320458 -0.0214630517 -0.0196613614
v 0.00599094299 -0.0216258992 -0.0194797213
v 0.00611230919 -0.0216979279 -0.0193562385
v 0.0059733258 -0.0217323768 -0.0193140157
v 0.00596353809 -0.021779351 -0.0192271792
v 0.00607903167 -0.0218075365 -0.0191586653
v 0.00595570793 -0.0218231955 -0.0191371556
v 0.00601639103 -0.0218294588 -0.0191180353
v 0.00604966855 -0.0218169322 -0.0158612676
v 0.00591655778 -0.0218607754 -0.0158612676
v 0.00586566239 -0.021876433 -0.0158612676
v 0.00578540388 -0.0218983552 -0.0158612676
v 0.00551918235 -0.0219578574 -0.0165934032
v 0.00573255163 -0.0219108818 -0.0158612676
v 0.00565229311 -0.0219296718 -0.0158612676
v 0.00551918235 -0.0219578574 -0.0158612676
v 0.00538802844 -0.0219766473 -0.0165806558
v 0.00525687453 -0.0219891739 -0.0158612676
v 0.00538802844 -0.0219766473 -0.0158612676
v 0.00519619212 -0.0219923062 -0.0158612676
v 0.00794454332 -0.0196873903 -0.0158612676
v 0.00790930826 -0.0198189198 -0.0158612676
v 0.00787015812 -0.0199441874 -0.0199338215
v 0.00785645533 -0.0199880305 -0.0199226671
v 0.00882542533 -0.0063589634 -0.0240000012
v 0.00720264539 -0.02082419 -0.019814321
v 0.00704800167 -0.0210089583 -0.019757758
v 0.00690118811 -0.0209275353 -0.0198836314
v 0.00665258378 -0.0211279626 -0.019837425
v 0.00660560278 -0.0210152216 -0.0199274472
v 0.00639027665 -0.0210621971 -0.0199537383
v 0.00635895598 -0.0210559338 -0.0199656878
v 0.00823425603 -0.00719825519 -0.0240000012
v 0.00831059878 -0.00711056885 -0.0240000012
v 0.00861401359 -0.0067003186 -0.0240000012
v 0.00778207012 -0.0201790636 -0.0198708841
v 0.00770376915 -0.020345042 -0.0198278648
v 0.00767636425 -0.0203982808 -0.0198135246
v 0.00755695559 -0.0206049714 -0.019757758
v 0.00748061216 -0.0207208433 -0.0197266882
v 0.00742188729 -0.0208022677 -0.0197051785
v 0.00638048894 -0.0211342259 -0.0199091247
v 0.00620431226 -0.0211718058 -0.0199154977
v 0.00612209689 -0.0211530158 -0.0199401945
v 0.00619452456 -0.0212469655 -0.0198565439
v 0.00618473754 -0.0213221266 -0.0197944043
v 0.00617299229 -0.0213941553 -0.0197290775
v 0.00629240095 -0.0215476071 -0.019533895
v 0.00627674061 -0.0216071092 -0.0194598045
v 0.00625912274 -0.0216603481 -0.019384919
v 0.00631001813 -0.021484974 -0.0196040019
v 0.00632567846 -0.0214223395 -0.019671718
v 0.00624541995 -0.0217386401 -0.0192598419
v 0.00620235472 -0.0217574301 -0.0192343487
v 0.0060986064 -0.0217449034 -0.0192741822
v 0.00608490429 -0.0217918776 -0.0191889386
v 0.00618082245 -0.0217668243 -0.0166961727
v 0.00618082245 -0.0217668243 -0.0158612676
v 0.00786820057 -0.0199504507 -0.0158612676
v 0.00782905043 -0.0200600593 -0.0158612676
v 0.00782905043 -0.0200600593 -0.0174362755
v 0.00734358632 -0.0208993497 -0.0196796852
v 0.00718698506 -0.0210778547 -0.019631088
v 0.00689335795 -0.0211812014 -0.0197003984
v 0.00685029272 -0.0211718058 -0.0197274846
v 0.0067465444 -0.0211029093 -0.019820694
v 0.00672696898 -0.0211436202 -0.0197983879
v 0.00670935111 -0.0212093856 -0.0197529779
v 0.00653121758 -0.0212469655 -0.0197832512
v 0.00654492037 -0.0211718058 -0.019837425
v 0.00646270431 -0.0211530158 -0.0198748677
v 0.00655862247 -0.0211029093 -0.0198820372
v 0.00777815504 -0.0201884592 -0.0158612676
v 0.00777815504 -0.0201884592 -0.0173828983
v 0.00771942948 -0.0203137254 -0.0173311153
v 0.00770768423 -0.0203387787 -0.0158612676
v 0.0076548313 -0.020442124 -0.0172793323
v 0.00759806328 -0.020536075 -0.019775284
v 0.0075060602 -0.0206832635 -0.0171781556
v 0.00758436049 -0.0205642606 -0.0172283457
v 0.00742188729 -0.0208022677 -0.0158612676
v 0.0075060602 -0.0206832635 -0.0158612676
v 0.00733184107 -0.0209150087 -0.0170793683
v 0.00636678615 -0.0212093856 -0.019854951
v 0.00628457078 -0.0211905957 -0.0198860208
v 0.00635308336 -0.0212845467 -0.019796795
v 0.00633938125 -0.0213534431 -0.019734654
v 0.00645683169 -0.0215100273 -0.0195378786
v 0.00643529942 -0.0215695294 -0.0194685682
v 0.006415724 -0.0216258992 -0.0193976649
v 0.00641376646 -0.0216572157 -0.019350662
v 0.0063785314 -0.0216760057 -0.0193307452
v 0.0064764071 -0.0214505251 -0.0196024076
v 0.00649402497 -0.0213847597 -0.0196661415
v 0.00631197567 -0.0217073222 -0.0158612676
v 0.00626499536 -0.0217292445 -0.0158612676
v 0.00723592291 -0.0210246173 -0.0170323654
v 0.00710868477 -0.0211561468 -0.0158612676
v 0.00704800167 -0.021212518 -0.0195952382
v 0.00723592291 -0.0210246173 -0.0158612676
v 0.00721243309 -0.0210496705 -0.0158612676
v 0.00687182499 -0.0212438345 -0.0196565813
v 0.00669173392 -0.0212814144 -0.0197003984
v 0.00644900221 -0.0212281756 -0.0198198976
v 0.00651164216 -0.0213158633 -0.0197266882
v 0.0076548313 -0.020438993 -0.0158612676
v 0.00758436049 -0.0205642606 -0.0158612676
v 0.00733184107 -0.0209150087 -0.0158612676
v 0.0073103088 -0.0209400619 -0.0158612676
v 0.00659973084 -0.0215350805 -0.0194613988
v 0.00654100528 -0.021585187 -0.0194128016
v 0.00639419173 -0.0216666114 -0.0158612676
v 0.00658015543 -0.0215632661 -0.0194295312
v 0.0065644951 -0.0215726604 -0.0158612676
v 0.00664671115 -0.0214129453 -0.019585678
v 0.00667020096 -0.0213471798 -0.0196446318
v 0.0070303838 -0.0212281756 -0.0158612676
v 0.0070303838 -0.0212281756 -0.016943936
v 0.00698731857 -0.0212657554 -0.019579305
v 0.00685029272 -0.0213096 -0.0196055948
v 0.00669760654 -0.021484974 -0.0194805177
v 0.00662126311 -0.0215382115 -0.019447855
v 0.00677786437 -0.0214317352 -0.0195107911
v 0.00668781884 -0.0214943683 -0.0158612676
v 0.00681309943 -0.0214066819 -0.0195243349
v 0.0069188053 -0.0213221266 -0.0158612676
v 0.0069188053 -0.0213221266 -0.0169017118
v 0.00691489022 -0.0213252575 -0.0195585918
v 0.00668781884 -0.0214943683 -0.0168236391
v 0.00680331241 -0.0214129453 -0.0158612676
v 0.00676807667 -0.0214379985 -0.0158612676
f 1 2 23
f 1 23 3
f 1 3 26
f 1 26 4
f 1 4 5
f 1 5 6
f 1 6 7
f 1 7 8
f 1 8 9
f 1 9 10
f 1 10 11
f 1 11 12
f 1 12 13
f 1 13 14
f 1 14 15
f 1 15 16
f 1 16 17
f 1 17 18
f 1 18 19
f 1 19 20
f 1 20 21
f 1 21 22
f 1 22 24
f 1 24 2
f 2 24 48
f 2 48 23
f 3 23 25
f 3 25 26
f 4 26 53
f 4 53 27
f 4 27 28
f 4 28 5
f 5 28 29
f 5 29 30
f 5 30 6
f 6 30 7
f 7 30 8
f 8 30 31
f 8 31 32
f 8 32 9
f 9 32 10
f 10 33 34
f 10 34 11
f 10 32 33
f 11 34 35
f 11 35 12
f 12 35 36
f 12 36 13
f 13 36 14
f 14 36 37
f 14 37 38
f 14 38 15
f 15 38 16
f 16 38 39
f 16 39 40
f 16 40 17
f 17 40 18
f 18 40 41
f 18 41 42
f 18 42 19
f 19 42 20
f 20 42 43
f 20 43 44
f 20 44 21
f 21 44 22
f 22 44 45
f 22 45 46
f 22 46 24
f 23 47 25
f 23 48 49
f 23 49 47
f 24 46 72
f 24 72 102
f 24 102 136
f 24 136 181
f 24 181 223
f 24 223 268
f 24 268 306
f 24 306 343
f 24 343 380
f 24 380 414
f 24 414 455
f 24 455 494
f 24 494 537
f 24 537 591
f 24 591 639
f 24 639 682
f 24 682 732
f 24 732 788
f 24 788 849
f 24 849 847
f 24 847 848
f 24 848 845
f 24 845 844
f 24 844 843
f 24 843 841
f 24 841 840
f 24 840 839
f 24 839 838
f 24 838 887
f 24 887 925
f 24 925 924
f 24 924 941
f 24 941 943
f 24 943 953
f 24 953 960
f 24 960 959
f 24 959 955
f 24 955 946
f 24 946 927
f 24 927 930
f 24 930 929
f 24 929 938
f 24 938 937
f 24 937 910
f 24 910 911
f 24 911 936
f 24 936 935
f 24 935 905
f 24 905 902
f 24 902 889
f 24 889 888
f 24 888 851
f 24 851 850
f 24 850 790
f 24 790 789
f 24 789 733
f 24 733 684
f 24 684 641
f 24 641 602
f 24 602 601
f 24 601 600
f 24 600 599
f 24 599 598
f 24 598 597
f 24 597 596
f 24 596 595
f 24 595 594
f 24 594 593
f 24 593 542
f 24 542 541
f 24 541 540
f 24 540 539
f 24 539 558
f 24 558 557
f 24 557 556
f 24 556 555
f 24 555 554
f 24 554 553
f 24 553 552
f 24 552 551
f 24 551 550
f 24 550 549
f 24 549 548
f 24 548 547
f 24 547 546
f 24 546 545
f 24 545 506
f 24 506 469
f 24 469 468
f 24 468 419
f 24 419 418
f 24 418 383
f 24 383 348
f 24 348 347
f 24 347 344
f 24 344 307
f 24 307 269
f 24 269 224
f 24 224 182
f 24 182 137
f 24 137 105
f 24 105 75
f 24 75 48
f 25 50 26
f 25 47 51
f 25 51 50
f 26 50 52
f 26 52 53
f 27 53 84
f 27 84 54
f 27 54 55
f 27 55 28
f 28 55 29
f 29 56 57
f 29 57 30
f 29 55 56
f 30 57 31
f 31 57 32
f 32 58 59
f 32 59 33
f 32 57 58
f 33 59 34
f 34 59 60
f 34 60 35
f 35 61 62
f 35 62 36
f 35 60 61
f 36 62 63
f 36 63 37
f 37 63 38
f 38 63 64
f 38 64 39
f 39 64 65
f 39 65 40
f 40 65 66
f 40 66 67
f 40 67 41
f 41 67 42
f 42 67 68
f 42 68 69
f 42 69 43
f 43 69 44
f 44 69 70
f 44 70 71
f 44 71 45
f 45 71 72
f 45 72 46
f 47 49 73
f 47 73 74
f 47 74 51
f 48 75 76
f 48 76 77
f 48 77 78
f 48 78 79
f 48 79 49
f 49 79 73
f 50 51 80
f 50 80 52
f 51 74 80
f 52 81 84
f 52 84 53
f 52 80 82
f 52 82 83
f 52 83 81
f 54 84 114
f 54 114 85
f 54 85 55
f 55 85 86
f 55 86 56
f 56 86 87
f 56 87 57
f 57 87 88
f 57 88 58
f 58 88 89
f 58 89 59
f 59 89 90
f 59 90 60
f 60 90 91
f 60 91 61
f 61 91 62
f 62 92 93
f 62 93 63
f 62 91 92
f 63 93 64
f 64 93 94
f 64 94 95
f 64 95 65
f 65 95 66
f 66 95 96
f 66 96 67
f 67 96 97
f 67 97 98
f 67 98 68
f 68 98 69
f 69 98 99
f 69 99 70
f 70 99 100
f 70 100 71
f 71 100 101
f 71 101 102
f 71 102 72
f 73 79 103
f 73 103 104
f 73 104 74
f 74 104 80
f 75 105 76
f 76 106 149
f 76 149 107
f 76 107 108
f 76 108 77
f 76 105 106
f 77 108 109
f 77 109 78
f 78 109 156
f 78 156 110
f 78 110 79
f 79 110 156
f 79 156 111
f 79 111 103
f 80 104 112
f 80 112 115
f 80 115 82
f 81 113 114
f 81 114 84
f 81 83 117
f 81 117 113
f 82 115 116
f 82 116 83
f 83 116 117
f 85 118 86
f 85 114 158
f 85 158 119
f 85 119 118
f 86 120 121
f 86 121 87
f 86 118 120
f 87 121 88
f 88 122 123
f 88 123 89
f 88 121 122
f 89 123 124
f 89 124 90
f 90 124 91
f 91 124 125
f 91 125 126
f 91 126 92
f 92 126 93
f 93 126 127
f 93 127 128
f 93 128 94
f 94 128 95
f 95 128 129
f 95 129 96
f 96 129 130
f 96 130 131
f 96 131 97
f 97 131 98
f 98 131 132
f 98 132 99
f 99 132 133
f 99 133 134
f 99 134 100
f 100 134 101
f 101 134 135
f 101 135 102
f 102 135 136
f 103 112 104
f 103 111 112
f 105 137 138
f 105 138 139
f 105 139 140
f 105 140 141
f 105 141 142
f 105 142 143
f 105 143 144
f 105 144 145
f 105 145 146
f 105 146 147
f 105 147 148
f 105 148 106
f 106 148 194
f 106 194 149
f 107 149 150
f 107 150 151
f 107 151 152
f 107 152 153
f 107 153 108
f 108 153 154
f 108 154 155
f 108 155 109
f 109 155 156
f 111 156 155
f 111 155 112
f 112 155 154
f 112 154 115
f 113 157 158
f 113 158 114
f 113 117 157
f 115 154 159
f 115 159 116
f 116 160 117
f 116 159 153
f 116 153 152
f 116 152 160
f 117 160 161
f 117 161 157
f 118 162 120
f 118 119 163
f 118 163 162
f 119 158 202
f 119 202 163
f 120 164 165
f 120 165 166
f 120 166 121
f 120 162 164
f 121 166 167
f 121 167 122
f 122 167 168
f 122 168 123
f 123 168 124
f 124 169 170
f 124 170 125
f 124 168 169
f 125 170 171
f 125 171 126
f 126 171 172
f 126 172 127
f 127 172 128
f 128 172 173
f 128 173 129
f 129 173 174
f 129 174 175
f 129 175 130
f 130 175 131
f 131 175 176
f 131 176 132
f 132 176 177
f 132 177 178
f 132 178 133
f 133 178 134
f 134 178 179
f 134 179 135
f 135 179 180
f 135 180 181
f 135 181 136
f 137 182 183
f 137 183 138
f 138 184 185
f 138 185 139
f 138 183 226
f 138 226 184
f 139 185 186
f 139 186 140
f 140 186 187
f 140 187 141
f 141 187 188
f 141 188 142
f 142 188 189
f 142 189 143
f 143 189 190
f 143 190 144
f 144 190 191
f 144 191 145
f 145 191 192
f 145 192 146
f 146 192 193
f 146 193 147
f 147 193 194
f 147 194 148
f 149 194 195
f 149 195 196
f 149 196 197
f 149 197 198
f 149 198 199
f 149 199 150
f 150 199 200
f 150 200 151
f 151 200 160
f 151 160 152
f 153 159 154
f 157 201 202
f 157 202 158
f 157 161 203
f 157 203 201
f 160 200 161
f 161 200 204
f 161 204 203
f 162 205 164
f 162 163 205
f 163 202 248
f 163 248 205
f 164 206 165
f 164 205 206
f 165 206 207
f 165 207 208
f 165 208 209
f 165 209 167
f 165 167 166
f 167 209 210
f 167 210 168
f 168 210 211
f 168 211 169
f 169 211 170
f 170 211 212
f 170 212 171
f 171 212 213
f 171 213 214
f 171 214 172
f 172 214 215
f 172 215 173
f 173 215 174
f 174 215 216
f 174 216 175
f 175 216 217
f 175 217 218
f 175 218 176
f 176 218 219
f 176 219 177
f 177 219 178
f 178 219 220
f 178 220 179
f 179 220 221
f 179 221 222
f 179 222 180
f 180 222 223
f 180 223 181
f 182 224 225
f 182 225 183
f 183 225 270
f 183 270 226
f 184 226 227
f 184 227 228
f 184 228 185
f 185 228 229
f 185 229 186
f 186 229 230
f 186 230 187
f 187 230 231
f 187 231 188
f 188 231 232
f 188 232 189
f 189 232 233
f 189 233 190
f 190 233 234
f 190 234 235
f 190 235 191
f 191 235 236
f 191 236 192
f 192 236 237
f 192 237 238
f 192 238 193
f 193 238 239
f 193 239 240
f 193 240 194
f 194 240 241
f 194 241 242
f 194 242 243
f 194 243 195
f 195 243 244
f 195 244 196
f 196 244 245
f 196 245 197
f 197 245 198
f 198 245 204
f 198 204 199
f 199 204 200
f 201 203 246
f 201 246 247
f 201 247 248
f 201 248 202
f 203 204 246
f 204 245 246
f 205 249 250
f 205 250 206
f 205 248 287
f 205 287 251
f 205 251 249
f 206 250 207
f 207 252 253
f 207 253 208
f 207 250 252
f 208 253 254
f 208 254 255
f 208 255 210
f 208 210 209
f 210 255 256
f 210 256 211
f 211 256 257
f 211 257 212
f 212 257 213
f 213 257 258
f 213 258 214
f 214 258 259
f 214 259 215
f 215 259 260
f 215 260 261
f 215 261 216
f 216 261 262
f 216 262 217
f 217 262 218
f 218 262 263
f 218 263 264
f 218 264 219
f 219 264 220
f 220 264 265
f 220 265 266
f 220 266 221
f 221 266 222
f 222 266 267
f 222 267 223
f 223 267 268
f 224 269 225
f 225 269 271
f 225 271 308
f 225 308 270
f 226 270 272
f 226 272 227
f 227 272 309
f 227 309 346
f 227 346 382
f 227 382 417
f 227 417 416
f 227 416 460
f 227 460 499
f 227 499 544
f 227 544 603
f 227 603 646
f 227 646 686
f 227 686 738
f 227 738 737
f 227 737 736
f 227 736 797
f 227 797 854
f 227 854 864
f 227 864 811
f 227 811 808
f 227 808 863
f 227 863 862
f 227 862 816
f 227 816 754
f 227 754 744
f 227 744 692
f 227 692 652
f 227 652 651
f 227 651 613
f 227 613 610
f 227 610 565
f 227 565 559
f 227 559 507
f 227 507 471
f 227 471 421
f 227 421 386
f 227 386 385
f 227 385 350
f 227 350 311
f 227 311 273
f 227 273 233
f 227 233 232
f 227 232 231
f 227 231 230
f 227 230 229
f 227 229 228
f 233 273 274
f 233 274 275
f 233 275 276
f 233 276 234
f 234 276 277
f 234 277 235
f 235 277 278
f 235 278 236
f 236 278 279
f 236 279 280
f 236 280 237
f 237 280 279
f 237 279 281
f 237 281 238
f 238 281 282
f 238 282 239
f 239 282 240
f 240 282 283
f 240 283 241
f 241 283 284
f 241 284 242
f 242 284 243
f 243 284 244
f 244 284 285
f 244 285 245
f 245 285 246
f 246 285 286
f 246 286 247
f 247 286 287
f 247 287 248
f 249 288 289
f 249 289 250
f 249 251 290
f 249 290 288
f 250 289 291
f 250 291 252
f 251 287 323
f 251 323 290
f 252 291 253
f 253 292 293
f 253 293 254
f 253 291 292
f 254 293 294
f 254 294 256
f 254 256 255
f 256 294 257
f 257 295 296
f 257 296 258
f 257 294 295
f 258 296 297
f 258 297 259
f 259 297 260
f 260 297 298
f 260 298 299
f 260 299 261
f 261 299 262
f 262 299 300
f 262 300 301
f 262 301 263
f 263 301 264
f 264 301 302
f 264 302 303
f 264 303 265
f 265 303 266
f 266 303 304
f 266 304 267
f 267 304 305
f 267 305 306
f 267 306 268
f 269 307 271
f 270 308 309
f 270 309 272
f 271 310 345
f 271 345 308
f 271 307 310
f 273 311 274
f 274 311 312
f 274 312 275
f 275 312 313
f 275 313 276
f 276 313 277
f 277 313 314
f 277 314 315
f 277 315 316
f 277 316 278
f 278 316 279
f 279 316 317
f 279 317 318
f 279 318 281
f 281 318 319
f 281 319 282
f 282 319 283
f 283 319 320
f 283 320 284
f 284 320 321
f 284 321 285
f 285 321 322
f 285 322 286
f 286 322 323
f 286 323 287
f 288 324 289
f 288 290 324
f 289 324 325
f 289 325 291
f 290 323 326
f 290 326 324
f 291 327 328
f 291 328 292
f 291 325 327
f 292 328 293
f 293 328 329
f 293 329 330
f 293 330 331
f 293 331 294
f 294 331 332
f 294 332 295
f 295 332 296
f 296 332 333
f 296 333 297
f 297 334 335
f 297 335 298
f 297 333 334
f 298 335 299
f 299 335 336
f 299 336 337
f 299 337 300
f 300 337 301
f 301 337 338
f 301 338 339
f 301 339 302
f 302 339 303
f 303 339 340
f 303 340 304
f 304 340 341
f 304 341 342
f 304 342 305
f 305 342 343
f 305 343 306
f 307 344 310
f 308 345 346
f 308 346 309
f 310 344 347
f 310 347 348
f 310 348 349
f 310 349 381
f 310 381 345
f 311 350 351
f 311 351 312
f 312 351 314
f 312 314 313
f 314 351 352
f 314 352 353
f 314 353 354
f 314 354 315
f 315 354 316
f 316 354 355
f 316 355 356
f 316 356 317
f 317 356 318
f 318 356 357
f 318 357 319
f 319 357 358
f 319 358 320
f 320 358 359
f 320 359 322
f 320 322 321
f 322 359 360
f 322 360 323
f 323 360 326
f 324 361 325
f 324 326 362
f 324 362 361
f 325 361 363
f 325 363 364
f 325 364 327
f 326 360 362
f 327 364 365
f 327 365 328
f 328 365 366
f 328 366 367
f 328 367 329
f 329 367 368
f 329 368 330
f 330 368 369
f 330 369 332
f 330 332 331
f 332 369 333
f 333 369 370
f 333 370 371
f 333 371 334
f 334 371 335
f 335 371 372
f 335 372 373
f 335 373 336
f 336 373 337
f 337 374 375
f 337 375 338
f 337 373 374
f 338 375 376
f 338 376 339
f 339 376 340
f 340 376 377
f 340 377 341
f 341 377 378
f 341 378 342
f 342 378 379
f 342 379 380
f 342 380 343
f 345 381 382
f 345 382 346
f 348 383 349
f 349 384 415
f 349 415 381
f 349 383 384
f 350 385 351
f 351 385 352
f 352 385 386
f 352 386 387
f 352 387 353
f 353 387 388
f 353 388 354
f 354 388 389
f 354 389 355
f 355 389 390
f 355 390 391
f 355 391 356
f 356 391 357
f 357 391 392
f 357 392 393
f 357 393 358
f 358 393 359
f 359 393 360
f 360 393 394
f 360 394 362
f 361 362 363
f 362 394 363
f 363 395 364
f 363 394 395
f 364 395 396
f 364 396 397
f 364 397 398
f 364 398 365
f 365 398 366
f 366 399 367
f 366 398 399
f 367 399 400
f 367 400 401
f 367 401 368
f 368 401 402
f 368 402 403
f 368 403 369
f 369 403 404
f 369 404 370
f 370 404 371
f 371 405 406
f 371 406 372
f 371 404 405
f 372 406 373
f 373 406 407
f 373 407 408
f 373 408 374
f 374 408 409
f 374 409 375
f 375 409 376
f 376 409 410
f 376 410 411
f 376 411 377
f 377 411 378
f 378 411 412
f 378 412 379
f 379 412 413
f 379 413 414
f 379 414 380
f 381 415 416
f 381 416 417
f 381 417 382
f 383 418 384
f 384 418 419
f 384 419 420
f 384 420 456
f 384 456 415
f 386 421 422
f 386 422 387
f 387 422 423
f 387 423 424
f 387 424 388
f 388 425 426
f 388 426 427
f 388 427 389
f 388 424 425
f 389 427 428
f 389 428 429
f 389 429 390
f 390 429 430
f 390 430 432
f 390 432 391
f 391 431 392
f 391 432 431
f 392 431 433
f 392 433 434
f 392 434 393
f 393 434 435
f 393 435 394
f 394 435 395
f 395 435 434
f 395 434 396
f 396 436 397
f 396 434 436
f 397 436 437
f 397 437 432
f 397 432 438
f 397 438 439
f 397 439 398
f 398 439 440
f 398 440 399
f 399 440 400
f 400 441 442
f 400 442 401
f 400 440 441
f 401 442 402
f 402 442 443
f 402 443 444
f 402 444 445
f 402 445 404
f 402 404 403
f 404 445 446
f 404 446 405
f 405 446 406
f 406 447 448
f 406 448 407
f 406 446 447
f 407 448 408
f 408 449 450
f 408 450 409
f 408 448 449
f 409 450 410
f 410 450 451
f 410 451 411
f 411 451 452
f 411 452 453
f 411 453 412
f 412 453 413
f 413 453 454
f 413 454 455
f 413 455 414
f 415 456 416
f 416 457 458
f 416 458 497
f 416 497 459
f 416 459 498
f 416 498 460
f 416 456 461
f 416 461 462
f 416 462 463
f 416 463 464
f 416 464 465
f 416 465 466
f 416 466 467
f 416 467 457
f 419 468 420
f 420 468 469
f 420 469 470
f 420 470 461
f 420 461 456
f 421 471 472
f 421 472 473
f 421 473 474
f 421 474 422
f 422 474 423
f 423 474 424
f 424 474 475
f 424 475 476
f 424 476 426
f 424 426 425
f 426 476 477
f 426 477 428
f 426 428 427
f 428 477 429
f 429 477 478
f 429 478 430
f 430 478 432
f 431 432 437
f 431 437 433
f 432 478 438
f 433 437 436
f 433 436 434
f 438 478 439
f 439 478 479
f 439 479 480
f 439 480 440
f 440 480 481
f 440 481 441
f 441 481 442
f 442 482 483
f 442 483 443
f 442 481 482
f 443 483 484
f 443 484 444
f 444 484 485
f 444 485 445
f 445 485 446
f 446 485 486
f 446 486 447
f 447 486 487
f 447 487 448
f 448 487 449
f 449 487 488
f 449 488 450
f 450 489 490
f 450 490 451
f 450 488 489
f 451 490 452
f 452 490 491
f 452 491 453
f 453 491 492
f 453 492 493
f 453 493 454
f 454 493 494
f 454 494 455
f 457 495 458
f 457 467 505
f 457 505 496
f 457 496 538
f 457 538 495
f 458 495 538
f 458 538 497
f 459 497 498
f 460 498 543
f 460 543 499
f 461 470 500
f 461 500 462
f 462 500 501
f 462 501 463
f 463 501 502
f 463 502 464
f 464 502 503
f 464 503 465
f 465 503 504
f 465 504 466
f 466 504 505
f 466 505 467
f 469 506 470
f 470 506 500
f 471 507 508
f 471 508 472
f 472 509 510
f 472 510 473
f 472 508 511
f 472 511 512
f 472 512 513
f 472 513 509
f 473 475 474
f 473 510 514
f 473 514 515
f 473 515 516
f 473 516 517
f 473 517 518
f 473 518 519
f 473 519 475
f 475 519 476
f 476 519 520
f 476 520 477
f 477 520 521
f 477 521 478
f 478 521 479
f 479 521 522
f 479 522 480
f 480 522 481
f 481 522 523
f 481 523 524
f 481 524 482
f 482 524 525
f 482 525 483
f 483 525 526
f 483 526 484
f 484 526 527
f 484 527 528
f 484 528 485
f 485 528 486
f 486 528 529
f 486 529 530
f 486 530 487
f 487 530 531
f 487 531 488
f 488 531 489
f 489 531 532
f 489 532 490
f 490 532 533
f 490 533 491
f 491 533 534
f 491 534 535
f 491 535 492
f 492 535 493
f 493 535 536
f 493 536 537
f 493 537 494
f 496 505 539
f 496 539 540
f 496 540 541
f 496 541 542
f 496 542 538
f 497 538 498
f 498 538 543
f 499 543 592
f 499 592 544
f 500 506 545
f 500 545 546
f 500 546 501
f 501 546 547
f 501 547 548
f 501 548 502
f 502 548 549
f 502 549 550
f 502 550 503
f 503 550 551
f 503 551 552
f 503 552 553
f 503 553 504
f 504 553 554
f 504 554 555
f 504 555 556
f 504 556 505
f 505 556 557
f 505 557 558
f 505 558 539
f 507 559 512
f 507 512 511
f 507 511 508
f 509 560 561
f 509 561 562
f 509 562 517
f 509 517 516
f 509 516 515
f 509 515 514
f 509 514 510
f 509 513 563
f 509 563 560
f 512 564 513
f 512 559 565
f 512 565 564
f 513 564 566
f 513 566 567
f 513 567 568
f 513 568 569
f 513 569 563
f 517 562 570
f 517 570 571
f 517 571 518
f 518 571 572
f 518 572 573
f 518 573 574
f 518 574 575
f 518 575 519
f 519 575 576
f 519 576 520
f 520 576 577
f 520 577 522
f 520 522 521
f 522 577 578
f 522 578 523
f 523 578 579
f 523 579 524
f 524 579 525
f 525 580 581
f 525 581 526
f 525 579 580
f 526 581 582
f 526 582 527
f 527 582 631
f 527 631 583
f 527 583 529
f 527 529 528
f 529 583 530
f 530 584 585
f 530 585 531
f 530 583 584
f 531 585 532
f 532 585 586
f 532 586 533
f 533 586 587
f 533 587 534
f 534 587 588
f 534 588 589
f 534 589 535
f 535 589 536
f 536 589 590
f 536 590 591
f 536 591 537
f 538 592 543
f 538 542 593
f 538 593 594
f 538 594 595
f 538 595 596
f 538 596 597
f 538 597 598
f 538 598 599
f 538 599 600
f 538 600 601
f 538 601 602
f 538 602 592
f 544 592 640
f 544 640 603
f 560 604 605
f 560 605 606
f 560 606 607
f 560 607 561
f 560 563 604
f 561 607 608
f 561 608 570
f 561 570 562
f 563 569 604
f 564 565 609
f 564 609 566
f 565 610 609
f 566 611 612
f 566 612 567
f 566 609 610
f 566 610 613
f 566 613 611
f 567 614 568
f 567 612 614
f 568 614 615
f 568 615 616
f 568 616 569
f 569 616 605
f 569 605 604
f 570 608 617
f 570 617 618
f 570 618 572
f 570 572 571
f 572 618 619
f 572 619 573
f 573 619 574
f 574 619 620
f 574 620 621
f 574 621 575
f 575 621 622
f 575 622 623
f 575 623 624
f 575 624 576
f 576 624 625
f 576 625 578
f 576 578 577
f 578 625 579
f 579 625 626
f 579 626 627
f 579 627 580
f 580 627 628
f 580 628 581
f 581 628 582
f 582 628 629
f 582 629 630
f 582 630 631
f 583 631 584
f 584 631 632
f 584 632 585
f 585 633 634
f 585 634 586
f 585 632 633
f 586 634 587
f 587 635 588
f 587 634 635
f 588 635 636
f 588 636 589
f 589 636 637
f 589 637 590
f 590 637 638
f 590 638 591
f 591 638 639
f 592 602 640
f 602 641 640
f 603 640 683
f 603 683 642
f 603 642 643
f 603 643 644
f 603 644 645
f 603 645 646
f 605 616 647
f 605 647 606
f 606 647 648
f 606 648 607
f 607 648 649
f 607 649 608
f 608 649 617
f 611 650 612
f 611 613 651
f 611 651 652
f 611 652 650
f 612 650 614
f 614 653 654
f 614 654 615
f 614 650 655
f 614 655 653
f 615 654 616
f 616 654 656
f 616 656 657
f 616 657 647
f 617 649 658
f 617 658 659
f 617 659 618
f 618 659 660
f 618 660 619
f 619 660 661
f 619 661 620
f 620 662 663
f 620 663 621
f 620 661 662
f 621 663 622
f 622 663 664
f 622 664 623
f 623 665 666
f 623 666 624
f 623 664 665
f 624 666 667
f 624 667 625
f 625 667 626
f 626 668 627
f 626 667 668
f 627 669 628
f 627 668 669
f 628 669 670
f 628 670 671
f 628 671 629
f 629 672 630
f 629 671 672
f 630 672 673
f 630 673 674
f 630 674 675
f 630 675 632
f 630 632 631
f 632 675 633
f 633 675 676
f 633 676 634
f 634 677 678
f 634 678 635
f 634 676 677
f 635 678 636
f 636 679 637
f 636 678 679
f 637 679 680
f 637 680 681
f 637 681 638
f 638 681 682
f 638 682 639
f 640 641 684
f 640 684 683
f 642 684 643
f 642 683 684
f 643 684 685
f 643 685 644
f 644 685 645
f 645 685 646
f 646 685 686
f 647 657 687
f 647 687 648
f 648 688 689
f 648 689 690
f 648 690 649
f 648 687 688
f 649 690 658
f 650 691 655
f 650 652 692
f 650 692 691
f 653 655 693
f 653 693 694
f 653 694 695
f 653 695 654
f 654 696 697
f 654 697 656
f 654 695 696
f 655 691 698
f 655 698 693
f 656 697 699
f 656 699 657
f 657 699 700
f 657 700 687
f 658 701 702
f 658 702 703
f 658 703 704
f 658 704 659
f 658 690 701
f 659 704 705
f 659 705 660
f 660 705 661
f 661 705 662
f 662 705 703
f 662 703 706
f 662 706 664
f 662 664 663
f 664 706 707
f 664 707 708
f 664 708 709
f 664 709 710
f 664 710 665
f 665 710 666
f 666 711 712
f 666 712 667
f 666 710 711
f 667 712 668
f 668 712 713
f 668 713 669
f 669 714 715
f 669 715 670
f 669 713 714
f 670 715 716
f 670 716 671
f 671 716 717
f 671 717 672
f 672 717 718
f 672 718 719
f 672 719 673
f 673 719 720
f 673 720 674
f 674 720 721
f 674 721 722
f 674 722 723
f 674 723 676
f 674 676 675
f 676 723 677
f 677 723 724
f 677 724 678
f 678 724 725
f 678 725 726
f 678 726 727
f 678 727 679
f 679 728 729
f 679 729 680
f 679 727 728
f 680 729 730
f 680 730 681
f 681 731 732
f 681 732 682
f 681 730 731
f 684 733 685
f 685 733 734
f 685 734 735
f 685 735 736
f 685 736 737
f 685 737 738
f 685 738 686
f 687 700 688
f 688 700 739
f 688 739 740
f 688 740 741
f 688 741 689
f 689 741 742
f 689 742 743
f 689 743 701
f 689 701 690
f 691 692 744
f 691 744 698
f 693 698 745
f 693 745 746
f 693 746 694
f 694 746 747
f 694 747 748
f 694 748 749
f 694 749 695
f 695 749 750
f 695 750 751
f 695 751 696
f 696 751 697
f 697 751 752
f 697 752 753
f 697 753 699
f 698 744 754
f 698 754 745
f 699 753 755
f 699 755 700
f 700 755 739
f 701 743 756
f 701 756 702
f 702 756 707
f 702 707 703
f 703 707 706
f 703 705 704
f 707 756 757
f 707 757 758
f 707 758 759
f 707 759 760
f 707 760 709
f 707 709 708
f 709 761 762
f 709 762 711
f 709 711 710
f 709 760 759
f 709 759 761
f 711 762 763
f 711 763 764
f 711 764 712
f 712 764 713
f 713 763 765
f 713 765 714
f 713 764 763
f 714 766 715
f 714 765 766
f 715 767 716
f 715 766 767
f 716 767 768
f 716 768 717
f 717 768 769
f 717 769 770
f 717 770 718
f 718 771 719
f 718 770 771
f 719 771 772
f 719 772 720
f 720 772 773
f 720 773 721
f 721 773 774
f 721 774 722
f 722 774 775
f 722 775 776
f 722 776 777
f 722 777 723
f 723 777 724
f 724 777 778
f 724 778 779
f 724 779 725
f 725 780 781
f 725 781 782
f 725 782 726
f 725 779 780
f 726 782 727
f 727 782 728
f 728 782 783
f 728 783 729
f 729 784 785
f 729 785 786
f 729 786 730
f 729 783 784
f 730 786 787
f 730 787 731
f 731 787 788
f 731 788 732
f 733 789 734
f 734 789 790
f 734 790 791
f 734 791 792
f 734 792 793
f 734 793 794
f 734 794 795
f 734 795 735
f 735 795 796
f 735 796 736
f 736 796 797
f 739 755 798
f 739 798 740
f 740 742 741
f 740 798 799
f 740 799 800
f 740 800 801
f 740 801 742
f 742 801 802
f 742 802 743
f 743 802 803
f 743 803 756
f 745 754 804
f 745 804 805
f 745 805 746
f 746 805 806
f 746 806 807
f 746 807 808
f 746 808 747
f 747 808 748
f 748 809 810
f 748 810 749
f 748 808 811
f 748 811 809
f 749 795 794
f 749 794 750
f 749 810 812
f 749 812 795
f 750 794 813
f 750 813 751
f 751 813 814
f 751 814 752
f 752 814 753
f 753 814 815
f 753 815 755
f 754 816 804
f 755 817 818
f 755 818 798
f 755 815 817
f 756 803 757
f 757 819 820
f 757 820 821
f 757 821 761
f 757 761 758
f 757 803 819
f 758 761 759
f 761 821 762
f 762 822 823
f 762 823 763
f 762 821 822
f 763 823 765
f 765 823 824
f 765 824 766
f 766 824 825
f 766 825 767
f 767 825 826
f 767 826 769
f 767 769 768
f 769 827 828
f 769 828 829
f 769 829 770
f 769 826 830
f 769 830 827
f 770 829 771
f 771 831 772
f 771 829 831
f 772 832 833
f 772 833 773
f 772 831 832
f 773 833 774
f 774 834 835
f 774 835 775
f 774 833 834
f 775 835 836
f 775 836 776
f 776 779 777
f 776 836 837
f 776 837 838
f 776 838 839
f 776 839 840
f 776 840 779
f 777 779 778
f 779 781 780
f 779 840 841
f 779 841 781
f 781 842 782
f 781 841 843
f 781 843 844
f 781 844 845
f 781 845 842
f 782 842 846
f 782 846 783
f 783 846 784
f 784 847 785
f 784 846 848
f 784 848 847
f 785 847 786
f 786 847 787
f 787 847 849
f 787 849 788
f 790 850 791
f 791 850 793
f 791 793 792
f 793 851 852
f 793 852 853
f 793 853 794
f 793 850 851
f 794 853 813
f 795 812 796
f 796 812 854
f 796 854 797
f 798 818 799
f 799 855 800
f 799 818 855
f 800 855 856
f 800 856 857
f 800 857 801
f 801 857 858
f 801 858 859
f 801 859 803
f 801 803 802
f 803 859 860
f 803 860 861
f 803 861 819
f 804 816 862
f 804 862 805
f 805 862 863
f 805 863 806
f 806 863 808
f 806 808 807
f 809 812 810
f 809 811 864
f 809 864 854
f 809 854 812
f 813 853 814
f 814 865 866
f 814 866 815
f 814 853 865
f 815 866 867
f 815 867 817
f 817 867 868
f 817 868 818
f 818 868 869
f 818 869 870
f 818 870 855
f 819 861 820
f 820 861 871
f 820 871 872
f 820 872 873
f 820 873 821
f 821 873 822
f 822 873 823
f 823 874 824
f 823 873 872
f 823 872 874
f 824 875 876
f 824 876 825
f 824 874 875
f 825 876 826
f 826 876 830
f 827 830 877
f 827 877 828
f 828 831 829
f 828 877 878
f 828 878 879
f 828 879 832
f 828 832 831
f 830 880 877
f 830 876 881
f 830 881 880
f 832 879 882
f 832 882 883
f 832 883 884
f 832 884 833
f 833 884 885
f 833 885 834
f 834 885 835
f 835 838 837
f 835 837 836
f 835 885 883
f 835 883 886
f 835 886 887
f 835 887 838
f 842 845 848
f 842 848 846
f 851 888 853
f 851 853 852
f 853 888 889
f 853 889 890
f 853 890 865
f 855 870 891
f 855 891 892
f 855 892 856
f 856 892 893
f 856 893 894
f 856 894 857
f 857 894 895
f 857 895 858
f 858 896 897
f 858 897 898
f 858 898 899
f 858 899 900
f 858 900 901
f 858 901 859
f 858 895 896
f 859 901 900
f 859 900 871
f 859 871 860
f 860 871 861
f 865 890 889
f 865 889 902
f 865 902 903
f 865 903 904
f 865 904 866
f 866 904 905
f 866 905 906
f 866 906 867
f 867 906 907
f 867 907 868
f 868 908 869
f 868 907 909
f 868 909 908
f 869 910 870
f 869 908 911
f 869 911 910
f 870 912 891
f 870 910 937
f 870 937 912
f 871 900 913
f 871 913 914
f 871 914 872
f 872 914 874
f 874 914 915
f 874 915 875
f 875 915 876
f 876 915 916
f 876 916 881
f 877 880 917
f 877 917 918
f 877 918 878
f 878 918 919
f 878 919 879
f 879 920 921
f 879 921 882
f 879 919 920
f 880 881 922
f 880 922 917
f 881 916 923
f 881 923 922
f 882 921 924
f 882 924 925
f 882 925 887
f 882 887 886
f 882 886 883
f 883 885 884
f 891 912 926
f 891 926 892
f 892 927 928
f 892 928 893
f 892 926 929
f 892 929 930
f 892 930 927
f 893 928 931
f 893 931 894
f 894 931 932
f 894 932 897
f 894 897 896
f 894 896 895
f 897 932 898
f 898 933 900
f 898 900 899
f 898 932 934
f 898 934 915
f 898 915 933
f 900 933 913
f 902 905 904
f 902 904 903
f 905 935 906
f 906 909 907
f 906 935 936
f 906 936 909
f 908 909 936
f 908 936 911
f 912 938 926
f 912 937 938
f 913 933 915
f 913 915 914
f 915 934 923
f 915 923 916
f 917 939 918
f 917 922 939
f 918 940 919
f 918 939 940
f 919 940 920
f 920 941 921
f 920 940 942
f 920 942 943
f 920 943 941
f 921 941 924
f 922 923 944
f 922 944 939
f 923 934 945
f 923 945 944
f 926 938 929
f 927 946 928
f 928 946 947
f 928 947 948
f 928 948 931
f 931 948 949
f 931 949 932
f 932 949 945
f 932 945 934
f 939 950 951
f 939 951 942
f 939 942 940
f 939 944 952
f 939 952 950
f 942 951 943
f 943 951 953
f 944 954 952
f 944 945 954
f 945 949 954
f 946 955 948
f 946 948 947
f 948 955 956
f 948 956 957
f 948 957 949
f 949 957 954
f 950 952 951
f 951 952 958
f 951 958 953
f 952 954 959
f 952 959 960
f 952 960 953
f 952 953 958
f 954 957 956
f 954 956 955
f 954 955 959
