# Derived from Apache-2.0 SO-ARM100 STL; see THIRD_PARTY.md
v 0.00693411196 -0.0294623715 0.0069668462
v 0.00692367311 -0.0294623715 0.0072209455
v 0.0065374521 -0.0332026143 0.00642346668
v 0.00693411196 -0.0294623715 -0.00699686183
v 0.00651359285 -0.0332026143 0.00680461426
v 0.00652701325 -0.0332026143 0.00666388239
v 0.00690876125 -0.0294623715 0.00735972258
v 0.0065374521 -0.0332026143 -0.00643979872
v 0.00653446918 -0.0332026143 -0.00655707437
v 0.00693112904 -0.0294623715 -0.00711022788
v 0.00649271515 -0.0332026143 0.00694339134
v 0.00690726979 -0.0294623715 0.0073734048
v 0.00652552179 -0.0332026143 -0.00669389665
v 0.00692218165 -0.0294623715 -0.00723141451
v 0.00646438289 -0.0332026143 0.00708412322
v 0.00688788355 -0.0294623715 0.00749849965
v 0.00650911847 -0.0332026143 -0.0068307203
v 0.00690577833 -0.0294623715 -0.00738387381
v 0.00690726979 -0.0294623715 -0.00737019158
v 0.00643008479 -0.0332026143 0.0072229003
v 0.00685955129 -0.0294623715 0.00763923153
v 0.00648675068 -0.0332026143 -0.00696949738
v 0.00688639346 -0.0294623715 -0.00750896866
v 0.00638684067 -0.0332026143 0.00736363217
v 0.00682525319 -0.0294623715 0.00777800861
v 0.00682227164 -0.0294623715 0.00778973604
v 0.00678350053 -0.0294623715 0.00791874049
v 0.00645841842 -0.0332026143 -0.00711022788
v 0.00685805983 -0.0294623715 -0.00764969917
v 0.00633613925 -0.0332026143 0.00750827228
v 0.00672981619 -0.0294623715 0.00806729019
v 0.00642262886 -0.0332026143 -0.00724900496
v 0.00685507828 -0.0294623715 -0.00766142797
v 0.00627947336 -0.0332026143 0.00764509456
v 0.00667613322 -0.0294623715 0.00819629464
v 0.00637789328 -0.0332026143 -0.00739364644
v 0.00681928872 -0.0294623715 -0.00780020505
v 0.00667166021 -0.0294623715 0.00820606727
v 0.00660753839 -0.0294623715 0.00834093475
v 0.006216843 -0.0332026143 0.00777605381
v 0.00632719186 -0.0332026143 -0.00753242352
v 0.00672981619 -0.0294623715 -0.0080679852
v 0.0067760446 -0.0294623715 -0.00793898212
v 0.00654043365 -0.0294623715 0.0084660296
v 0.0061422837 -0.0332026143 0.00791678569
v 0.00621386145 -0.0332026143 0.00778191684
v 0.00627052734 -0.0332026143 -0.0076653362
v 0.00666867729 -0.0294623715 -0.00821458148
v 0.00653596064 -0.0294623715 0.0084738488
v 0.00606325002 -0.0332026143 0.00804774357
v 0.00620491406 -0.0332026143 -0.00780020505
v 0.00660753839 -0.0294623715 -0.00834162976
v 0.00646139997 -0.0294623715 0.00859698885
v 0.00598123342 -0.0332026143 0.00816893019
v 0.00637640182 -0.0294623715 0.00872403713
v 0.00613333631 -0.0332026143 -0.00793311772
v 0.00653596064 -0.0294623715 -0.00847454381
v 0.00588430633 -0.0332026143 0.00829597847
v 0.00627798327 -0.0294623715 0.00885304158
v 0.00604982962 -0.0332026143 -0.0080679852
v 0.00645245395 -0.0294623715 -0.00861136609
v 0.00653148763 -0.0294623715 -0.00848236164
v 0.00578439495 -0.0332026143 0.00841521029
v 0.00618403773 -0.0294623715 0.0089644542
v 0.00596632156 -0.0332026143 -0.00818721702
v 0.00637043735 -0.0294623715 -0.00873059654
v 0.00567852047 -0.0332026143 0.00852857771
v 0.00607368887 -0.0294623715 0.00908173122
v 0.00587386748 -0.0332026143 -0.00831035707
v 0.00627350889 -0.0294623715 -0.00885960099
v 0.00556668015 -0.0332026143 0.00863608073
v 0.00596184855 -0.0294623715 0.00918923425
v 0.00577395747 -0.0332026143 -0.00842763273
v 0.00617359888 -0.0294623715 -0.00897492321
v 0.00545036682 -0.0332026143 0.00873576593
v 0.00585149969 -0.0294623715 0.00928500984
v 0.00566808162 -0.0332026143 -0.00853904535
v 0.00607368887 -0.0294623715 -0.00908242623
v 0.00532808764 -0.0332026143 0.00883154152
v 0.00573071198 -0.0294623715 0.00937883064
v 0.00555027683 -0.0332026143 -0.00865045797
v 0.00595737417 -0.0294623715 -0.00919383885
v 0.00520879139 -0.0332026143 0.00891558969
v 0.00560545126 -0.0294623715 0.0094667884
v 0.0054339635 -0.0332026143 -0.00875014317
v 0.00584106084 -0.0294623715 -0.00929352405
v 0.00520282692 -0.0332026143 0.00891949792
v 0.00559948679 -0.0294623715 0.009470698
v 0.00531914025 -0.0332026143 -0.00883810093
v 0.00572027313 -0.0294623715 -0.00938734484
v 0.00507309182 -0.0332026143 0.00899963786
v 0.00547571616 -0.0294623715 0.00954888177
v 0.00519238807 -0.0332026143 -0.00892410253
v 0.00560246834 -0.0294623715 -0.00946943821
v 0.00494634033 -0.0332026143 0.00907000242
v 0.00534449096 -0.0294623715 0.00962120251
v 0.0051864236 -0.0332026143 -0.00892801213
v 0.00559650387 -0.0294623715 -0.00947334781
v 0.00493888371 -0.0332026143 0.00907391202
v 0.00533703504 -0.0294623715 0.00962511074
v 0.00505817996 -0.0332026143 -0.00900815069
v 0.00546826023 -0.0294623715 -0.00955348638
v 0.00481064076 -0.0332026143 0.00913646013
v 0.00520282692 -0.0294623715 0.00969156845
v 0.00492546331 -0.0332026143 -0.00908047143
v 0.00534150804 -0.0294623715 -0.00962385232
v 0.00466748594 -0.0332026143 0.00919900687
v 0.00507160173 -0.0294623715 0.00974825216
v 0.00479721967 -0.0332026143 -0.00914301954
v 0.00520133546 -0.0294623715 -0.00969226346
v 0.00453327749 -0.0332026143 0.00924787276
v 0.0049344107 -0.0294623715 0.00979907147
v 0.00465406486 -0.0332026143 -0.00920361148
v 0.00506563589 -0.0294623715 -0.00975090197
v 0.00452731268 -0.0332026143 0.00924982756
v 0.00479423812 -0.0294623715 0.00984402775
v 0.00451687417 -0.0332026143 -0.00925247737
v 0.00492844623 -0.0294623715 -0.00980172128
v 0.00438863087 -0.0332026143 0.00929282767
v 0.0046480997 -0.0294623715 0.00988116484
v 0.00424845795 -0.0332026143 0.00932996612
v 0.00437819271 -0.0332026143 -0.00929547885
v 0.00479721967 -0.0294623715 -0.00984276796
v 0.00451538305 -0.0294623715 0.00991048409
v 0.00410828503 -0.0332026143 0.00935928538
v 0.0042439846 -0.0332026143 -0.00933066113
v 0.00465853855 -0.0294623715 -0.00987990505
v 0.00436924532 -0.0294623715 0.00993393895
v 0.00397407692 -0.0332026143 0.00938078544
v 0.00410530279 -0.0332026143 -0.00935998039
v 0.00465108262 -0.0294623715 -0.00988185985
v 0.0042395109 -0.0294623715 0.00994762118
v 0.00379065919 -0.0332026143 0.00940228549
v 0.00396662099 -0.0332026143 -0.00938148044
v 0.00437521013 -0.0294623715 -0.00993268053
v 0.00451240082 -0.0294623715 -0.0099111791
v 0.00396960356 -0.0294623715 0.0099691226
v 0.00317479341 -0.0332026143 0.00943160475
v 0.00382943064 -0.0332026143 -0.00939711747
v 0.00424696683 -0.0294623715 -0.00994831618
v -0.00733071886 -0.0294623715 0.00998280483
v -0.00570680079 -0.0332026143 0.00943160475
v 0.00280348426 -0.0332026143 -0.00947725604
v 0.0041112676 -0.0294623715 -0.00995809018
v -0.00734712218 -0.0294623715 0.00998280483
v -0.0073292274 -0.0332026143 0.00941010469
v -0.00395613054 -0.0332026143 -0.00947725604
v -0.00735755966 -0.0294623715 -0.00998154504
v -0.0073903663 -0.0294623715 0.00998085003
v -0.0073903663 -0.0332026143 0.00940814989
v -0.00729940368 -0.0332026143 -0.0094107997
v -0.00735606957 -0.0332026143 -0.0094088449
v -0.00742168148 -0.0294623715 -0.00997763544
v -0.00740826108 -0.0294623715 0.00997889523
v -0.00745150657 -0.0332026143 0.00940033206
v -0.00742019139 -0.0332026143 -0.00940493667
v -0.00746641843 -0.0294623715 -0.00996981761
v -0.00748282175 -0.0332026143 -0.00939516267
v -0.00745150657 -0.0294623715 0.00997303083
v -0.00751115401 -0.0332026143 0.00938860326
v -0.00752904879 -0.0294623715 -0.00995613538
v -0.00754396065 -0.0332026143 -0.00938148044
v -0.00751115401 -0.0294623715 0.0099613034
v -0.00757080145 -0.0332026143 0.00937296761
v -0.00752755733 -0.0294623715 0.0099573938
v -0.00754545211 -0.0294623715 -0.00995222578
v -0.00760509955 -0.0332026143 -0.00936388999
v -0.00759018769 -0.0294623715 -0.00994049836
v -0.0076289588 -0.0332026143 0.00935537578
v -0.00758720477 -0.0294623715 0.00994175815
v -0.00766474836 -0.0332026143 -0.00934238856
v -0.00760659101 -0.0294623715 -0.00993463396
v -0.00768711615 -0.0332026143 0.00933387435
v -0.0076289588 -0.0294623715 0.00992807592
v -0.00764536212 -0.0294623715 0.00992221152
v -0.00772290434 -0.0332026143 -0.00931697891
v -0.00770799248 -0.0294623715 -0.00989554207
v -0.00766623845 -0.0294623715 -0.0099131339
v -0.00774229058 -0.0332026143 0.0093084647
v -0.00770202801 -0.0294623715 0.00989875666
v -0.00777807877 -0.0332026143 -0.00928765965
v -0.00777957023 -0.0294623715 -0.00986035979
v -0.00776465837 -0.0294623715 -0.00986817762
v -0.0077243958 -0.0294623715 -0.00988772425
v -0.00779746501 -0.0332026143 0.00927914544
v -0.00774229058 -0.0294623715 0.00987921004
v -0.00775720244 -0.0294623715 0.00987139221
v -0.0078332532 -0.0332026143 -0.00925638559
v -0.00783474466 -0.0294623715 -0.00982713093
v -0.00784965652 -0.0332026143 0.00924591796
v -0.00779746501 -0.0294623715 0.00984989078
v -0.00788395462 -0.0332026143 -0.00922120331
v -0.00787202431 -0.0294623715 -0.00980172128
v -0.00790035794 -0.0332026143 0.0092107343
v -0.00784965652 -0.0294623715 0.0098166633
v -0.00793465467 -0.0332026143 -0.00918406623
v -0.00788544608 -0.0294623715 -0.00979194865
v -0.00794807644 -0.0332026143 0.00917164242
v -0.00790035794 -0.0294623715 0.00978147964
v -0.00798088171 -0.0332026143 -0.00914106474
v -0.00798237317 -0.0294623715 -0.00971181008
v -0.00796895277 -0.0294623715 -0.00972353751
v -0.00792123427 -0.0294623715 -0.00976458419
v -0.00799430348 -0.0332026143 0.00912864094
v -0.00794807644 -0.0294623715 0.00974238776
v -0.00796149684 -0.0294623715 0.00973066033
v -0.00802561866 -0.0332026143 -0.00909806326
v -0.00801368835 -0.0294623715 -0.00968053603
v -0.0080375476 -0.0332026143 0.00908368465
v -0.00799430348 -0.0294623715 0.00969938627
v -0.00800623242 -0.0294623715 0.00968765885
v -0.00806588123 -0.0332026143 -0.00905115218
v -0.00806737132 -0.0294623715 -0.00961994272
v -0.00805544238 -0.0294623715 -0.00963362495
v -0.00807781017 -0.0332026143 0.00903677494
v -0.0080375476 -0.0294623715 0.00965442999
v -0.00804947791 -0.0294623715 0.00964074776
v -0.00810465234 -0.0332026143 -0.00900228767
v -0.0081061438 -0.0294623715 -0.00957107821
v -0.00811658128 -0.0332026143 0.00898595563
v -0.00807781017 -0.0294623715 0.00960752028
v -0.00813894907 -0.0332026143 -0.00895146698
v -0.00814044053 -0.0294623715 -0.00951830409
v -0.00815087938 -0.0332026143 0.00893318015
v -0.00811658128 -0.0294623715 0.0095566996
v -0.00817175571 -0.0332026143 -0.00889869287
v -0.00816280832 -0.0294623715 -0.00948116564
v -0.00818219456 -0.0332026143 0.00887845123
v -0.00815087938 -0.0294623715 0.00950392549
v -0.00820008934 -0.0332026143 -0.00884396396
v -0.00819263341 -0.0294623715 -0.00942643673
v -0.00817175571 -0.0294623715 -0.00946552861
v -0.00820903673 -0.0332026143 0.00882176752
v -0.00818219456 -0.0294623715 0.00944919657
v -0.00822543868 -0.0332026143 -0.00878728025
v -0.00820008934 -0.0294623715 -0.0094107997
v -0.00823438607 -0.0332026143 0.00876508381
v -0.00820903673 -0.0294623715 0.00939055806
v -0.00824631638 -0.0332026143 -0.00872864311
v -0.00824780784 -0.0294623715 -0.00929547885
v -0.00822543868 -0.0294623715 -0.00935411599
v -0.00825377231 -0.0332026143 0.00870449187
v -0.00823438607 -0.0294623715 0.00933192092
v -0.00824035191 -0.0294623715 0.0093143291
v -0.00826421116 -0.0332026143 -0.0086700046
v -0.00825973678 -0.0294623715 -0.00925443217
v -0.00827166709 -0.0332026143 0.00864389856
v -0.00825973678 -0.0294623715 0.00925373579
v -0.00827912302 -0.0332026143 -0.00861136609
v -0.00827912302 -0.0294623715 -0.00917624703
v -0.00828359603 -0.0332026143 0.00858135182
v -0.00827166709 -0.0294623715 0.0092107343
v -0.0082895605 -0.0332026143 -0.00855077278
v -0.00828657895 -0.0294623715 -0.00913324554
v -0.00829254342 -0.0332026143 0.00851684891
v -0.00828359603 -0.0294623715 0.00914818756
v -0.00828657895 -0.0294623715 0.00912864094
v -0.00829552634 -0.0332026143 -0.00849018084
v -0.00829403488 -0.0294623715 -0.0090726536
v -0.0082895605 -0.0294623715 -0.00911565509
v -0.00829999935 -0.0332026143 0.00840739109
v -0.00829254342 -0.0294623715 0.00908368465
v -0.00829552634 -0.0294623715 0.00905045717
v -0.00829850789 -0.0294623715 0.00900941048
v -0.00829999935 -0.0332026143 -0.00840417787
v -0.00829999935 -0.0294623715 -0.00897296841
v -0.00829552634 -0.0294623715 -0.00905310698
v -0.00829999935 -0.0294623715 0.00898595563
f 1 2 3
f 1 3 8
f 1 8 4
f 1 4 10
f 1 10 14
f 1 14 19
f 1 19 18
f 1 18 23
f 1 23 29
f 1 29 33
f 1 33 37
f 1 37 43
f 1 43 42
f 1 42 48
f 1 48 52
f 1 52 57
f 1 57 62
f 1 62 61
f 1 61 66
f 1 66 70
f 1 70 74
f 1 74 78
f 1 78 82
f 1 82 86
f 1 86 90
f 1 90 94
f 1 94 98
f 1 98 102
f 1 102 106
f 1 106 110
f 1 110 114
f 1 114 118
f 1 118 123
f 1 123 127
f 1 127 131
f 1 131 136
f 1 136 135
f 1 135 140
f 1 140 144
f 1 144 148
f 1 148 153
f 1 153 157
f 1 157 161
f 1 161 166
f 1 166 168
f 1 168 172
f 1 172 178
f 1 178 177
f 1 177 184
f 1 184 183
f 1 183 182
f 1 182 189
f 1 189 193
f 1 193 197
f 1 197 203
f 1 203 202
f 1 202 201
f 1 201 208
f 1 208 214
f 1 214 213
f 1 213 219
f 1 219 223
f 1 223 227
f 1 227 232
f 1 232 231
f 1 231 236
f 1 236 241
f 1 241 240
f 1 240 246
f 1 246 250
f 1 250 254
f 1 254 260
f 1 260 259
f 1 259 267
f 1 267 266
f 1 266 268
f 1 268 264
f 1 264 263
f 1 263 262
f 1 262 257
f 1 257 256
f 1 256 252
f 1 252 248
f 1 248 244
f 1 244 243
f 1 243 238
f 1 238 234
f 1 234 229
f 1 229 225
f 1 225 221
f 1 221 217
f 1 217 216
f 1 216 211
f 1 211 210
f 1 210 206
f 1 206 205
f 1 205 199
f 1 199 195
f 1 195 191
f 1 191 187
f 1 187 186
f 1 186 180
f 1 180 175
f 1 175 174
f 1 174 170
f 1 170 165
f 1 165 163
f 1 163 159
f 1 159 154
f 1 154 149
f 1 149 145
f 1 145 141
f 1 141 137
f 1 137 132
f 1 132 128
f 1 128 124
f 1 124 120
f 1 120 116
f 1 116 112
f 1 112 108
f 1 108 104
f 1 104 100
f 1 100 96
f 1 96 92
f 1 92 88
f 1 88 84
f 1 84 80
f 1 80 76
f 1 76 72
f 1 72 68
f 1 68 64
f 1 64 59
f 1 59 55
f 1 55 53
f 1 53 49
f 1 49 44
f 1 44 39
f 1 39 38
f 1 38 35
f 1 35 31
f 1 31 27
f 1 27 26
f 1 26 25
f 1 25 21
f 1 21 16
f 1 16 12
f 1 12 7
f 1 7 2
f 2 5 6
f 2 6 3
f 2 7 5
f 3 6 5
f 3 5 11
f 3 11 15
f 3 15 20
f 3 20 24
f 3 24 30
f 3 30 34
f 3 34 40
f 3 40 46
f 3 46 45
f 3 45 50
f 3 50 54
f 3 54 58
f 3 58 63
f 3 63 67
f 3 67 71
f 3 71 75
f 3 75 79
f 3 79 83
f 3 83 87
f 3 87 91
f 3 91 95
f 3 95 99
f 3 99 103
f 3 103 107
f 3 107 111
f 3 111 115
f 3 115 119
f 3 119 121
f 3 121 125
f 3 125 129
f 3 129 133
f 3 133 138
f 3 138 142
f 3 142 146
f 3 146 150
f 3 150 155
f 3 155 160
f 3 160 164
f 3 164 169
f 3 169 173
f 3 173 179
f 3 179 185
f 3 185 190
f 3 190 194
f 3 194 198
f 3 198 204
f 3 204 209
f 3 209 215
f 3 215 220
f 3 220 224
f 3 224 228
f 3 228 233
f 3 233 237
f 3 237 242
f 3 242 247
f 3 247 251
f 3 251 255
f 3 255 261
f 3 261 265
f 3 265 258
f 3 258 253
f 3 253 249
f 3 249 245
f 3 245 239
f 3 239 235
f 3 235 230
f 3 230 226
f 3 226 222
f 3 222 218
f 3 218 212
f 3 212 207
f 3 207 200
f 3 200 196
f 3 196 192
f 3 192 188
f 3 188 181
f 3 181 176
f 3 176 171
f 3 171 167
f 3 167 162
f 3 162 158
f 3 158 156
f 3 156 152
f 3 152 151
f 3 151 147
f 3 147 143
f 3 143 139
f 3 139 134
f 3 134 130
f 3 130 126
f 3 126 122
f 3 122 117
f 3 117 113
f 3 113 109
f 3 109 105
f 3 105 101
f 3 101 97
f 3 97 93
f 3 93 89
f 3 89 85
f 3 85 81
f 3 81 77
f 3 77 73
f 3 73 69
f 3 69 65
f 3 65 60
f 3 60 56
f 3 56 51
f 3 51 47
f 3 47 41
f 3 41 36
f 3 36 32
f 3 32 28
f 3 28 22
f 3 22 17
f 3 17 13
f 3 13 9
f 3 9 8
f 4 8 9
f 4 9 10
f 5 7 12
f 5 12 11
f 9 13 10
f 10 13 14
f 11 12 16
f 11 16 21
f 11 21 15
f 13 17 18
f 13 18 19
f 13 19 14
f 15 21 25
f 15 25 20
f 17 22 23
f 17 23 18
f 20 25 26
f 20 26 27
f 20 27 24
f 22 28 29
f 22 29 23
f 24 27 30
f 27 31 30
f 28 32 37
f 28 37 33
f 28 33 29
f 30 31 34
f 31 35 34
f 32 36 37
f 34 35 38
f 34 38 39
f 34 39 40
f 36 41 42
f 36 42 43
f 36 43 37
f 39 44 45
f 39 45 46
f 39 46 40
f 41 47 48
f 41 48 42
f 44 49 45
f 45 49 50
f 47 51 52
f 47 52 48
f 49 53 50
f 50 53 55
f 50 55 54
f 51 56 57
f 51 57 52
f 54 55 59
f 54 59 58
f 56 60 61
f 56 61 62
f 56 62 57
f 58 59 63
f 59 64 63
f 60 65 66
f 60 66 61
f 63 64 67
f 64 68 67
f 65 69 66
f 66 69 70
f 67 68 72
f 67 72 71
f 69 73 70
f 70 73 74
f 71 72 76
f 71 76 75
f 73 77 78
f 73 78 74
f 75 76 79
f 76 80 79
f 77 81 82
f 77 82 78
f 79 80 83
f 80 84 83
f 81 85 86
f 81 86 82
f 83 84 88
f 83 88 87
f 85 89 90
f 85 90 86
f 87 88 92
f 87 92 91
f 89 93 94
f 89 94 90
f 91 92 95
f 92 96 95
f 93 97 98
f 93 98 94
f 95 96 100
f 95 100 99
f 97 101 102
f 97 102 98
f 99 100 104
f 99 104 103
f 101 105 106
f 101 106 102
f 103 104 107
f 104 108 107
f 105 109 110
f 105 110 106
f 107 108 112
f 107 112 111
f 109 113 114
f 109 114 110
f 111 112 115
f 112 116 115
f 113 117 118
f 113 118 114
f 115 116 119
f 116 120 121
f 116 121 119
f 117 122 123
f 117 123 118
f 120 124 121
f 121 124 125
f 122 126 131
f 122 131 127
f 122 127 123
f 124 128 125
f 125 128 129
f 126 130 136
f 126 136 131
f 128 132 133
f 128 133 129
f 130 134 135
f 130 135 136
f 132 137 133
f 133 137 138
f 134 139 140
f 134 140 135
f 137 141 138
f 138 141 145
f 138 145 142
f 139 143 140
f 140 143 144
f 142 145 146
f 143 147 148
f 143 148 144
f 145 149 150
f 145 150 146
f 147 151 148
f 148 151 152
f 148 152 156
f 148 156 153
f 149 154 150
f 150 154 155
f 153 156 158
f 153 158 157
f 154 159 155
f 155 159 163
f 155 163 160
f 157 158 161
f 158 162 161
f 160 163 165
f 160 165 170
f 160 170 164
f 161 162 166
f 162 167 168
f 162 168 166
f 164 170 169
f 167 171 178
f 167 178 172
f 167 172 168
f 169 170 174
f 169 174 175
f 169 175 173
f 171 176 177
f 171 177 178
f 173 175 180
f 173 180 179
f 176 181 182
f 176 182 183
f 176 183 184
f 176 184 177
f 179 180 186
f 179 186 187
f 179 187 185
f 181 188 182
f 182 188 189
f 185 187 191
f 185 191 195
f 185 195 190
f 188 192 193
f 188 193 189
f 190 195 199
f 190 199 194
f 192 196 197
f 192 197 193
f 194 199 205
f 194 205 198
f 196 200 201
f 196 201 202
f 196 202 203
f 196 203 197
f 198 205 206
f 198 206 204
f 200 207 201
f 201 207 208
f 204 206 210
f 204 210 211
f 204 211 209
f 207 212 213
f 207 213 214
f 207 214 208
f 209 211 216
f 209 216 217
f 209 217 215
f 212 218 219
f 212 219 213
f 215 217 221
f 215 221 225
f 215 225 220
f 218 222 219
f 219 222 223
f 220 225 229
f 220 229 224
f 222 226 223
f 223 226 227
f 224 229 234
f 224 234 228
f 226 230 231
f 226 231 232
f 226 232 227
f 228 234 233
f 230 235 241
f 230 241 236
f 230 236 231
f 233 234 238
f 233 238 237
f 235 239 240
f 235 240 241
f 237 238 243
f 237 243 244
f 237 244 248
f 237 248 242
f 239 245 240
f 240 245 246
f 242 248 247
f 245 249 246
f 246 249 250
f 247 248 252
f 247 252 256
f 247 256 251
f 249 253 254
f 249 254 250
f 251 256 257
f 251 257 255
f 253 258 259
f 253 259 260
f 253 260 254
f 255 257 262
f 255 262 263
f 255 263 264
f 255 264 261
f 258 265 266
f 258 266 267
f 258 267 259
f 261 264 268
f 261 268 266
f 261 266 265
