# Derived from Apache-2.0 SO-ARM100 STL; see THIRD_PARTY.md
v -0.0344987715 -0.00288502596 0.0460284707
v -0.0344987715 0.00708025842 0.0460284707
v -0.0344966947 -0.00907789434 0.0460284707
v -0.0344780191 -0.00905826914 0.0460804184
v -0.0321954593 -0.00742064777 0.0523582681
v -0.0321954593 0.00742261051 0.0523582681
v -0.0341501631 0.00874840746 0.0469856028
v -0.0344780191 0.00905805139 0.0460804184
v -0.0344966947 0.00908421807 0.0460284707
v -0.0344883969 -0.00931339764 0.0460284707
v -0.0296701171 -0.00638050698 0.0592932534
v -0.0296701171 0.00637592825 0.0592932534
v -0.0344863201 0.0093546108 0.0460284707
v -0.0344863201 -0.00934828707 0.0460284707
v -0.0296576657 -0.00662037204 0.0592932534
v -0.0296597425 -0.00658112163 0.0592932534
v -0.0296576657 0.00662015429 0.0592932534
v -0.0344759455 0.00945491812 0.0460284707
v -0.0296555889 0.00664414049 0.0592932534
v -0.0296452142 0.00675753154 0.0592932534
v -0.0344738718 -0.00946167734 0.0460284707
v -0.0296452142 -0.00675774929 0.0592932534
v -0.0344510458 0.00961192057 0.0460284707
v -0.0296223913 0.00689272751 0.0592932534
v -0.0344531194 -0.00960341557 0.0460284707
v -0.0296223913 -0.00689076556 0.0592932534
v -0.0344323702 0.00971658809 0.0460284707
v -0.029593338 0.00702792427 0.0592932534
v -0.0344302934 -0.00972552859 0.0460284707
v -0.0295995653 -0.00700415583 0.0592932534
v -0.0344219924 0.00976020028 0.0460284707
v -0.0295580637 0.00716530152 0.0592932534
v -0.0343950191 0.00986922956 0.0460284707
v -0.034426146 -0.0097451538 0.0460284707
v -0.0295663647 -0.00714371356 0.0592932534
v -0.0295518364 0.00718928771 0.0592932534
v -0.0343908686 0.00988449379 0.0460284707
v -0.0343950191 -0.00986944731 0.0460284707
v -0.0295144853 -0.00730289573 0.0592932534
v -0.0343472933 -0.0100286303 0.0460284707
v -0.0295144853 0.00730267798 0.0592932534
v -0.0343535175 0.0100109678 0.0460284707
v -0.0294646859 -0.00743809248 0.0592932534
v -0.0343161663 -0.0101180343 0.0460284707
v -0.0294646859 0.00744005523 0.0592932534
v -0.0343161663 0.0101178166 0.0460284707
v -0.0294065855 -0.00757328845 0.0592932534
v -0.0343057917 -0.010144201 0.0460284707
v -0.0342476914 -0.0102859393 0.0460284707
v -0.0294065855 0.0075730707 0.0592932534
v -0.0342663669 0.0102442906 0.0460284707
v -0.0343037149 0.0101505255 0.0460284707
v -0.0293381074 -0.00770412423 0.0592932534
v -0.0342061866 -0.0103731628 0.0460284707
v -0.034135638 -0.0105105401 0.0460284707
v -0.0293381074 0.00770390648 0.0592932534
v -0.0342041129 0.0103794874 0.0460284707
v -0.0292634052 -0.00783495921 0.0592932534
v -0.0341231866 -0.0105323458 0.0460284707
v -0.0292634052 0.00783474146 0.0592932534
v -0.0341854374 0.0103794874 0.0460622369
v -0.01500362 0.0103794874 0.0460284707
v -0.0291845524 0.00795903498 0.0592932534
v -0.0290953251 0.008081148 0.0592932534
v -0.0290019473 0.00820108053 0.0592932534
v -0.0289853485 0.00822070574 0.0592932534
v -0.0289002701 0.0083144708 0.0592932534
v -0.0291845524 -0.00796143322 0.0592932534
v -0.0340899859 -0.0105890409 0.0460284707
v -0.0337434511 0.0103794874 0.0468583315
v -0.013302074 0.0103794874 0.0460674313
v -0.01500362 -0.010833267 0.0460284707
v -0.0287902919 0.00842350009 0.0592932534
v -0.0290953251 -0.00808354624 0.0592932534
v -0.0340360329 -0.010674084 0.0460284707
v -0.0339530297 -0.0107940165 0.0460284707
v -0.033521418 0.0103794874 0.0472479373
v -0.028659563 0.00854343262 0.0592932534
v -0.013302074 -0.0108768784 0.0460674313
v -0.013302074 0.0103794874 0.047468714
v -0.0150056953 -0.0109139483 0.0460284707
v -0.0290019473 -0.00820347877 0.0592932534
v -0.033882481 -0.0108856011 0.0460284707
v -0.0334653945 0.0103794874 0.0473453387
v -0.0285558105 0.00862411394 0.0592932534
v -0.0332993881 0.0103794874 0.0476245563
v -0.0333761671 0.0103794874 0.0474959862
v -0.013302074 -0.00931775862 0.0523582681
v -0.0133041492 -0.00824272919 0.0592932534
v -0.0133082997 -0.00835611946 0.0592932534
v -0.0133062244 -0.0109183101 0.0460674313
v -0.0133041492 0.0103794874 0.0478193592
v -0.0133041492 0.00832319277 0.0592932534
v -0.013302074 0.00926738721 0.0523582681
v -0.0150160707 -0.0110055336 0.0460284707
v -0.0289168704 -0.00829724383 0.0592932534
v -0.0337766518 -0.0110098946 0.0460284707
v -0.0284126317 0.00872878225 0.0592932534
v -0.0326270709 0.0103794874 0.0486141554
v -0.028283978 0.00880946436 0.0592932534
v -0.028169851 0.00887706195 0.0592932534
v -0.0133186751 -0.00841935685 0.0592932534
v -0.0133186751 -0.0110098946 0.0460674313
v -0.0133103749 0.0103794874 0.048028448
v -0.0133124494 0.00838424967 0.0592932534
v -0.0150347462 -0.0110949377 0.0460284707
v -0.0289002701 -0.00831468855 0.0592932534
v -0.0337081737 -0.011081854 0.0460284707
v -0.0323780644 0.0103794874 0.0489764889
v -0.0278917928 0.0089926335 0.0592932534
v -0.0314297643 0.0103794874 0.0502440068
v -0.0321311316 0.0103794874 0.0493167445
v -0.0322141348 0.0103794874 0.0492024604
v -0.0133311249 -0.00848259346 0.0592932534
v -0.0133394251 -0.0111014792 0.0460674313
v -0.0133124494 0.0103794874 0.04808559
v -0.0133228248 0.00844530579 0.0592932534
v -0.0150471961 -0.0111472719 0.0460284707
v -0.0287902919 -0.00842153734 0.0592932534
v -0.033606498 -0.01117998 0.0460284707
v -0.027748614 0.00905150913 0.0592932534
v -0.0313758113 0.0103794874 0.0503141358
v -0.0133477252 -0.00854365037 0.0592932534
v -0.0133477252 -0.0111341881 0.0460674313
v -0.0133228248 0.0103794874 0.0482674062
v -0.013353951 0.00856523832 0.0592932534
v -0.0133352754 0.0085041822 0.0592932534
v -0.0150679469 -0.0112105085 0.0460284707
v -0.0286782385 -0.00852402516 0.0592932534
v -0.03348407 -0.0112846483 0.0460284707
v -0.0276075104 0.00909948229 0.0592932534
v -0.0311268048 0.0103794874 0.0506206258
v -0.0312056575 0.0103794874 0.050524523
v -0.013368476 -0.00860470648 0.0592932534
v -0.0133664008 -0.0111887028 0.0460674313
v -0.0133373506 0.0103794874 0.0485063644
v -0.0133767762 0.00862411394 0.0592932534
v -0.0133933765 -0.0112606621 0.0460674313
v -0.0150907729 -0.0112693841 0.0460284707
v -0.0285558105 -0.00862433169 0.0592932534
v -0.0333865418 -0.0113587882 0.0460284707
v -0.0274622564 0.0091430937 0.0592932534
v -0.0309670257 0.0103794874 0.050802442
v -0.0309877749 0.0103794874 0.0507790655
v -0.0133913021 -0.00866140162 0.0592932534
v -0.0133560254 0.0103794874 0.0487401279
v -0.0133996022 0.0086764481 0.0592932534
v -0.0134390278 -0.0113566077 0.0460674313
v -0.0151281232 -0.0113478857 0.0460284707
v -0.0284313073 -0.00871591626 0.0592932534
v -0.0333803145 -0.01136315 0.0460284707
v -0.0273190776 0.00917798313 0.0592932534
v -0.030657842 0.0103794874 0.0511284122
v -0.0307532935 0.0103794874 0.0510323093
v -0.0308860993 0.0103794874 0.0508920513
v -0.0134203523 -0.00872027803 0.0592932534
v -0.0133664008 0.0103794874 0.0488635031
v -0.0134286524 0.00873314323 0.0592932534
v -0.0134867544 -0.0114329288 0.0460674313
v -0.0151737745 -0.0114263874 0.0460284707
v -0.0151509493 -0.0113893166 0.0460284707
v -0.0134867544 -0.00882930732 0.0592932534
v -0.0283026536 -0.00879877887 0.0592932534
v -0.0332620369 -0.0114438313 0.0460284707
v -0.027169673 0.0092041506 0.0592932534
v -0.0303465847 0.0103794874 0.0514102271
v -0.0303714844 0.0103794874 0.0513894481
v -0.0304420362 0.0103794874 0.0513297085
v -0.0305457886 0.0103794874 0.0512349045
v -0.0133767762 0.0103794874 0.0489699953
v -0.0134618539 0.00878765787 0.0592932534
v -0.0135241055 -0.0114852622 0.0460674313
v -0.0152215011 -0.0114961662 0.0460284707
v -0.0151862252 -0.0114460118 0.0460284707
v -0.0135635311 -0.00892525287 0.0592932534
v -0.0135386306 -0.0115048882 0.0460674313
v -0.028169851 -0.00887509921 0.0592932534
v -0.0331769601 -0.0114983467 0.0460284707
v -0.0331375353 -0.0115223321 0.0460284707
v -0.0270534708 0.00922377581 0.0592932534
v -0.030236605 0.0103794874 0.0514972391
v -0.0134016767 0.0103794874 0.049194668
v -0.0134950545 0.00883999203 0.0592932534
v -0.0152879032 -0.0115768476 0.0460284707
v -0.0136071079 -0.00896886506 0.0592932534
v -0.0136071079 -0.011583389 0.0460674313
v -0.0278565169 -0.00901029597 0.0592932534
v -0.0328802279 -0.0116531679 0.0460284707
v -0.0270264942 0.00922813679 0.0592932534
v -0.0301577554 0.0103794874 0.0515543812
v -0.0134224275 0.0103794874 0.0493531079
v -0.0135739065 0.00893593836 0.0592932534
v -0.0153480795 -0.011635724 0.0460284707
v -0.0136548336 -0.00901247646 0.0592932534
v -0.0136465335 -0.011620459 0.0460674313
v -0.027748614 -0.00904954638 0.0592932534
v -0.0328532513 -0.0116640704 0.0460284707
v -0.0327287497 -0.0117142248 0.0460284707
v -0.0268833154 0.00924340102 0.0592932534
v -0.0299772239 0.0103794874 0.0516712631
v -0.03000005 0.0103794874 0.0516582761
v -0.0300436252 0.0103794874 0.0516310038
v -0.0134307277 0.0103794874 0.0494128474
v -0.0136195578 0.00898173026 0.0592932534
v -0.0134556282 0.0103794874 0.0495855728
v -0.0134618539 0.0103794874 0.0496245334
v -0.0154103312 -0.0116880573 0.0460284707
v -0.0137025602 -0.00904954638 0.0592932534
v -0.0137129356 -0.0116749728 0.0460674313
v -0.0276075104 -0.00909970004 0.0592932534
v -0.0325938703 -0.0117600167 0.0460284707
v -0.0267422119 0.00925212298 0.0592932534
v -0.0296950168 0.0103794874 0.0518024304
v -0.0298091438 0.0103794874 0.0517582751
v -0.0298630969 0.0103794874 0.0517336
v -0.013665209 0.00902098067 0.0592932534
v -0.0134929793 0.0103794874 0.0498076481
v -0.0135739065 0.0103794874 0.0502466042
v -0.0137814121 -0.0117251273 0.0460674313
v -0.0154767333 -0.0117360297 0.0460284707
v -0.0137523612 -0.00908661631 0.0592932534
v -0.0274622564 -0.00914331145 0.0592932534
v -0.0324755927 -0.0117949061 0.0460284707
v -0.0142420747 0.00925212298 0.0592932534
v -0.01424415 0.0103794874 0.0518764555
v -0.0295414618 0.0103794874 0.0518426897
v -0.0296493647 0.0103794874 0.0518167159
v -0.0137129356 0.00906023188 0.0592932534
v -0.0136195578 0.0103794874 0.0504816664
v -0.0138519639 -0.0117665582 0.0460674313
v -0.0155057834 -0.0117556557 0.0460284707
v -0.0138042382 -0.00912150574 0.0592932534
v -0.0273190776 -0.00917602039 0.0592932534
v -0.0323490143 -0.0118254346 0.0460284707
v -0.0141798231 0.00924558151 0.0592932534
v -0.0141818983 0.0103794874 0.0518465857
v -0.0142109485 0.0103794874 0.0518608713
v -0.0138187632 0.00912782947 0.0592932534
v -0.0136672843 0.0103794874 0.0506959496
v -0.0136755844 0.0103794874 0.0507323128
v -0.0139162908 -0.0117992671 0.0460674313
v -0.0155452098 -0.0117774622 0.0460284707
v -0.0138602641 -0.0091498537 0.0592932534
v -0.027169673 -0.00920654884 0.0592932534
v -0.0322141348 -0.011851602 0.0460284707
v -0.0141154962 0.00923467827 0.0592932534
v -0.0141175715 0.0103794874 0.0517959369
v -0.0141466225 0.0103794874 0.0518193133
v -0.0138747899 0.00915617743 0.0592932534
v -0.0137274607 0.0103794874 0.0509375052
v -0.0137689623 0.0103794874 0.0510777634
v -0.0137834874 0.0103794874 0.0511258148
v -0.0139266662 -0.0118036281 0.0460674313
v -0.0156717883 -0.011836337 0.0460284707
v -0.0156157616 -0.0118123501 0.0460284707
v -0.0139142155 -0.00917602039 0.0592932534
v -0.0270264942 -0.00922835454 0.0592932534
v -0.0320792554 -0.0118712265 0.0460284707
v -0.0140532446 0.00922159532 0.0592932534
v -0.0140553199 0.0103794874 0.0517245092
v -0.0139328911 0.0091823449 0.0592932534
v -0.0138229137 0.0103794874 0.0512439952
v -0.0140013684 -0.0118319761 0.0460674313
v -0.0157651661 -0.0118668655 0.0460284707
v -0.0139723174 -0.00919782609 0.0592932534
v -0.0268833154 -0.00924361877 0.0592932534
v -0.0319464528 -0.0118821289 0.0460284707
v -0.0268584157 -0.00924579926 0.0592932534
v -0.0139225157 0.0103794874 0.0514920443
v -0.0139370416 0.0103794874 0.0515219141
v -0.0139598668 0.0103794874 0.0515660695
v -0.0139951427 0.0103794874 0.0516323025
v -0.0138664898 0.0103794874 0.0513608771
v -0.0138789396 0.0103794874 0.0513920455
v -0.0138996904 0.0103794874 0.0514400969
v -0.0140781451 -0.0118537825 0.0460674313
v -0.0140304194 -0.00921745208 0.0592932534
v -0.0141507721 -0.011869046 0.0460674313
v -0.0158419428 -0.0118799484 0.0460284707
v -0.0318198743 -0.0118908509 0.0460284707
v -0.0267422119 -0.00925016024 0.0592932534
v -0.0141507721 -0.00924361877 0.0592932534
v -0.0142337746 -0.0118777679 0.0460674313
v -0.0159187203 -0.0118908509 0.0460284707
v -0.0142109485 -0.00925016024 0.0592932534
v -0.0316808444 -0.0118930314 0.0460284707
v -0.0266011083 -0.00925452201 0.0592932534
v -0.0143022511 -0.0118799484 0.0460674313
v -0.0159705965 -0.0118930314 0.0460284707
v -0.0143001767 -0.00925234073 0.0592932534
v -0.0312803598 -0.0118973939 0.0460284707
f 1 2 9
f 1 9 13
f 1 13 18
f 1 18 23
f 1 23 27
f 1 27 31
f 1 31 33
f 1 33 37
f 1 37 42
f 1 42 46
f 1 46 52
f 1 52 51
f 1 51 57
f 1 57 62
f 1 62 72
f 1 72 81
f 1 81 95
f 1 95 106
f 1 106 118
f 1 118 128
f 1 128 139
f 1 139 149
f 1 149 161
f 1 161 160
f 1 160 174
f 1 174 173
f 1 173 184
f 1 184 193
f 1 193 207
f 1 207 220
f 1 220 231
f 1 231 242
f 1 242 255
f 1 255 254
f 1 254 264
f 1 264 279
f 1 279 284
f 1 284 289
f 1 289 291
f 1 291 286
f 1 286 280
f 1 280 267
f 1 267 258
f 1 258 245
f 1 245 234
f 1 234 223
f 1 223 211
f 1 211 198
f 1 198 197
f 1 197 188
f 1 188 179
f 1 179 178
f 1 178 164
f 1 164 151
f 1 151 141
f 1 141 130
f 1 130 120
f 1 120 108
f 1 108 97
f 1 97 83
f 1 83 76
f 1 76 75
f 1 75 69
f 1 69 59
f 1 59 55
f 1 55 54
f 1 54 49
f 1 49 48
f 1 48 44
f 1 44 40
f 1 40 38
f 1 38 34
f 1 34 29
f 1 29 25
f 1 25 21
f 1 21 14
f 1 14 10
f 1 10 3
f 1 3 4
f 1 4 5
f 1 5 6
f 1 6 2
f 2 6 7
f 2 7 8
f 2 8 9
f 3 10 11
f 3 11 4
f 4 11 5
f 5 11 12
f 5 12 6
f 6 12 7
f 7 12 8
f 8 12 9
f 9 12 13
f 10 14 15
f 10 15 16
f 10 16 11
f 11 16 15
f 11 15 22
f 11 22 26
f 11 26 30
f 11 30 35
f 11 35 39
f 11 39 43
f 11 43 47
f 11 47 53
f 11 53 58
f 11 58 68
f 11 68 74
f 11 74 82
f 11 82 96
f 11 96 107
f 11 107 119
f 11 119 129
f 11 129 140
f 11 140 150
f 11 150 163
f 11 163 177
f 11 177 187
f 11 187 196
f 11 196 210
f 11 210 222
f 11 222 233
f 11 233 244
f 11 244 257
f 11 257 266
f 11 266 268
f 11 268 281
f 11 281 287
f 11 287 290
f 11 290 285
f 11 285 282
f 11 282 277
f 11 277 265
f 11 265 256
f 11 256 243
f 11 243 232
f 11 232 221
f 11 221 208
f 11 208 194
f 11 194 185
f 11 185 175
f 11 175 162
f 11 162 156
f 11 156 145
f 11 145 134
f 11 134 123
f 11 123 114
f 11 114 102
f 11 102 90
f 11 90 89
f 11 89 93
f 11 93 105
f 11 105 117
f 11 117 127
f 11 127 126
f 11 126 137
f 11 137 147
f 11 147 158
f 11 158 171
f 11 171 183
f 11 183 192
f 11 192 204
f 11 204 216
f 11 216 228
f 11 228 238
f 11 238 249
f 11 249 261
f 11 261 259
f 11 259 246
f 11 246 235
f 11 235 224
f 11 224 212
f 11 212 199
f 11 199 189
f 11 189 180
f 11 180 165
f 11 165 152
f 11 152 142
f 11 142 131
f 11 131 121
f 11 121 110
f 11 110 101
f 11 101 100
f 11 100 98
f 11 98 85
f 11 85 78
f 11 78 73
f 11 73 67
f 11 67 66
f 11 66 65
f 11 65 64
f 11 64 63
f 11 63 60
f 11 60 56
f 11 56 50
f 11 50 45
f 11 45 41
f 11 41 36
f 11 36 32
f 11 32 28
f 11 28 24
f 11 24 20
f 11 20 19
f 11 19 17
f 11 17 12
f 12 17 13
f 13 17 19
f 13 19 20
f 13 20 18
f 14 21 22
f 14 22 15
f 18 20 23
f 20 24 23
f 21 25 22
f 22 25 26
f 23 24 27
f 24 28 27
f 25 29 26
f 26 29 30
f 27 28 31
f 28 32 33
f 28 33 31
f 29 34 30
f 30 34 35
f 32 36 33
f 33 36 37
f 34 38 35
f 35 38 40
f 35 40 39
f 36 41 42
f 36 42 37
f 39 40 44
f 39 44 43
f 41 45 46
f 41 46 42
f 43 44 48
f 43 48 49
f 43 49 47
f 45 50 51
f 45 51 52
f 45 52 46
f 47 49 54
f 47 54 55
f 47 55 53
f 50 56 57
f 50 57 51
f 53 55 59
f 53 59 58
f 56 60 57
f 57 61 70
f 57 70 77
f 57 77 84
f 57 84 87
f 57 87 86
f 57 86 99
f 57 99 109
f 57 109 113
f 57 113 112
f 57 112 111
f 57 111 122
f 57 122 133
f 57 133 132
f 57 132 144
f 57 144 143
f 57 143 155
f 57 155 154
f 57 154 153
f 57 153 169
f 57 169 168
f 57 168 167
f 57 167 166
f 57 166 181
f 57 181 190
f 57 190 202
f 57 202 201
f 57 201 200
f 57 200 215
f 57 215 214
f 57 214 213
f 57 213 227
f 57 227 226
f 57 226 225
f 57 225 237
f 57 237 236
f 57 236 248
f 57 248 247
f 57 247 260
f 57 260 272
f 57 272 271
f 57 271 270
f 57 270 269
f 57 269 275
f 57 275 274
f 57 274 273
f 57 273 262
f 57 262 252
f 57 252 251
f 57 251 250
f 57 250 240
f 57 240 239
f 57 239 229
f 57 229 218
f 57 218 217
f 57 217 206
f 57 206 205
f 57 205 203
f 57 203 191
f 57 191 182
f 57 182 170
f 57 170 157
f 57 157 146
f 57 146 136
f 57 136 125
f 57 125 116
f 57 116 104
f 57 104 92
f 57 92 80
f 57 80 71
f 57 71 62
f 57 60 63
f 57 63 64
f 57 64 65
f 57 65 66
f 57 66 67
f 57 67 61
f 58 59 69
f 58 69 68
f 61 67 70
f 62 71 79
f 62 79 72
f 67 73 70
f 68 69 75
f 68 75 76
f 68 76 74
f 70 73 78
f 70 78 77
f 71 80 94
f 71 94 88
f 71 88 79
f 72 79 81
f 74 76 83
f 74 83 82
f 77 78 84
f 78 85 86
f 78 86 87
f 78 87 84
f 79 88 89
f 79 89 90
f 79 90 91
f 79 91 81
f 80 92 93
f 80 93 94
f 81 91 95
f 82 83 97
f 82 97 96
f 85 98 86
f 86 98 100
f 86 100 101
f 86 101 99
f 88 94 93
f 88 93 89
f 90 102 103
f 90 103 91
f 91 103 95
f 92 104 105
f 92 105 93
f 95 103 106
f 96 97 108
f 96 108 107
f 99 101 109
f 101 110 111
f 101 111 112
f 101 112 113
f 101 113 109
f 102 114 103
f 103 115 106
f 103 114 115
f 104 116 117
f 104 117 105
f 106 115 118
f 107 108 119
f 108 120 119
f 110 121 111
f 111 121 122
f 114 123 124
f 114 124 115
f 115 124 118
f 116 125 126
f 116 126 127
f 116 127 117
f 118 124 128
f 119 120 129
f 120 130 129
f 121 131 132
f 121 132 133
f 121 133 122
f 123 134 124
f 124 135 128
f 124 134 135
f 125 136 126
f 126 136 137
f 128 138 139
f 128 135 138
f 129 130 140
f 130 141 140
f 131 142 143
f 131 143 144
f 131 144 132
f 134 145 138
f 134 138 135
f 136 146 147
f 136 147 137
f 138 148 149
f 138 149 139
f 138 145 148
f 140 141 150
f 141 151 150
f 142 152 153
f 142 153 154
f 142 154 155
f 142 155 143
f 145 156 148
f 146 157 147
f 147 157 158
f 148 159 160
f 148 160 161
f 148 161 149
f 148 156 162
f 148 162 159
f 150 151 164
f 150 164 163
f 152 165 166
f 152 166 167
f 152 167 168
f 152 168 169
f 152 169 153
f 157 170 158
f 158 170 171
f 159 172 173
f 159 173 174
f 159 174 160
f 159 162 172
f 162 175 176
f 162 176 172
f 163 164 178
f 163 178 179
f 163 179 177
f 165 180 181
f 165 181 166
f 170 182 183
f 170 183 171
f 172 176 173
f 173 176 184
f 175 185 186
f 175 186 176
f 176 186 184
f 177 179 188
f 177 188 187
f 180 189 181
f 181 189 190
f 182 191 183
f 183 191 192
f 184 186 193
f 185 194 195
f 185 195 186
f 186 195 193
f 187 188 197
f 187 197 198
f 187 198 196
f 189 199 200
f 189 200 201
f 189 201 202
f 189 202 190
f 191 203 192
f 192 203 205
f 192 205 206
f 192 206 204
f 193 195 207
f 194 208 209
f 194 209 195
f 195 209 207
f 196 198 210
f 198 211 210
f 199 212 213
f 199 213 214
f 199 214 215
f 199 215 200
f 204 206 217
f 204 217 218
f 204 218 216
f 207 219 220
f 207 209 219
f 208 221 209
f 209 221 219
f 210 211 222
f 211 223 222
f 212 224 225
f 212 225 226
f 212 226 227
f 212 227 213
f 216 218 228
f 218 229 228
f 219 230 231
f 219 231 220
f 219 221 232
f 219 232 230
f 222 223 234
f 222 234 233
f 224 235 236
f 224 236 237
f 224 237 225
f 228 229 239
f 228 239 240
f 228 240 238
f 230 241 242
f 230 242 231
f 230 232 241
f 232 243 241
f 233 234 244
f 234 245 244
f 235 246 247
f 235 247 248
f 235 248 236
f 238 240 250
f 238 250 251
f 238 251 252
f 238 252 249
f 241 253 254
f 241 254 255
f 241 255 242
f 241 243 256
f 241 256 253
f 244 245 257
f 245 258 257
f 246 259 260
f 246 260 247
f 249 252 262
f 249 262 261
f 253 263 254
f 253 256 263
f 254 263 264
f 256 265 263
f 257 258 266
f 258 267 268
f 258 268 266
f 259 261 269
f 259 269 270
f 259 270 271
f 259 271 272
f 259 272 260
f 261 262 273
f 261 273 274
f 261 274 275
f 261 275 269
f 263 276 264
f 263 265 277
f 263 277 276
f 264 276 278
f 264 278 279
f 267 280 268
f 268 280 281
f 276 277 282
f 276 282 278
f 278 283 284
f 278 284 279
f 278 282 285
f 278 285 283
f 280 286 287
f 280 287 281
f 283 288 289
f 283 289 284
f 283 285 288
f 285 290 288
f 286 291 287
f 287 291 290
f 288 290 289
f 289 290 291
