# Derived from Apache-2.0 SO-ARM100 STL; see THIRD_PARTY.md
v -0.0352000006 -0.0114345909 0.0398059379
v -0.0351892835 -0.0116687644 0.0398059379
v -0.0351978578 -0.00949816208 0.0441099445
v -0.0352000006 -0.00940809585 0.0441058765
v -0.0352000006 0.0103795117 0.0380214161
v -0.0351699921 -0.0118729153 0.0398059379
v -0.0351892835 -0.00966028194 0.0441329968
v -0.0351742777 -0.00979838419 0.0441750333
v -0.0344990794 -0.00907484982 0.0460260004
v -0.0352000006 0.00940979624 0.0441058765
v -0.0352000006 0.0124180167 0.0380214161
v -0.0150040701 0.0103795117 0.0380214161
v -0.0247933725 -0.0149051542 0.0398059379
v -0.0321969737 -0.0148751316 0.0398059379
v -0.0323941762 -0.0148691273 0.0398059379
v -0.032503493 -0.0148571189 0.0398059379
v -0.0325913787 -0.0148451089 0.0398059379
v -0.0327521381 -0.0148150879 0.0398059379
v -0.0327885781 -0.0148060816 0.0398059379
v -0.0329386236 -0.0147670527 0.0398059379
v -0.0331208171 -0.0147070075 0.0398059379
v -0.0332279943 -0.0146619744 0.0398059379
v -0.033360888 -0.0146019307 0.0398059379
v -0.0334723507 -0.0145448876 0.0398059379
v -0.0336438272 -0.014442813 0.0398059379
v -0.0338174496 -0.0143227241 0.0398059379
v -0.0339589208 -0.0142086395 0.0398059379
v -0.0340789578 -0.0141005607 0.0398059379
v -0.0341432603 -0.0140405154 0.0398059379
v -0.0342482915 -0.0139324366 0.0398059379
v -0.0343811883 -0.0137763209 0.0398059379
v -0.034396191 -0.0137583067 0.0398059379
v -0.0345033681 -0.0136172032 0.0398059379
v -0.0345312307 -0.0135781743 0.0398059379
v -0.0346169736 -0.013446077 0.0398059379
v -0.0347262904 -0.0132599388 0.0398059379
v -0.0347991672 -0.0131188352 0.0398059379
v -0.0348291788 -0.0130587916 0.0398059379
v -0.0348956241 -0.0129086801 0.0398059379
v -0.0349642185 -0.0127315498 0.0398059379
v -0.0350328065 -0.0125243968 0.0398059379
v -0.0350456696 -0.0124793637 0.0398059379
v -0.0350928266 -0.0123022317 0.0398059379
v -0.0351378409 -0.0120830703 0.0398059379
v -0.0351335522 -0.0100115414 0.0442550391
v -0.0344883623 -0.00931202462 0.0460260004
v -0.0344990794 0.00908255442 0.0460260004
v -0.0308873058 0.0103795117 0.0508886876
v -0.0309880482 0.0103795117 0.050777494
v -0.0311252338 0.0103795117 0.0506174835
v -0.0311895363 0.0103795117 0.0505415465
v -0.0312066849 0.0103795117 0.0505212061
v -0.0313760218 0.0103795117 0.0503123793
v -0.0314296072 0.0103795117 0.050241866
v -0.0321326712 0.0103795117 0.0493143484
v -0.0351742777 0.00979708169 0.0441750333
v -0.035195715 0.0095599069 0.0441167248
v -0.0351935691 0.0126011521 0.0380214161
v -0.0150040701 0.0147867649 0.0380214161
v -0.0133042859 0.0103795117 0.0460639689
v -0.0150019265 -0.0137042673 0.0398059379
v -0.0150062137 -0.0138213541 0.0398059379
v -0.0150169315 -0.013902414 0.0398059379
v -0.0150276486 -0.0139564534 0.0398059379
v -0.0150447964 -0.0140345112 0.0398059379
v -0.01504694 -0.0140435175 0.0398059379
v -0.0150662314 -0.0141125691 0.0398059379
v -0.0150833792 -0.0141606043 0.0398059379
v -0.0151133884 -0.0142326579 0.0398059379
v -0.0151241055 -0.0142566747 0.0398059379
v -0.0151819797 -0.0143677573 0.0398059379
v -0.0152248496 -0.0144308046 0.0398059379
v -0.0152677195 -0.0144908482 0.0398059379
v -0.0153491714 -0.0145809144 0.0398059379
v -0.0154006156 -0.0146289497 0.0398059379
v -0.0154349112 -0.0146589723 0.0398059379
v -0.0154542026 -0.0146739828 0.0398059379
v -0.0155099331 -0.0147130117 0.0398059379
v -0.0155656637 -0.0147490385 0.0398059379
v -0.0156128207 -0.0147730569 0.0398059379
v -0.0156492599 -0.0147910695 0.0398059379
v -0.0156706949 -0.0148000758 0.0398059379
v -0.0157114212 -0.0148150879 0.0398059379
v -0.0160007919 -0.0149051542 0.0398059379
v -0.0316803951 -0.01189393 0.0460260004
v -0.0318218663 -0.0118909294 0.0460260004
v -0.0319483317 -0.0118849252 0.0460260004
v -0.0321026627 -0.011866911 0.0460260004
v -0.0322162651 -0.0118488969 0.0460260004
v -0.0323491619 -0.01182488 0.0460260004
v -0.0324756304 -0.0117918553 0.0460260004
v -0.0325956643 -0.0117588306 0.0460260004
v -0.0331229599 -0.0122091634 0.0447906663
v -0.0332258483 -0.012170136 0.0447933786
v -0.0333566024 -0.0121130929 0.0447933786
v -0.0334723507 -0.0120560498 0.0447920228
v -0.0335688076 -0.0120080162 0.0447893106
v -0.0336031016 -0.011990002 0.0447879548
v -0.0337745813 -0.0118879258 0.0447757501
v -0.0338024469 -0.0118699131 0.0447743943
v -0.0339717806 -0.0117528264 0.0447567658
v -0.0341046775 -0.0116477481 0.0447377815
v -0.0341797002 -0.0115847023 0.0447255775
v -0.0342482915 -0.0115246587 0.0447120178
v -0.0343233142 -0.0114526051 0.0446971015
v -0.0343790455 -0.0113955628 0.044683541
v -0.0344947938 -0.0112694697 0.0446523528
v -0.0345655278 -0.0111824056 0.0446293005
v -0.0346169736 -0.011116357 0.044611672
v -0.0346491249 -0.011074326 0.0446008237
v -0.0347220017 -0.0109692484 0.0445709912
v -0.0347820186 -0.0108731772 0.0445425152
v -0.0348163158 -0.0108161357 0.0445248867
v -0.0348934813 -0.0106750313 0.0444814945
v -0.0349942238 -0.0104588712 0.0444109812
v -0.035041384 -0.0103327782 0.0443689447
v -0.0350735352 -0.0102397098 0.0443363999
v -0.0350949694 -0.0101676562 0.0443119919
v -0.0344755024 -0.00945913317 0.0460260004
v -0.0344862195 -0.00934504932 0.0460260004
v -0.030657952 0.0103795117 0.0511259909
v -0.0307522661 0.0103795117 0.0510310696
v -0.0307758431 0.0103795117 0.0510066612
v -0.0323770276 0.0103795117 0.0489739875
v -0.0344862195 0.00935275392 0.0460260004
v -0.0351528435 0.00992017263 0.0442224943
v -0.0333908964 0.0156484015 0.0380214161
v -0.0335280789 0.0155733458 0.0380214161
v -0.0336031016 0.0119917024 0.0447879548
v -0.0336909874 0.0119406643 0.0447838868
v -0.033776724 0.0118896269 0.0447771066
v -0.0338431725 0.0118445938 0.0447716821
v -0.0339717806 0.0117545268 0.0447567658
v -0.0340725263 0.0116764698 0.0447432061
v -0.0341797002 0.0115864027 0.0447255775
v -0.035182852 0.00971602255 0.044147913
v -0.0351378409 0.0131175335 0.0380214161
v -0.0351507007 0.0130274665 0.0380214161
v -0.035182852 0.0127782825 0.0380214161
v -0.0351892835 0.00964096682 0.0441302853
v -0.0150062137 0.0148738291 0.0380214161
v -0.0133042859 0.0108418537 0.0460639689
v -0.0133042859 0.0103795117 0.0474660936
v -0.0133064287 0.0103795117 0.0478173028
v -0.0133128594 0.0103795117 0.0480247735
v -0.0133150029 0.0103795117 0.0480830828
v -0.0150040701 -0.0109122061 0.0460260004
v -0.015014788 -0.0110022731 0.0460260004
v -0.0150319358 -0.0110953415 0.0460260004
v -0.0150576571 -0.0111824056 0.0460260004
v -0.015068375 -0.0112124282 0.0460260004
v -0.0150898099 -0.0112664676 0.0460260004
v -0.0151283927 -0.0113475276 0.0460260004
v -0.0151498276 -0.0113865565 0.0460260004
v -0.0151712626 -0.0114225825 0.0460260004
v -0.0152205624 -0.0114946361 0.0460260004
v -0.0152741494 -0.0115606855 0.0460260004
v -0.0152870109 -0.011575696 0.0460260004
v -0.0153470278 -0.0116327391 0.0460260004
v -0.0154091891 -0.011686777 0.0460260004
v -0.0154499154 -0.0117198017 0.0460260004
v -0.0155442287 -0.0117768448 0.0460260004
v -0.0156149643 -0.0118128716 0.0460260004
v -0.0156921298 -0.0118428926 0.0460260004
v -0.0157671518 -0.0118639089 0.0460260004
v -0.0158421737 -0.0118819216 0.0460260004
v -0.0159193392 -0.0118909294 0.0460260004
v -0.0159707835 -0.01189393 0.0460260004
v -0.0142452763 0.0103795117 0.0518745137
v -0.0295411947 0.0103795117 0.0518406132
v -0.0326471069 -0.011740818 0.0460260004
v -0.0327285612 -0.011710797 0.0460260004
v -0.0328786035 -0.0116507518 0.0460260004
v -0.032992209 -0.0115967108 0.0460260004
v -0.0331379657 -0.0115216566 0.0460260004
v -0.0332151312 -0.0114736198 0.0460260004
v -0.0332622883 -0.0114435988 0.0460260004
v -0.0333823253 -0.0113625389 0.0460260004
v -0.0334852106 -0.0112814789 0.0460260004
v -0.0336073903 -0.0111794035 0.0460260004
v -0.033695273 -0.0110953415 0.0460260004
v -0.0337938726 -0.0109902639 0.0460260004
v -0.0338839012 -0.0108851864 0.0460260004
v -0.0340510921 -0.0106510137 0.0460260004
v -0.0340896748 -0.0105879672 0.0460260004
v -0.0341239689 -0.0105309249 0.0460260004
v -0.0342075659 -0.0103718071 0.0460260004
v -0.034254723 -0.0102727346 0.0460260004
v -0.0343168827 -0.0101166189 0.0460260004
v -0.0343490371 -0.0100265527 0.0460260004
v -0.034396191 -0.00986743492 0.0460260004
v -0.0344347738 -0.00971132005 0.0460260004
v -0.0344540651 -0.00960924462 0.0460260004
v -0.0302356844 0.0103795117 0.0514948281
v -0.0303471471 0.0103795117 0.0514066871
v -0.0303707241 0.0103795117 0.0513877028
v -0.0304414612 0.0103795117 0.0513280378
v -0.0305700694 0.0103795117 0.0512100643
v -0.0342825886 0.0114933344 0.0447065933
v -0.0326256728 0.0103795117 0.0486119301
v -0.0344755024 0.00946383567 0.0460260004
v -0.0351142608 0.0100973038 0.0442862274
v -0.0351335522 0.0100102397 0.0442550391
v -0.0333587452 0.015663412 0.0380214161
v -0.0336031016 0.0155283127 0.0380214161
v -0.0336909874 0.0154712712 0.0380214161
v -0.0338088784 0.0153872091 0.0380214161
v -0.0338474612 0.0153571865 0.0380214161
v -0.0340125093 0.0152220872 0.0380214161
v -0.0341432603 0.0150959941 0.0380214161
v -0.0342097087 0.0150299447 0.0380214161
v -0.035112118 0.0132466286 0.0380214161
v -0.0150126444 0.0149278701 0.0380214161
v -0.0133128594 0.0109709488 0.0460639689
v -0.0133064287 0.0109079023 0.0460639689
v -0.0133171465 0.0110009706 0.0460639689
v -0.0133235772 0.0103795117 0.0482647894
v -0.0133278636 0.0103795117 0.0483461505
v -0.0133450114 0.0103795117 0.0486065064
v -0.0133557293 0.0103795117 0.0487366839
v -0.0133664464 0.0103795117 0.0488614377
v -0.0133771642 0.0103795117 0.0489672073
v -0.0134007428 0.0103795117 0.0491923069
v -0.0134221769 0.0103795117 0.0493509612
v -0.0134607597 0.0103795117 0.0496221649
v -0.0134929125 0.0103795117 0.0498052276
v -0.0135743652 0.0103795117 0.0502445782
v -0.0136193779 0.0103795117 0.0504805257
v -0.0136665349 0.0103795117 0.0506934205
v -0.0136751084 0.0103795117 0.0507300333
v -0.0137094048 0.0103795117 0.0508683472
v -0.0137158348 0.0103795117 0.0508927556
v -0.013767279 0.0103795117 0.0510758183
v -0.0138122917 0.0103795117 0.05121142
v -0.0138401574 0.0103795117 0.0512900693
v -0.0138658787 0.0103795117 0.0513592265
v -0.0138787401 0.0103795117 0.0513904147
v -0.0139366143 0.0103795117 0.0515192365
v -0.0139944884 0.0103795117 0.0516304306
v -0.0140395011 0.0103795117 0.0516968751
v -0.0140566489 0.0103795117 0.0517212839
v -0.0140845146 0.0103795117 0.0517538279
v -0.0141188102 0.0103795117 0.0517931529
v -0.0141466759 0.0103795117 0.0518175609
v -0.0141809715 0.0103795117 0.0518433254
v -0.0142109799 0.0103795117 0.0518582417
v -0.0157564339 0.0157654883 0.0382532944
v -0.015797161 0.0157654883 0.0382722795
v -0.015803591 0.0157654883 0.0382749925
v -0.0158185952 0.0157654883 0.0382804155
v -0.0158636095 0.0157654883 0.0382953317
v -0.0159193392 0.0157654883 0.0383075365
v -0.0159257692 0.0157654883 0.0383088922
v -0.0159514921 0.0157654883 0.0383116053
v -0.0159922176 0.0157654883 0.0383143168
v -0.0321969737 0.0157654883 0.0383143168
v -0.0323191535 0.0157654883 0.0383116053
v -0.0324713417 0.0157654883 0.0382926202
v -0.0325292159 0.0157654883 0.0382804155
v -0.0325463644 0.0157654883 0.0382763467
v -0.0296483687 0.0103795117 0.0518148486
v -0.0296676601 0.0103795117 0.0518094249
v -0.0296955258 0.0103795117 0.0517999324
v -0.0298091313 0.0103795117 0.0517565401
v -0.0298627198 0.0103795117 0.0517307756
v -0.0299784681 0.0103795117 0.0516683991
v -0.0300449166 0.0103795117 0.0516290741
v -0.0301585189 0.0103795117 0.051553137
v -0.030182099 0.0103795117 0.0515355089
v -0.0331272486 0.0157654883 0.0380214161
v -0.0331765485 0.0157474741 0.0380214161
v -0.0343233142 0.0114543055 0.0446971015
v -0.0332987283 0.0103795117 0.0476220361
v -0.0344540651 0.00961094422 0.0460260004
v -0.0350735352 0.0102384081 0.0443363999
v -0.0350649609 0.0134507795 0.0380214161
v -0.0342825886 0.0149488848 0.0380214161
v -0.0150190743 0.0149789074 0.0380214161
v -0.0133364379 0.0110910369 0.0460639689
v -0.0150383657 0.0150719757 0.0380214161
v -0.01336216 0.0111781018 0.0460639689
v -0.0133771642 0.0112201328 0.0460639689
v -0.0134007428 0.0112801772 0.0460639689
v -0.0134328948 0.0113432237 0.0460639689
v -0.0134607597 0.0113942611 0.0460639689
v -0.0134757647 0.0114182787 0.0460639689
v -0.0135357824 0.0114993386 0.0460639689
v -0.0135807951 0.0115533788 0.0460639689
v -0.0153191629 0.015621381 0.0380214161
v -0.0153427414 0.0156453994 0.0380214161
v -0.0154006156 0.015702441 0.0380214161
v -0.0154584897 0.0157504777 0.0380214161
v -0.0154799247 0.0157654883 0.0380214161
v -0.0155206502 0.0157654883 0.0380715878
v -0.0155828115 0.0157654883 0.0381326102
v -0.0156042464 0.0157654883 0.038152951
v -0.0156363985 0.0157654883 0.0381773574
v -0.0156728385 0.0157654883 0.0382044784
v -0.0157328554 0.0157654883 0.0382410912
v -0.0326535384 0.0157654883 0.0382478715
v -0.0327435638 0.0157654883 0.0382180389
v -0.0327542809 0.0157654883 0.0382139702
v -0.0328335892 0.0157654883 0.0381827835
v -0.0329643433 0.0157654883 0.0381204054
v -0.0330115004 0.0157654883 0.0380946401
v -0.0343833311 0.011391259 0.044683541
v -0.0344926479 0.0112711701 0.0446537085
v -0.0345655278 0.011184106 0.0446306563
v -0.0333758938 0.0103795117 0.04749457
v -0.034396191 0.00986913531 0.0460260004
v -0.0344283454 0.00974004016 0.0460260004
v -0.0350649609 0.0102654279 0.0443445359
v -0.0350006553 0.0136699417 0.0380214161
v -0.0343940482 0.0148137854 0.0380214161
v -0.0150405093 0.015080982 0.0380214161
v -0.015068375 0.0151800561 0.0380214161
v -0.0150769485 0.0152070751 0.0380214161
v -0.0150983834 0.0152641182 0.0380214161
v -0.0151369662 0.0153511823 0.0380214161
v -0.0151605447 0.0153992175 0.0380214161
v -0.0151798361 0.0154322422 0.0380214161
v -0.0151969839 0.0154592627 0.0380214161
v -0.0152291367 0.015507298 0.0380214161
v -0.0152805801 0.0155763479 0.0380214161
v -0.0345419509 0.0146156388 0.0380214161
v -0.0346469789 0.0110760263 0.0446008237
v -0.0334659192 0.0103795117 0.047342696
v -0.0343919054 0.00988414661 0.0460260004
v -0.0348634728 0.0103765096 0.0447391381
v -0.0349127727 0.0103765096 0.0446347243
v -0.0350220926 0.0103795117 0.0443852166
v -0.034992081 0.0104605716 0.0444123369
v -0.034968504 0.0137660121 0.0380214161
v -0.0346469789 0.0144505168 0.0380214161
v -0.0347262904 0.0109619417 0.0445696355
v -0.0335216505 0.0103795117 0.0472450624
v -0.0343083115 0.0101393348 0.0460260004
v -0.0343490371 0.0100252502 0.0460260004
v -0.0347541561 0.0103765096 0.0449655934
v -0.0349277785 0.0106076802 0.0444597979
v -0.0349749324 0.0104996005 0.0444258974
v -0.0349277785 0.0138770947 0.0380214161
v -0.0347027103 0.0143544464 0.0380214161
v -0.0347820186 0.0108748776 0.044543871
v -0.03424186 0.0103795117 0.0459581993
v -0.0341389747 0.0103795117 0.0461439743
v -0.03374243 0.0103795117 0.0468558847
v -0.0342933057 0.0101783637 0.0460260004
v -0.0345226595 0.0103795117 0.0454293516
v -0.0348634728 0.0107337732 0.0445004787
v -0.034586962 0.0103795117 0.0453018863
v -0.0348934813 0.0106737288 0.0444828502
v -0.0348463242 0.0140722377 0.0380214161
v -0.0347498673 0.0142643801 0.0380214161
v -0.0344304882 0.0103795117 0.0456056344
v -0.0343490371 0.0103765096 0.0457615765
v -0.034254723 0.01026843 0.0460260004
f 1 2 3
f 1 3 4
f 1 4 10
f 1 10 11
f 1 11 5
f 1 5 2
f 2 6 7
f 2 7 3
f 2 5 6
f 3 7 4
f 4 7 8
f 4 8 9
f 4 9 47
f 4 47 10
f 5 11 58
f 5 58 139
f 5 139 138
f 5 138 137
f 5 137 212
f 5 212 276
f 5 276 313
f 5 313 333
f 5 333 342
f 5 342 353
f 5 353 354
f 5 354 343
f 5 343 334
f 5 334 325
f 5 325 314
f 5 314 277
f 5 277 211
f 5 211 210
f 5 210 209
f 5 209 208
f 5 208 207
f 5 207 206
f 5 206 205
f 5 205 128
f 5 128 127
f 5 127 204
f 5 204 271
f 5 271 270
f 5 270 293
f 5 293 292
f 5 292 291
f 5 291 290
f 5 290 289
f 5 289 324
f 5 324 323
f 5 323 322
f 5 322 321
f 5 321 320
f 5 320 319
f 5 319 318
f 5 318 317
f 5 317 316
f 5 316 315
f 5 315 280
f 5 280 278
f 5 278 213
f 5 213 141
f 5 141 59
f 5 59 12
f 5 12 84
f 5 84 13
f 5 13 14
f 5 14 15
f 5 15 16
f 5 16 17
f 5 17 18
f 5 18 19
f 5 19 20
f 5 20 21
f 5 21 22
f 5 22 23
f 5 23 24
f 5 24 25
f 5 25 26
f 5 26 27
f 5 27 28
f 5 28 29
f 5 29 30
f 5 30 31
f 5 31 32
f 5 32 33
f 5 33 34
f 5 34 35
f 5 35 36
f 5 36 37
f 5 37 38
f 5 38 39
f 5 39 40
f 5 40 41
f 5 41 42
f 5 42 43
f 5 43 44
f 5 44 6
f 6 44 8
f 6 8 7
f 8 45 46
f 8 46 9
f 8 44 45
f 9 46 48
f 9 48 49
f 9 49 50
f 9 50 51
f 9 51 52
f 9 52 53
f 9 53 54
f 9 54 55
f 9 55 47
f 10 47 56
f 10 56 57
f 10 57 11
f 11 57 58
f 12 59 142
f 12 142 60
f 12 60 61
f 12 61 62
f 12 62 63
f 12 63 64
f 12 64 65
f 12 65 66
f 12 66 67
f 12 67 68
f 12 68 69
f 12 69 70
f 12 70 71
f 12 71 72
f 12 72 73
f 12 73 74
f 12 74 75
f 12 75 76
f 12 76 77
f 12 77 78
f 12 78 79
f 12 79 80
f 12 80 81
f 12 81 82
f 12 82 83
f 12 83 84
f 13 84 168
f 13 168 85
f 13 85 14
f 14 85 86
f 14 86 15
f 15 86 87
f 15 87 16
f 16 87 88
f 16 88 17
f 17 88 89
f 17 89 90
f 17 90 18
f 18 90 19
f 19 90 20
f 20 90 91
f 20 91 92
f 20 92 93
f 20 93 21
f 21 93 94
f 21 94 22
f 22 94 95
f 22 95 23
f 23 95 96
f 23 96 24
f 24 96 97
f 24 97 98
f 24 98 25
f 25 98 99
f 25 99 100
f 25 100 26
f 26 100 101
f 26 101 27
f 27 101 102
f 27 102 28
f 28 102 103
f 28 103 29
f 29 103 104
f 29 104 30
f 30 104 105
f 30 105 106
f 30 106 31
f 31 106 32
f 32 106 107
f 32 107 33
f 33 107 108
f 33 108 34
f 34 108 109
f 34 109 110
f 34 110 35
f 35 110 111
f 35 111 36
f 36 111 112
f 36 112 113
f 36 113 37
f 37 113 38
f 38 113 114
f 38 114 39
f 39 114 115
f 39 115 40
f 40 115 41
f 41 115 116
f 41 116 117
f 41 117 42
f 42 117 43
f 43 117 118
f 43 118 45
f 43 45 44
f 45 118 119
f 45 119 120
f 45 120 46
f 46 120 121
f 46 121 122
f 46 122 123
f 46 123 48
f 47 55 124
f 47 124 125
f 47 125 126
f 47 126 56
f 48 123 127
f 48 127 128
f 48 128 49
f 49 128 129
f 49 129 130
f 49 130 131
f 49 131 50
f 50 131 51
f 51 131 52
f 52 131 53
f 53 131 132
f 53 132 133
f 53 133 54
f 54 133 55
f 55 133 134
f 55 134 135
f 55 135 124
f 56 136 57
f 56 126 137
f 56 137 138
f 56 138 139
f 56 139 136
f 57 136 140
f 57 140 139
f 57 139 58
f 59 141 142
f 60 62 61
f 60 142 143
f 60 143 62
f 62 143 144
f 62 144 145
f 62 145 146
f 62 146 147
f 62 147 148
f 62 148 63
f 63 148 149
f 63 149 64
f 64 149 65
f 65 149 66
f 66 149 67
f 67 149 150
f 67 150 151
f 67 151 68
f 68 151 152
f 68 152 69
f 69 152 70
f 70 152 153
f 70 153 71
f 71 153 154
f 71 154 155
f 71 155 72
f 72 155 156
f 72 156 73
f 73 156 157
f 73 157 158
f 73 158 74
f 74 158 159
f 74 159 75
f 75 159 76
f 76 159 160
f 76 160 161
f 76 161 77
f 77 161 78
f 78 161 79
f 79 161 162
f 79 162 163
f 79 163 80
f 80 163 81
f 81 163 82
f 82 163 164
f 82 164 83
f 83 164 84
f 84 164 165
f 84 165 166
f 84 166 167
f 84 167 168
f 85 168 169
f 85 169 170
f 85 170 86
f 86 170 87
f 87 170 88
f 88 170 89
f 89 170 90
f 90 170 91
f 91 170 92
f 92 170 171
f 92 171 93
f 93 171 94
f 94 171 172
f 94 172 173
f 94 173 95
f 95 173 174
f 95 174 96
f 96 174 97
f 97 174 175
f 97 175 98
f 98 175 176
f 98 176 177
f 98 177 99
f 99 177 178
f 99 178 100
f 100 178 101
f 101 178 179
f 101 179 180
f 101 180 102
f 102 180 181
f 102 181 103
f 103 181 104
f 104 181 182
f 104 182 105
f 105 182 183
f 105 183 106
f 106 183 107
f 107 183 184
f 107 184 108
f 108 184 109
f 109 184 185
f 109 185 110
f 110 185 186
f 110 186 111
f 111 186 187
f 111 187 188
f 111 188 112
f 112 188 113
f 113 188 189
f 113 189 114
f 114 189 190
f 114 190 115
f 115 190 191
f 115 191 192
f 115 192 116
f 116 192 117
f 117 192 193
f 117 193 118
f 118 193 119
f 119 193 194
f 119 194 195
f 119 195 196
f 119 196 197
f 119 197 120
f 120 197 198
f 120 198 121
f 121 198 127
f 121 127 122
f 122 127 123
f 124 135 199
f 124 199 200
f 124 200 125
f 125 200 201
f 125 201 202
f 125 202 203
f 125 203 126
f 126 203 137
f 127 198 204
f 128 205 129
f 129 205 130
f 130 205 131
f 131 205 206
f 131 206 207
f 131 207 132
f 132 207 133
f 133 207 208
f 133 208 209
f 133 209 134
f 134 209 135
f 135 209 210
f 135 210 211
f 135 211 199
f 136 139 140
f 137 203 202
f 137 202 212
f 141 213 214
f 141 214 215
f 141 215 142
f 142 215 144
f 142 144 143
f 144 215 214
f 144 214 145
f 145 214 146
f 146 214 216
f 146 216 217
f 146 217 147
f 147 217 218
f 147 218 219
f 147 219 220
f 147 220 221
f 147 221 222
f 147 222 223
f 147 223 224
f 147 224 225
f 147 225 226
f 147 226 227
f 147 227 228
f 147 228 229
f 147 229 230
f 147 230 231
f 147 231 148
f 148 231 232
f 148 232 233
f 148 233 234
f 148 234 235
f 148 235 236
f 148 236 237
f 148 237 238
f 148 238 239
f 148 239 149
f 149 239 240
f 149 240 241
f 149 241 242
f 149 242 243
f 149 243 150
f 150 243 244
f 150 244 151
f 151 244 152
f 152 244 245
f 152 245 153
f 153 245 154
f 154 245 246
f 154 246 155
f 155 246 169
f 155 169 156
f 156 169 157
f 157 169 158
f 158 169 159
f 159 169 160
f 160 169 161
f 161 169 162
f 162 169 163
f 163 169 164
f 164 169 165
f 165 169 166
f 166 169 167
f 167 169 168
f 169 246 247
f 169 247 248
f 169 248 249
f 169 249 250
f 169 250 251
f 169 251 252
f 169 252 253
f 169 253 254
f 169 254 255
f 169 255 256
f 169 256 170
f 170 256 257
f 170 257 258
f 170 258 259
f 170 259 260
f 170 260 261
f 170 261 182
f 170 182 181
f 170 181 180
f 170 180 179
f 170 179 178
f 170 178 177
f 170 177 176
f 170 176 175
f 170 175 174
f 170 174 173
f 170 173 172
f 170 172 171
f 182 261 183
f 183 261 262
f 183 262 184
f 184 262 185
f 185 262 186
f 186 262 263
f 186 263 187
f 187 263 264
f 187 264 188
f 188 264 189
f 189 264 265
f 189 265 190
f 190 265 266
f 190 266 191
f 191 266 267
f 191 267 192
f 192 267 268
f 192 268 193
f 193 268 269
f 193 269 194
f 194 269 270
f 194 270 271
f 194 271 195
f 195 271 196
f 196 271 197
f 197 271 198
f 198 271 204
f 199 211 272
f 199 272 273
f 199 273 200
f 200 273 201
f 201 273 274
f 201 274 275
f 201 275 202
f 202 275 276
f 202 276 212
f 211 277 272
f 213 278 214
f 214 278 216
f 216 279 218
f 216 218 217
f 216 278 280
f 216 280 279
f 218 279 219
f 219 279 220
f 220 279 281
f 220 281 221
f 221 281 222
f 222 281 282
f 222 282 223
f 223 282 283
f 223 283 224
f 224 283 225
f 225 283 284
f 225 284 285
f 225 285 226
f 226 285 286
f 226 286 227
f 227 286 228
f 228 286 287
f 228 287 229
f 229 287 288
f 229 288 230
f 230 288 231
f 231 288 289
f 231 289 232
f 232 289 290
f 232 290 233
f 233 290 291
f 233 291 234
f 234 291 235
f 235 291 292
f 235 292 236
f 236 292 237
f 237 292 238
f 238 292 293
f 238 293 239
f 239 293 240
f 240 293 241
f 241 293 294
f 241 294 242
f 242 294 243
f 243 294 295
f 243 295 296
f 243 296 244
f 244 296 297
f 244 297 245
f 245 297 298
f 245 298 299
f 245 299 247
f 245 247 246
f 247 299 298
f 247 298 297
f 247 297 296
f 247 296 295
f 247 295 294
f 247 294 293
f 247 293 270
f 247 270 305
f 247 305 304
f 247 304 303
f 247 303 302
f 247 302 301
f 247 301 300
f 247 300 260
f 247 260 259
f 247 259 258
f 247 258 257
f 247 257 256
f 247 256 255
f 247 255 254
f 247 254 253
f 247 253 252
f 247 252 251
f 247 251 250
f 247 250 249
f 247 249 248
f 260 300 261
f 261 300 262
f 262 300 301
f 262 301 263
f 263 301 302
f 263 302 264
f 264 302 303
f 264 303 304
f 264 304 265
f 265 304 266
f 266 304 305
f 266 305 267
f 267 305 270
f 267 270 268
f 268 270 269
f 272 306 273
f 272 277 306
f 273 306 307
f 273 307 308
f 273 308 309
f 273 309 310
f 273 310 311
f 273 311 274
f 274 311 312
f 274 312 275
f 275 312 276
f 276 312 313
f 277 314 306
f 279 280 315
f 279 315 316
f 279 316 281
f 281 316 317
f 281 317 282
f 282 317 318
f 282 318 283
f 283 318 319
f 283 319 320
f 283 320 284
f 284 320 285
f 285 320 321
f 285 321 286
f 286 321 322
f 286 322 323
f 286 323 287
f 287 323 324
f 287 324 288
f 288 324 289
f 306 314 307
f 307 314 325
f 307 325 308
f 308 325 326
f 308 326 327
f 308 327 309
f 309 327 328
f 309 328 310
f 310 328 329
f 310 329 330
f 310 330 311
f 311 330 312
f 312 330 331
f 312 331 332
f 312 332 313
f 313 332 333
f 325 334 326
f 326 334 335
f 326 335 336
f 326 336 327
f 327 336 337
f 327 337 338
f 327 338 328
f 328 338 329
f 329 338 339
f 329 339 340
f 329 340 330
f 330 340 341
f 330 341 332
f 330 332 331
f 332 341 342
f 332 342 333
f 334 343 335
f 335 343 344
f 335 344 345
f 335 345 346
f 335 346 347
f 335 347 336
f 336 347 348
f 336 348 337
f 337 348 349
f 337 349 350
f 337 350 351
f 337 351 338
f 338 351 352
f 338 352 340
f 338 340 339
f 340 352 350
f 340 350 353
f 340 353 342
f 340 342 341
f 343 354 344
f 344 354 353
f 344 353 350
f 344 350 355
f 344 355 356
f 344 356 345
f 345 356 357
f 345 357 346
f 346 357 347
f 347 357 348
f 348 357 356
f 348 356 355
f 348 355 350
f 348 350 349
f 350 352 351
