# Derived from Apache-2.0 SO-ARM100 STL; see THIRD_PARTY.md
v -0.0296719143 0.00129984668 0.0592945518
v -0.0292247941 0.00620874559 0.0605232808
v -0.0296703119 0.00637907999 0.0592945518
v -0.0296703119 -0.00638333157 0.0592945518
v -0.0292247941 -0.00620756165 0.0605232808
v -0.0273529867 0.00574123125 0.0656632459
v -0.0283594045 -0.00527434507 0.0628996968
v -0.0296606976 0.00662370938 0.0592945518
v -0.0296623 -0.00658447248 0.0592945518
v -0.0273529867 -0.00574004731 0.0656632459
v -0.0273433709 0.00597680052 0.0656632459
v -0.0296590952 0.00664545459 0.0592945518
v -0.0296606976 -0.00662252504 0.0592945518
v -0.0273433709 -0.00597742868 0.0656632459
v -0.0273385637 0.00601847807 0.0656632459
v -0.0296462731 0.00675780253 0.0592945518
v -0.0296462731 -0.00675843109 0.0592945518
v -0.0273321526 -0.0060734677 0.0656632459
v -0.0273273455 0.00611270578 0.0656632459
v -0.0296430683 0.00678135985 0.0592945518
v -0.0296286438 -0.00687077903 0.0592945518
v -0.0273065114 -0.00625105051 0.0656632459
v -0.0273129225 -0.00620937296 0.0656632459
v -0.0273273455 -0.00611333394 0.0656632459
v -0.0273065114 0.00625042314 0.0656632459
v -0.0296238366 0.00689370858 0.0592945518
v -0.0296014002 -0.00700849639 0.0592945518
v -0.027285679 -0.00634709111 0.0656632459
v -0.0295965931 -0.00703205371 0.0592945518
v -0.0272760631 0.0063881405 0.0656632459
v -0.0295965931 0.00703142594 0.0592945518
v -0.0272760631 -0.00638876866 0.0656632459
v -0.0295661447 -0.00714440165 0.0592945518
v -0.0272408061 -0.00652648523 0.0656632459
v -0.0272664473 0.00642981805 0.0656632459
v -0.0272408061 0.00652585786 0.0656632459
v -0.0295597352 0.00716914251 0.0592945518
v -0.0295597352 -0.00716795896 0.0592945518
v -0.0271959348 -0.00666420338 0.0656632459
v -0.0295244766 -0.0072803069 0.0592945518
v -0.0295164647 -0.00730567633 0.0592945518
v -0.0272279855 0.00656753541 0.0656632459
v -0.0295164647 0.00730504856 0.0592945518
v -0.0271606777 -0.00675843109 0.0656632459
v -0.0294747966 -0.00741621216 0.0592945518
v -0.0271959348 0.00666357561 0.0656632459
v -0.0295084528 0.00732860509 0.0592945518
v -0.0271446524 -0.00680010864 0.0656632459
v -0.0294651823 -0.00743976948 0.0592945518
v -0.0271815118 0.00670344106 0.0656632459
v -0.0294651823 0.00744095381 0.0592945518
v -0.0271446524 0.00679948087 0.0656632459
v -0.0270853565 -0.0069360139 0.0656632459
v -0.0294074904 -0.00757386264 0.0592945518
v -0.0294074904 0.00757504697 0.0592945518
v -0.0270853565 0.00693538613 0.0656632459
v -0.0270180488 -0.00706829495 0.0656632459
v -0.0293514009 -0.00768439848 0.0592945518
v -0.0293289613 0.00772907246 0.0592945518
v -0.0270661264 0.00697525157 0.0656632459
v -0.026965164 -0.00716071056 0.0656632459
v -0.0293401811 -0.00770614369 0.0592945518
v -0.0292680646 -0.00783661265 0.0592945518
v -0.0270180488 0.00706766718 0.0656632459
v -0.0269443299 0.00719994824 0.0656632459
v -0.0292680646 0.00783598488 0.0592945518
v -0.0269427275 -0.00719876391 0.0656632459
v -0.0291863339 -0.0079616453 0.0592945518
v -0.0268609968 -0.00732742076 0.0656632459
v -0.0268609968 0.00732679299 0.0656632459
v -0.0291863339 0.00796282963 0.0592945518
v -0.0291126151 -0.00806493351 0.0592945518
v -0.0267712511 -0.00745064131 0.0656632459
v -0.0290981937 -0.00808486663 0.0592945518
v -0.0268353556 0.00736303423 0.0656632459
v -0.0291719093 0.00798276275 0.0592945518
v -0.0267712511 0.00745182564 0.0656632459
v -0.0266750974 -0.00757023844 0.0656632459
v -0.0290036408 -0.00820265087 0.0592945518
v -0.0290981937 0.00808423886 0.0592945518
v -0.0267440075 0.00748625557 0.0656632459
v -0.0290036408 0.00820383521 0.0592945518
v -0.0265725326 -0.00768621058 0.0656632459
v -0.028901076 -0.0083168117 0.0592945518
v -0.0266750974 0.00757142277 0.0656632459
v -0.028901076 0.00831618314 0.0592945518
v -0.0266462514 0.00760403981 0.0656632459
v -0.0265725326 0.00768558281 0.0656632459
v -0.0264619543 -0.0077967472 0.0656632459
v -0.0287921001 -0.00842553544 0.0592945518
v -0.0288834467 0.00833430416 0.0592945518
v -0.0264619543 0.00779611943 0.0656632459
v -0.0263786212 -0.00787285389 0.0656632459
v -0.0286783171 -0.00852882365 0.0592945518
v -0.0287921001 0.00842490767 0.0592945518
v -0.0263465689 0.00790121975 0.0656632459
v -0.0287744724 0.00844121658 0.0592945518
v -0.0263465689 -0.00790003542 0.0656632459
v -0.026224774 -0.00799969864 0.0656632459
v -0.028558123 -0.00862667556 0.0592945518
v -0.0263129143 0.00792840049 0.0656632459
v -0.0286606878 0.00854450401 0.0592945518
v -0.0260981704 -0.00809211425 0.0656632459
v -0.0284347257 -0.00871727907 0.0592945518
v -0.026224774 0.00799907087 0.0656632459
v -0.028558123 0.00862604779 0.0592945518
v -0.0260020151 -0.00815553702 0.0656632459
v -0.0283049158 -0.00880063417 0.0592945518
v -0.0261911194 0.0080244403 0.0656632459
v -0.0284347257 0.0087166513 0.0592945518
v -0.0259667597 -0.00817728224 0.0656632459
v -0.0281719026 -0.00887855296 0.0592945518
v -0.0260981704 0.00809148648 0.0656632459
v -0.0284154956 0.00872933522 0.0592945518
v -0.0260645158 0.0081150438 0.0656632459
v -0.0258673996 -0.00823526792 0.0656632459
v -0.0278946566 -0.00899633799 0.0592945518
v -0.0255532942 -0.00839291839 0.0656632459
v -0.0256943208 -0.00832768352 0.0656632459
v -0.0257295778 -0.00830956329 0.0656632459
v -0.0258321426 -0.00825520103 0.0656632459
v -0.0282856857 0.00881269111 0.0592945518
v -0.025933105 0.0081983989 0.0656632459
v -0.0277520292 -0.00905251157 0.0592945518
v -0.0254090628 -0.00844909276 0.0656632459
v -0.0281719026 0.00887792519 0.0592945518
v -0.0258321426 0.00825638537 0.0656632459
v -0.0277167706 -0.00906519628 0.0592945518
v -0.0252648299 -0.00849983081 0.0656632459
v -0.0276093987 -0.00910324963 0.0592945518
v -0.0257968856 0.00827450559 0.0656632459
v -0.0256943208 0.00832705575 0.0656632459
v -0.0255532942 0.00839229062 0.0656632459
v -0.0278946566 0.00899571022 0.0592945518
v -0.0251526509 -0.00853244786 0.0656632459
v -0.027463565 -0.00914492718 0.0592945518
v -0.0255180371 0.00840678665 0.0656632459
v -0.0277520292 0.0090536959 0.0592945518
v -0.0251189962 -0.00854150836 0.0656632459
v -0.0273193336 -0.00917935711 0.0592945518
v -0.0249731625 -0.00857774961 0.0656632459
v -0.0254106652 0.00844846499 0.0656632459
v -0.0276093987 0.00910262186 0.0592945518
v -0.0253754082 0.00846114891 0.0656632459
v -0.0252648299 0.00849920226 0.0656632459
v -0.0272888837 -0.00918660551 0.0592945518
v -0.0248257248 -0.00860674245 0.0656632459
v -0.0274972196 0.00913523968 0.0592945518
v -0.0252311768 0.00851007487 0.0656632459
v -0.0271734983 -0.00920834994 0.0592945518
v -0.0246814935 -0.00862848767 0.0656632459
v -0.027463565 0.00914429941 0.0592945518
v -0.0251189962 0.00854269269 0.0656632459
v -0.027029267 -0.00923009516 0.0592945518
v -0.0245356582 -0.00864298369 0.0656632459
v -0.0268850356 -0.00924459119 0.0592945518
v -0.027349782 0.00917329303 0.0592945518
v -0.0249731625 0.00857712184 0.0656632459
v -0.0273193336 0.00918054144 0.0592945518
v -0.0244218752 -0.0086502321 0.0656632459
v -0.0268609968 -0.00924640329 0.0592945518
v -0.0249411102 0.00858437024 0.0656632459
v -0.0271734983 0.00920772217 0.0592945518
v -0.0248273272 0.00860611468 0.0656632459
v -0.0243930292 -0.0086520442 0.0656632459
v -0.0267440075 -0.0092536517 0.0592945518
v -0.0270565106 0.00922584319 0.0592945518
v -0.0247952765 0.00861155098 0.0656632459
v -0.0224410919 -0.00866835311 0.0656632459
v -0.0266029809 -0.0092572759 0.0592945518
v -0.027029267 0.00922946739 0.0592945518
v -0.0246814935 0.0086278599 0.0656632459
v -0.0175340042 -0.00868284993 0.0656632459
v -0.0143080189 -0.0092554638 0.0592945518
v -0.0269106768 0.00924215132 0.0592945518
v -0.0246510436 0.0086314841 0.0656632459
v -0.0142695571 -0.00863754817 0.0656632459
v -0.0142423135 -0.0092536517 0.0592945518
v -0.0268850356 0.00924396342 0.0592945518
v -0.0245356582 0.00864235592 0.0656632459
v -0.0142134668 -0.00863392397 0.0656632459
v -0.0142086596 -0.0092518396 0.0592945518
v -0.0267440075 0.00925302393 0.0592945518
v -0.0243930292 0.00865141643 0.0656632459
v -0.0141493638 -0.00862667556 0.0656632459
v -0.0141493638 -0.00924459119 0.0592945518
v -0.014239108 0.00925483603 0.0592945518
v -0.0224074372 0.00866772534 0.0656632459
v -0.0141269281 -0.00862305136 0.0656632459
v -0.0140884663 -0.00923371858 0.0592945518
v -0.0141766081 0.00924758762 0.0592945518
v -0.0222920518 0.00866772534 0.0656632459
v -0.0143000062 0.00863873172 0.0656632459
v -0.0142423135 0.00863691962 0.0656632459
v -0.0142134668 0.0086351083 0.0656632459
v -0.0140884663 -0.00861580295 0.0656632459
v -0.0140291713 -0.00921741045 0.0592945518
v -0.0140419918 -0.00860493035 0.0656632459
v -0.0141125051 0.00923852712 0.0592945518
v -0.0141269281 0.00862242359 0.0656632459
v -0.0139714778 -0.00919928944 0.0592945518
v -0.0139586572 -0.00857774961 0.0656632459
v -0.0140516069 0.00922403109 0.0592945518
v -0.0141157099 0.00862061149 0.0656632459
v -0.0140435942 0.00860430258 0.0656632459
v -0.0139137851 -0.009177545 0.0592945518
v -0.0138785288 -0.00854513257 0.0656632459
v -0.0139907087 0.00920591007 0.0592945518
v -0.0139923118 0.00858980576 0.0656632459
v -0.0138576955 -0.00915217558 0.0592945518
v -0.0138576955 -0.00853425996 0.0656632459
v -0.0139314136 0.00918416564 0.0592945518
v -0.0139602603 0.00857893394 0.0656632459
v -0.0138032076 -0.00912137064 0.0592945518
v -0.0138016052 -0.00850345423 0.0656632459
v -0.0138737209 0.00915879622 0.0592945518
v -0.013933016 0.00856806133 0.0656632459
v -0.0137503228 -0.0090887536 0.0592945518
v -0.0137503228 -0.00847264929 0.0656632459
v -0.0138176306 0.00912980338 0.0592945518
v -0.0138801312 0.00854450401 0.0656632459
v -0.0138208361 0.00851551117 0.0656632459
v -0.0137006428 -0.00905432367 0.0592945518
v -0.0137278864 -0.00845815248 0.0656632459
v -0.0137631434 0.00909718555 0.0592945518
v -0.0138016052 0.00850463856 0.0656632459
v -0.0136509628 -0.00901445822 0.0592945518
v -0.0136990404 -0.00843640804 0.0656632459
v -0.013711861 0.00906275641 0.0592945518
v -0.0137278864 0.00845752471 0.0656632459
v -0.0136060907 -0.00897278067 0.0592945518
v -0.0136060907 -0.00835667715 0.0656632459
v -0.0136589755 -0.008403791 0.0656632459
v -0.013662181 0.00902289096 0.0592945518
v -0.0137134634 0.00844665288 0.0656632459
v -0.0136605786 0.00840497533 0.0656632459
v -0.013562821 -0.00892747892 0.0592945518
v -0.0135612186 -0.0083113754 0.0656632459
v -0.0135948725 -0.00834580454 0.0656632459
v -0.0136157065 0.00898302551 0.0592945518
v -0.0136189113 0.0083687333 0.0656632459
v -0.0135211544 -0.00887855296 0.0592945518
v -0.0135355774 -0.00828056967 0.0656632459
v -0.0135724368 0.00893772376 0.0592945518
v -0.0135948725 0.00834517677 0.0656632459
v -0.013484295 -0.00882962701 0.0592945518
v -0.0134826926 -0.00821171138 0.0656632459
v -0.0135355774 0.008281754 0.0656632459
v -0.0135307695 0.0088906099 0.0592945518
v -0.0134490388 -0.00877707685 0.0592945518
v -0.013434615 -0.008137416 0.0656632459
v -0.0134826926 0.00821289571 0.0656632459
v -0.0134923077 0.00884168395 0.0592945518
v -0.0134185896 -0.00872090327 0.0592945518
v -0.0134185896 -0.00810661106 0.0656632459
v -0.0134586538 0.00817665447 0.0656632459
v -0.0134586538 0.00879094589 0.0592945518
v -0.0133897429 -0.00866472891 0.0592945518
v -0.0133945508 -0.00805949721 0.0656632459
v -0.0134362182 0.00813860034 0.0656632459
v -0.0134266023 0.00873658363 0.0592945518
v -0.0133657041 -0.00860493035 0.0592945518
v -0.0133657041 -0.00799245102 0.0656632459
v -0.0134282047 0.00812410431 0.0656632459
v -0.0133977556 0.00868222137 0.0592945518
v -0.0133448708 -0.00854513257 0.0592945518
v -0.013360897 -0.00797795421 0.0656632459
v -0.0133945508 0.00806068154 0.0656632459
v -0.0133737176 0.00862423569 0.0592945518
v -0.0133737176 0.00801175559 0.0656632459
v -0.0133288455 -0.0084835219 0.0592945518
v -0.0133288455 -0.00787104179 0.0656632459
v -0.0133352558 -0.00789459911 0.0656632459
v -0.0133528835 0.00856624923 0.0592945518
v -0.013360897 0.00797913854 0.0656632459
v -0.0133160249 -0.00842191123 0.0592945518
v -0.0133160249 -0.00780943191 0.0656632459
v -0.0133528835 0.00795558122 0.0656632459
v -0.0133352558 0.00850826277 0.0592945518
v -0.013306409 -0.00835848925 0.0592945518
v -0.013306409 -0.00774600914 0.0656632459
v -0.0133352558 0.00789578344 0.0656632459
v -0.013320832 0.00844846499 0.0592945518
v -0.0133016011 -0.00824614053 0.0592945518
v -0.0133016011 -0.00768621058 0.0656632459
v -0.013320832 0.00783598488 0.0656632459
v -0.0133112169 0.00838685432 0.0592945518
v -0.0133160249 0.00780880414 0.0656632459
v -0.0133016011 0.00824732486 0.0592945518
v -0.0133016011 0.00765296577 0.0656632459
v -0.0133032043 0.00832524365 0.0592945518
v -0.0133112169 0.00777618631 0.0656632459
v -0.0133048066 0.00772363615 0.0656632459
f 1 2 3
f 1 3 8
f 1 8 12
f 1 12 16
f 1 16 20
f 1 20 26
f 1 26 31
f 1 31 37
f 1 37 43
f 1 43 47
f 1 47 51
f 1 51 55
f 1 55 59
f 1 59 66
f 1 66 71
f 1 71 76
f 1 76 80
f 1 80 82
f 1 82 86
f 1 86 91
f 1 91 95
f 1 95 97
f 1 97 102
f 1 102 106
f 1 106 110
f 1 110 114
f 1 114 122
f 1 122 126
f 1 126 134
f 1 134 138
f 1 138 143
f 1 143 148
f 1 148 152
f 1 152 157
f 1 157 159
f 1 159 163
f 1 163 167
f 1 167 171
f 1 171 175
f 1 175 179
f 1 179 183
f 1 183 187
f 1 187 191
f 1 191 199
f 1 199 203
f 1 203 208
f 1 208 212
f 1 212 216
f 1 216 220
f 1 220 225
f 1 225 229
f 1 229 234
f 1 234 240
f 1 240 244
f 1 244 249
f 1 249 253
f 1 253 257
f 1 257 261
f 1 261 265
f 1 265 269
f 1 269 274
f 1 274 279
f 1 279 283
f 1 283 287
f 1 287 291
f 1 291 289
f 1 289 284
f 1 284 280
f 1 280 276
f 1 276 271
f 1 271 266
f 1 266 262
f 1 262 258
f 1 258 254
f 1 254 250
f 1 250 246
f 1 246 242
f 1 242 237
f 1 237 231
f 1 231 227
f 1 227 223
f 1 223 218
f 1 218 214
f 1 214 210
f 1 210 206
f 1 206 201
f 1 201 197
f 1 197 190
f 1 190 186
f 1 186 182
f 1 182 178
f 1 178 174
f 1 174 170
f 1 170 166
f 1 166 161
f 1 161 156
f 1 156 154
f 1 154 150
f 1 150 146
f 1 146 140
f 1 140 136
f 1 136 130
f 1 130 128
f 1 128 124
f 1 124 117
f 1 117 112
f 1 112 108
f 1 108 104
f 1 104 100
f 1 100 94
f 1 94 90
f 1 90 84
f 1 84 79
f 1 79 74
f 1 74 72
f 1 72 68
f 1 68 63
f 1 63 62
f 1 62 58
f 1 58 54
f 1 54 49
f 1 49 45
f 1 45 41
f 1 41 40
f 1 40 38
f 1 38 33
f 1 33 29
f 1 29 27
f 1 27 21
f 1 21 17
f 1 17 13
f 1 13 9
f 1 9 4
f 1 4 5
f 1 5 2
f 2 6 3
f 2 5 7
f 2 7 6
f 3 6 8
f 4 9 10
f 4 10 5
f 5 10 7
f 6 11 8
f 6 7 10
f 6 10 14
f 6 14 18
f 6 18 24
f 6 24 23
f 6 23 22
f 6 22 28
f 6 28 32
f 6 32 34
f 6 34 39
f 6 39 44
f 6 44 48
f 6 48 53
f 6 53 57
f 6 57 61
f 6 61 67
f 6 67 69
f 6 69 73
f 6 73 78
f 6 78 83
f 6 83 89
f 6 89 93
f 6 93 98
f 6 98 99
f 6 99 103
f 6 103 107
f 6 107 111
f 6 111 116
f 6 116 121
f 6 121 120
f 6 120 119
f 6 119 118
f 6 118 125
f 6 125 129
f 6 129 135
f 6 135 139
f 6 139 141
f 6 141 147
f 6 147 151
f 6 151 155
f 6 155 160
f 6 160 165
f 6 165 169
f 6 169 173
f 6 173 177
f 6 177 181
f 6 181 185
f 6 185 189
f 6 189 196
f 6 196 198
f 6 198 202
f 6 202 207
f 6 207 211
f 6 211 215
f 6 215 219
f 6 219 224
f 6 224 228
f 6 228 233
f 6 233 232
f 6 232 239
f 6 239 238
f 6 238 243
f 6 243 247
f 6 247 251
f 6 251 255
f 6 255 259
f 6 259 263
f 6 263 267
f 6 267 273
f 6 273 272
f 6 272 277
f 6 277 281
f 6 281 285
f 6 285 290
f 6 290 293
f 6 293 292
f 6 292 288
f 6 288 286
f 6 286 282
f 6 282 278
f 6 278 275
f 6 275 270
f 6 270 268
f 6 268 264
f 6 264 260
f 6 260 256
f 6 256 252
f 6 252 248
f 6 248 245
f 6 245 241
f 6 241 236
f 6 236 235
f 6 235 230
f 6 230 226
f 6 226 222
f 6 222 221
f 6 221 217
f 6 217 213
f 6 213 209
f 6 209 205
f 6 205 204
f 6 204 200
f 6 200 195
f 6 195 194
f 6 194 193
f 6 193 192
f 6 192 188
f 6 188 184
f 6 184 180
f 6 180 176
f 6 176 172
f 6 172 168
f 6 168 164
f 6 164 162
f 6 162 158
f 6 158 153
f 6 153 149
f 6 149 145
f 6 145 144
f 6 144 142
f 6 142 137
f 6 137 133
f 6 133 132
f 6 132 131
f 6 131 127
f 6 127 123
f 6 123 115
f 6 115 113
f 6 113 109
f 6 109 105
f 6 105 101
f 6 101 96
f 6 96 92
f 6 92 88
f 6 88 87
f 6 87 85
f 6 85 81
f 6 81 77
f 6 77 75
f 6 75 70
f 6 70 65
f 6 65 64
f 6 64 60
f 6 60 56
f 6 56 52
f 6 52 50
f 6 50 46
f 6 46 42
f 6 42 36
f 6 36 35
f 6 35 30
f 6 30 25
f 6 25 19
f 6 19 15
f 6 15 11
f 8 11 12
f 9 13 14
f 9 14 10
f 11 15 16
f 11 16 12
f 13 17 14
f 14 17 18
f 15 19 16
f 16 19 20
f 17 21 22
f 17 22 23
f 17 23 24
f 17 24 18
f 19 25 20
f 20 25 26
f 21 27 22
f 22 27 29
f 22 29 28
f 25 30 31
f 25 31 26
f 28 29 32
f 29 33 34
f 29 34 32
f 30 35 31
f 31 35 36
f 31 36 37
f 33 38 34
f 34 38 40
f 34 40 41
f 34 41 39
f 36 42 37
f 37 42 43
f 39 41 44
f 41 45 44
f 42 46 43
f 43 46 47
f 44 45 48
f 45 49 48
f 46 50 47
f 47 50 52
f 47 52 51
f 48 49 54
f 48 54 53
f 51 52 55
f 52 56 55
f 53 54 58
f 53 58 57
f 55 56 60
f 55 60 59
f 57 58 62
f 57 62 63
f 57 63 61
f 59 60 64
f 59 64 65
f 59 65 66
f 61 63 67
f 63 68 69
f 63 69 67
f 65 70 71
f 65 71 66
f 68 72 69
f 69 72 74
f 69 74 73
f 70 75 71
f 71 75 77
f 71 77 76
f 73 74 79
f 73 79 78
f 76 77 80
f 77 81 82
f 77 82 80
f 78 79 83
f 79 84 83
f 81 85 82
f 82 85 87
f 82 87 88
f 82 88 86
f 83 84 89
f 84 90 89
f 86 88 91
f 88 92 91
f 89 90 93
f 90 94 93
f 91 92 95
f 92 96 97
f 92 97 95
f 93 94 98
f 94 99 98
f 94 100 99
f 96 101 102
f 96 102 97
f 99 100 104
f 99 104 103
f 101 105 102
f 102 105 106
f 103 104 107
f 104 108 107
f 105 109 106
f 106 109 110
f 107 108 111
f 108 112 111
f 109 113 110
f 110 113 115
f 110 115 114
f 111 112 116
f 112 117 118
f 112 118 119
f 112 119 120
f 112 120 121
f 112 121 116
f 114 115 122
f 115 123 122
f 117 124 118
f 118 124 125
f 122 123 127
f 122 127 126
f 124 128 125
f 125 128 130
f 125 130 129
f 126 127 131
f 126 131 132
f 126 132 133
f 126 133 134
f 129 130 135
f 130 136 135
f 133 137 134
f 134 137 138
f 135 136 139
f 136 140 141
f 136 141 139
f 137 142 138
f 138 142 144
f 138 144 145
f 138 145 143
f 140 146 141
f 141 146 147
f 143 145 149
f 143 149 153
f 143 153 148
f 146 150 147
f 147 150 154
f 147 154 151
f 148 153 152
f 151 154 156
f 151 156 155
f 152 153 157
f 153 158 159
f 153 159 157
f 155 156 161
f 155 161 160
f 158 162 159
f 159 162 164
f 159 164 163
f 160 161 165
f 161 166 165
f 163 164 168
f 163 168 167
f 165 166 170
f 165 170 169
f 167 168 172
f 167 172 171
f 169 170 173
f 170 174 173
f 171 172 176
f 171 176 175
f 173 174 177
f 174 178 177
f 175 176 180
f 175 180 179
f 177 178 182
f 177 182 181
f 179 180 183
f 180 184 183
f 181 182 185
f 182 186 185
f 183 184 188
f 183 188 187
f 185 186 189
f 186 190 189
f 187 188 192
f 187 192 193
f 187 193 194
f 187 194 195
f 187 195 191
f 189 190 196
f 190 197 198
f 190 198 196
f 191 195 199
f 195 200 199
f 197 201 198
f 198 201 202
f 199 200 204
f 199 204 205
f 199 205 203
f 201 206 202
f 202 206 207
f 203 205 209
f 203 209 208
f 206 210 207
f 207 210 211
f 208 209 213
f 208 213 212
f 210 214 215
f 210 215 211
f 212 213 217
f 212 217 216
f 214 218 219
f 214 219 215
f 216 217 221
f 216 221 222
f 216 222 220
f 218 223 224
f 218 224 219
f 220 222 226
f 220 226 225
f 223 227 228
f 223 228 224
f 225 226 230
f 225 230 229
f 227 231 232
f 227 232 233
f 227 233 228
f 229 230 235
f 229 235 236
f 229 236 234
f 231 237 238
f 231 238 239
f 231 239 232
f 234 236 240
f 236 241 240
f 237 242 238
f 238 242 243
f 240 241 245
f 240 245 244
f 242 246 247
f 242 247 243
f 244 245 248
f 244 248 249
f 246 250 247
f 247 250 251
f 248 252 253
f 248 253 249
f 250 254 251
f 251 254 255
f 252 256 257
f 252 257 253
f 254 258 255
f 255 258 259
f 256 260 261
f 256 261 257
f 258 262 263
f 258 263 259
f 260 264 261
f 261 264 268
f 261 268 265
f 262 266 263
f 263 266 267
f 265 268 270
f 265 270 269
f 266 271 272
f 266 272 273
f 266 273 267
f 269 270 275
f 269 275 274
f 271 276 277
f 271 277 272
f 274 275 278
f 274 278 279
f 276 280 281
f 276 281 277
f 278 282 279
f 279 282 286
f 279 286 283
f 280 284 285
f 280 285 281
f 283 286 288
f 283 288 287
f 284 289 290
f 284 290 285
f 287 288 292
f 287 292 291
f 289 291 290
f 290 291 293
f 291 292 293
