# Derived from Apache-2.0 SO-ARM100 STL; see THIRD_PARTY.md
v -0.000238504593 0.0117794336 0.0059304427
v 0.000790493963 0.0117535968 0.0059304427
v -0.000238504593 0.0117794336 -5.02935472e-05
v -0.00126750315 0.0117136669 0.0059304427
v 0.000790493963 0.0117535968 -5.02935472e-05
v 0.00181668855 0.0116408545 0.0059304427
v -0.00126750315 0.0117136669 -5.02935472e-05
v -0.00228528653 0.0115586462 0.0059304427
v 0.00181668855 0.0116408545 -5.02935472e-05
v 0.0028288643 0.0114412068 0.0059304427
v -0.00228528653 0.0115586462 -5.02935472e-05
v -0.00307596119 0.0113801381 -5.02935472e-05
v -0.00329185464 0.0113190695 0.0059304427
v 0.0028288643 0.0114412068 -5.02935472e-05
v 0.00381860949 0.0111546536 0.0059304427
v -0.003286247 0.011321418 0.000128261685
v -0.00307596119 -0.0118165681 -5.02935472e-05
v -0.0111228981 0.00428207753 0.000950203291
v -0.0166548168 0.00428207753 0.0059298583
v -0.00426477702 0.0109949358 0.0059304427
v 0.00381860949 0.0111546536 -5.02935472e-05
v 0.00478312036 0.0107858929 0.0059304427
v -0.00426477702 0.0109949358 0.000950203291
v -0.00228528653 -0.0119950762 -5.02935472e-05
v -0.00228809032 -0.0119950762 0.0059304427
v -0.00328905077 -0.0117555002 0.0059304427
v -0.003286247 -0.0117555002 0.000128261685
v -0.0166548168 -0.00471850747 0.0059298583
v -0.0111228981 -0.00471850747 0.000950203291
v -0.0106574653 0.00474009267 0.0059304427
v 0.00478312036 0.0107858929 -5.02935472e-05
v 0.00570837846 0.0103349239 0.0059304427
v -0.00126750315 -0.0121500969 -5.02935472e-05
v -0.00126750315 -0.0121500969 0.0059304427
v -0.00426197305 -0.0114337143 0.0059304427
v -0.00426477702 -0.0114313657 0.000950203291
v -0.0106574653 -0.00517417363 0.0059304427
v 0.00570837846 0.0103349239 -5.02935472e-05
v 0.00659438222 0.00980409602 0.0059304427
v -0.000238504593 -0.0122158635 -5.02935472e-05
v -0.000238504593 -0.0122158635 0.0059304427
v 0.00659438222 0.00980409602 -5.02935472e-05
v 0.00742991812 0.0092004557 0.0059304427
v 0.000790493963 -0.0121876774 -5.02935472e-05
v 0.000790493963 -0.0121876774 0.0059304427
v 0.00742991812 0.0092004557 -5.02935472e-05
v 0.00821218123 0.00852870016 0.0059304427
v 0.00181668855 -0.0120772845 -5.02935472e-05
v 0.00181668855 -0.0120772845 0.0059304427
v 0.00821218123 0.00852870016 -5.02935472e-05
v 0.00893276061 0.00778882939 0.0059304427
v 0.0028288643 -0.0118752874 -5.02935472e-05
v 0.0028288643 -0.0118752874 0.0059304427
v 0.00893276061 0.00778882939 -5.02935472e-05
v 0.00958885212 0.0069925879 0.0059304427
v 0.00381860949 -0.0115910836 -5.02935472e-05
v 0.00381860949 -0.0115910836 0.0059304427
v 0.00958885212 0.0069925879 -5.02935472e-05
v 0.0101720448 0.00614232346 0.0059304427
v 0.00478312036 -0.0112223229 -5.02935472e-05
v 0.00478312036 -0.0112223229 0.0059304427
v 0.0101720448 0.00614232346 -5.02935472e-05
v 0.0106795354 0.00524508382 0.0059304427
v 0.00570837846 -0.0107713539 -5.02935472e-05
v 0.00570837846 -0.0107713539 0.0059304427
v 0.0106795354 0.00524508382 -5.02935472e-05
v 0.0111085172 0.00430791431 0.0059304427
v 0.00659438222 -0.0102381774 -5.02935472e-05
v 0.00659438222 -0.0102381774 0.0059304427
v 0.0111085172 0.00430791431 -5.02935472e-05
v 0.0114589935 0.00333786148 0.0059304427
v 0.00742991812 -0.00963688564 -5.02935472e-05
v 0.00742991812 -0.00963688564 0.0059304427
v 0.0114589935 0.00333786148 -5.02935472e-05
v 0.0117225518 0.00233962349 0.0059304427
v 0.00821218123 -0.00896278152 -5.02935472e-05
v 0.00821218123 -0.00896278152 0.0059304427
v 0.0117225518 0.00233962349 -5.02935472e-05
v 0.011899192 0.00132494373 0.0059304427
v 0.00893276061 -0.00822525933 -5.02935472e-05
v 0.00893276061 -0.00822525933 0.0059304427
v 0.011899192 0.00132494373 -5.02935472e-05
v 0.0119889142 0.000296171297 0.0059304427
v 0.00958885212 -0.00742666847 -5.02935472e-05
v 0.00958885212 -0.00742666847 0.0059304427
v 0.0119889142 0.000296171297 -5.02935472e-05
v 0.0119889142 -0.000730252458 0.0059304427
v 0.0101720448 -0.00657640482 -5.02935472e-05
v 0.0101720448 -0.00657640482 0.0059304427
v 0.0119889142 -0.000730252458 -5.02935472e-05
v 0.011899192 -0.0017590248 0.0059304427
v 0.0106795354 -0.00567916478 -5.02935472e-05
v 0.0106795354 -0.00567916478 0.0059304427
v 0.011899192 -0.0017590248 -5.02935472e-05
v 0.0117225518 -0.00277370465 0.0059304427
v 0.0111085172 -0.00474199527 -5.02935472e-05
v 0.0111085172 -0.00474199527 0.0059304427
v 0.0117225518 -0.00277370465 -5.02935472e-05
v 0.0114589935 -0.00377194284 0.0059304427
v 0.0114589935 -0.00377194284 -5.02935472e-05
f 1 2 5
f 1 5 3
f 1 3 7
f 1 7 4
f 1 4 8
f 1 8 13
f 1 13 20
f 1 20 30
f 1 30 37
f 1 37 35
f 1 35 26
f 1 26 25
f 1 25 34
f 1 34 41
f 1 41 45
f 1 45 49
f 1 49 53
f 1 53 57
f 1 57 61
f 1 61 65
f 1 65 69
f 1 69 73
f 1 73 77
f 1 77 81
f 1 81 85
f 1 85 89
f 1 89 93
f 1 93 97
f 1 97 99
f 1 99 95
f 1 95 91
f 1 91 87
f 1 87 83
f 1 83 79
f 1 79 75
f 1 75 71
f 1 71 67
f 1 67 63
f 1 63 59
f 1 59 55
f 1 55 51
f 1 51 47
f 1 47 43
f 1 43 39
f 1 39 32
f 1 32 22
f 1 22 15
f 1 15 10
f 1 10 6
f 1 6 2
f 2 6 9
f 2 9 5
f 3 5 9
f 3 9 14
f 3 14 21
f 3 21 31
f 3 31 38
f 3 38 42
f 3 42 46
f 3 46 50
f 3 50 54
f 3 54 58
f 3 58 62
f 3 62 66
f 3 66 70
f 3 70 74
f 3 74 78
f 3 78 82
f 3 82 86
f 3 86 90
f 3 90 94
f 3 94 98
f 3 98 100
f 3 100 96
f 3 96 92
f 3 92 88
f 3 88 84
f 3 84 80
f 3 80 76
f 3 76 72
f 3 72 68
f 3 68 64
f 3 64 60
f 3 60 56
f 3 56 52
f 3 52 48
f 3 48 44
f 3 44 40
f 3 40 33
f 3 33 24
f 3 24 17
f 3 17 12
f 3 12 11
f 3 11 7
f 4 7 11
f 4 11 8
f 6 10 14
f 6 14 9
f 8 11 12
f 8 12 13
f 10 15 21
f 10 21 14
f 12 16 13
f 12 17 29
f 12 29 18
f 12 18 19
f 12 19 16
f 13 16 20
f 15 22 31
f 15 31 21
f 16 23 20
f 16 19 23
f 17 24 25
f 17 25 26
f 17 26 27
f 17 27 28
f 17 28 29
f 18 29 28
f 18 28 19
f 19 28 37
f 19 37 30
f 19 30 20
f 19 20 23
f 22 32 38
f 22 38 31
f 24 33 25
f 25 33 34
f 26 35 27
f 27 35 36
f 27 36 28
f 28 35 37
f 28 36 35
f 32 39 42
f 32 42 38
f 33 40 41
f 33 41 34
f 39 43 46
f 39 46 42
f 40 44 45
f 40 45 41
f 43 47 50
f 43 50 46
f 44 48 49
f 44 49 45
f 47 51 54
f 47 54 50
f 48 52 53
f 48 53 49
f 51 55 58
f 51 58 54
f 52 56 57
f 52 57 53
f 55 59 62
f 55 62 58
f 56 60 61
f 56 61 57
f 59 63 66
f 59 66 62
f 60 64 65
f 60 65 61
f 63 67 70
f 63 70 66
f 64 68 69
f 64 69 65
f 67 71 74
f 67 74 70
f 68 72 73
f 68 73 69
f 71 75 78
f 71 78 74
f 72 76 77
f 72 77 73
f 75 79 82
f 75 82 78
f 76 80 81
f 76 81 77
f 79 83 86
f 79 86 82
f 80 84 85
f 80 85 81
f 83 87 90
f 83 90 86
f 84 88 89
f 84 89 85
f 87 91 94
f 87 94 90
f 88 92 93
f 88 93 89
f 91 95 98
f 91 98 94
f 92 96 97
f 92 97 93
f 95 99 100
f 95 100 98
f 96 100 99
f 96 99 97
