# Derived from Apache-2.0 SO-ARM100 STL; see THIRD_PARTY.md
v -0.0331649297 0.0157669257 0.0120865734
v -0.0331649297 0.0157661418 0.016535263
v -0.0331649297 0.0157669257 0.0165377986
v -0.0136099506 0.0232380467 0.0123731761
v -0.0134534233 0.0232968933 0.0120865734
v -0.0149968547 0.0157669257 0.0120865734
v -0.0331649297 0.0157661418 0.0335437627
v -0.0150004946 0.0157661418 0.016535263
v -0.0136099506 0.0232380467 0.0158327049
v -0.0134170218 0.0233110162 0.0310099876
v -0.0132968961 0.0233526011 0.012228607
v -0.0132968961 0.0233510317 0.0120865734
v 0.00402301957 0.015782618 0.0120865734
v -0.0151169804 0.0157661418 0.0335437627
v -0.0176942185 0.0170434966 0.0379975234
v -0.017839826 0.0170434966 0.0379949879
v -0.0181601603 0.0170434966 0.0379873781
v -0.0182912066 0.0170434966 0.0379772329
v -0.0186151808 0.0170434966 0.0379518697
v -0.0187353073 0.0170434966 0.0379366519
v -0.0190665614 0.0170434966 0.0378935353
v -0.0191794065 0.0170434966 0.0378757803
v -0.0195070222 0.0170434966 0.0378149088
v -0.0196053062 0.0170434966 0.0377920828
v -0.0199329219 0.0170434966 0.0377134563
v -0.0200275659 0.0170434966 0.0376880947
v -0.0203406203 0.0170434966 0.0375942503
v -0.0204279845 0.0170434966 0.0375638145
v -0.0207264778 0.0170434966 0.0374572893
v -0.0151861435 0.0208583042 0.0374572893
v -0.0152516666 0.021065443 0.0372949653
v -0.0153099092 0.0212584589 0.0371199604
v -0.0153426707 0.0213479046 0.0370261176
v -0.0153681517 0.0214342131 0.036924665
v -0.0153899927 0.0215165974 0.0368232125
v -0.0154191144 0.021594275 0.0367141502
v -0.0154336748 0.0216664591 0.036607625
v -0.0154555159 0.0217355059 0.0364960272
v -0.0154809968 0.0217982751 0.0363818939
v -0.015499198 0.0218555523 0.0362652235
v -0.0155137584 0.0219081213 0.0361434804
v -0.0155319595 0.0219567676 0.0360217373
v -0.0155428801 0.0219983525 0.0358999943
v -0.0155538006 0.0220344453 0.0357731786
v -0.0155574405 0.0220697526 0.0356438274
v -0.0155538006 0.0221027066 0.0355170117
v -0.0155355995 0.02213723 0.035390196
v -0.0155137584 0.0221725373 0.0352557721
v -0.0154773569 0.0222070607 0.0351264194
v -0.0154263942 0.022242368 0.0349970681
v -0.015244386 0.0223694759 0.0345227783
v -0.0146619591 0.0227351072 0.033158243
v -0.0140540513 0.023049739 0.0319813934
v -0.0137409968 0.0231870471 0.0314741323
v -0.0150004946 0.0157661418 0.0333966549
v -0.0125943442 0.0235566011 0.0300918436
v -0.0127581513 0.0235150163 0.030246558
v -0.0130894069 0.023419293 0.0306016419
v -0.013133089 0.0234083089 0.0121728065
v -0.0131367289 0.0234051701 0.0120865734
v 0.00402301957 0.0207798426 0.0120865734
v -0.00534313079 0.0170434966 0.0378123733
v 0.0030765763 0.015782618 0.0146837556
v -0.010002545 0.0157834019 0.0335437627
v -0.00541229385 0.0170434966 0.0379975234
v -0.0146473987 0.0191392082 0.0379975234
v -0.0147347629 0.0194004854 0.0379873781
v -0.0148148465 0.0196594093 0.0379518697
v -0.0148949301 0.0199128412 0.0378935353
v -0.0149713737 0.0201631343 0.0378149088
v -0.0150441767 0.0204055804 0.0377134563
v -0.0151206203 0.0206370424 0.0375942503
v -0.00600928115 0.0206386118 0.0375942503
v -0.00614760804 0.0208583042 0.0374572893
v -0.00629321476 0.021065443 0.0372949653
v -0.006449742 0.0212600283 0.0371199604
v -0.00661354907 0.0214349971 0.036924665
v -0.00678463675 0.021594275 0.0367141502
v -0.012787273 0.0216797981 0.0365898716
v -0.012183005 0.0217025518 0.0365518261
v -0.00696300503 0.0217355059 0.0364960272
v -0.011695223 0.0217998445 0.0363768213
v -0.00714501402 0.0218555523 0.0362652235
v -0.0113348465 0.0219096907 0.0361434804
v -0.00732702222 0.0219567676 0.0360217373
v -0.0141377748 0.0220054139 0.0358771682
v -0.00751267033 0.0220344453 0.0357731786
v -0.00542321437 0.0237810017 0.0292573972
v -0.0107123774 0.0237810017 0.0292573972
v -0.0125288211 0.0235722934 0.0120865734
v -0.0126161853 0.0235511091 0.0120865734
v -0.0127981935 0.0235063854 0.0120865734
v -0.0120847203 0.0236625246 0.0296961787
v -0.0122558088 0.02363114 0.0298128491
v -0.0124268965 0.0235950472 0.0299447374
v -0.0125288211 0.0235722934 0.0161015526
v -0.0129656412 0.0234569552 0.0120865734
v 0.00400845835 0.0210426892 0.0120865734
v -0.00248195914 0.0210426892 0.0299143016
v -0.0024601181 0.0207798426 0.0298889385
v -0.00541229385 0.0186095922 0.0379975234
v -0.00545961585 0.0191423469 0.0379975234
v -0.0054850976 0.0192725936 0.0379949879
v -0.00551421847 0.0194036242 0.0379873781
v -0.00555062074 0.0195323014 0.0379721603
v -0.00558702222 0.019663332 0.0379518697
v -0.00562706362 0.0197888721 0.0379265066
v -0.00567074571 0.0199167639 0.0378935353
v -0.0057180685 0.0200415185 0.0378554898
v -0.00577267033 0.020167057 0.0378149088
v -0.00582727295 0.0202871034 0.0377692552
v -0.00588551548 0.0204071498 0.0377134563
v -0.00319907221 0.0227068614 0.0298737206
v -0.00337380058 0.0229014467 0.0298331396
v -0.0035630894 0.0230795542 0.029787486
v -0.00376693864 0.0232380467 0.0297367597
v -0.0039780685 0.0233769242 0.0296809608
v -0.0042037588 0.02349854 0.0296124811
v -0.004433089 0.023598186 0.0295439998
v -0.00467333973 0.0236782169 0.0294653733
v -0.00491359125 0.0237347102 0.0293842129
v -0.00515748268 0.0237684481 0.0292979782
v -0.0052557666 0.0237762935 0.029272615
v -0.00535405132 0.0237794323 0.0292573972
v 0.00060854271 0.0237810017 0.012687679
v -0.0107123774 0.0237810017 0.012687679
v -0.0108871058 0.0237794323 0.0292624698
v -0.0124414569 0.02359191 0.0121068639
v -0.0123540927 0.0236107395 0.0120865734
v -0.012088361 0.0236625246 0.0120865734
v -0.012183005 0.0236452629 0.0120865734
v -0.0115750972 0.0237339247 0.0294298665
v -0.0117461849 0.0237135243 0.0295034188
v -0.0119136326 0.0236892011 0.0295947261
v -0.0118335491 0.0237025401 0.0120865734
v -0.0123540927 0.0236107395 0.0160914073
v -0.0124414569 0.02359191 0.0160964815
v 0.0039938987 0.0211713665 0.0120865734
v 0.00377548823 0.0211752892 0.012687679
v -0.00252564124 0.0213016132 0.0299295195
v -0.00543777559 0.019009747 0.0379975234
v -0.00542321437 0.0188795003 0.0379975234
v -0.00541593454 0.018745331 0.0379975234
v -0.00258752447 0.021555829 0.0299447374
v -0.00267488787 0.021806906 0.0299447374
v -0.00277681328 0.0220469988 0.0299396648
v -0.00290057895 0.0222792447 0.0299244469
v -0.00304254497 0.0224997226 0.0298990838
v 0.00314209944 0.0226095688 0.012687679
v 0.00327314572 0.0227084308 0.0120865734
v 0.00318214162 0.0228065073 0.0120865734
v 0.00286908714 0.0229014467 0.012687679
v 0.00288000688 0.0230795542 0.0120865734
v 0.00265795649 0.0232380467 0.0120865734
v 0.00242498637 0.0233784936 0.0120865734
v 0.00219929608 0.0233824163 0.012687679
v 0.00195176474 0.0235032482 0.012687679
v 0.0017042334 0.0235997554 0.012687679
v 0.00165327148 0.0236782169 0.0120865734
v 0.00138389909 0.0237347102 0.0120865734
v 0.000888834836 0.0237684481 0.012687679
v -0.00522300503 0.0237739402 0.0292776877
v 0.000877915098 0.023769232 0.012687679
v 0.00110360539 0.0237684481 0.0120865734
v 0.000826953179 0.0237802178 0.0120865734
v -0.0107160173 0.0237802178 0.0120865734
v -0.0111237166 0.0237684481 0.0120865734
v -0.0111892398 0.0237660948 0.012687679
v -0.0110581935 0.0237723708 0.0292827603
v -0.0112292812 0.02376374 0.0293182687
v -0.0114040095 0.0237511864 0.0293639223
v -0.0115314151 0.0237394168 0.0120865734
v -0.0117753065 0.023711171 0.0122818688
v -0.0116042189 0.023730786 0.0120865734
v 0.00397205765 0.0213016132 0.0120865734
v 0.00372816622 0.0214255823 0.012687679
v 0.00369540387 0.0215566129 0.012687679
v 0.00365536326 0.0216852901 0.012687679
v 0.00377912814 0.0219285218 0.0120865734
v 0.0037208864 0.0220485682 0.0120865734
v 0.00344423261 0.0221607677 0.012687679
v 0.00359348003 0.0222800302 0.0120865734
v 0.00330590651 0.022388307 0.012687679
v 0.00322582371 0.022500508 0.012687679
v 0.00336050991 0.0226056461 0.0120865734
v 0.00308385612 0.0229014467 0.0120865734
v 0.00217381512 0.02349854 0.0120865734
v 0.00191900238 0.0235997554 0.0120865734
v -0.0112693233 0.0237613867 0.012611588
v -0.0114040095 0.0237511864 0.0120865734
v 0.00394293521 0.0214287211 0.0120865734
v 0.00391017442 0.0215566129 0.0120865734
v 0.00387377215 0.0216813675 0.0120865734
v 0.00382645015 0.021806906 0.0120865734
v 0.00365900317 0.0221654758 0.0120865734
v 0.00352067706 0.0223914458 0.0120865734
v 0.0034405927 0.022500508 0.0120865734
f 1 2 7
f 1 7 3
f 1 3 9
f 1 9 4
f 1 4 5
f 1 5 12
f 1 12 60
f 1 60 97
f 1 97 92
f 1 92 91
f 1 91 90
f 1 90 129
f 1 129 131
f 1 131 130
f 1 130 135
f 1 135 174
f 1 174 172
f 1 172 190
f 1 190 167
f 1 167 166
f 1 166 165
f 1 165 164
f 1 164 160
f 1 160 159
f 1 159 188
f 1 188 187
f 1 187 155
f 1 155 154
f 1 154 153
f 1 153 186
f 1 186 151
f 1 151 150
f 1 150 185
f 1 185 197
f 1 197 196
f 1 196 182
f 1 182 195
f 1 195 180
f 1 180 179
f 1 179 194
f 1 194 193
f 1 193 192
f 1 192 191
f 1 191 175
f 1 175 138
f 1 138 98
f 1 98 61
f 1 61 13
f 1 13 6
f 1 6 8
f 1 8 2
f 2 8 55
f 2 55 14
f 2 14 7
f 3 7 9
f 4 9 10
f 4 10 5
f 5 10 11
f 5 11 12
f 6 13 8
f 7 14 65
f 7 65 15
f 7 15 16
f 7 16 17
f 7 17 18
f 7 18 19
f 7 19 20
f 7 20 21
f 7 21 22
f 7 22 23
f 7 23 24
f 7 24 25
f 7 25 26
f 7 26 27
f 7 27 28
f 7 28 29
f 7 29 30
f 7 30 31
f 7 31 32
f 7 32 33
f 7 33 34
f 7 34 35
f 7 35 36
f 7 36 37
f 7 37 38
f 7 38 39
f 7 39 40
f 7 40 41
f 7 41 42
f 7 42 43
f 7 43 44
f 7 44 45
f 7 45 46
f 7 46 47
f 7 47 48
f 7 48 49
f 7 49 50
f 7 50 51
f 7 51 52
f 7 52 53
f 7 53 54
f 7 54 10
f 7 10 9
f 8 13 55
f 10 56 57
f 10 57 58
f 10 58 59
f 10 59 11
f 10 54 56
f 11 59 12
f 12 59 60
f 13 61 62
f 13 62 63
f 13 63 55
f 14 55 64
f 14 64 65
f 15 66 16
f 15 65 101
f 15 101 143
f 15 143 142
f 15 142 141
f 15 141 102
f 15 102 66
f 16 66 67
f 16 67 17
f 17 67 18
f 18 67 68
f 18 68 19
f 19 68 20
f 20 68 69
f 20 69 21
f 21 69 22
f 22 69 70
f 22 70 23
f 23 70 24
f 24 70 71
f 24 71 25
f 25 71 26
f 26 71 72
f 26 72 27
f 27 72 28
f 28 72 30
f 28 30 29
f 30 72 73
f 30 73 74
f 30 74 75
f 30 75 31
f 31 75 76
f 31 76 32
f 32 76 33
f 33 76 77
f 33 77 34
f 34 77 35
f 35 77 78
f 35 78 36
f 36 78 79
f 36 79 37
f 37 79 38
f 38 79 80
f 38 80 81
f 38 81 39
f 39 81 82
f 39 82 83
f 39 83 40
f 40 83 84
f 40 84 41
f 41 84 42
f 42 84 85
f 42 85 43
f 43 85 86
f 43 86 44
f 44 86 87
f 44 87 45
f 45 54 52
f 45 52 51
f 45 51 50
f 45 50 47
f 45 47 46
f 45 87 88
f 45 88 54
f 47 50 48
f 48 50 49
f 52 54 53
f 54 88 89
f 54 89 56
f 55 63 64
f 56 90 91
f 56 91 92
f 56 92 57
f 56 89 93
f 56 93 94
f 56 94 95
f 56 95 96
f 56 96 90
f 57 92 58
f 58 92 59
f 59 92 97
f 59 97 60
f 61 98 99
f 61 99 100
f 61 100 62
f 62 101 65
f 62 65 63
f 62 100 101
f 63 65 64
f 66 102 103
f 66 103 67
f 67 103 104
f 67 104 105
f 67 105 68
f 68 105 106
f 68 106 107
f 68 107 69
f 69 107 108
f 69 108 109
f 69 109 70
f 70 109 110
f 70 110 111
f 70 111 71
f 71 111 112
f 71 112 73
f 71 73 72
f 73 112 113
f 73 113 74
f 74 113 114
f 74 114 115
f 74 115 75
f 75 115 76
f 76 115 116
f 76 116 117
f 76 117 77
f 77 117 78
f 78 117 118
f 78 118 81
f 78 81 79
f 79 81 80
f 81 118 119
f 81 119 120
f 81 120 83
f 81 83 82
f 83 85 84
f 83 120 85
f 85 87 86
f 85 120 121
f 85 121 87
f 87 121 122
f 87 122 123
f 87 123 88
f 88 123 124
f 88 124 125
f 88 125 126
f 88 126 89
f 89 126 127
f 89 127 93
f 90 96 137
f 90 137 128
f 90 128 129
f 93 130 131
f 93 131 94
f 93 127 132
f 93 132 133
f 93 133 134
f 93 134 135
f 93 135 130
f 94 131 129
f 94 129 136
f 94 136 95
f 95 136 129
f 95 129 128
f 95 128 137
f 95 137 96
f 98 138 139
f 98 139 99
f 99 139 140
f 99 140 141
f 99 141 142
f 99 142 143
f 99 143 100
f 100 143 101
f 102 141 140
f 102 140 103
f 103 140 144
f 103 144 104
f 104 144 105
f 105 144 145
f 105 145 106
f 106 145 107
f 107 145 146
f 107 146 108
f 108 146 109
f 109 146 147
f 109 147 110
f 110 147 111
f 111 147 148
f 111 148 112
f 112 148 113
f 113 148 149
f 113 149 150
f 113 150 151
f 113 151 114
f 114 151 152
f 114 152 115
f 115 152 153
f 115 153 154
f 115 154 116
f 116 154 155
f 116 155 117
f 117 155 156
f 117 156 157
f 117 157 118
f 118 157 119
f 119 157 158
f 119 158 120
f 120 158 159
f 120 159 160
f 120 160 121
f 121 160 122
f 122 160 161
f 122 161 162
f 122 162 123
f 123 162 163
f 123 163 125
f 123 125 124
f 125 163 164
f 125 164 165
f 125 165 166
f 125 166 126
f 126 166 167
f 126 167 127
f 127 167 168
f 127 168 169
f 127 169 170
f 127 170 132
f 132 170 171
f 132 171 172
f 132 172 173
f 132 173 133
f 133 173 134
f 134 173 135
f 135 173 174
f 138 175 139
f 139 175 140
f 140 175 176
f 140 176 144
f 144 176 177
f 144 177 178
f 144 178 145
f 145 178 179
f 145 179 146
f 146 179 180
f 146 180 181
f 146 181 147
f 147 181 182
f 147 182 183
f 147 183 148
f 148 183 184
f 148 184 149
f 149 184 185
f 149 185 150
f 151 186 152
f 152 186 153
f 155 187 157
f 155 157 156
f 157 187 188
f 157 188 158
f 158 188 159
f 160 164 161
f 161 164 163
f 161 163 162
f 167 189 168
f 167 190 189
f 168 189 170
f 168 170 169
f 170 189 171
f 171 190 172
f 171 189 190
f 172 174 173
f 175 191 176
f 176 191 177
f 177 191 192
f 177 192 193
f 177 193 178
f 178 193 194
f 178 194 179
f 180 195 181
f 181 195 182
f 182 196 183
f 183 196 184
f 184 196 197
f 184 197 185
