# Derived from Apache-2.0 SO-ARM100 STL; see THIRD_PARTY.md
v -0.0250129015 -0.0160802725 0.0120891089
v -0.0250129015 -0.0160802725 0.0349973085
v -0.0149993219 -0.0160802725 0.0120891089
v -0.0152453655 -0.0228066583 0.0120891089
v -0.0250089961 -0.0160802725 0.0351291842
v -0.0152453655 -0.0228066583 0.0345230657
v -0.0154289219 -0.0226792048 0.0349973085
v -0.0116015781 -0.0160802725 0.0366964675
v -0.00527865097 -0.016081069 0.0376601677
v 0.0148773899 -0.0162196763 0.0120891089
v -0.0146634531 -0.0231722928 0.0120891089
v -0.0249933744 -0.0160802725 0.0352610584
v -0.0154757868 -0.0226441552 0.0351266471
v -0.0146634531 -0.0231722928 0.0331586672
v -0.0125857527 -0.0239943711 0.0300925757
v -0.0155578018 -0.0225055494 0.0356465388
v -0.015538274 -0.0225748523 0.0353878615
v -0.0155109362 -0.0226091055 0.0352585213
v -0.0116015781 -0.0160802725 0.0379974637
v -0.00540362549 -0.016081069 0.0379974637
v 0.00166524297 -0.0162188783 0.0379974637
v 0.0148773899 -0.0212174665 0.0120891089
v -0.0140502967 -0.023486945 0.0120891089
v -0.024969942 -0.0160802725 0.0353903971
v -0.0140502967 -0.023486945 0.0319844725
v -0.0134098025 -0.0237474289 0.0310131641
v -0.01308565 -0.0238565618 0.0306048592
v -0.0127536866 -0.0239513551 0.0302498098
v -0.0127536866 -0.0239513551 0.0120891089
v -0.0127029156 -0.0239641003 0.0120891089
v -0.0124178179 -0.0240326067 0.0299480191
v -0.0117382688 -0.0241512989 0.0295067461
v 0.00271581021 -0.0241975009 0.0293317585
v -0.0155538964 -0.0225398026 0.0355172002
v -0.0116015781 -0.0224712962 0.035773342
v -0.015549991 -0.0224712962 0.035773342
v -0.0248332497 -0.0160802725 0.035773342
v -0.0248879285 -0.0160802725 0.0356490744
v -0.0249347934 -0.0160802725 0.0355197373
v -0.0197249206 -0.0160802725 0.0379974637
v 0.00166524297 -0.0190905777 0.0379974637
v 0.00165743216 -0.0193136225 0.0379974637
v 0.0148695791 -0.0214389183 0.0120891089
v -0.0140034319 -0.023506062 0.0120891089
v -0.013733955 -0.0236239578 0.031472189
v -0.0134098025 -0.0237474289 0.0120891089
v -0.0133629376 -0.02376336 0.0120891089
v -0.0120780437 -0.0240987236 0.0120891089
v -0.0122498831 -0.0240676579 0.029816145
v -0.0120780437 -0.0240987236 0.0296994871
v -0.011910109 -0.024126605 0.0295955084
v -0.0120546105 -0.0241035041 0.0120891089
v -0.0116015781 -0.0241616547 0.0120891089
v -0.0113945893 -0.0241879416 0.0120891089
v -0.0116015781 -0.0241672316 0.0294458809
v -0.0108751642 -0.0242158229 0.029260748
v 0.0024971044 -0.0242150265 0.0292658206
v 0.00261036271 -0.0242078566 0.0292911806
v 0.00274314805 -0.0241975009 0.0292835725
v 0.00277048666 -0.0241879416 0.0293571185
v -0.000170319266 -0.022417128 0.0359483295
v -0.000252333944 -0.0224553636 0.0358265991
v 0.00115362906 -0.0233244402 0.0325880539
v -0.0155460848 -0.02245616 0.0358291346
v -0.0247668578 -0.0160802725 0.0359001451
v -0.0201896669 -0.0160802725 0.0379847829
v -0.0146517369 -0.0195756994 0.0379974637
v 0.00165352676 -0.019380536 0.0379974637
v 0.0148422381 -0.0216516074 0.0120891089
v 0.00163399974 -0.0195326834 0.0379974637
v -0.0110157603 -0.0242062637 0.0120891089
v -0.0107970553 -0.0242174159 0.0141027363
v -0.0108517309 -0.0242158229 0.0178713168
v -0.0110470043 -0.0242094496 0.0292835725
v -0.0112188437 -0.0242006868 0.0292835725
v -0.0113945893 -0.0241879416 0.0178713168
v -0.0113945893 -0.0241871451 0.0292835725
v -0.0113906839 -0.0241871451 0.0293697993
v -0.0108087715 -0.0242174159 0.0178713168
v -0.0107072294 -0.0242182124 0.0178713168
v -0.010703324 -0.0242166194 0.0292556754
v 0.00241118471 -0.0242166194 0.0292582125
v 0.00247757738 -0.0242158229 0.029260748
v 0.0116592956 -0.0242126355 0.0120891089
v 0.0117139712 -0.0242086531 0.0120891089
v 0.00280563531 -0.024188738 0.0292835725
v 0.0118545689 -0.0241967044 0.0120891089
v 0.0120576531 -0.0241704175 0.0120891089
v 0.00287593338 -0.0241688246 0.029405303
v -8.830498e-05 -0.0223749085 0.0360675245
v -0.0116015781 -0.0223924341 0.0360218756
v -0.0116015781 -0.0224298732 0.0359128259
v -0.0116015781 -0.0224489917 0.0358519606
v -0.0155265578 -0.0223924341 0.0360218756
v -0.0246926551 -0.0160802725 0.0360244111
v -0.0206309839 -0.0160802725 0.0379518148
v -0.0147493728 -0.0198863691 0.0379797119
v -0.0147337512 -0.0198369797 0.0379847829
v -0.0116015781 -0.0198146753 0.0379873184
v 0.00162618893 -0.0195756994 0.0379974637
v 0.0148188057 -0.0217766714 0.0120891089
v -0.0107072294 -0.0242182124 0.0120891089
v -0.0112188437 -0.0241998903 0.0293190777
v 0.00833966143 -0.0242182124 0.0178713168
v 0.0114679276 -0.0242182124 0.0120891089
v 0.0121943423 -0.0241465201 0.0120891089
v 0.00298919169 -0.0241433326 0.0294610972
v 7.57239844e-05 -0.0222737418 0.0363008418
v -0.00752428601 -0.0223462306 0.0361410705
v -0.0116015781 -0.0223749085 0.03607006
v -0.0155226524 -0.0223749085 0.03607006
v -0.024614547 -0.0160802725 0.0361436061
v -0.0210840171 -0.0160802725 0.0378960206
v -0.0148235763 -0.0201364973 0.0379442066
v -0.0148118601 -0.0200966672 0.0379518148
v -0.0116015781 -0.0198959268 0.0379797119
v 0.00156370166 -0.0198871656 0.0379797119
v 0.00160275571 -0.019719882 0.0379898555
v 0.0147953733 -0.0218634984 0.0120891089
v 0.00514109564 -0.0219288189 0.0302244499
v 0.0122451126 -0.0241369608 0.0120891089
v 0.0123193184 -0.0241210281 0.0120891089
v 0.00321180212 -0.0240780137 0.0295574661
v 0.000185076889 -0.0221964726 0.0364479323
v -0.00780938409 -0.0222570142 0.0363363471
v -0.0154914092 -0.0222745383 0.0363033773
v -0.0154953146 -0.0222928604 0.0362653366
v -0.00994957144 -0.022307995 0.0362298329
v -0.0116015781 -0.0223318924 0.0361740387
v -0.010086263 -0.0223534004 0.0361233187
v -0.0245169088 -0.0160802725 0.0362653366
v -0.0215370504 -0.0160802725 0.037814868
v -0.0149016852 -0.020382643 0.0378858769
v -0.0116015781 -0.0203444059 0.0378960206
v 0.001497309 -0.0201380902 0.0379416695
v 0.00154808004 -0.0199381464 0.0379721021
v 0.00507079757 -0.02215983 0.0302193772
v 0.00511375781 -0.0220275961 0.0302219143
v 0.0147485084 -0.0220315784 0.0120891089
v 0.0123661832 -0.0241090794 0.0120891089
v 0.0125145886 -0.0240700474 0.0120891089
v 0.0126278485 -0.0240357942 0.0120891089
v 0.00335630445 -0.0240238454 0.0296208684
v -0.00796560225 -0.0222155912 0.0364149641
v 0.00343050793 -0.0239927781 0.0296538382
v 0.000239753342 -0.0221534566 0.0365240139
v -0.0116015781 -0.0221869133 0.0364707583
v -0.0154562597 -0.0221717787 0.0364961168
v -0.0244192737 -0.0160802725 0.0363794605
v -0.0219510264 -0.0160802725 0.0377184975
v -0.0149758894 -0.0206248048 0.0378072582
v -0.0116015781 -0.0203834395 0.0378858769
v 0.00141529432 -0.020382643 0.0378833398
v 0.00143872714 -0.0203189155 0.0378985561
v 0.00498487788 -0.0223836713 0.0302041609
v 0.0146508733 -0.0222896729 0.0120891089
v 0.0147328868 -0.0220745944 0.0120891089
v 0.0127840647 -0.0239816259 0.0120891089
v 0.0128231219 -0.0239664913 0.0120891089
v 0.00352814383 -0.0239449833 0.02969695
v 0.000259280365 -0.0221351361 0.0365544465
v -0.0116015781 -0.0221542531 0.036526551
v -0.0154523543 -0.0221542531 0.036526551
v -0.0243060138 -0.0160802725 0.0364961168
v -0.022368911 -0.0160802725 0.0375942299
v -0.0150461875 -0.0208414778 0.0377159604
v 0.00123173794 -0.0208351044 0.0377159604
v 0.00132156343 -0.0206232119 0.0378047227
v 0.00137233447 -0.0204981478 0.0378478361
v 0.00487943038 -0.0225987497 0.0301838735
v 0.0145415188 -0.0225174981 0.0120891089
v 0.0145571405 -0.0224880238 0.0120891089
v 0.0146079139 -0.0223852642 0.0120891089
v 0.012920757 -0.0239266612 0.0120891089
v 0.00363749674 -0.0238876291 0.0297425989
v 0.000395971104 -0.0220148509 0.0367370422
v -0.0116015781 -0.0220156473 0.0367395793
v -0.0116015781 -0.0220857467 0.0366330651
v -0.0154132995 -0.022030782 0.0367167549
v -0.0154093941 -0.0220156473 0.0367395793
v -0.0241888516 -0.0160802725 0.0366077051
v -0.0227594546 -0.0160802725 0.0374547475
v -0.015120391 -0.0210836396 0.0375891588
v -0.0116015781 -0.0208884762 0.0376931375
v 0.00122002172 -0.0208574089 0.0377058167
v 0.00115362906 -0.0209968111 0.0376348077
v 0.00464510374 -0.0229874852 0.0301204712
v 0.00472321262 -0.0228703859 0.0301432957
v 0.00477007826 -0.0228002865 0.0301559764
v 0.00481694312 -0.0227166439 0.0301686572
v 0.0144321675 -0.0226975269 0.0120891089
v 0.0130769763 -0.0238573583 0.0120891089
v 0.0131355574 -0.0238302734 0.0120891089
v 0.00384448555 -0.0237665474 0.0298288242
v 0.000419403925 -0.0219925464 0.0367700119
v -0.0153664346 -0.0218714647 0.0369247122
v -0.0237826833 -0.0160802725 0.0369221751
v -0.0240560647 -0.0160802725 0.0367167549
v -0.0116015781 -0.0219065144 0.0368815988
v -0.0231226636 -0.0160802725 0.0372949747
v -0.0152492709 -0.0214986619 0.0372975118
v -0.0151867837 -0.0212947357 0.0374547475
v 0.00106380357 -0.0211569264 0.0375435099
v -0.0116015781 -0.0210756733 0.0375942299
v 0.00111848002 -0.0210581492 0.0376018396
v 0.00451622381 -0.0231571582 0.0300773594
v 0.0141314482 -0.0230926342 0.0120891089
v 0.0142407995 -0.0229651807 0.0120891089
v 0.0142876644 -0.0229038426 0.0120891089
v 0.0143970189 -0.0227524917 0.0120891089
v 0.013256625 -0.0237673439 0.0120891089
v 0.01332302 -0.0237314978 0.0120891089
v 0.00397727088 -0.0236733471 0.0298795457
v 0.000591243699 -0.0218188894 0.0369830419
v 0.000552189258 -0.0218587195 0.0369373929
v -0.0153625292 -0.021859516 0.0369399285
v -0.0234702477 -0.0160802725 0.0371149161
v -0.0116015781 -0.021859516 0.0369399285
v -0.0153117582 -0.0216946234 0.0371174516
v -0.0152492709 -0.0215018478 0.0372949747
v -0.0116015781 -0.0214898991 0.0373051199
v 0.000876341782 -0.0214580353 0.0373279444
v 0.000981789282 -0.0212971251 0.0374496749
v 0.00437562688 -0.0233188649 0.0300317104
v 0.0139557018 -0.0232718665 0.0120891089
v 0.0140611478 -0.023165123 0.0120891089
v 0.0134050335 -0.0236813119 0.0120891089
v 0.0135534389 -0.0235889081 0.0120891089
v 0.00403585274 -0.0236287382 0.0299023702
v 0.000704502009 -0.0216858606 0.0371225242
v 0.000653730961 -0.0217456042 0.037061659
v -0.0116015781 -0.0217001987 0.037112379
v -0.0153078528 -0.0216866571 0.0371250597
v -0.0116015781 -0.0215448638 0.0372569355
v -0.0116015781 -0.0214994584 0.0372975118
v 0.000845098151 -0.0214986619 0.0372949747
v 0.00421159831 -0.0234773857 0.0299733807
v 0.0137682393 -0.0234319802 0.0120891089
v 0.0138697829 -0.0233483392 0.0120891089
v 0.0135768744 -0.0235729754 0.0120891089
v 0.00413739483 -0.0235435026 0.0299429481
v 0.000739651044 -0.0216420481 0.0371656376
v -0.0116015781 -0.0216866571 0.0371250597
v 0.0136354555 -0.0235307575 0.0120891089
f 1 2 5
f 1 5 12
f 1 12 24
f 1 24 39
f 1 39 38
f 1 38 37
f 1 37 65
f 1 65 95
f 1 95 112
f 1 112 131
f 1 131 149
f 1 149 164
f 1 164 181
f 1 181 198
f 1 198 197
f 1 197 217
f 1 217 200
f 1 200 182
f 1 182 165
f 1 165 150
f 1 150 132
f 1 132 113
f 1 113 96
f 1 96 66
f 1 66 40
f 1 40 19
f 1 19 8
f 1 8 3
f 1 3 10
f 1 10 22
f 1 22 43
f 1 43 69
f 1 69 101
f 1 101 119
f 1 119 139
f 1 139 157
f 1 157 156
f 1 156 173
f 1 173 172
f 1 172 171
f 1 171 191
f 1 191 210
f 1 210 209
f 1 209 208
f 1 208 207
f 1 207 226
f 1 226 225
f 1 225 239
f 1 239 238
f 1 238 244
f 1 244 240
f 1 240 228
f 1 228 227
f 1 227 212
f 1 212 211
f 1 211 193
f 1 193 192
f 1 192 174
f 1 174 159
f 1 159 158
f 1 158 142
f 1 142 141
f 1 141 140
f 1 140 122
f 1 122 121
f 1 121 106
f 1 106 88
f 1 88 87
f 1 87 85
f 1 85 84
f 1 84 105
f 1 105 102
f 1 102 71
f 1 71 54
f 1 54 53
f 1 53 52
f 1 52 48
f 1 48 30
f 1 30 29
f 1 29 47
f 1 47 46
f 1 46 44
f 1 44 23
f 1 23 11
f 1 11 4
f 1 4 6
f 1 6 2
f 2 6 7
f 2 7 5
f 3 8 9
f 3 9 10
f 4 11 14
f 4 14 6
f 5 7 13
f 5 13 12
f 6 14 15
f 6 15 16
f 6 16 17
f 6 17 7
f 7 17 18
f 7 18 13
f 8 19 9
f 9 19 20
f 9 20 10
f 10 20 21
f 10 21 41
f 10 41 22
f 11 23 25
f 11 25 14
f 12 13 18
f 12 18 17
f 12 17 24
f 14 25 26
f 14 26 15
f 15 26 27
f 15 27 28
f 15 28 29
f 15 29 30
f 15 30 31
f 15 31 32
f 15 32 33
f 15 33 16
f 16 34 17
f 16 33 35
f 16 35 36
f 16 36 37
f 16 37 38
f 16 38 39
f 16 39 34
f 17 34 39
f 17 39 24
f 19 40 67
f 19 67 100
f 19 100 70
f 19 70 68
f 19 68 42
f 19 42 41
f 19 41 21
f 19 21 20
f 22 41 42
f 22 42 43
f 23 44 45
f 23 45 25
f 25 45 26
f 26 45 46
f 26 46 47
f 26 47 27
f 27 29 28
f 27 47 29
f 30 48 31
f 31 48 49
f 31 49 32
f 32 49 50
f 32 50 51
f 32 51 52
f 32 52 53
f 32 53 54
f 32 54 55
f 32 55 56
f 32 56 57
f 32 57 33
f 33 57 58
f 33 58 59
f 33 59 60
f 33 60 61
f 33 61 62
f 33 62 63
f 33 63 35
f 35 64 36
f 35 63 62
f 35 62 64
f 36 64 37
f 37 64 65
f 40 66 67
f 42 68 43
f 43 68 70
f 43 70 69
f 44 46 45
f 48 52 49
f 49 52 50
f 50 52 51
f 54 71 72
f 54 72 73
f 54 73 74
f 54 74 75
f 54 75 76
f 54 76 55
f 55 76 77
f 55 77 78
f 55 78 56
f 56 78 74
f 56 74 73
f 56 73 79
f 56 79 80
f 56 80 81
f 56 81 82
f 56 82 57
f 57 82 83
f 57 83 84
f 57 84 58
f 58 84 85
f 58 85 59
f 59 86 60
f 59 85 87
f 59 87 88
f 59 88 86
f 60 86 89
f 60 89 61
f 61 89 90
f 61 90 91
f 61 91 92
f 61 92 93
f 61 93 62
f 62 93 64
f 64 94 65
f 64 93 92
f 64 92 94
f 65 94 95
f 66 96 97
f 66 97 98
f 66 98 67
f 67 98 99
f 67 99 100
f 69 70 100
f 69 100 101
f 71 102 72
f 72 102 79
f 72 79 73
f 74 78 103
f 74 103 75
f 75 103 78
f 75 78 77
f 75 77 76
f 79 102 80
f 80 102 105
f 80 105 104
f 80 104 82
f 80 82 81
f 82 104 105
f 82 105 83
f 83 105 84
f 86 88 89
f 88 106 89
f 89 106 107
f 89 107 90
f 90 107 108
f 90 108 109
f 90 109 110
f 90 110 91
f 91 110 111
f 91 111 94
f 91 94 92
f 94 111 95
f 95 111 112
f 96 113 114
f 96 114 115
f 96 115 97
f 97 115 116
f 97 116 98
f 98 116 99
f 99 116 117
f 99 117 118
f 99 118 100
f 100 118 101
f 101 118 117
f 101 117 120
f 101 120 119
f 106 121 107
f 107 121 122
f 107 122 123
f 107 123 108
f 108 124 125
f 108 125 126
f 108 126 127
f 108 127 128
f 108 128 109
f 108 123 124
f 109 128 127
f 109 127 129
f 109 129 130
f 109 130 111
f 109 111 110
f 111 127 112
f 111 130 129
f 111 129 127
f 112 127 126
f 112 126 131
f 113 132 133
f 113 133 114
f 114 133 134
f 114 134 135
f 114 135 115
f 115 135 136
f 115 136 117
f 115 117 116
f 117 136 135
f 117 135 137
f 117 137 138
f 117 138 120
f 119 120 139
f 120 138 139
f 122 140 123
f 123 140 141
f 123 141 142
f 123 142 143
f 123 143 124
f 124 144 125
f 124 143 145
f 124 145 146
f 124 146 147
f 124 147 144
f 125 144 147
f 125 147 126
f 126 147 148
f 126 148 149
f 126 149 131
f 132 150 151
f 132 151 133
f 133 151 152
f 133 152 134
f 134 152 153
f 134 153 154
f 134 154 135
f 135 154 155
f 135 155 137
f 137 155 156
f 137 156 157
f 137 157 139
f 137 139 138
f 142 158 145
f 142 145 143
f 145 158 159
f 145 159 160
f 145 160 161
f 145 161 146
f 146 161 162
f 146 162 147
f 147 162 163
f 147 163 148
f 148 163 149
f 149 163 164
f 150 165 166
f 150 166 151
f 151 166 167
f 151 167 168
f 151 168 169
f 151 169 152
f 152 169 153
f 153 169 170
f 153 170 155
f 153 155 154
f 155 170 171
f 155 171 172
f 155 172 173
f 155 173 156
f 159 174 160
f 160 174 175
f 160 175 176
f 160 176 161
f 161 176 177
f 161 177 178
f 161 178 162
f 162 178 163
f 163 179 180
f 163 180 181
f 163 181 164
f 163 178 179
f 165 182 183
f 165 183 166
f 166 183 184
f 166 184 185
f 166 185 167
f 167 185 186
f 167 186 187
f 167 187 188
f 167 188 189
f 167 189 168
f 168 189 190
f 168 190 169
f 169 190 170
f 170 190 171
f 171 190 191
f 174 192 175
f 175 192 193
f 175 193 194
f 175 194 195
f 175 195 176
f 176 195 177
f 177 180 179
f 177 179 178
f 177 195 180
f 180 196 197
f 180 197 198
f 180 198 181
f 180 195 199
f 180 199 196
f 182 200 201
f 182 201 202
f 182 202 183
f 183 202 203
f 183 203 204
f 183 204 184
f 184 204 186
f 184 186 185
f 186 205 206
f 186 206 187
f 186 204 205
f 187 206 207
f 187 207 208
f 187 208 188
f 188 208 189
f 189 208 209
f 189 209 210
f 189 210 190
f 190 210 191
f 193 211 194
f 194 211 212
f 194 212 213
f 194 213 214
f 194 214 215
f 194 215 195
f 195 215 199
f 196 199 216
f 196 216 197
f 197 216 217
f 199 218 216
f 199 215 218
f 200 217 201
f 201 219 220
f 201 220 235
f 201 235 221
f 201 221 202
f 201 217 219
f 202 221 222
f 202 222 223
f 202 223 203
f 203 223 224
f 203 224 206
f 203 206 205
f 203 205 204
f 206 224 225
f 206 225 226
f 206 226 207
f 212 227 213
f 213 227 228
f 213 228 229
f 213 229 230
f 213 230 231
f 213 231 214
f 214 231 232
f 214 232 218
f 214 218 215
f 216 219 217
f 216 218 232
f 216 232 219
f 219 232 233
f 219 233 220
f 220 233 234
f 220 234 235
f 221 235 222
f 222 236 237
f 222 237 224
f 222 224 223
f 222 235 236
f 224 237 238
f 224 238 239
f 224 239 225
f 228 240 229
f 229 240 241
f 229 241 242
f 229 242 230
f 230 242 232
f 230 232 231
f 232 242 243
f 232 243 233
f 233 243 234
f 234 243 242
f 234 242 236
f 234 236 235
f 236 242 237
f 237 241 244
f 237 244 238
f 237 242 241
f 240 244 241
