# Derived from Apache-2.0 SO-ARM100 STL; see THIRD_PARTY.md
v -0.0352000006 -0.00451905887 0.0120875945
v -0.0352000006 -0.00451905887 0.0225246427
v -0.0352000006 0.00361298594 0.0120875945
v -0.0149999997 -0.00451905887 0.0120875945
v -0.0352000006 0.00361298594 0.0207641912
v -0.0149999997 -0.00451905887 0.0225246427
v -0.0149999997 0.00361298594 0.0120875945
v -0.0149999997 0.00361298594 0.0207641912
f 1 2 5
f 1 5 3
f 1 3 7
f 1 7 4
f 1 4 6
f 1 6 2
f 2 6 8
f 2 8 5
f 3 5 8
f 3 8 7
f 4 7 8
f 4 8 6
