# Derived from Apache-2.0 SO-ARM100 STL; see THIRD_PARTY.md
v -0.0352000006 -0.0124256259 0.0379999945
v -0.0352000006 -0.0123445738 0.0366546281
v -0.035184756 -0.0127044476 0.0366546281
v -0.035184756 -0.01270769 0.0379999945
v -0.0352000006 -0.0114335415 0.0398050527
v -0.0352000006 0.0103761239 0.0366062064
v -0.0331635535 0.015764508 0.0335440423
v -0.0351786607 -0.0127854996 0.0366546281
v -0.035184756 -0.0116669735 0.0398050527
v -0.0351786607 -0.0127854996 0.0379999945
v -0.0352000006 0.0103761239 0.0398050527
v -0.0352000006 0.0124283788 0.0366062064
v -0.0351359809 0.0131351581 0.0366062064
v -0.0351146409 0.0132583582 0.0366062064
v -0.035062815 0.0134561271 0.0366062064
v -0.0350018429 0.0136830741 0.0366062064
v -0.0349256294 0.0138840862 0.0366062064
v -0.0348433174 0.0140818543 0.0366062064
v -0.0347549101 0.0142666541 0.0366062064
v -0.0347030842 0.0143639169 0.0366062064
v -0.0346482106 0.0144611813 0.0366062064
v -0.0345354126 0.0146330128 0.0366062064
v -0.0343951793 0.0148242975 0.0366062064
v -0.0342793305 0.0149637083 0.0366062064
v -0.0342061678 0.0150447604 0.0366062064
v -0.0341390972 0.0151128458 0.0366062064
v -0.034008007 0.0152360436 0.0366062064
v -0.0338433861 0.0153722143 0.0366062064
v -0.0336848606 0.0154856878 0.0366062064
v -0.033599501 0.0155408034 0.0366062064
v -0.033517189 0.015589434 0.0366062064
v -0.0333891495 0.0156607618 0.0366062064
v -0.0333586604 0.015676971 0.0379999945
v -0.0331635535 0.015764508 0.0379993803
v -0.033005028 0.015822866 0.0335440423
v -0.0151190423 0.015764508 0.0335440423
v -0.0241367256 -0.0160794839 0.0366546281
v -0.032206302 -0.0159497981 0.0366546281
v -0.0323739737 -0.0159433132 0.0366546281
v -0.0326239541 -0.0159108917 0.0366546281
v -0.0327458983 -0.0158881976 0.0366546281
v -0.0328343056 -0.015868746 0.0366546281
v -0.033044657 -0.0158071456 0.0366546281
v -0.0332519608 -0.0157260935 0.0366546281
v -0.0334501216 -0.0156288291 0.0366546281
v -0.0336421808 -0.0155121131 0.0366546281
v -0.0337976555 -0.0154018821 0.0366546281
v -0.0338372877 -0.0153727031 0.0366546281
v -0.0339531365 -0.0152786811 0.0366546281
v -0.0340354453 -0.0152073565 0.0366546281
v -0.0341086112 -0.0151392711 0.0366546281
v -0.0342457968 -0.014999861 0.0366546281
v -0.0343829824 -0.0148409962 0.0366546281
v -0.0344348083 -0.0147729139 0.0366546281
v -0.0345018789 -0.0146756496 0.0366546281
v -0.0346207722 -0.0144973331 0.0366546281
v -0.0347366179 -0.0142995651 0.0366546281
v -0.0348189299 -0.0141374609 0.0366546281
v -0.0349042895 -0.0139429322 0.0366546281
v -0.034980503 -0.0137321974 0.0366546281
v -0.0350414751 -0.0135506385 0.0366546281
v -0.0350689135 -0.013437165 0.0366546281
v -0.0350902534 -0.0133399006 0.0366546281
v -0.0351390285 -0.0131032262 0.0366546281
v -0.0351664669 -0.0129151855 0.0366546281
v -0.0351939053 0.0126196627 0.0366062064
v -0.0351786607 0.0127947367 0.0366062064
v -0.0351512254 0.013041137 0.0366062064
v -0.0351664669 -0.0129216704 0.0379999945
v -0.0351664669 -0.0118712265 0.0398050527
v -0.0150062459 0.0103761239 0.0398050527
v -0.0177042333 0.017041899 0.0379993803
v -0.0321971559 0.015764508 0.0383113586
v -0.0323160493 0.015764508 0.0383095206
v -0.0324715271 0.015764508 0.0382899072
v -0.0325294515 0.015764508 0.0382776474
v -0.0325446929 0.015764508 0.0382739698
v -0.0326544433 0.015764508 0.0382457758
v -0.0327550444 0.015764508 0.0382114519
v -0.0338098524 0.015385181 0.038021446
v -0.0340110578 0.0152198344 0.038021446
v -0.0341451957 0.015093391 0.038021446
v -0.0342092154 0.0150285513 0.038021446
v -0.0342823781 0.0149474968 0.038021446
v -0.0343921285 0.0148145701 0.038021446
v -0.034541511 0.0146135596 0.038021446
v -0.0346482106 0.014448213 0.038021446
v -0.0347030842 0.0143509486 0.038021446
v -0.0347518625 0.0142634116 0.038021446
v -0.0348402698 0.014068886 0.038021446
v -0.0349683092 0.0137673702 0.038021446
v -0.0349987953 0.0136701059 0.038021446
v -0.035062815 0.0134464005 0.038021446
v -0.0351146409 0.0132453899 0.038021446
v -0.0351512254 0.013024927 0.038021446
v -0.0351786607 0.0127785268 0.038021446
v -0.0351939053 0.0126002103 0.038021446
v -0.0351969529 0.0125418523 0.038021446
v -0.0352000006 0.0124154105 0.038021446
v -0.0352000006 0.0124283788 0.0379999945
v -0.0351146409 0.0132583582 0.0379999945
v -0.0351512254 0.0130378953 0.0379999945
v -0.035062815 0.0134561271 0.0379999945
v -0.0349987953 0.0136830741 0.0379999945
v -0.0349683092 0.013777096 0.0379999945
v -0.0349256294 0.0138873271 0.0379999945
v -0.0348433174 0.0140818543 0.0379999945
v -0.0347518625 0.0142763799 0.0379999945
v -0.0347030842 0.0143639169 0.0379999945
v -0.0346482106 0.0144611813 0.0379999945
v -0.034541511 0.014623287 0.0379999945
v -0.0343951793 0.0148242975 0.0379999945
v -0.0342823781 0.0149604659 0.0379999945
v -0.0342092154 0.015041518 0.0379999945
v -0.0341451957 0.0151063609 0.0379999945
v -0.0340110578 0.0152295618 0.0379999945
v -0.0338464338 0.0153689719 0.0379999945
v -0.033690956 0.0154824454 0.0379999945
v -0.033526332 0.0155861915 0.0379999945
v -0.033526332 0.0155732248 0.038021446
v -0.0333556127 0.0156640043 0.038021446
v -0.0331726996 0.0157450564 0.038021446
v -0.0330111265 0.015764508 0.0380919318
v -0.0330111265 0.0158196235 0.0379993803
v -0.0329653958 0.0158358358 0.0379993803
v -0.0329653958 0.0158358358 0.0335440423
v -0.0100035355 0.0157807203 0.0335440423
v -0.0150062459 -0.0160794839 0.0366546281
v -0.0240574629 -0.0160794839 0.0367208236
v -0.0321971559 -0.0159497981 0.0379999945
v -0.0323739737 -0.0159433132 0.0379999945
v -0.0326270049 -0.0159108917 0.0379999945
v -0.0327519967 -0.0158881976 0.0379999945
v -0.0328343056 -0.015868746 0.0379999945
v -0.033044657 -0.0158071456 0.0379999945
v -0.0331208737 -0.0157779666 0.0379999945
v -0.0332489131 -0.0157260935 0.0379999945
v -0.0334501216 -0.0156288291 0.0379999945
v -0.0336421808 -0.0155121131 0.0379999945
v -0.0338007032 -0.0154018821 0.0379999945
v -0.0338372877 -0.0153727031 0.0379999945
v -0.0339561842 -0.0152754387 0.0379999945
v -0.0340262992 -0.0152170807 0.0379999945
v -0.0341055635 -0.0151425135 0.0379999945
v -0.0342427491 -0.014999861 0.0379999945
v -0.0343829824 -0.0148409962 0.0379999945
v -0.0345018789 -0.0146821345 0.0379999945
v -0.0346146737 -0.014510303 0.0379999945
v -0.0347366179 -0.0142995651 0.0379999945
v -0.0348189299 -0.0141439427 0.0379999945
v -0.0348981942 -0.0139494171 0.0379999945
v -0.0349774554 -0.0137419216 0.0379999945
v -0.0350414751 -0.0135506385 0.0379999945
v -0.0350689135 -0.013437165 0.0379999945
v -0.0350902534 -0.0133431431 0.0379999945
v -0.0351359809 -0.013116196 0.0379999945
v -0.0351939053 0.0126099369 0.0379999945
v -0.0351786607 0.0127882526 0.0379999945
v -0.0351298855 -0.0120949311 0.0398050527
v -0.0150062459 -0.0137030184 0.0398050527
v -0.00541238182 0.015764508 0.0379999945
v -0.00540933416 0.017041899 0.0379993803
v -0.0178475174 0.017041899 0.0379963169
v -0.0181645684 0.017041899 0.037988349
v -0.0186188066 0.017041899 0.0379540251
v -0.0190669463 0.017041899 0.0378970228
v -0.0323191001 0.0159493094 0.0379993803
v -0.0324715271 0.0159363395 0.0379993803
v -0.0325355468 0.0159298546 0.0379993803
v -0.0326544433 0.015910403 0.0379993803
v -0.0327489459 0.0158909514 0.0379993803
v -0.0328343056 0.0158714966 0.0379993803
v -0.0328343056 0.015764508 0.038180193
v -0.033690956 0.0154694755 0.038021446
v -0.0329592974 0.015764508 0.03812074
v -0.0328373564 0.0158714966 0.0335440423
v -0.00479352126 0.0157807203 0.0335501722
v -0.0100035355 0.017041899 0.0335440423
v -0.00625683684 -0.0160794839 0.0366999833
v -0.0237769932 -0.0160794839 0.036928605
v -0.0234660391 -0.0160794839 0.0371216759
v -0.0231337451 -0.0160794839 0.0372945191
v -0.0227526728 -0.0160794839 0.0374606214
v -0.0223685528 -0.0160794839 0.0375985296
v -0.0219478484 -0.0160794839 0.0377211131
v -0.0215332424 -0.0160794839 0.0378191818
v -0.0210942488 -0.0160794839 0.0378976355
v -0.0206461075 -0.0160794839 0.0379546378
v -0.0201918709 -0.0160794839 0.037988349
v -0.0201735787 -0.0160794839 0.0379889617
v -0.0197315359 -0.0160794839 0.0379999945
v -0.0321971559 -0.0148734176 0.0398050527
v -0.0323861674 -0.0148636934 0.0398050527
v -0.0325873728 -0.0148442386 0.0398050527
v -0.0326971231 -0.0148215446 0.0398050527
v -0.0327855304 -0.0148020929 0.0398050527
v -0.0329318621 -0.014766429 0.0398050527
v -0.0331208737 -0.0147015861 0.0398050527
v -0.0332763484 -0.0146367432 0.0398050527
v -0.0333556127 -0.0146010824 0.0398050527
v -0.0334714615 -0.0145427244 0.0398050527
v -0.0336421808 -0.0144389751 0.0398050527
v -0.0337427819 -0.0143708929 0.0398050527
v -0.0338129001 -0.0143190167 0.0398050527
v -0.0339561842 -0.0142087856 0.0398050527
v -0.0340781252 -0.014101797 0.0398050527
v -0.034142148 -0.0140401965 0.0398050527
v -0.0343799347 -0.0137743431 0.0398050527
v -0.0344774913 -0.0136446604 0.0398050527
v -0.0345293141 -0.0135733326 0.0398050527
v -0.0346146737 -0.0134436467 0.0398050527
v -0.0346939381 -0.0133139641 0.0398050527
v -0.0347244241 -0.0132588485 0.0398050527
v -0.0348189299 -0.0130805321 0.0398050527
v -0.0348951434 -0.0129087005 0.0398050527
v -0.0349622139 -0.0127303841 0.0398050527
v -0.0349774554 -0.0126882368 0.0398050527
v -0.0350414751 -0.0124937097 0.0398050527
v -0.0350872057 -0.0122991841 0.0398050527
v -0.0150092935 -0.0138197344 0.0398050527
v -0.00541238182 -0.0160794839 0.0379999945
v -0.00540933416 0.015764508 0.0379993803
v -0.00535445898 0.015764508 0.0378498281
v -0.00405576736 0.017041899 0.034283229
v -0.0191827919 0.017041899 0.0378767967
v -0.0195089891 0.017041899 0.0378185691
v -0.0199296935 0.017041899 0.0377180497
v -0.020027247 0.017041899 0.0376904684
v -0.0203412503 0.017041899 0.0375973027
v -0.0207314672 0.017041899 0.0374569437
v -0.0210972965 0.017041899 0.0372975841
v -0.0211674146 0.017041899 0.0372614221
v -0.0214387366 0.017041899 0.0371210616
v -0.0217496923 0.017041899 0.0369273781
v -0.0220301604 0.017041899 0.036720211
v -0.0221582014 0.017041899 0.0366117237
v -0.022280144 0.017041899 0.0365001714
v -0.0223898927 0.017041899 0.0363855542
v -0.0224722032 0.017041899 0.0362899378
v -0.0225850012 0.017041899 0.0361483535
v -0.0226673116 0.017041899 0.0360257684
v -0.0227282837 0.017041899 0.035925249
v -0.0227953526 0.017041899 0.0357996005
v -0.0228502262 0.017041899 0.0356727252
v -0.0228593724 0.017041899 0.0356500468
v -0.0229051014 0.017041899 0.0355213334
v -0.0229355874 0.017041899 0.0354152968
v -0.0229630243 0.017041899 0.0352847453
v -0.0229813149 0.017041899 0.035131514
v -0.0229843642 0.017041899 0.0350236393
v -0.0325355468 0.0159298546 0.0335440423
v -0.0326605386 0.015910403 0.0335440423
v -0.00479352126 0.017041899 0.0335501722
v -0.00454353922 0.017041899 0.0337971804
v -0.00405576736 0.0157807203 0.034283229
v -0.0229843642 0.017041899 0.0335440423
v -0.00528739159 -0.0160794839 0.0376653378
v -0.0247891199 -0.0148961117 0.0398050527
v -0.0150153912 -0.0138748499 0.0398050527
v -0.0150336827 -0.0139753536 0.0398050527
v -0.0150458765 -0.0140337116 0.0398050527
v -0.0150611195 -0.0140920696 0.0398050527
v -0.0150855086 -0.014160155 0.0398050527
v -0.015094654 -0.0141828491 0.0398050527
v -0.0151220916 -0.0142444495 0.0398050527
v -0.0151769652 -0.0143514381 0.0398050527
v -0.0151861113 -0.0143676504 0.0398050527
v -0.0152257427 -0.0144292509 0.0398050527
v -0.015265374 -0.014481124 0.0398050527
v -0.0153080539 -0.0145362395 0.0398050527
v -0.0154360949 -0.014656198 0.0398050527
v -0.0154909685 -0.0146983436 0.0398050527
v -0.0155610859 -0.0147437349 0.0398050527
v -0.0156159603 -0.0147729139 0.0398050527
v -0.015731806 -0.0148183021 0.0398050527
v -0.0160061772 -0.0148961117 0.0398050527
f 1 2 3
f 1 3 4
f 1 4 5
f 1 5 11
f 1 11 99
f 1 99 100
f 1 100 12
f 1 12 6
f 1 6 2
f 2 6 7
f 2 7 3
f 3 8 4
f 3 7 8
f 4 9 5
f 4 8 10
f 4 10 9
f 5 9 70
f 5 70 159
f 5 159 219
f 5 219 218
f 5 218 217
f 5 217 216
f 5 216 215
f 5 215 214
f 5 214 213
f 5 213 212
f 5 212 211
f 5 211 210
f 5 210 209
f 5 209 208
f 5 208 207
f 5 207 206
f 5 206 205
f 5 205 204
f 5 204 203
f 5 203 202
f 5 202 201
f 5 201 200
f 5 200 199
f 5 199 198
f 5 198 197
f 5 197 196
f 5 196 195
f 5 195 194
f 5 194 193
f 5 193 192
f 5 192 258
f 5 258 276
f 5 276 275
f 5 275 274
f 5 274 273
f 5 273 272
f 5 272 271
f 5 271 270
f 5 270 269
f 5 269 268
f 5 268 267
f 5 267 266
f 5 266 265
f 5 265 264
f 5 264 263
f 5 263 262
f 5 262 261
f 5 261 260
f 5 260 259
f 5 259 220
f 5 220 160
f 5 160 71
f 5 71 11
f 6 12 7
f 7 13 14
f 7 14 15
f 7 15 16
f 7 16 17
f 7 17 18
f 7 18 19
f 7 19 20
f 7 20 21
f 7 21 22
f 7 22 23
f 7 23 24
f 7 24 25
f 7 25 26
f 7 26 27
f 7 27 28
f 7 28 29
f 7 29 30
f 7 30 31
f 7 31 32
f 7 32 33
f 7 33 34
f 7 34 35
f 7 35 126
f 7 126 176
f 7 176 252
f 7 252 251
f 7 251 256
f 7 256 178
f 7 178 127
f 7 127 36
f 7 36 128
f 7 128 37
f 7 37 38
f 7 38 39
f 7 39 40
f 7 40 41
f 7 41 42
f 7 42 43
f 7 43 44
f 7 44 45
f 7 45 46
f 7 46 47
f 7 47 48
f 7 48 49
f 7 49 50
f 7 50 51
f 7 51 52
f 7 52 53
f 7 53 54
f 7 54 55
f 7 55 56
f 7 56 57
f 7 57 58
f 7 58 59
f 7 59 60
f 7 60 61
f 7 61 62
f 7 62 63
f 7 63 64
f 7 64 65
f 7 65 8
f 7 12 66
f 7 66 67
f 7 67 68
f 7 68 13
f 8 65 69
f 8 69 10
f 9 10 69
f 9 69 70
f 11 71 162
f 11 162 72
f 11 72 73
f 11 73 74
f 11 74 75
f 11 75 76
f 11 76 77
f 11 77 78
f 11 78 79
f 11 79 80
f 11 80 81
f 11 81 82
f 11 82 83
f 11 83 84
f 11 84 85
f 11 85 86
f 11 86 87
f 11 87 88
f 11 88 89
f 11 89 90
f 11 90 91
f 11 91 92
f 11 92 93
f 11 93 94
f 11 94 95
f 11 95 96
f 11 96 97
f 11 97 98
f 11 98 99
f 12 100 98
f 12 98 66
f 13 101 14
f 13 68 102
f 13 102 101
f 14 101 103
f 14 103 15
f 15 103 16
f 16 104 105
f 16 105 17
f 16 103 104
f 17 106 18
f 17 105 106
f 18 106 107
f 18 107 108
f 18 108 19
f 19 108 20
f 20 109 110
f 20 110 21
f 20 108 109
f 21 110 22
f 22 111 112
f 22 112 23
f 22 110 111
f 23 112 113
f 23 113 24
f 24 113 114
f 24 114 25
f 25 114 26
f 26 114 115
f 26 115 27
f 27 116 117
f 27 117 28
f 27 115 116
f 28 117 118
f 28 118 29
f 29 118 30
f 30 118 119
f 30 119 31
f 31 119 32
f 32 119 33
f 33 119 120
f 33 120 121
f 33 121 34
f 34 121 122
f 34 122 123
f 34 123 124
f 34 124 35
f 35 124 125
f 35 125 126
f 36 127 128
f 37 128 179
f 37 179 257
f 37 257 221
f 37 221 191
f 37 191 190
f 37 190 189
f 37 189 188
f 37 188 187
f 37 187 186
f 37 186 185
f 37 185 184
f 37 184 183
f 37 183 182
f 37 182 181
f 37 181 180
f 37 180 129
f 37 129 130
f 37 130 38
f 38 130 131
f 38 131 39
f 39 131 132
f 39 132 40
f 40 132 133
f 40 133 41
f 41 133 42
f 42 133 134
f 42 134 135
f 42 135 43
f 43 135 136
f 43 136 44
f 44 136 137
f 44 137 138
f 44 138 45
f 45 138 139
f 45 139 46
f 46 139 140
f 46 140 47
f 47 140 48
f 48 140 141
f 48 141 49
f 49 141 142
f 49 142 143
f 49 143 50
f 50 143 51
f 51 143 144
f 51 144 52
f 52 144 145
f 52 145 146
f 52 146 53
f 53 146 54
f 54 146 147
f 54 147 55
f 55 147 56
f 56 147 148
f 56 148 57
f 57 148 149
f 57 149 150
f 57 150 58
f 58 150 59
f 59 150 151
f 59 151 152
f 59 152 60
f 60 152 61
f 61 152 153
f 61 153 154
f 61 154 62
f 62 154 155
f 62 155 63
f 63 155 64
f 64 155 156
f 64 156 69
f 64 69 65
f 66 98 157
f 66 157 158
f 66 158 67
f 67 158 102
f 67 102 68
f 69 156 70
f 70 156 159
f 71 160 221
f 71 221 161
f 71 161 162
f 72 163 74
f 72 74 73
f 72 162 224
f 72 224 254
f 72 254 253
f 72 253 178
f 72 178 256
f 72 256 250
f 72 250 249
f 72 249 248
f 72 248 247
f 72 247 246
f 72 246 245
f 72 245 244
f 72 244 243
f 72 243 242
f 72 242 241
f 72 241 240
f 72 240 239
f 72 239 238
f 72 238 237
f 72 237 236
f 72 236 235
f 72 235 234
f 72 234 233
f 72 233 232
f 72 232 231
f 72 231 230
f 72 230 229
f 72 229 228
f 72 228 227
f 72 227 226
f 72 226 225
f 72 225 166
f 72 166 165
f 72 165 164
f 72 164 163
f 74 163 164
f 74 164 165
f 74 165 75
f 75 165 166
f 75 166 167
f 75 167 168
f 75 168 169
f 75 169 76
f 76 169 77
f 77 169 78
f 78 169 170
f 78 170 79
f 79 170 171
f 79 171 172
f 79 172 173
f 79 173 174
f 79 174 80
f 80 174 118
f 80 118 117
f 80 117 81
f 81 117 116
f 81 116 115
f 81 115 82
f 82 115 114
f 82 114 83
f 83 114 113
f 83 113 84
f 84 113 112
f 84 112 85
f 85 112 86
f 86 112 111
f 86 111 110
f 86 110 87
f 87 110 109
f 87 109 88
f 88 109 108
f 88 108 89
f 89 108 107
f 89 107 90
f 90 107 91
f 91 107 106
f 91 106 105
f 91 105 104
f 91 104 92
f 92 104 93
f 93 104 103
f 93 103 101
f 93 101 94
f 94 101 102
f 94 102 95
f 95 102 96
f 96 102 158
f 96 158 157
f 96 157 97
f 97 157 98
f 98 100 99
f 118 174 120
f 118 120 119
f 120 174 173
f 120 173 175
f 120 175 121
f 121 175 123
f 121 123 122
f 123 175 125
f 123 125 124
f 125 172 176
f 125 176 126
f 125 175 173
f 125 173 172
f 127 177 128
f 127 178 253
f 127 253 177
f 128 177 179
f 129 180 130
f 130 180 181
f 130 181 182
f 130 182 183
f 130 183 184
f 130 184 185
f 130 185 186
f 130 186 187
f 130 187 188
f 130 188 189
f 130 189 190
f 130 190 191
f 130 191 192
f 130 192 131
f 131 192 193
f 131 193 194
f 131 194 132
f 132 194 133
f 133 194 195
f 133 195 196
f 133 196 134
f 134 196 197
f 134 197 135
f 135 197 198
f 135 198 136
f 136 198 137
f 137 198 199
f 137 199 200
f 137 200 138
f 138 200 201
f 138 201 202
f 138 202 139
f 139 202 203
f 139 203 140
f 140 203 204
f 140 204 205
f 140 205 141
f 141 205 142
f 142 205 143
f 143 205 206
f 143 206 144
f 144 206 207
f 144 207 145
f 145 207 208
f 145 208 146
f 146 208 209
f 146 209 147
f 147 209 210
f 147 210 211
f 147 211 148
f 148 211 212
f 148 212 149
f 149 212 213
f 149 213 214
f 149 214 150
f 150 214 215
f 150 215 151
f 151 215 152
f 152 215 216
f 152 216 217
f 152 217 153
f 153 217 218
f 153 218 154
f 154 218 219
f 154 219 155
f 155 219 159
f 155 159 156
f 160 220 221
f 161 221 222
f 161 222 162
f 162 222 223
f 162 223 224
f 166 225 167
f 167 225 226
f 167 226 227
f 167 227 228
f 167 228 229
f 167 229 230
f 167 230 168
f 168 230 231
f 168 231 232
f 168 232 233
f 168 233 234
f 168 234 235
f 168 235 236
f 168 236 237
f 168 237 238
f 168 238 239
f 168 239 240
f 168 240 241
f 168 241 242
f 168 242 169
f 169 242 243
f 169 243 244
f 169 244 245
f 169 245 246
f 169 246 247
f 169 247 248
f 169 248 249
f 169 249 250
f 169 250 256
f 169 256 251
f 169 251 252
f 169 252 170
f 170 252 171
f 171 252 176
f 171 176 172
f 177 253 254
f 177 254 255
f 177 255 179
f 179 255 257
f 191 221 276
f 191 276 258
f 191 258 192
f 220 259 221
f 221 259 260
f 221 260 261
f 221 261 262
f 221 262 263
f 221 263 264
f 221 264 265
f 221 265 266
f 221 266 267
f 221 267 268
f 221 268 269
f 221 269 270
f 221 270 271
f 221 271 272
f 221 272 273
f 221 273 274
f 221 274 275
f 221 275 276
f 221 257 222
f 222 257 223
f 223 255 224
f 223 257 255
f 224 255 254
