# Derived from Apache-2.0 SO-ARM100 STL; see THIRD_PARTY.md
v -0.0149999997 0.00184647953 0.0366532504
v -0.0352000006 0.00184647953 0.0366532504
v -0.0149999997 -0.00451955333 0.0366532504
v -0.0149999997 0.00184647953 0.0290454433
v -0.0352000006 -0.00451955333 0.0366532504
v -0.0352000006 0.00184647953 0.0290454433
v -0.0149999997 -0.0160794824 0.0366508453
v -0.0149999997 -0.00451955333 0.012088977
v -0.0352000006 -0.0123507555 0.0366508453
v -0.0351980243 -0.0124314714 0.0366508453
v -0.0351901161 -0.0127069595 0.0366508453
v -0.0351841842 -0.0127894302 0.0366508453
v -0.0351683646 -0.0129192762 0.0366508453
v -0.0351426606 -0.0131087842 0.0366508453
v -0.035095205 -0.0133439128 0.0366508453
v -0.0350714773 -0.0134404216 0.0366508453
v -0.0350418176 -0.0135474573 0.0366508453
v -0.0349805219 -0.0137457391 0.0366508453
v -0.0349073623 -0.0139440193 0.0366508453
v -0.0348164069 -0.0141475638 0.0366508453
v -0.0347432473 -0.0142967122 0.0366508453
v -0.0346226322 -0.0145020114 0.0366508453
v -0.0345929725 -0.0145511432 0.0366508453
v -0.034507949 -0.0146774813 0.0366508453
v -0.0344387451 -0.0147722353 0.0366508453
v -0.0343853577 -0.0148424226 0.0366508453
v -0.0342528787 -0.0149950821 0.0366508453
v -0.0342093788 -0.0150424576 0.0366508453
v -0.0341124915 -0.0151424758 0.0366508453
v -0.0340393319 -0.0152109084 0.0366508453
v -0.0339562847 -0.0152846068 0.0366508453
v -0.0338020573 -0.0154056806 0.0366508453
v -0.0336458506 -0.0155127164 0.0366508453
v -0.0334520759 -0.0156302807 0.0366508453
v -0.0332523693 -0.0157267879 0.0366508453
v -0.0331238459 -0.0157794307 0.0366508453
v -0.0330447544 -0.0158092601 0.0366508453
v -0.0329419351 -0.0158408442 0.0366508453
v -0.0328490035 -0.0158689188 0.0366508453
v -0.0327481605 -0.0158917292 0.0366508453
v -0.0326255691 -0.0159162958 0.0366508453
v -0.0324199305 -0.0159426157 0.0366508453
v -0.0323704987 -0.0159461252 0.0366508453
v -0.0321945198 -0.0159513895 0.0366508453
v -0.0241390365 -0.0160794824 0.0366508453
v -0.0352000006 -0.00451955333 0.012088977
v -0.0149999997 -0.0160794824 0.012088977
v -0.0352000006 -0.0124297166 0.012088977
v -0.0351940687 -0.0126262421 0.012088977
v -0.0351841842 -0.0127894302 0.012088977
v -0.0351367286 -0.0131438779 0.012088977
v -0.0351209091 -0.0132193295 0.012088977
v -0.0350714773 -0.0134404216 0.012088977
v -0.0350418176 -0.0135562311 0.012088977
v -0.0349805219 -0.0137457391 0.012088977
v -0.0348658387 -0.0140352637 0.012088977
v -0.034810475 -0.0141598471 0.012088977
v -0.0347373154 -0.0143019765 0.012088977
v -0.0346878836 -0.0143967289 0.012088977
v -0.0345929725 -0.0145511432 0.012088977
v -0.0344763131 -0.014719594 0.012088977
v -0.0344328132 -0.0147810075 0.012088977
v -0.0343853577 -0.0148424226 0.012088977
v -0.0342647426 -0.0149827972 0.012088977
v -0.0341975149 -0.0150529861 0.012088977
v -0.0340215361 -0.0152249449 0.012088977
v -0.0339108086 -0.0153232084 0.012088977
v -0.0337723976 -0.0154267362 0.012088977
v -0.0336458506 -0.0155127164 0.012088977
v -0.0334520759 -0.0156302807 0.012088977
v -0.0333492566 -0.0156829204 0.012088977
v -0.033250393 -0.0157285442 0.012088977
v -0.0330447544 -0.0158092601 0.012088977
v -0.0328391159 -0.0158706736 0.012088977
v -0.0326255691 -0.0159162958 0.012088977
v -0.0325464776 -0.0159285776 0.012088977
v -0.0324139986 -0.0159426157 0.012088977
v -0.0323685224 -0.0159461252 0.012088977
v -0.0321945198 -0.0159513895 0.012088977
v -0.0250189308 -0.0160794824 0.034996556
v -0.0250129989 -0.0160794824 0.0351288041
v -0.0249971809 -0.0160794824 0.0352586454
v -0.0249734531 -0.0160794824 0.0353884884
v -0.0249398393 -0.0160794824 0.0355183297
v -0.0248943616 -0.0160794824 0.0356481726
v -0.02483702 -0.0160794824 0.0357732069
v -0.0247737465 -0.0160794824 0.0359006446
v -0.0247005869 -0.0160794824 0.0360232737
v -0.0246155635 -0.0160794824 0.0361410925
v -0.0245206539 -0.0160794824 0.0362637216
v -0.0244217888 -0.0160794824 0.0363791384
v -0.0243090834 -0.0160794824 0.0364969588
v -0.0241904462 -0.0160794824 0.0366051602
v -0.0250189308 -0.0160794824 0.012088977
f 1 2 5
f 1 5 3
f 1 3 7
f 1 7 47
f 1 47 8
f 1 8 4
f 1 4 6
f 1 6 2
f 2 6 46
f 2 46 48
f 2 48 9
f 2 9 5
f 3 5 45
f 3 45 7
f 4 8 46
f 4 46 6
f 5 9 10
f 5 10 11
f 5 11 12
f 5 12 13
f 5 13 14
f 5 14 15
f 5 15 16
f 5 16 17
f 5 17 18
f 5 18 19
f 5 19 20
f 5 20 21
f 5 21 22
f 5 22 23
f 5 23 24
f 5 24 25
f 5 25 26
f 5 26 27
f 5 27 28
f 5 28 29
f 5 29 30
f 5 30 31
f 5 31 32
f 5 32 33
f 5 33 34
f 5 34 35
f 5 35 36
f 5 36 37
f 5 37 38
f 5 38 39
f 5 39 40
f 5 40 41
f 5 41 42
f 5 42 43
f 5 43 44
f 5 44 45
f 7 45 93
f 7 93 92
f 7 92 91
f 7 91 90
f 7 90 89
f 7 89 88
f 7 88 87
f 7 87 86
f 7 86 85
f 7 85 84
f 7 84 83
f 7 83 82
f 7 82 81
f 7 81 80
f 7 80 94
f 7 94 47
f 8 47 94
f 8 94 79
f 8 79 78
f 8 78 77
f 8 77 76
f 8 76 75
f 8 75 74
f 8 74 73
f 8 73 72
f 8 72 71
f 8 71 70
f 8 70 69
f 8 69 68
f 8 68 67
f 8 67 66
f 8 66 65
f 8 65 64
f 8 64 63
f 8 63 62
f 8 62 61
f 8 61 60
f 8 60 59
f 8 59 58
f 8 58 57
f 8 57 56
f 8 56 55
f 8 55 54
f 8 54 53
f 8 53 52
f 8 52 51
f 8 51 50
f 8 50 49
f 8 49 48
f 8 48 46
f 9 48 10
f 10 48 11
f 11 48 49
f 11 49 50
f 11 50 12
f 12 50 13
f 13 50 51
f 13 51 14
f 14 51 15
f 15 51 52
f 15 52 53
f 15 53 16
f 16 53 54
f 16 54 17
f 17 54 18
f 18 54 55
f 18 55 19
f 19 55 56
f 19 56 57
f 19 57 20
f 20 57 21
f 21 57 58
f 21 58 59
f 21 59 22
f 22 59 23
f 23 59 60
f 23 60 24
f 24 60 61
f 24 61 62
f 24 62 25
f 25 62 26
f 26 62 63
f 26 63 64
f 26 64 27
f 27 64 28
f 28 64 65
f 28 65 29
f 29 65 66
f 29 66 30
f 30 66 67
f 30 67 31
f 31 67 32
f 32 67 68
f 32 68 33
f 33 68 69
f 33 69 70
f 33 70 34
f 34 70 71
f 34 71 35
f 35 71 72
f 35 72 36
f 36 72 73
f 36 73 37
f 37 73 38
f 38 73 39
f 39 73 74
f 39 74 40
f 40 74 75
f 40 75 41
f 41 75 76
f 41 76 42
f 42 76 77
f 42 77 78
f 42 78 43
f 43 78 79
f 43 79 44
f 44 79 94
f 44 94 80
f 44 80 81
f 44 81 82
f 44 82 83
f 44 83 84
f 44 84 85
f 44 85 86
f 44 86 87
f 44 87 88
f 44 88 89
f 44 89 90
f 44 90 91
f 44 91 92
f 44 92 93
f 44 93 45
