# Derived from Apache-2.0 SO-ARM100 STL; see THIRD_PARTY.md
v -0.0149999997 0.010378599 0.0366518711
v -0.0149999997 0.00184731371 0.0366518711
v -0.0149999997 0.0157654883 0.036601371
v -0.0352000006 0.010378599 0.0366518711
v -0.0352000006 0.00184731371 0.0366518711
v -0.0149999997 0.00184731371 0.0290454072
v -0.0331653695 0.0157654883 0.036601371
v -0.0149999997 0.0157654883 0.0120865734
v -0.0331792097 0.0157600386 0.036601371
v -0.0333532123 0.0156810209 0.036601371
v -0.0333907802 0.0156633099 0.036601371
v -0.0335232592 0.0155911024 0.036601371
v -0.033604327 0.015542057 0.036601371
v -0.0336873742 0.0154875604 0.036601371
v -0.0338099655 0.0154003675 0.036601371
v -0.0338455572 0.0153731192 0.036601371
v -0.0340156041 0.0152341553 0.036601371
v -0.0341480831 0.0151088163 0.036601371
v -0.0342093788 0.015046146 0.036601371
v -0.0342825384 0.0149657647 0.036601371
v -0.0343912896 0.0148349761 0.036601371
v -0.034539585 0.0146306179 0.036601371
v -0.0346443837 0.0144698553 0.036601371
v -0.0347037 0.0143663134 0.036601371
v -0.0347511555 0.0142832081 0.036601371
v -0.0348480429 0.0140829367 0.036601371
v -0.0349271344 0.0138976522 0.036601371
v -0.0349310901 0.0138881149 0.036601371
v -0.0350022734 0.0136823939 0.036601371
v -0.0350655453 0.0134712232 0.036601371
v -0.0351149771 0.0132614153 0.036601371
v -0.0351387049 0.013127901 0.036601371
v -0.0351545245 0.0130366212 0.036601371
v -0.0351841842 0.0127900285 0.036601371
v -0.0351960481 0.0126115558 0.036601371
v -0.0352000006 0.0124317202 0.036601371
v -0.0352000006 0.00184731371 0.0290454072
v -0.0149999997 0.00361433343 0.0120889801
v -0.0331614139 0.0157654883 0.0120865734
v -0.0331792097 0.0157600386 0.0120865734
v -0.0149999997 0.010379961 0.0120865734
v -0.0333373927 0.0156878326 0.0120865734
v -0.033408576 0.0156537711 0.0120865734
v -0.0334896438 0.0156088134 0.0120865734
v -0.0336142146 0.0155366058 0.0120865734
v -0.0338099655 0.0154003675 0.0120865734
v -0.0338989447 0.0153336096 0.0120865734
v -0.0339167405 0.0153186242 0.0120865734
v -0.0340156041 0.0152341553 0.0120865734
v -0.0341540151 0.0151020046 0.0120865734
v -0.0342706745 0.014976664 0.0120865734
v -0.0343972215 0.0148268016 0.0120865734
v -0.0344901532 0.0147055487 0.0120865734
v -0.0345435407 0.0146265302 0.0120865734
v -0.034640428 0.0144780298 0.0120865734
v -0.0347096319 0.0143567769 0.0120865734
v -0.0348381584 0.0141033725 0.0120865734
v -0.0348579305 0.0140611388 0.0120865734
v -0.0349330663 0.0138772156 0.0120865734
v -0.0349745899 0.0137695869 0.0120865734
v -0.0350141373 0.0136469719 0.0120865734
v -0.0350655453 0.0134603247 0.0120865734
v -0.0350714773 0.0134385268 0.0120865734
v -0.0351070689 0.0132968373 0.0120865734
v -0.0351387049 0.0131183645 0.0120865734
v -0.0351624327 0.0129671393 0.0120865734
v -0.0351841842 0.0127900285 0.0120865734
v -0.0351980243 0.0125516103 0.0120865734
v -0.0352000006 0.0124317202 0.0120865734
v -0.0352000006 0.00361433343 0.0120889801
v -0.0352000006 0.010379961 0.0120865734
f 1 2 6
f 1 6 38
f 1 38 41
f 1 41 8
f 1 8 3
f 1 3 7
f 1 7 4
f 1 4 5
f 1 5 2
f 2 5 37
f 2 37 6
f 3 8 39
f 3 39 7
f 4 7 9
f 4 9 10
f 4 10 11
f 4 11 12
f 4 12 13
f 4 13 14
f 4 14 15
f 4 15 16
f 4 16 17
f 4 17 18
f 4 18 19
f 4 19 20
f 4 20 21
f 4 21 22
f 4 22 23
f 4 23 24
f 4 24 25
f 4 25 26
f 4 26 27
f 4 27 28
f 4 28 29
f 4 29 30
f 4 30 31
f 4 31 32
f 4 32 33
f 4 33 34
f 4 34 35
f 4 35 36
f 4 36 69
f 4 69 71
f 4 71 70
f 4 70 37
f 4 37 5
f 6 37 70
f 6 70 38
f 7 39 40
f 7 40 9
f 8 41 71
f 8 71 69
f 8 69 68
f 8 68 67
f 8 67 66
f 8 66 65
f 8 65 64
f 8 64 63
f 8 63 62
f 8 62 61
f 8 61 60
f 8 60 59
f 8 59 58
f 8 58 57
f 8 57 56
f 8 56 55
f 8 55 54
f 8 54 53
f 8 53 52
f 8 52 51
f 8 51 50
f 8 50 49
f 8 49 48
f 8 48 47
f 8 47 46
f 8 46 45
f 8 45 44
f 8 44 43
f 8 43 42
f 8 42 40
f 8 40 39
f 9 40 10
f 10 40 42
f 10 42 11
f 11 42 43
f 11 43 12
f 12 43 44
f 12 44 45
f 12 45 13
f 13 45 14
f 14 45 46
f 14 46 15
f 15 46 47
f 15 47 16
f 16 47 17
f 17 47 48
f 17 48 49
f 17 49 18
f 18 49 50
f 18 50 19
f 19 50 51
f 19 51 20
f 20 51 52
f 20 52 21
f 21 52 53
f 21 53 22
f 22 53 54
f 22 54 55
f 22 55 23
f 23 55 24
f 24 55 25
f 25 55 56
f 25 56 57
f 25 57 26
f 26 57 58
f 26 58 27
f 27 58 28
f 28 58 59
f 28 59 60
f 28 60 29
f 29 60 61
f 29 61 30
f 30 61 62
f 30 62 63
f 30 63 64
f 30 64 31
f 31 64 32
f 32 64 65
f 32 65 33
f 33 65 66
f 33 66 67
f 33 67 34
f 34 67 35
f 35 67 68
f 35 68 36
f 36 68 69
f 38 70 71
f 38 71 41
